<svg width="22" height="22" viewBox="0 0 22 22" fill="none" xmlns="http://www.w3.org/2000/svg">
<path d="M0.500008 11C0.500008 5.201 5.20101 0.5 11 0.5C16.799 0.5 21.5 5.201 21.5 11C21.5 16.799 16.799 21.5 11 21.5C9.22401 21.5 7.54851 21.0583 6.08001 20.2782L1.93401 21.4573C1.74132 21.5119 1.53754 21.5141 1.34372 21.4636C1.1499 21.4131 0.97307 21.3118 0.831487 21.1702C0.689905 21.0285 0.588707 20.8516 0.538345 20.6578C0.487983 20.4639 0.490283 20.2602 0.545008 20.0675L1.72401 15.9222C0.918249 14.4068 0.497884 12.7163 0.500008 11ZM6.50001 8.75C6.50001 8.94891 6.57903 9.13968 6.71968 9.28033C6.86033 9.42098 7.0511 9.5 7.25001 9.5H14.75C14.9489 9.5 15.1397 9.42098 15.2803 9.28033C15.421 9.13968 15.5 8.94891 15.5 8.75C15.5 8.55109 15.421 8.36032 15.2803 8.21967C15.1397 8.07902 14.9489 8 14.75 8H7.25001C7.0511 8 6.86033 8.07902 6.71968 8.21967C6.57903 8.36032 6.50001 8.55109 6.50001 8.75ZM7.25001 12.5C7.0511 12.5 6.86033 12.579 6.71968 12.7197C6.57903 12.8603 6.50001 13.0511 6.50001 13.25C6.50001 13.4489 6.57903 13.6397 6.71968 13.7803C6.86033 13.921 7.0511 14 7.25001 14H11.75C11.9489 14 12.1397 13.921 12.2803 13.7803C12.421 13.6397 12.5 13.4489 12.5 13.25C12.5 13.0511 12.421 12.8603 12.2803 12.7197C12.1397 12.579 11.9489 12.5 11.75 12.5H7.25001Z" fill="url(#paint0_linear_742_3876)"/>
<defs>
<linearGradient id="paint0_linear_742_3876" x1="11" y1="0.5" x2="11" y2="24.2035" gradientUnits="userSpaceOnUse">
<stop stop-color="#1FBCCB"/>
<stop offset="1" stop-color="#020C0D"/>
</linearGradient>
</defs>
</svg>
