<svg width="24" height="24" viewBox="0 0 24 24" fill="none" xmlns="http://www.w3.org/2000/svg">
<path d="M12 24C8.8174 24 5.76516 22.7357 3.51472 20.4853C1.26428 18.2348 0 15.1826 0 12C0 8.8174 1.26428 5.76516 3.51472 3.51472C5.76516 1.26428 8.8174 0 12 0C15.1826 0 18.2348 1.26428 20.4853 3.51472C22.7357 5.76516 24 8.8174 24 12C24 15.1826 22.7357 18.2348 20.4853 20.4853C18.2348 22.7357 15.1826 24 12 24ZM14.4 21.3C16.2593 20.8183 17.9313 19.79 19.2 18.348V10.8C18.5635 10.8 17.953 10.5471 17.5029 10.0971C17.0529 9.64697 16.8 9.03652 16.8 8.4V3.684C15.6925 3.04697 14.4683 2.63889 13.2 2.484V3.6C13.2 4.23652 12.9471 4.84697 12.4971 5.29706C12.047 5.74714 11.4365 6 10.8 6V7.2C10.8 7.83652 10.5471 8.44697 10.0971 8.89706C9.64697 9.34714 9.03652 9.6 8.4 9.6V12H12C12.6365 12 13.247 12.2529 13.6971 12.7029C14.1471 13.153 14.4 13.7635 14.4 14.4V21.3ZM9.6 21.3V18C8.96348 18 8.35303 17.7471 7.90294 17.2971C7.45286 16.847 7.2 16.2365 7.2 15.6V14.4H6.6C6.12261 14.4 5.66477 14.2104 5.32721 13.8728C4.98964 13.5352 4.8 13.0774 4.8 12.6V9.6H2.7C2.0655 12.0664 2.43576 14.6838 3.72946 16.8775C5.02316 19.0712 7.13455 20.6618 9.6 21.3Z" fill="url(#paint0_linear_742_3845)"/>
<defs>
<linearGradient id="paint0_linear_742_3845" x1="12" y1="0" x2="12" y2="27.0897" gradientUnits="userSpaceOnUse">
<stop stop-color="#1FBCCB"/>
<stop offset="1" stop-color="#020C0D"/>
</linearGradient>
</defs>
</svg>
