<svg width="20" height="20" viewBox="0 0 20 20" fill="none" xmlns="http://www.w3.org/2000/svg">
<path d="M9.40002 16.1607L16.796 8.76472C15.5517 8.2452 14.4216 7.48614 13.47 6.53072C12.5142 5.57893 11.7547 4.44849 11.235 3.20372L3.83902 10.5997C3.26202 11.1767 2.97302 11.4657 2.72502 11.7837C2.43213 12.159 2.18098 12.5651 1.97602 12.9947C1.80302 13.3587 1.67402 13.7467 1.41602 14.5207L0.054019 18.6037C-0.00866732 18.7907 -0.0179678 18.9914 0.0271628 19.1833C0.0722933 19.3753 0.170066 19.5508 0.30949 19.6903C0.448915 19.8297 0.624464 19.9274 0.816406 19.9726C1.00835 20.0177 1.20907 20.0084 1.39602 19.9457L5.47902 18.5837C6.25402 18.3257 6.64102 18.1967 7.00502 18.0237C7.43502 17.8187 7.84102 17.5677 8.21602 17.2747C8.53402 17.0267 8.82302 16.7377 9.40002 16.1607ZM18.848 6.71272C19.5855 5.97529 19.9997 4.97511 19.9997 3.93222C19.9997 2.88933 19.5855 1.88916 18.848 1.15172C18.1106 0.414286 17.1104 7.77013e-09 16.0675 0C15.0246 -7.77013e-09 14.0245 0.414286 13.287 1.15172L12.4 2.03872L12.438 2.14972C12.8751 3.40044 13.5904 4.53562 14.53 5.46972C15.492 6.43742 16.667 7.16683 17.961 7.59972L18.848 6.71272Z" fill="url(#paint0_linear_742_3872)"/>
<defs>
<linearGradient id="paint0_linear_742_3872" x1="9.99938" y1="0" x2="9.99938" y2="22.5756" gradientUnits="userSpaceOnUse">
<stop stop-color="#1FBCCB"/>
<stop offset="1" stop-color="#020C0D"/>
</linearGradient>
</defs>
</svg>
