<svg width="20" height="20" viewBox="0 0 20 20" fill="none" xmlns="http://www.w3.org/2000/svg">
<path fill-rule="evenodd" clip-rule="evenodd" d="M1.464 18.535C2.93 20 5.286 20 10 20C14.714 20 17.071 20 18.535 18.535C20 17.072 20 14.714 20 10C20 5.286 20 2.929 18.535 1.464C17.072 0 14.714 0 10 0C5.286 0 2.929 0 1.464 1.464C0 2.93 0 5.286 0 10C0 14.714 0 17.071 1.464 18.535ZM7.5 6.75C6.85721 6.75 6.22886 6.94061 5.6944 7.29772C5.15994 7.65484 4.74338 8.16242 4.49739 8.75628C4.25141 9.35014 4.18705 10.0036 4.31245 10.634C4.43785 11.2645 4.74738 11.8436 5.2019 12.2981C5.65642 12.7526 6.23552 13.0622 6.86596 13.1876C7.49639 13.313 8.14986 13.2486 8.74372 13.0026C9.33758 12.7566 9.84516 12.3401 10.2023 11.8056C10.5594 11.2711 10.75 10.6428 10.75 10C10.75 9.80109 10.829 9.61032 10.9697 9.46967C11.1103 9.32902 11.3011 9.25 11.5 9.25C11.6989 9.25 11.8897 9.32902 12.0303 9.46967C12.171 9.61032 12.25 9.80109 12.25 10C12.25 10.9395 11.9714 11.8578 11.4495 12.639C10.9275 13.4201 10.1857 14.0289 9.31775 14.3884C8.4498 14.7479 7.49473 14.842 6.57332 14.6587C5.65191 14.4754 4.80554 14.0231 4.14124 13.3588C3.47694 12.6945 3.02455 11.8481 2.84127 10.9267C2.65799 10.0053 2.75206 9.0502 3.11157 8.18225C3.47109 7.3143 4.07991 6.57246 4.86104 6.05052C5.64218 5.52858 6.56054 5.25 7.5 5.25C7.69891 5.25 7.88968 5.32902 8.03033 5.46967C8.17098 5.61032 8.25 5.80109 8.25 6C8.25 6.19891 8.17098 6.38968 8.03033 6.53033C7.88968 6.67098 7.69891 6.75 7.5 6.75ZM15.75 10C15.75 10.862 15.4076 11.6886 14.7981 12.2981C14.1886 12.9076 13.362 13.25 12.5 13.25C12.3011 13.25 12.1103 13.329 11.9697 13.4697C11.829 13.6103 11.75 13.8011 11.75 14C11.75 14.1989 11.829 14.3897 11.9697 14.5303C12.1103 14.671 12.3011 14.75 12.5 14.75C13.4395 14.75 14.3578 14.4714 15.139 13.9495C15.9201 13.4275 16.5289 12.6857 16.8884 11.8177C17.2479 10.9498 17.342 9.99473 17.1587 9.07332C16.9755 8.15191 16.5231 7.30554 15.8588 6.64124C15.1945 5.97694 14.3481 5.52455 13.4267 5.34127C12.5053 5.15799 11.5502 5.25206 10.6823 5.61157C9.8143 5.97109 9.07246 6.57991 8.55052 7.36104C8.02858 8.14217 7.75 9.06054 7.75 10C7.75 10.1989 7.82902 10.3897 7.96967 10.5303C8.11032 10.671 8.30109 10.75 8.5 10.75C8.69891 10.75 8.88968 10.671 9.03033 10.5303C9.17098 10.3897 9.25 10.1989 9.25 10C9.25 9.13805 9.59241 8.3114 10.2019 7.7019C10.8114 7.09241 11.638 6.75 12.5 6.75C13.362 6.75 14.1886 7.09241 14.7981 7.7019C15.4076 8.3114 15.75 9.13805 15.75 10Z" fill="url(#paint0_linear_742_3868)"/>
<defs>
<linearGradient id="paint0_linear_742_3868" x1="10" y1="0" x2="10" y2="22.5748" gradientUnits="userSpaceOnUse">
<stop stop-color="#1FBCCB"/>
<stop offset="1" stop-color="#020C0D"/>
</linearGradient>
</defs>
</svg>
