<svg width="83" height="80" viewBox="0 0 83 80" fill="none" xmlns="http://www.w3.org/2000/svg">
<path d="M82.4799 13.1765L78.0878 8.78431L63.4211 23.3725V0H57.1466V23.3725L42.48 8.78431L38.0878 13.1765L57.1466 32.3137V41.098L42.48 26.5098L25.6956 9.64706V0H19.4211V9.64706L0.362305 28.7843L4.75446 33.1765L19.4211 18.5882V27.3726L0.362305 46.5098L4.75446 50.902L19.4211 36.3137V79.9216H25.6956V36.3137L40.3623 50.902L44.7545 46.5098L25.6956 27.3726V18.5882L38.0878 30.902L39.3427 32.1569L40.3623 33.1765L57.1466 50.0392V79.9216H63.4211V50.0392L82.4799 30.902L78.0878 26.5098L63.4211 41.098V32.3137L82.4799 13.1765Z" fill="url(#paint0_linear_542_43)"/>
<defs>
<linearGradient id="paint0_linear_542_43" x1="41.4211" y1="0" x2="41.4211" y2="90.2105" gradientUnits="userSpaceOnUse">
<stop stop-color="#999999" stop-opacity="0.8"/>
<stop offset="1" stop-color="#020C0D"/>
</linearGradient>
</defs>
</svg>
