<svg width="69" height="68" viewBox="0 0 69 68" fill="none" xmlns="http://www.w3.org/2000/svg">
<path fill-rule="evenodd" clip-rule="evenodd" d="M66.7424 0.742188H22.283V23.0339H44.1592C44.1689 23.0339 44.1786 23.034 44.1883 23.0342H22.2829V44.6084C22.2829 44.9829 22.4316 45.3418 22.6964 45.6066C22.9611 45.8714 23.3202 46.02 23.6945 46.02H45.5706V66.6211C45.5709 66.7602 45.6124 66.8962 45.6896 67.0121C45.7667 67.1279 45.8764 67.2182 46.0049 67.2719C46.1332 67.3259 46.2746 67.3403 46.4114 67.314C46.5481 67.2877 46.6741 67.2216 46.7732 67.1243L68.1536 46.0197H68.154V2.15638C68.1543 1.97078 68.1182 1.78696 68.0472 1.6154C67.9765 1.44381 67.8725 1.28792 67.7414 1.15656C67.6103 1.02521 67.4547 0.921001 67.2831 0.849879C67.1117 0.778782 66.928 0.742188 66.7424 0.742188ZM45.5707 46.0195H45.5708V24.4455C45.5708 24.4389 45.5708 24.4323 45.5707 24.4257V46.0195ZM22.2804 0.742254V23.034H1.42362C1.28348 23.0337 1.14658 22.9917 1.03029 22.9135C0.914008 22.8353 0.823577 22.7243 0.770486 22.5948C0.717394 22.465 0.704034 22.3225 0.732104 22.1852C0.760171 22.0479 0.828403 21.922 0.928132 21.8237L22.2804 0.742254Z" fill="url(#paint0_linear_542_50)"/>
<defs>
<linearGradient id="paint0_linear_542_50" x1="34.4358" y1="0.742187" x2="34.4358" y2="75.8987" gradientUnits="userSpaceOnUse">
<stop stop-color="#999999" stop-opacity="0.8"/>
<stop offset="1" stop-color="#020C0D"/>
</linearGradient>
</defs>
</svg>
