<svg width="62" height="74" viewBox="0 0 62 74" fill="none" xmlns="http://www.w3.org/2000/svg">
<path fill-rule="evenodd" clip-rule="evenodd" d="M3.43861 0.290283H59.2156L59.1445 0.361345C60.9208 0.361345 61.9867 1.78241 61.9867 3.48771V59.2646C61.9867 61.0409 60.9208 62.1068 59.2156 62.1068H21.8415L11.6098 73.1911V62.0357H3.36756C1.66227 62.0357 0.241211 60.9699 0.241211 59.2646V3.41664C0.241211 1.71136 1.66227 0.290283 3.43861 0.290283ZM46.7811 48.6777C48.0602 47.896 49.1259 46.8303 49.8365 45.5514H49.7654C50.4759 44.2723 50.8313 42.7802 50.8313 41.0039C50.8313 38.2328 50.1918 36.0302 48.9128 34.3249C47.5628 32.6906 45.7865 31.5539 43.5127 30.9143C45.319 30.142 46.8184 28.7926 47.7759 27.0774C48.6996 25.3722 49.197 23.5959 49.197 21.7485C49.2285 19.2382 48.373 16.7974 46.7811 14.8562C45.9996 13.9325 45.0048 13.1509 43.9391 12.5825C42.8022 11.9431 41.5944 11.6588 40.1733 11.6588H11.6098V51.4488H36.7627C38.6811 51.4488 40.5285 51.0936 42.2338 50.6673C43.9391 50.3119 45.4311 49.5303 46.7811 48.6777ZM22.2676 35.1065H37.0467C37.8994 35.1065 38.5388 35.5328 39.1073 36.2433C39.6354 36.9901 39.9094 37.8868 39.8888 38.8013C39.8888 39.8671 39.5336 40.7198 38.9651 41.2881C38.3257 41.8565 37.544 42.2118 36.6914 42.2118H22.2676V35.1065ZM38.4677 23.9511C38.4677 25.159 38.1836 26.0827 37.544 26.509C36.9757 26.9353 36.2651 27.2907 35.5547 27.2907H22.2676V20.8958H35.8388C36.5494 20.8958 37.1888 21.1801 37.6862 21.6064C38.1836 22.1038 38.4677 22.8853 38.4677 23.9511Z" fill="url(#paint0_linear_542_58)"/>
<defs>
<linearGradient id="paint0_linear_542_58" x1="31.1139" y1="0.290283" x2="31.1139" y2="82.5762" gradientUnits="userSpaceOnUse">
<stop stop-color="#999999" stop-opacity="0.8"/>
<stop offset="1" stop-color="#020C0D"/>
</linearGradient>
</defs>
</svg>
