<svg width="81" height="80" viewBox="0 0 81 80" fill="none" xmlns="http://www.w3.org/2000/svg">
<path fill-rule="evenodd" clip-rule="evenodd" d="M0.538086 39.8439C0.538086 17.8738 18.4132 0 40.3833 0C62.3527 0 80.2298 17.8738 80.2304 39.8439C80.2304 61.8166 62.3527 79.6898 40.3833 79.6898C18.4132 79.6898 0.538086 61.8166 0.538086 39.8439ZM2.36508 39.8439C2.36508 60.8078 19.4207 77.8634 40.3833 77.8634C61.3452 77.8634 78.3996 60.8078 78.3996 39.8439C78.3996 18.8813 61.3452 1.82699 40.3833 1.82699C19.42 1.82699 2.36508 18.8813 2.36508 39.8439ZM63.4586 38.1191C63.4586 33.8947 61.9412 30.9692 60.6397 28.6921C60.5056 28.4742 60.3722 28.2589 60.2401 28.0458C58.6654 25.5049 57.2829 23.2742 57.2829 20.6765C57.2829 17.5344 59.666 14.6095 63.0228 14.6095C63.1206 14.6095 63.2151 14.6174 63.3095 14.6252C63.3614 14.6295 63.4133 14.6338 63.4657 14.6368C57.3844 9.06544 49.2823 5.66382 40.3834 5.66382C28.442 5.66382 17.936 11.7906 11.8241 21.0706C12.626 21.0947 13.3818 21.1116 14.0238 21.1116C17.599 21.1116 23.1334 20.6778 23.1334 20.6778C24.976 20.5692 25.1932 23.2755 23.3525 23.4934C23.3525 23.4934 21.5008 23.7113 19.4403 23.8193L31.8878 60.8436L39.3681 38.4092L34.0426 23.818C32.202 23.71 30.4582 23.4921 30.4582 23.4921C28.6163 23.3841 28.8322 20.5679 30.6742 20.6765C30.6742 20.6765 36.319 21.1103 39.6777 21.1103C43.2523 21.1103 48.7873 20.6765 48.7873 20.6765C50.6312 20.5679 50.8478 23.2742 49.0065 23.4921C49.0065 23.4921 47.1509 23.71 45.0943 23.818L57.4468 60.562L60.8563 49.1689C60.9464 48.8806 61.0352 48.5973 61.1224 48.3188L61.1257 48.3085C62.4685 44.0237 63.4586 40.8647 63.4586 38.1191ZM6.20215 39.8442C6.20215 53.374 14.0649 65.0663 25.4665 70.6071L9.16149 25.9333C7.26491 30.1844 6.20215 34.8888 6.20215 39.8442ZM30.7274 72.635L40.9831 42.834L51.491 71.6191C51.5593 71.7882 51.6426 71.9437 51.7343 72.09C48.1811 73.3394 44.3639 74.0276 40.3834 74.0276C37.0279 74.0276 33.7896 73.5352 30.7274 72.635ZM70.3761 23.4446C70.5231 24.5334 70.6063 25.7021 70.6063 26.9594C70.6063 30.428 69.9585 34.3272 68.0073 39.2026L57.5663 69.39C67.7283 63.4641 74.5634 52.4547 74.5634 39.8446C74.5641 33.9018 73.046 28.3135 70.3761 23.4446Z" fill="url(#paint0_linear_542_67)"/>
<defs>
<linearGradient id="paint0_linear_542_67" x1="40.3843" y1="0" x2="40.3843" y2="89.9489" gradientUnits="userSpaceOnUse">
<stop stop-color="#999999" stop-opacity="0.8"/>
<stop offset="1" stop-color="#020C0D"/>
</linearGradient>
</defs>
</svg>
