<svg width="61" height="80" viewBox="0 0 61 80" fill="none" xmlns="http://www.w3.org/2000/svg">
<path fill-rule="evenodd" clip-rule="evenodd" d="M47.6894 52.7426C44.6535 50.7903 40.7529 49.2303 35.897 47.9505L22.2128 44.8353C11.1986 42.3878 2.7433 36.4913 2.7433 23.9195C2.7433 19.1379 4.29939 14.3562 7.18939 10.5744C7.19049 10.5356 7.19171 10.4968 7.19305 10.4579C11.977 4.22771 20.2098 0.445068 30.2227 0.445068C47.6896 0.445068 57.7025 9.67916 60.2613 22.5846H44.4632C42.6831 17.467 38.3443 13.4618 30.4451 13.4618C21.8786 13.5731 16.0934 18.4683 15.7596 26.256C15.4978 26.1116 15.2416 25.9609 14.991 25.8042C18.0536 27.9297 22.0185 29.5799 26.8855 30.8173L40.7922 34.0437C53.2527 36.9363 60.818 44.0566 60.818 55.627C60.9292 60.6334 59.2604 65.5286 56.2566 69.5337C56.2566 64.8918 55.2896 61.1094 53.2048 57.9997C55.28 61.1051 56.2561 64.8924 56.2561 69.5339C51.2497 75.8754 42.6831 79.3241 32.559 79.3241C15.5371 79.3241 3.41041 70.869 0.851562 56.2947H17.2059C19.3198 62.97 24.8825 66.0851 32.4477 66.0851C41.4566 66.1963 47.5745 61.3041 47.6894 52.7426Z" fill="url(#paint0_linear_542_77)"/>
<defs>
<linearGradient id="paint0_linear_542_77" x1="30.8374" y1="0.445068" x2="30.8374" y2="89.4789" gradientUnits="userSpaceOnUse">
<stop stop-color="#999999" stop-opacity="0.8"/>
<stop offset="1" stop-color="#020C0D"/>
</linearGradient>
</defs>
</svg>
