<svg width="79" height="80" viewBox="0 0 79 80" fill="none" xmlns="http://www.w3.org/2000/svg">
<path d="M39.3845 0.83374H0.526245V79.049H39.3845C58.8186 79.049 78.2418 61.5389 78.2418 39.9468C78.2418 18.3547 58.8186 0.83374 39.3845 0.83374ZM39.3845 57.7117C35.8699 57.7104 32.4345 56.6669 29.5128 54.713C26.5912 52.7592 24.3146 49.983 22.9708 46.7353C21.627 43.4877 21.2764 39.9145 21.9633 36.4676C22.6503 33.0207 24.3439 29.8548 26.83 27.3705C29.3163 24.886 32.4833 23.1947 35.9307 22.5102C39.3781 21.8258 42.951 22.179 46.1978 23.5252C49.4445 24.8712 52.2191 27.1499 54.1707 30.073C56.1224 32.996 57.1635 36.4321 57.1623 39.9468C57.1624 42.2809 56.7025 44.592 55.809 46.7483C54.9155 48.9045 53.6059 50.8635 51.9548 52.5134C50.3038 54.1632 48.3438 55.4714 46.187 56.3635C44.03 57.2554 41.7185 57.7136 39.3845 57.7117Z" fill="url(#paint0_linear_542_86)"/>
<defs>
<linearGradient id="paint0_linear_542_86" x1="39.384" y1="0.83374" x2="39.384" y2="89.1183" gradientUnits="userSpaceOnUse">
<stop stop-color="#999999" stop-opacity="0.8"/>
<stop offset="1" stop-color="#020C0D"/>
</linearGradient>
</defs>
</svg>
