<svg width="81" height="80" viewBox="0 0 81 80" fill="none" xmlns="http://www.w3.org/2000/svg">
<path fill-rule="evenodd" clip-rule="evenodd" d="M79.5114 41.6444L73.6114 35.7333C73.143 35.264 72.8799 34.6276 72.8803 33.9644V26.7289C72.8803 20.0422 72.1848 17.6178 70.8803 15.1733C69.6054 12.7592 67.6341 10.7841 65.2225 9.50445C62.7848 8.19556 60.3648 7.5 53.6936 7.5H44.1492C44.0505 7.49947 43.9543 7.4698 43.8725 7.41467C43.7908 7.35956 43.727 7.28149 43.6894 7.19027C43.6519 7.09904 43.6423 6.99876 43.6616 6.90202C43.681 6.80531 43.7283 6.71647 43.7981 6.64667L49.6981 0.733333C50.1648 0.264445 50.8003 0 51.4625 0H54.7803C63.6759 0 66.9025 0.928889 70.1559 2.67111C73.371 4.37793 75.9988 7.01191 77.6981 10.2311C79.4381 13.4911 80.3648 16.7244 80.3648 25.6378V41.2933C80.3648 41.3922 80.3352 41.4887 80.2803 41.5709C80.2254 41.6531 80.1474 41.7171 80.0561 41.7549C79.9648 41.7927 79.8643 41.8027 79.7674 41.7833C79.6703 41.764 79.5814 41.7142 79.5114 41.6444ZM38.8092 79.1489L44.7092 73.2356C45.1759 72.7667 45.8114 72.5022 46.4736 72.5022H53.6936C60.3648 72.5022 62.7825 71.8067 65.2225 70.4978C67.6341 69.2182 69.6054 67.2431 70.8803 64.8289C72.1848 62.3844 72.8803 59.96 72.8803 53.2733V43.7089C72.8808 43.6104 72.9103 43.5144 72.9652 43.4329C73.0201 43.3511 73.0976 43.2876 73.1885 43.2498C73.2794 43.212 73.3794 43.202 73.4759 43.2207C73.5725 43.2396 73.6614 43.2864 73.7314 43.3556L79.6336 49.2689C80.1003 49.7378 80.3648 50.3756 80.3648 51.0378V54.3644C80.3648 63.2778 79.4381 66.5111 77.6981 69.7711C75.9988 72.9902 73.371 75.6242 70.1559 77.3311C66.9025 79.0711 63.6759 80 54.7803 80H39.1603C39.0616 79.9996 38.9654 79.9698 38.8836 79.9147C38.8019 79.8596 38.7381 79.7816 38.7005 79.6902C38.663 79.5991 38.6534 79.4987 38.6728 79.402C38.6921 79.3053 38.7394 79.2187 38.8092 79.1489ZM1.3892 38.3533L7.29364 44.2667C7.76031 44.7356 8.02475 45.3733 8.02475 46.0356V53.2711C8.02475 59.9578 8.71809 62.3822 10.0248 64.8267C11.2991 67.2404 13.2695 69.2156 15.6803 70.4956C18.1203 71.8044 20.5403 72.5 27.2114 72.5H36.7536C36.8528 72.4996 36.9496 72.5287 37.0321 72.5836C37.1145 72.6382 37.179 72.7162 37.217 72.8078C37.255 72.8991 37.2652 72.9998 37.2459 73.0969C37.2268 73.194 37.1792 73.2833 37.1092 73.3533L31.2048 79.2667C30.7381 79.7356 30.1025 80 29.4425 80H26.1225C17.227 80 14.0025 79.0711 10.7492 77.3289C7.5332 75.6225 4.90458 72.9884 3.20475 69.7689C1.46475 66.5089 0.538086 63.2756 0.538086 54.3622V38.7067C0.538605 38.6082 0.568131 38.5122 0.622968 38.4307C0.677805 38.3489 0.755515 38.2853 0.84637 38.2476C0.937226 38.2098 1.03719 38.1998 1.13375 38.2184C1.2303 38.2373 1.31916 38.2842 1.3892 38.3533ZM36.1936 6.76667C35.7248 7.23556 35.0914 7.5 34.4292 7.5H27.2092C20.5381 7.5 18.1181 8.19556 15.6781 9.50445C13.2665 10.7841 11.2952 12.7592 10.0203 15.1733C8.71586 17.6178 8.02031 20.0422 8.02031 26.7289V36.2933C8.0198 36.3918 7.99026 36.4878 7.93542 36.5693C7.8806 36.6511 7.80289 36.7147 7.71202 36.7524C7.62118 36.7902 7.5212 36.8002 7.42464 36.7816C7.32809 36.7627 7.23924 36.7158 7.1692 36.6467L1.27142 30.7333C0.802106 30.2642 0.538324 29.628 0.538086 28.9644V25.6378C0.538086 16.7244 1.46475 13.4911 3.20475 10.2311C4.904 7.01191 7.5318 4.37793 10.747 2.67111C14.0003 0.928889 17.227 0 26.1203 0H41.7425C41.8412 0.000523804 41.9374 0.0302109 42.0192 0.0853258C42.101 0.14044 42.1648 0.21852 42.2023 0.30974C42.2399 0.400958 42.2494 0.50124 42.2301 0.597967C42.2108 0.694693 42.1634 0.783542 42.0936 0.853333L36.1936 6.76667ZM67.047 29.1911L59.0025 21.4844C58.4692 20.9511 57.847 20.5644 57.1825 20.3222C56.6188 20.1087 56.021 19.9995 55.4181 20H31.6714C31.5725 19.9999 31.4761 19.9705 31.3939 19.9156C31.3116 19.8606 31.2476 19.7826 31.2099 19.6913C31.1721 19.6 31.1621 19.4995 31.1814 19.4026C31.2008 19.3056 31.2483 19.2166 31.3181 19.1467L37.227 13.2311C37.6936 12.7644 38.327 12.5 38.9892 12.5H57.9136C63.4248 12.5 67.8914 16.9778 67.8914 22.5V28.8311C67.891 28.9287 67.8619 29.024 67.8079 29.1053C67.7539 29.1867 67.6772 29.2504 67.5874 29.2887C67.4976 29.3269 67.3988 29.338 67.3028 29.3207C67.2065 29.3033 67.1176 29.2584 67.047 29.1911ZM51.2359 66.66L58.9248 58.5956C59.4581 58.0622 59.8448 57.44 60.087 56.7733C60.2994 56.2087 60.4079 55.61 60.407 55.0067V31.2067C60.407 31.1078 60.4365 31.0113 60.4914 30.9291C60.5463 30.8469 60.6243 30.7829 60.7156 30.7451C60.807 30.7073 60.9074 30.6973 61.0043 30.7167C61.1014 30.736 61.1903 30.7836 61.2603 30.8533L67.1625 36.7733C67.6292 37.2422 67.8914 37.8778 67.8914 38.5422V57.5067C67.8914 63.0289 63.4248 67.5067 57.9136 67.5067H51.5959C51.4983 67.5062 51.403 67.4771 51.3216 67.4231C51.2403 67.3691 51.1765 67.2924 51.1383 67.2027C51.1001 67.1129 51.089 67.014 51.1063 66.918C51.1236 66.8218 51.1685 66.7307 51.2359 66.66ZM13.8536 50.8089L21.9025 58.5156C22.4336 59.0489 23.0581 59.4356 23.7203 59.6778C24.267 59.8867 24.8625 60 25.4848 60H49.2314C49.3301 60.0004 49.4263 60.0302 49.5081 60.0853C49.5899 60.1404 49.6536 60.2184 49.6912 60.3098C49.7288 60.4009 49.7383 60.5013 49.719 60.598C49.6996 60.6947 49.6523 60.7836 49.5825 60.8533L43.6759 66.7689C43.2092 67.2356 42.5736 67.5 41.9136 67.5H22.9892C21.6774 67.4985 20.3788 67.2387 19.1675 66.7353C17.9561 66.232 16.8558 65.4951 15.9292 64.5664C15.0027 63.6378 14.2682 62.536 13.7675 61.3233C13.2669 60.1109 13.01 58.8118 13.0114 57.5V51.1689C13.0119 51.0713 13.0409 50.976 13.0949 50.8947C13.1489 50.8133 13.2256 50.7496 13.3153 50.7113C13.4051 50.6731 13.5041 50.662 13.6002 50.6793C13.6962 50.6967 13.7829 50.7416 13.8536 50.8089ZM29.667 13.3444L21.9759 21.4111C21.4425 21.9444 21.0581 22.5667 20.8159 23.2333C20.6027 23.798 20.4936 24.3964 20.4936 25V48.8C20.4927 48.8982 20.4628 48.994 20.4078 49.0753C20.3528 49.1567 20.2751 49.22 20.1844 49.2573C20.0936 49.2949 19.9938 49.3047 19.8974 49.2858C19.8011 49.2669 19.7124 49.22 19.6425 49.1511L13.7403 43.2311C13.2732 42.7618 13.0111 42.1267 13.0114 41.4644V22.5C13.0114 16.9778 17.4781 12.5 22.9892 12.5H29.307C29.4045 12.5005 29.4999 12.5295 29.5812 12.5835C29.6625 12.6375 29.7263 12.7141 29.7645 12.8039C29.8028 12.8937 29.8139 12.9927 29.7965 13.0888C29.7792 13.1848 29.7343 13.2737 29.667 13.3444Z" fill="url(#paint0_linear_542_95)"/>
<defs>
<linearGradient id="paint0_linear_542_95" x1="40.4514" y1="0" x2="40.4514" y2="90.299" gradientUnits="userSpaceOnUse">
<stop stop-color="#999999" stop-opacity="0.8"/>
<stop offset="1" stop-color="#020C0D"/>
</linearGradient>
</defs>
</svg>
