<svg width="81" height="50" viewBox="0 0 81 50" fill="none" xmlns="http://www.w3.org/2000/svg">
<path d="M64.4949 31.3634C64.1688 31.2889 63.8499 31.1863 63.5415 31.0568C63.2888 30.9463 63.0592 30.7891 62.8649 30.5934C63.0515 28.9668 62.8649 27.5534 63.0215 25.9534C63.6349 19.7468 67.5382 21.7134 71.0415 20.6968C73.2249 20.0834 75.4082 18.8234 75.9582 16.2434C73.6004 13.4818 70.9176 11.015 67.9682 8.89677C58.4682 2.13677 46.0549 -0.569899 34.7749 1.30677C36.5 4.31677 39.1025 6.72864 42.2349 8.2201C42.2349 8.2201 39.1782 8.2201 36.5582 6.26343C35.7915 6.5701 34.2515 7.17677 33.5149 7.54343C36.4424 10.3577 40.2817 12.0297 44.3363 12.2559C48.3909 12.4822 52.3923 11.2479 55.6149 8.77677C55.5815 8.83343 54.9982 9.72677 54.2915 13.4434C52.7249 21.3768 48.2049 20.7601 42.6115 18.7634C30.9949 14.5501 24.6015 18.4534 18.7949 10.4634C17.1049 11.4168 16.0615 13.1968 16.0615 15.1368C16.0615 17.1334 17.1649 18.8234 18.7615 19.7468C19.6349 18.5868 20.0282 18.2601 21.5482 18.2601C19.1949 19.5934 18.9149 20.7601 17.9015 23.9868C16.6749 27.8901 17.1949 31.8868 11.4482 32.9301C8.40487 33.0834 8.46821 35.1434 7.36154 38.2168C5.97821 42.2134 4.13487 43.8101 0.538208 47.5901C2.01487 49.3734 3.55154 49.5901 5.11821 48.9434C8.34487 47.5901 10.8349 43.4101 13.1682 40.7068C15.7815 37.6934 22.0515 38.9834 26.7849 36.0334C30.0415 34.0368 31.6415 31.3334 29.4882 26.7534C30.8732 28.2788 31.6973 30.2304 31.8249 32.2868C37.2949 31.5768 44.6115 38.2468 51.2782 39.3534C50.6162 38.5191 50.0691 37.5998 49.6515 36.6201C48.8849 34.7734 48.6382 33.0868 48.7915 31.6101C49.4049 35.2668 53.0915 39.9668 59.0249 40.4001C60.5315 40.5201 62.1915 40.3368 63.9115 39.8134C65.9715 39.2001 67.8782 38.4001 70.1515 38.8301C71.8415 39.1401 73.4082 39.9968 74.3915 41.4434C75.8682 43.5934 79.0915 44.0568 80.5382 41.4134C77.2815 32.9001 68.3049 32.3468 64.4949 31.3634Z" fill="url(#paint0_linear_542_100)"/>
<defs>
<linearGradient id="paint0_linear_542_100" x1="40.5382" y1="0.72583" x2="40.5382" y2="55.5266" gradientUnits="userSpaceOnUse">
<stop stop-color="#999999" stop-opacity="0.8"/>
<stop offset="1" stop-color="#020C0D"/>
</linearGradient>
</defs>
</svg>
