<svg width="78" height="80" viewBox="0 0 78 80" fill="none" xmlns="http://www.w3.org/2000/svg">
<path d="M38.8583 0.833862H0V79.0491H38.8583C58.2923 79.0491 77.7156 61.539 77.7156 39.9469C77.7156 18.3548 58.2923 0.833862 38.8583 0.833862ZM38.8583 57.7118C35.3436 57.7106 31.9082 56.667 28.9866 54.7131C26.065 52.7594 23.7883 49.9832 22.4445 46.7355C21.1007 43.4879 20.7501 39.9146 21.437 36.4677C22.1241 33.0208 23.8177 29.855 26.3038 27.3706C28.79 24.8862 31.957 23.1948 35.4044 22.5104C38.8519 21.8259 42.4248 22.1791 45.6715 23.5253C48.9182 24.8714 51.6928 27.1501 53.6444 30.0731C55.5961 32.9961 56.6372 36.4322 56.6361 39.9469C56.6362 42.281 56.1763 44.5921 55.2828 46.7484C54.3892 48.9046 53.0796 50.8637 51.4285 52.5135C49.7776 54.1633 47.8176 55.4716 45.6607 56.3636C43.5038 57.2556 41.1923 57.7137 38.8583 57.7118Z" fill="url(#paint0_linear_987_301)"/>
<defs>
<linearGradient id="paint0_linear_987_301" x1="38.8578" y1="0.833862" x2="38.8578" y2="79.0491" gradientUnits="userSpaceOnUse">
<stop stop-color="#1FBCCB"/>
<stop offset="1" stop-color="#1FBCCB" stop-opacity="0.08"/>
</linearGradient>
</defs>
</svg>
