<svg width="80" height="80" viewBox="0 0 80 80" fill="none" xmlns="http://www.w3.org/2000/svg">
<g clip-path="url(#clip0_987_308)">
<path d="M63.9567 46.3633C63.6306 46.2888 63.3117 46.1862 63.0033 46.0566C62.7506 45.9462 62.521 45.789 62.3267 45.5933C62.5133 43.9666 62.3267 42.5533 62.4833 40.9533C63.0967 34.7466 67 36.7133 70.5033 35.6966C72.6867 35.0833 74.87 33.8233 75.42 31.2433C73.0622 28.4816 70.3794 26.0149 67.43 23.8966C57.93 17.1366 45.5167 14.43 34.2367 16.3066C35.9617 19.3166 38.5643 21.7285 41.6967 23.22C41.6967 23.22 38.64 23.22 36.02 21.2633C35.2533 21.57 33.7133 22.1766 32.9767 22.5433C35.9042 25.3576 39.7435 27.0295 43.7981 27.2558C47.8527 27.4821 51.8541 26.2477 55.0767 23.7766C55.0433 23.8333 54.46 24.7266 53.7533 28.4433C52.1867 36.3766 47.6667 35.76 42.0733 33.7633C30.4567 29.55 24.0633 33.4533 18.2567 25.4633C16.5667 26.4166 15.5233 28.1966 15.5233 30.1366C15.5233 32.1333 16.6267 33.8233 18.2233 34.7466C19.0967 33.5866 19.49 33.26 21.01 33.26C18.6567 34.5933 18.3767 35.76 17.3633 38.9866C16.1367 42.89 16.6567 46.8866 10.91 47.93C7.86667 48.0833 7.93 50.1433 6.82333 53.2166C5.44 57.2133 3.59667 58.81 0 62.59C1.47667 64.3733 3.01333 64.59 4.58 63.9433C7.80667 62.59 10.2967 58.41 12.63 55.7066C15.2433 52.6933 21.5133 53.9833 26.2467 51.0333C29.5033 49.0366 31.1033 46.3333 28.95 41.7533C30.335 43.2787 31.1591 45.2303 31.2867 47.2866C36.7567 46.5766 44.0733 53.2466 50.74 54.3533C50.078 53.519 49.5309 52.5997 49.1133 51.62C48.3467 49.7733 48.1 48.0866 48.2533 46.61C48.8667 50.2666 52.5533 54.9666 58.4867 55.4C59.9933 55.52 61.6533 55.3366 63.3733 54.8133C65.4333 54.2 67.34 53.4 69.6133 53.83C71.3033 54.14 72.87 54.9966 73.8533 56.4433C75.33 58.5933 78.5533 59.0566 80 56.4133C76.7433 47.9 67.7667 47.3466 63.9567 46.3633Z" fill="url(#paint0_linear_987_308)"/>
</g>
<defs>
<linearGradient id="paint0_linear_987_308" x1="40" y1="15.7257" x2="40" y2="64.2762" gradientUnits="userSpaceOnUse">
<stop stop-color="#1FBCCB"/>
<stop offset="1" stop-color="#1FBCCB" stop-opacity="0.08"/>
</linearGradient>
<clipPath id="clip0_987_308">
<rect width="80" height="80" fill="white"/>
</clipPath>
</defs>
</svg>
