<svg width="200" height="80" viewBox="0 0 200 80" fill="none" xmlns="http://www.w3.org/2000/svg">
<path fill-rule="evenodd" clip-rule="evenodd" d="M120.08 27.6862C117.331 28.3844 115.067 28.9855 112.763 29.5975L112.762 29.5975C110.925 30.0855 109.061 30.5805 106.903 31.1372L106.774 31.1719C105.72 31.4551 105.61 31.4846 104.629 30.3529C103.452 29.0196 102.59 28.1568 100.943 27.3725C96.0015 24.9411 91.2172 25.647 86.7466 28.549C81.4133 32 78.6682 37.098 78.7466 43.4509C78.825 49.7255 83.1388 54.9019 89.3348 55.7647C94.6682 56.4706 99.1388 54.5882 102.668 50.5882C103.192 49.9483 103.672 49.2652 104.205 48.507L104.206 48.5068C104.391 48.2428 104.583 47.9698 104.786 47.6862H89.6486C88.0015 47.6862 87.6094 46.6666 88.1584 45.3333C89.178 42.9019 91.0603 38.8235 92.1584 36.7843C92.3937 36.3137 92.9427 35.5294 94.1191 35.5294H119.361C120.494 31.9379 122.334 28.5443 124.787 25.3332C130.512 17.8038 137.414 13.8823 146.748 12.2352C154.748 10.8234 162.277 11.6077 169.101 16.2352C175.297 20.4705 179.14 26.196 180.16 33.7254C181.493 44.3136 178.434 52.9411 171.14 60.3136C165.963 65.5685 159.611 68.8626 152.316 70.3528C150.925 70.6105 149.534 70.7327 148.164 70.853C147.45 70.9158 146.741 70.978 146.042 71.0587C138.905 70.9019 132.395 68.8626 126.905 64.1568C123.043 60.8186 120.383 56.7158 119.061 51.9394C118.144 53.7923 117.047 55.5668 115.766 57.2549C110.119 64.7058 102.747 69.3333 93.4133 70.5882C85.727 71.6078 78.5897 70.1176 72.3152 65.4117C66.5113 61.0196 63.2172 55.2156 62.3544 48C61.3348 39.4509 63.8446 31.7647 69.0211 25.0196C74.5897 17.7255 81.9623 13.098 90.9819 11.4509C98.3544 10.1176 105.413 10.9804 111.766 15.2941C115.923 18.0392 118.903 21.8039 120.864 26.3529C121.335 27.0588 121.021 27.4509 120.08 27.6862ZM31.5286 29.0982C31.2148 29.0982 31.1364 28.9413 31.2933 28.706L32.9403 26.5884C33.0972 26.3531 33.4894 26.1962 33.8031 26.1962H61.8031C62.1168 26.1962 62.1952 26.4315 62.0384 26.6668L60.705 28.706C60.5482 28.9413 60.156 29.1766 59.9207 29.1766L31.5286 29.0982ZM19.6887 36.3135C19.375 36.3135 19.2966 36.1567 19.4534 35.9214L21.1005 33.8037C21.2574 33.5684 21.6495 33.4116 21.9632 33.4116H57.7279C58.0417 33.4116 58.1985 33.6469 58.1201 33.8821L57.4926 35.7645C57.4142 36.0782 57.1005 36.2351 56.7868 36.2351L19.6887 36.3135ZM38.4319 43.0589C38.2751 43.2942 38.3535 43.5295 38.6672 43.5295L55.7653 43.608C56.0006 43.608 56.3143 43.3727 56.3143 43.0589L56.4712 41.1766C56.4712 40.8629 56.3143 40.6276 56.0006 40.6276H40.3143C40.0006 40.6276 39.6868 40.8629 39.53 41.0982L38.4319 43.0589ZM164.654 38.5337C164.669 38.7971 164.686 39.0748 164.709 39.3724C164.316 46.1175 160.944 51.1372 154.748 54.3528C150.591 56.4705 146.277 56.7058 141.963 54.8234C136.316 52.3136 133.336 46.1175 134.748 39.9999C136.473 32.6273 141.179 27.9999 148.473 26.3528C155.924 24.6273 163.062 29.0195 164.473 36.7842C164.584 37.3395 164.617 37.8949 164.654 38.5337Z" fill="url(#paint0_linear_987_318)"/>
<defs>
<linearGradient id="paint0_linear_987_318" x1="99.9193" y1="10.875" x2="99.9193" y2="71.0587" gradientUnits="userSpaceOnUse">
<stop stop-color="#1FBCCB"/>
<stop offset="1" stop-color="#1FBCCB" stop-opacity="0.08"/>
</linearGradient>
</defs>
</svg>
