<svg width="71" height="80" viewBox="0 0 71 80" fill="none" xmlns="http://www.w3.org/2000/svg">
<g clip-path="url(#clip0_987_310)">
<path d="M35.4303 79.8516C34.33 79.8516 33.3029 79.5581 32.3493 79.0446L22.5926 73.2492C21.1254 72.4423 21.859 72.1488 22.2991 72.0021C24.2798 71.3419 24.6466 71.1952 26.7006 70.0214C26.9207 69.8747 27.2142 69.9481 27.4342 70.0948L34.9168 74.5697C35.2103 74.7164 35.5771 74.7164 35.7971 74.5697L65.0673 57.6237C65.3607 57.477 65.5074 57.1835 65.5074 56.8168V22.9981C65.5074 22.6313 65.3607 22.3379 65.0673 22.1912L35.7971 5.31855C35.5037 5.17183 35.1369 5.17183 34.9168 5.31855L5.64667 22.1912C5.35324 22.3379 5.20652 22.7047 5.20652 22.9981V56.8168C5.20652 57.1102 5.35324 57.477 5.64667 57.6237L13.6428 62.2453C17.9709 64.4461 20.6852 61.8785 20.6852 59.311V25.9325C20.6852 25.4923 21.052 25.0522 21.5655 25.0522H25.3068C25.747 25.0522 26.1871 25.419 26.1871 25.9325V59.311C26.1871 65.1063 23.0327 68.4809 17.5308 68.4809C15.8435 68.4809 14.5231 68.4809 10.7818 66.6469L3.07912 62.2453C1.17179 61.1449 -0.00195312 59.0909 -0.00195312 56.8901V23.0715C-0.00195312 20.8707 1.17179 18.8167 3.07912 17.7163L32.3493 0.770272C34.1832 -0.256757 36.6774 -0.256757 38.5114 0.770272L67.7816 17.7163C69.6889 18.8167 70.8626 20.8707 70.8626 23.0715V56.8901C70.8626 59.0909 69.6889 61.1449 67.7816 62.2453L38.5114 79.1913C37.5577 79.6315 36.4574 79.8516 35.4303 79.8516ZM44.4535 56.5967C31.6157 56.5967 28.9748 50.7279 28.9748 45.7395C28.9748 45.2993 29.3416 44.8592 29.8551 44.8592H33.6697C34.1099 44.8592 34.4767 45.1526 34.4767 45.5928C35.0635 49.4808 36.7508 51.3882 44.5268 51.3882C50.689 51.3882 53.3299 49.9943 53.3299 46.6932C53.3299 44.7858 52.5963 43.392 42.9863 42.4383C34.9902 41.6314 30.0018 39.8708 30.0018 33.4885C30.0018 27.5464 34.9902 24.0252 43.3531 24.0252C52.743 24.0252 57.3646 27.253 57.9515 34.2955C57.9515 34.5155 57.8781 34.7356 57.7314 34.9557C57.5847 35.1024 57.3646 35.2491 57.1445 35.2491H53.3299C52.9631 35.2491 52.5963 34.9557 52.5229 34.5889C51.6426 30.5541 49.3685 29.2337 43.3531 29.2337C36.6041 29.2337 35.7971 31.5812 35.7971 33.3418C35.7971 35.4692 36.7508 36.1294 45.8473 37.3032C54.8704 38.4769 59.1252 40.1642 59.1252 46.4731C59.0519 52.9287 53.77 56.5967 44.4535 56.5967Z" fill="url(#paint0_linear_987_310)"/>
</g>
<defs>
<linearGradient id="paint0_linear_987_310" x1="35.4303" y1="0" x2="35.4303" y2="79.8516" gradientUnits="userSpaceOnUse">
<stop stop-color="#1FBCCB"/>
<stop offset="1" stop-color="#1FBCCB" stop-opacity="0.08"/>
</linearGradient>
<clipPath id="clip0_987_310">
<rect width="70.8646" height="80" fill="white"/>
</clipPath>
</defs>
</svg>
