<svg width="80" height="80" viewBox="0 0 80 80" fill="none" xmlns="http://www.w3.org/2000/svg">
<g clip-path="url(#clip0_987_302)">
<mask id="mask0_987_302" style="mask-type:luminance" maskUnits="userSpaceOnUse" x="0" y="0" width="312" height="80">
<path d="M311.111 0H0V80H311.111V0Z" fill="white"/>
</mask>
<g mask="url(#mask0_987_302)">
<path fill-rule="evenodd" clip-rule="evenodd" d="M78.9733 41.6444L73.0733 35.7333C72.6049 35.264 72.3418 34.6276 72.3422 33.9644V26.7289C72.3422 20.0422 71.6467 17.6178 70.3422 15.1733C69.0673 12.7592 67.096 10.7841 64.6844 9.50445C62.2467 8.19556 59.8267 7.5 53.1556 7.5H43.6111C43.5124 7.49947 43.4162 7.4698 43.3344 7.41467C43.2527 7.35956 43.1889 7.28149 43.1513 7.19027C43.1138 7.09904 43.1042 6.99876 43.1236 6.90202C43.1429 6.80531 43.1902 6.71647 43.26 6.64667L49.16 0.733333C49.6267 0.264445 50.2622 0 50.9244 0H54.2422C63.1378 0 66.3644 0.928889 69.6178 2.67111C72.8329 4.37793 75.4607 7.01191 77.16 10.2311C78.9 13.4911 79.8267 16.7244 79.8267 25.6378V41.2933C79.8267 41.3922 79.7971 41.4887 79.7422 41.5709C79.6873 41.6531 79.6093 41.7171 79.518 41.7549C79.4267 41.7927 79.3262 41.8027 79.2293 41.7833C79.1322 41.764 79.0433 41.7142 78.9733 41.6444ZM38.2711 79.1489L44.1711 73.2356C44.6378 72.7667 45.2733 72.5022 45.9356 72.5022H53.1556C59.8267 72.5022 62.2444 71.8067 64.6844 70.4978C67.096 69.2182 69.0673 67.2431 70.3422 64.8289C71.6467 62.3844 72.3422 59.96 72.3422 53.2733V43.7089C72.3427 43.6104 72.3722 43.5144 72.4271 43.4329C72.482 43.3511 72.5596 43.2876 72.6504 43.2498C72.7413 43.212 72.8413 43.202 72.9378 43.2207C73.0344 43.2396 73.1233 43.2864 73.1933 43.3556L79.0956 49.2689C79.5622 49.7378 79.8267 50.3756 79.8267 51.0378V54.3644C79.8267 63.2778 78.9 66.5111 77.16 69.7711C75.4607 72.9902 72.8329 75.6242 69.6178 77.3311C66.3644 79.0711 63.1378 80 54.2422 80H38.6222C38.5236 79.9996 38.4273 79.9698 38.3456 79.9147C38.2638 79.8596 38.2 79.7816 38.1624 79.6902C38.1249 79.5991 38.1153 79.4987 38.1347 79.402C38.154 79.3053 38.2013 79.2187 38.2711 79.1489ZM0.851111 38.3533L6.75556 44.2667C7.22222 44.7356 7.48667 45.3733 7.48667 46.0356V53.2711C7.48667 59.9578 8.18 62.3822 9.48667 64.8267C10.761 67.2404 12.7314 69.2156 15.1422 70.4956C17.5822 71.8044 20.0022 72.5 26.6733 72.5H36.2156C36.3147 72.4996 36.4116 72.5287 36.494 72.5836C36.5764 72.6382 36.6409 72.7162 36.6789 72.8078C36.7169 72.8991 36.7271 72.9998 36.7078 73.0969C36.6887 73.194 36.6411 73.2833 36.5711 73.3533L30.6667 79.2667C30.2 79.7356 29.5644 80 28.9044 80H25.5844C16.6889 80 13.4644 79.0711 10.2111 77.3289C6.99511 75.6225 4.36649 72.9884 2.66667 69.7689C0.926667 66.5089 0 63.2756 0 54.3622V38.7067C0.00051916 38.6082 0.0300453 38.5122 0.084882 38.4307C0.139719 38.3489 0.217429 38.2853 0.308284 38.2476C0.39914 38.2098 0.499104 38.1998 0.59566 38.2184C0.692216 38.2373 0.781076 38.2842 0.851111 38.3533ZM35.6556 6.76667C35.1867 7.23556 34.5533 7.5 33.8911 7.5H26.6711C20 7.5 17.58 8.19556 15.14 9.50445C12.7284 10.7841 10.7572 12.7592 9.48222 15.1733C8.17778 17.6178 7.48222 20.0422 7.48222 26.7289V36.2933C7.48171 36.3918 7.45218 36.4878 7.39733 36.5693C7.34251 36.6511 7.2648 36.7147 7.17393 36.7524C7.08309 36.7902 6.98311 36.8002 6.88656 36.7816C6.79 36.7627 6.70116 36.7158 6.63111 36.6467L0.733333 30.7333C0.26402 30.2642 0.000238362 29.628 0 28.9644V25.6378C0 16.7244 0.926667 13.4911 2.66667 10.2311C4.36591 7.01191 6.99371 4.37793 10.2089 2.67111C13.4622 0.928889 16.6889 0 25.5822 0H41.2044C41.3031 0.000523804 41.3993 0.0302109 41.4811 0.0853258C41.5629 0.14044 41.6267 0.21852 41.6642 0.30974C41.7018 0.400958 41.7113 0.50124 41.692 0.597967C41.6727 0.694693 41.6253 0.783542 41.5556 0.853333L35.6556 6.76667ZM66.5089 29.1911L58.4644 21.4844C57.9311 20.9511 57.3089 20.5644 56.6444 20.3222C56.0807 20.1087 55.4829 19.9995 54.88 20H31.1333C31.0344 19.9999 30.938 19.9705 30.8558 19.9156C30.7736 19.8606 30.7096 19.7826 30.6718 19.6913C30.634 19.6 30.624 19.4995 30.6433 19.4026C30.6627 19.3056 30.7102 19.2166 30.78 19.1467L36.6889 13.2311C37.1556 12.7644 37.7889 12.5 38.4511 12.5H57.3756C62.8867 12.5 67.3533 16.9778 67.3533 22.5V28.8311C67.3529 28.9287 67.3238 29.024 67.2698 29.1053C67.2158 29.1867 67.1391 29.2504 67.0493 29.2887C66.9596 29.3269 66.8607 29.338 66.7647 29.3207C66.6684 29.3033 66.5796 29.2584 66.5089 29.1911ZM50.6978 66.66L58.3867 58.5956C58.92 58.0622 59.3067 57.44 59.5489 56.7733C59.7613 56.2087 59.8698 55.61 59.8689 55.0067V31.2067C59.8689 31.1078 59.8984 31.0113 59.9533 30.9291C60.0082 30.8469 60.0862 30.7829 60.1776 30.7451C60.2689 30.7073 60.3693 30.6973 60.4662 30.7167C60.5633 30.736 60.6522 30.7836 60.7222 30.8533L66.6245 36.7733C67.0911 37.2422 67.3533 37.8778 67.3533 38.5422V57.5067C67.3533 63.0289 62.8867 67.5067 57.3756 67.5067H51.0578C50.9602 67.5062 50.8649 67.4771 50.7836 67.4231C50.7022 67.3691 50.6384 67.2924 50.6002 67.2027C50.562 67.1129 50.5509 67.014 50.5682 66.918C50.5856 66.8218 50.6304 66.7307 50.6978 66.66ZM13.3156 50.8089L21.3644 58.5156C21.8956 59.0489 22.52 59.4356 23.1822 59.6778C23.7289 59.8867 24.3244 60 24.9467 60H48.6933C48.792 60.0004 48.8882 60.0302 48.97 60.0853C49.0518 60.1404 49.1156 60.2184 49.1531 60.3098C49.1907 60.4009 49.2002 60.5013 49.1809 60.598C49.1616 60.6947 49.1142 60.7836 49.0444 60.8533L43.1378 66.7689C42.6711 67.2356 42.0356 67.5 41.3756 67.5H22.4511C21.1394 67.4985 19.8407 67.2387 18.6294 66.7353C17.418 66.232 16.3177 65.4951 15.3912 64.5664C14.4646 63.6378 13.7301 62.536 13.2294 61.3233C12.7288 60.1109 12.4719 58.8118 12.4733 57.5V51.1689C12.4738 51.0713 12.5028 50.976 12.5568 50.8947C12.6108 50.8133 12.6875 50.7496 12.7772 50.7113C12.867 50.6731 12.966 50.662 13.0621 50.6793C13.1582 50.6967 13.2448 50.7416 13.3156 50.8089ZM29.1289 13.3444L21.4378 21.4111C20.9044 21.9444 20.52 22.5667 20.2778 23.2333C20.0646 23.798 19.9555 24.3964 19.9556 25V48.8C19.9546 48.8982 19.9248 48.994 19.8698 49.0753C19.8148 49.1567 19.737 49.22 19.6463 49.2573C19.5555 49.2949 19.4557 49.3047 19.3594 49.2858C19.263 49.2669 19.1744 49.22 19.1044 49.1511L13.2022 43.2311C12.7351 42.7618 12.473 42.1267 12.4733 41.4644V22.5C12.4733 16.9778 16.94 12.5 22.4511 12.5H28.7689C28.8664 12.5005 28.9618 12.5295 29.0431 12.5835C29.1244 12.6375 29.1882 12.7141 29.2264 12.8039C29.2647 12.8937 29.2758 12.9927 29.2584 13.0888C29.2411 13.1848 29.1962 13.2737 29.1289 13.3444Z" fill="url(#paint0_linear_987_302)"/>
</g>
</g>
<defs>
<linearGradient id="paint0_linear_987_302" x1="39.9133" y1="0" x2="39.9133" y2="80" gradientUnits="userSpaceOnUse">
<stop stop-color="#1FBCCB"/>
<stop offset="1" stop-color="#1FBCCB" stop-opacity="0.08"/>
</linearGradient>
<clipPath id="clip0_987_302">
<rect width="80" height="80" fill="white"/>
</clipPath>
</defs>
</svg>
