<svg width="62" height="80" viewBox="0 0 62 80" fill="none" xmlns="http://www.w3.org/2000/svg">
<path fill-rule="evenodd" clip-rule="evenodd" d="M47.0605 52.7426C44.0246 50.7903 40.124 49.2303 35.2681 47.9505L21.5839 44.8353C10.5697 42.3878 2.11439 36.4913 2.11439 23.9195C2.11439 19.1379 3.67048 14.3562 6.56048 10.5744C6.56159 10.5356 6.56281 10.4968 6.56414 10.4579C11.3481 4.22771 19.5809 0.445068 29.5938 0.445068C47.0606 0.445068 57.0736 9.67916 59.6324 22.5846H43.8343C42.0542 17.467 37.7154 13.4618 29.8162 13.4618C21.2497 13.5731 15.4645 18.4683 15.1307 26.256C14.8689 26.1116 14.6127 25.9609 14.3621 25.8042C17.4247 27.9297 21.3896 29.5799 26.2566 30.8173L40.1633 34.0437C52.6238 36.9363 60.189 44.0566 60.189 55.627C60.3003 60.6334 58.6315 65.5286 55.6277 69.5337C55.6277 64.8918 54.6607 61.1094 52.5759 57.9997C54.6511 61.1051 55.6272 64.8924 55.6272 69.5339C50.6208 75.8754 42.0542 79.3241 31.9301 79.3241C14.9082 79.3241 2.78151 70.869 0.222656 56.2947H16.577C18.6909 62.97 24.2535 66.0851 31.8188 66.0851C40.8277 66.1963 46.9456 61.3041 47.0605 52.7426Z" fill="url(#paint0_linear_987_294)"/>
<defs>
<linearGradient id="paint0_linear_987_294" x1="30.2085" y1="0.445068" x2="30.2085" y2="79.3241" gradientUnits="userSpaceOnUse">
<stop stop-color="#1FBCCB"/>
<stop offset="1" stop-color="#1FBCCB" stop-opacity="0.08"/>
</linearGradient>
</defs>
</svg>
