<svg width="70" height="80" viewBox="0 0 70 80" fill="none" xmlns="http://www.w3.org/2000/svg">
<g clip-path="url(#clip0_987_287)">
<mask id="mask0_987_287" style="mask-type:luminance" maskUnits="userSpaceOnUse" x="0" y="0" width="70" height="80">
<path d="M69.6774 0H0V80H69.6774V0Z" fill="white"/>
</mask>
<g mask="url(#mask0_987_287)">
<path fill-rule="evenodd" clip-rule="evenodd" d="M67.0442 7.74219H22.5848V30.0339H44.4609C44.4707 30.0339 44.4804 30.034 44.49 30.0342H22.5847V51.6084C22.5847 51.9829 22.7334 52.3418 22.9981 52.6066C23.2629 52.8714 23.6219 53.02 23.9963 53.02H45.8724V73.6211C45.8726 73.7602 45.9142 73.8962 45.9913 74.0121C46.0685 74.1279 46.1782 74.2182 46.3067 74.2719C46.4349 74.3259 46.5764 74.3403 46.7131 74.314C46.8499 74.2877 46.9758 74.2216 47.0749 74.1243L68.4554 53.0197H68.4558V9.15638C68.456 8.97078 68.4199 8.78696 68.3489 8.6154C68.2782 8.44381 68.1742 8.28792 68.0431 8.15656C67.912 8.02521 67.7564 7.921 67.5848 7.84988C67.4135 7.77878 67.2297 7.74219 67.0442 7.74219ZM45.8724 53.0195H45.8726V31.4455C45.8726 31.4389 45.8725 31.4323 45.8724 31.4257V53.0195ZM22.5822 7.74225V30.034H1.72537C1.58524 30.0337 1.44834 29.9917 1.33205 29.9135C1.21577 29.8353 1.12533 29.7243 1.07224 29.5948C1.01915 29.465 1.00579 29.3225 1.03386 29.1852C1.06193 29.0479 1.13016 28.922 1.22989 28.8237L22.5822 7.74225Z" fill="url(#paint0_linear_987_287)"/>
</g>
</g>
<defs>
<linearGradient id="paint0_linear_987_287" x1="34.7376" y1="7.74219" x2="34.7376" y2="74.3267" gradientUnits="userSpaceOnUse">
<stop stop-color="#1FBCCB"/>
<stop offset="1" stop-color="#1FBCCB" stop-opacity="0.08"/>
</linearGradient>
<clipPath id="clip0_987_287">
<rect width="69.6774" height="80" fill="white"/>
</clipPath>
</defs>
</svg>
