<svg width="18" height="18" viewBox="0 0 18 18" fill="none" xmlns="http://www.w3.org/2000/svg">
<path d="M6.49976 0V5.25H11.4998V0H6.49976ZM5.24976 6.5H-0.000244141V11.5H5.24976V6.5ZM6.49976 11.5V6.5H11.4998V11.5H6.49976ZM5.24976 12.75H-0.000244141V14.875C-0.000244141 15.7038 0.328996 16.4987 0.915047 17.0847C1.5011 17.6708 2.29595 18 3.12476 18H5.24976V12.75ZM6.49976 18H11.4998V12.75H6.49976V18ZM12.7498 18V12.75H17.9998V14.875C17.9998 15.7038 17.6705 16.4987 17.0845 17.0847C16.4984 17.6708 15.7036 18 14.8748 18H12.7498ZM17.9998 6.5V11.5H12.7498V6.5H17.9998ZM17.9998 5.25V3.125C17.9998 2.2962 17.6705 1.50134 17.0845 0.915291C16.4984 0.32924 15.7036 0 14.8748 0H12.7498V5.25H17.9998Z" fill="url(#paint0_linear_742_3584)"/>
<defs>
<linearGradient id="paint0_linear_742_3584" x1="8.99976" y1="0" x2="8.99976" y2="20.3173" gradientUnits="userSpaceOnUse">
<stop stop-color="#1FBCCB"/>
<stop offset="1" stop-color="#020C0D"/>
</linearGradient>
</defs>
</svg>
