<svg width="30" height="24" viewBox="0 0 30 24" fill="none" xmlns="http://www.w3.org/2000/svg">
<path d="M17.6189 9.98862L16.1509 9.31003C16.03 9.25495 15.9275 9.16626 15.8557 9.05453C15.7838 8.94281 15.7456 8.81277 15.7456 8.67992C15.7456 8.54707 15.7838 8.41703 15.8557 8.3053C15.9275 8.19358 16.03 8.10488 16.1509 8.0498L17.6189 7.37122L18.2975 5.91711C18.3525 5.79622 18.4412 5.69373 18.553 5.62185C18.6647 5.54998 18.7947 5.51177 18.9276 5.51177C19.0604 5.51177 19.1905 5.54998 19.3022 5.62185C19.4139 5.69373 19.5026 5.79622 19.5577 5.91711L20.2363 7.38507L21.6904 8.06365C21.8113 8.11873 21.9138 8.20743 21.9857 8.31915C22.0575 8.43088 22.0958 8.56092 22.0958 8.69377C22.0958 8.82661 22.0575 8.95666 21.9857 9.06838C21.9138 9.18011 21.8113 9.2688 21.6904 9.32388L20.2224 10.0025L19.5439 11.4566C19.4888 11.5775 19.4001 11.68 19.2884 11.7518C19.1766 11.8237 19.0466 11.8619 18.9137 11.8619C18.7809 11.8619 18.6508 11.8237 18.5391 11.7518C18.4274 11.68 18.3387 11.5775 18.2836 11.4566L17.6189 9.98862ZM4.31025 14.2263L4.98884 12.7583L6.4568 12.0798C6.57769 12.0247 6.68019 11.936 6.75206 11.8243C6.82393 11.7125 6.86215 11.5825 6.86215 11.4497C6.86215 11.3168 6.82393 11.1868 6.75206 11.075C6.68019 10.9633 6.57769 10.8746 6.4568 10.8195L4.98884 10.141L4.31025 8.68684C4.25687 8.56608 4.16955 8.46343 4.05892 8.39137C3.94828 8.31931 3.81909 8.28095 3.68706 8.28095C3.55502 8.28095 3.42583 8.31931 3.3152 8.39137C3.20456 8.46343 3.11724 8.56608 3.06386 8.68684L2.38528 10.1548L0.91731 10.8334C0.796418 10.8885 0.693923 10.9772 0.622051 11.0889C0.550178 11.2006 0.511963 11.3307 0.511963 11.4635C0.511963 11.5963 0.550178 11.7264 0.622051 11.8381C0.693923 11.9498 0.796418 12.0385 0.91731 12.0936L2.38528 12.7722L3.06386 14.2263C3.29929 14.7664 4.07482 14.7664 4.31025 14.2263ZM10.556 7.28813L11.4285 5.34932L13.3673 4.47685C13.4882 4.42177 13.5907 4.33308 13.6626 4.22135C13.7345 4.10963 13.7727 3.97958 13.7727 3.84674C13.7727 3.71389 13.7345 3.58385 13.6626 3.47212C13.5907 3.36039 13.4882 3.2717 13.3673 3.21662L11.4285 2.34416L10.556 0.405344C10.5009 0.284454 10.4123 0.181959 10.3005 0.110087C10.1888 0.0382152 10.0588 0 9.92591 0C9.79306 0 9.66302 0.0382152 9.55129 0.110087C9.43957 0.181959 9.35087 0.284454 9.29579 0.405344L8.42332 2.34416L6.4845 3.21662C6.36361 3.2717 6.26111 3.36039 6.18924 3.47212C6.11737 3.58385 6.07915 3.71389 6.07915 3.84674C6.07915 3.97958 6.11737 4.10963 6.18924 4.22135C6.26111 4.33308 6.36361 4.42177 6.4845 4.47685L8.42332 5.34932L9.29579 7.28813C9.53122 7.82823 10.3068 7.82823 10.556 7.28813ZM29.0856 7.67589C28.9525 7.54321 28.7938 7.439 28.6192 7.36962C28.4445 7.30024 28.2576 7.26713 28.0697 7.27231C27.8818 7.27749 27.697 7.32086 27.5264 7.39976C27.3559 7.47867 27.2031 7.59147 27.0776 7.73129L18.2282 17.6746L13.672 13.1184C13.5439 12.99 13.3917 12.8882 13.2242 12.8187C13.0566 12.7492 12.877 12.7134 12.6957 12.7134C12.5143 12.7134 12.3347 12.7492 12.1672 12.8187C11.9996 12.8882 11.8474 12.99 11.7193 13.1184L3.35469 21.4969C2.78689 22.0646 2.78689 23.0064 3.35469 23.5742C3.92248 24.1419 4.8642 24.1419 5.432 23.5742L12.7026 16.2898L17.2034 20.7906C17.7712 21.3584 18.6852 21.3307 19.2115 20.7352L29.141 9.55931C29.6257 9.01921 29.598 8.18829 29.0856 7.67589Z" fill="url(#paint0_linear_742_3577)"/>
<defs>
<linearGradient id="paint0_linear_742_3577" x1="14.9999" y1="0" x2="14.9999" y2="27.0897" gradientUnits="userSpaceOnUse">
<stop stop-color="#1FBCCB"/>
<stop offset="1" stop-color="#020C0D"/>
</linearGradient>
</defs>
</svg>
