<svg width="13" height="24" viewBox="0 0 13 24" fill="none" xmlns="http://www.w3.org/2000/svg">
<path fill-rule="evenodd" clip-rule="evenodd" d="M5.77091 0.222831C5.86863 0.0599294 6.00688 -0.0748865 6.17219 -0.168488C6.33749 -0.26209 6.52422 -0.311286 6.71419 -0.311287C6.90415 -0.311287 7.09088 -0.26209 7.25619 -0.168489C7.42149 -0.0748877 7.55974 0.0599303 7.65747 0.222831L10.0015 4.1296C10.4678 4.90664 10.7142 5.79582 10.7143 6.70205L10.7136 13.1799L12.2749 14.7411C12.5558 15.0226 12.7135 15.4041 12.7133 15.8018L12.714 18.2477C12.714 18.4439 12.6679 18.6374 12.5795 18.8126C12.4911 18.9878 12.3628 19.1398 12.205 19.2564C12.0471 19.373 11.8641 19.4509 11.6707 19.4839C11.4772 19.5168 11.2787 19.504 11.0912 19.4462C10.2561 19.1887 9.40837 18.9744 8.55125 18.8042C8.65881 19.0538 8.71416 19.3229 8.71388 19.5947C8.71459 20.6985 6.9638 23.5948 6.71419 23.5941C6.46458 23.5948 4.71449 20.6992 4.71449 19.5947C4.71378 19.314 4.77177 19.0467 4.87642 18.8049C4.01955 18.9749 3.17202 19.189 2.3372 19.4462C2.14964 19.504 1.95115 19.5168 1.7577 19.4839C1.56425 19.4509 1.38124 19.373 1.22339 19.2564C1.06554 19.1398 0.93725 18.9878 0.848845 18.8126C0.760439 18.6374 0.714385 18.4439 0.714386 18.2477L0.714387 15.8011C0.714139 15.4034 0.871831 15.0219 1.15279 14.7404L2.71338 13.1799L2.71338 6.70276C2.71354 5.79622 2.96015 4.90678 3.42685 4.1296L5.77091 0.222831ZM8.59721 5.87332C7.98758 5.68531 7.35285 5.59136 6.71489 5.59472C6.07647 5.59125 5.44125 5.6852 4.83116 5.87332C4.75337 6.14318 4.71386 6.42262 4.71378 6.70347L4.71449 8.09717C5.06663 7.88645 5.72565 7.59513 6.71489 7.59442C7.70343 7.59442 8.36104 7.88575 8.71389 8.09717L8.71388 6.70276C8.71388 6.41992 8.67429 6.14131 8.59651 5.87261L8.59721 5.87332Z" fill="url(#paint0_linear_742_3574)"/>
<defs>
<linearGradient id="paint0_linear_742_3574" x1="0.330726" y1="5.61654" x2="14.7412" y2="20.027" gradientUnits="userSpaceOnUse">
<stop stop-color="#1FBCCB"/>
<stop offset="1" stop-color="#020C0D"/>
</linearGradient>
</defs>
</svg>
