<svg width="22" height="24" viewBox="0 0 22 24" fill="none" xmlns="http://www.w3.org/2000/svg">
<path d="M11.2526 0.147857C11.0966 0.0565333 10.9034 0.0565336 10.7474 0.147857L0.99741 5.85518C0.84417 5.94488 0.75 6.10912 0.75 6.28668V17.7133C0.75 17.8909 0.844171 18.0551 0.99741 18.1448L10.7474 23.8521C10.9034 23.9435 11.0966 23.9435 11.2526 23.8521L21.0026 18.1448C21.1558 18.0551 21.25 17.8909 21.25 17.7133V6.28668C21.25 6.10912 21.1558 5.94488 21.0026 5.85517L11.2526 0.147857ZM10.4664 16.745C10.1119 17.1033 9.50992 16.7714 9.62379 16.2804L10.2418 13.6154C10.2811 13.4461 10.2297 13.2686 10.106 13.1466L8.23392 11.2984C8.03697 11.1039 8.03542 10.7865 8.23045 10.5902L11.5509 7.24738C11.9058 6.89015 12.5065 7.22222 12.3928 7.71271L11.7712 10.3927C11.7319 10.5619 11.7833 10.7394 11.9069 10.8614L13.766 12.6974C13.9626 12.8915 13.9644 13.2083 13.7701 13.4048L10.4664 16.745Z" fill="url(#paint0_linear_742_3568)"/>
<defs>
<linearGradient id="paint0_linear_742_3568" x1="11" y1="0" x2="11" y2="27.0897" gradientUnits="userSpaceOnUse">
<stop stop-color="#1FBCCB"/>
<stop offset="1" stop-color="#020C0D"/>
</linearGradient>
</defs>
</svg>
