<svg width="218" height="68" viewBox="0 0 218 68" fill="none" xmlns="http://www.w3.org/2000/svg">
<path d="M90.866 3.84734C96.7558 1.56045 103.018 0.379701 109.337 0.364548C112.315 0.457638 115.276 0.828213 118.185 1.47143C121.027 2.03273 123.8 2.90272 126.453 4.0659C125.514 4.65811 124.391 5.56057 123.233 5.06706C118.226 3.30546 112.952 2.41592 107.643 2.43731C104.679 2.54688 101.732 2.92686 98.8378 3.57242C96.9807 3.93198 95.2014 4.62288 93.3303 4.91899C92.4716 4.65413 91.6451 4.2947 90.866 3.84734Z" fill="white"/>
<path d="M3.00744 3.04388C5.37284 2.70547 7.75235 3.12141 10.1107 3.28356C15.0372 3.77121 19.9903 3.93843 24.9385 3.78414C31.0533 3.72069 37.1539 2.98745 43.2969 3.31881C49.5316 3.52326 55.7452 4.2142 61.987 4.39751C66.7531 4.2283 71.5192 3.86168 76.2853 3.63607C81.0514 3.41047 86.1706 3.5374 90.7389 5.33519C91.6145 5.69475 92.709 6.18119 92.9208 7.20347C92.7301 8.61351 91.6357 9.75565 90.7531 10.8273C89.1573 12.7872 86.8555 14.0915 85.5774 16.3194C85.0647 16.9414 84.7809 17.7201 84.7732 18.5257C84.7655 19.3313 85.0344 20.1152 85.5351 20.7469C84.9319 21.5348 84.266 22.2727 83.5439 22.9536C83.1254 22.6464 82.7839 22.2465 82.5463 21.7853C82.3086 21.3242 82.1812 20.8143 82.1741 20.2957C82.5271 17.1583 85.3232 14.9235 85.6622 11.772C85.7475 11.2344 85.7023 10.6841 85.5303 10.1676C85.3582 9.65109 85.0644 9.18339 84.6736 8.80388C83.3567 8.13541 81.9128 7.75333 80.4371 7.68288C75.325 7.24576 70.2059 7.92965 65.0938 7.61239C60.0311 7.65469 55.0391 6.77341 50.04 6.10364C43.6852 5.49732 37.2386 5.25058 30.8273 5.14483C29.0513 5.14974 27.2766 5.2462 25.5105 5.43386C25.7885 5.68013 26.1126 5.86919 26.4639 5.99017C26.8153 6.11115 27.1872 6.16168 27.5582 6.13888C34.2095 6.23759 40.875 6.33631 47.5122 6.90737C50.3366 7.16823 53.0621 7.67585 55.8299 8.09886C55.7664 8.35266 55.6958 8.60645 55.6252 8.8673C50.7532 8.5571 45.867 8.60647 40.9879 8.40201C32.2254 8.0918 23.4628 7.80979 14.6932 7.69699C10.958 7.45728 7.05331 7.85212 3.48051 6.48438C2.50198 6.1227 1.54278 5.71089 0.60672 5.2506C1.2775 4.37637 1.97655 3.42459 3.00744 3.04388Z" fill="white"/>
<path d="M194.4 3.8331C200.684 4.09396 206.933 3.27614 213.196 2.91658C214.884 2.63458 216.253 3.9459 217.101 5.24314C214.028 6.80864 210.615 7.59322 207.166 7.52739C192.183 7.77415 177.207 8.38752 162.223 8.76823C162.223 9.01499 162.223 9.26175 162.223 9.47325C162.068 9.00794 161.934 8.54263 161.793 8.06321C165.076 7.612 168.331 6.98453 171.678 6.78007C177.75 6.32181 183.844 6.15261 189.937 6.07505C190.731 6.10951 191.514 5.8788 192.162 5.41939C187.318 4.90473 182.446 5.17966 177.595 5.30657C174.22 5.55332 170.831 5.60267 167.477 6.01158C162.972 6.55445 158.488 7.42162 153.948 7.46392C151.124 7.50622 148.299 7.74593 145.433 7.55558C141.902 7.48508 138.287 7.16782 134.806 7.95039C133.818 8.2747 132.631 8.65543 132.243 9.69886C131.403 11.398 132.328 13.3156 133.104 14.8596C134.043 16.8336 135.639 18.716 135.35 21.0497C135.116 21.829 134.59 22.4881 133.881 22.8897C133.232 22.169 132.628 21.4085 132.073 20.6125C132.441 19.9075 133.041 19.2025 132.878 18.3283C132.575 16.5093 131.261 15.0781 130.054 13.8091C128.275 12.0888 126.298 10.4744 125.111 8.27471C124.765 7.64724 124.511 6.72368 125.189 6.21607C127.187 4.80603 129.659 4.32658 132.024 3.93177C138.52 3.02935 145.073 3.79077 151.583 4.07278C154.771 4.38334 157.98 4.40223 161.171 4.1292C168.79 3.63568 176.43 2.87426 184.07 3.38188C187.523 3.60043 190.961 3.75555 194.4 3.8331Z" fill="white"/>
<path d="M94.227 6.17403C103.66 3.35396 114.125 2.94503 123.388 6.63933C123.388 7.577 123.12 8.61338 123.6 9.45941C125.252 12.4557 128.232 14.3945 130.393 16.9467C131.042 17.6565 131.524 18.5019 131.805 19.4213C128.46 16.3999 124.548 14.0707 120.296 12.5685C115.606 10.9335 110.622 10.3141 105.674 10.7518C100.727 11.1894 95.9288 12.6739 91.6003 15.1066C89.5364 16.3596 87.5955 17.8043 85.8033 19.4213C85.9131 18.9535 86.0966 18.5061 86.347 18.0959C88.3735 15.2335 91.4026 13.2594 93.4503 10.4182C94.46 9.23379 94.3823 7.65457 94.227 6.17403Z" fill="white"/>
<path d="M150.834 8.83148C154.287 8.45782 157.768 8.48602 161.221 8.08416C161.362 8.47192 161.496 8.87378 161.616 9.27564C158.792 10.9183 155.367 10.4954 152.246 10.0935C151.921 10.0243 151.62 9.87147 151.372 9.6501C151.124 9.42872 150.939 9.14651 150.834 8.83148Z" fill="white"/>
<path d="M56.3031 8.22568C59.7983 8.28208 63.3005 8.45129 66.7815 8.8038C66.5061 9.26911 66.2872 9.93184 65.6659 10.0023C63.8184 10.2737 61.955 10.4221 60.0878 10.4465C58.6756 10.5382 57.3411 9.88247 56.0913 9.27615C56.1549 8.92364 56.2255 8.57819 56.3031 8.22568Z" fill="white"/>
<path d="M6.15675 8.73304C13.1541 8.73304 20.1443 9.08553 27.1417 9.15603C35.8901 9.35344 44.6386 9.41689 53.38 9.6425C55.2017 9.5156 56.6915 10.693 58.1954 11.5178L58.026 13.2381L57.2211 13.6329L57.4541 12.9702C49.2917 13.1887 41.1364 13.7386 32.974 13.9854C27.8337 14.0912 22.7004 14.5353 17.553 14.4366C14.3062 14.5577 11.0591 14.2038 7.9149 13.3861C6.86283 13.0759 5.66955 12.9138 4.83636 12.1383C4.94467 10.9012 5.40256 9.72038 6.15675 8.73304Z" fill="white"/>
<path d="M67.2615 8.71919C68.6737 8.71919 70.0858 8.7756 71.498 8.85315C75.2262 9.00825 79.0532 8.70508 82.6683 9.80491C83.6304 10.0222 84.4735 10.597 85.0266 11.4124C85.3797 12.9775 84.49 14.3664 83.7204 15.6425C82.9649 17.0102 81.934 18.3004 81.6021 19.8726C81.1714 21.2826 82.0611 22.5305 82.7248 23.7079C81.7151 23.7079 80.4512 24.1732 79.6675 23.3483C79.2862 22.601 79.731 21.7268 79.8793 20.9583C79.3991 21.3954 78.9049 21.8255 78.4247 22.2556L76.6525 22.1427C76.5183 20.3026 77.9376 18.9772 78.6648 17.4191C77.408 18.533 76.137 20.1193 74.2729 19.9713C74.0962 19.9663 73.9239 19.9153 73.7729 19.8235C73.622 19.7317 73.4976 19.6022 73.412 19.4478C73.3265 19.2933 73.2828 19.1193 73.2852 18.9428C73.2876 18.7663 73.3359 18.5935 73.4256 18.4414C74.4353 17.1512 75.7416 16.1289 76.6877 14.7965C75.6036 15.723 74.3906 16.4876 73.0867 17.0666C72.0915 17.3181 71.0384 17.1951 70.1282 16.7211C70.2906 14.8669 72.2465 14.2183 73.3127 12.9422C72.1476 13.4217 71.1167 14.3523 69.7822 14.2536C69.255 14.2373 68.7324 14.1496 68.2288 13.9927C68.1512 12.4205 69.7893 11.8777 70.7143 10.94C69.9196 11.2173 69.0947 11.3996 68.257 11.4829C67.7206 11.2182 67.2199 10.8866 66.7672 10.4959C66.8888 9.89251 67.054 9.29873 67.2615 8.71919Z" fill="white"/>
<path d="M135.004 9.76934C140.038 8.45801 145.298 9.10663 150.439 8.71181C150.594 9.41683 151.222 10.3192 150.389 10.8621C149.478 11.9972 147.953 11.0525 146.859 10.8621C147.876 11.7293 149.443 12.3779 149.436 13.9713C148.56 14.1264 147.614 14.4295 146.753 14.0629C145.891 13.6963 145.185 13.3579 144.402 12.956C145.463 13.854 146.466 14.8195 147.402 15.8466C147.441 15.9939 147.446 16.1481 147.416 16.2974C147.386 16.4468 147.322 16.5872 147.229 16.7083C147.137 16.8293 147.018 16.9276 146.881 16.9957C146.745 17.0639 146.595 17.1001 146.442 17.1016C144.324 17.6374 142.672 15.9524 141.147 14.8032C141.98 15.8698 142.879 16.8846 143.837 17.8418C144.303 18.3283 144.253 19.0615 144.423 19.6749C143.66 19.7806 142.841 20.0838 142.1 19.7524C140.993 19.1764 139.981 18.4346 139.099 17.5527C139.925 18.9628 141.217 20.3164 141.062 22.1001L139.162 22.1706L137.927 20.9792C137.997 21.6842 138.47 22.5654 137.99 23.2493C137.235 24.0812 135.943 23.7287 134.975 23.8415C135.399 22.7629 136.246 21.8322 136.218 20.6196C135.893 17.447 132.963 15.2897 132.525 12.1594C132.426 10.7987 133.923 10.1712 135.004 9.76934Z" fill="white"/>
<path d="M163.939 9.64267C179.847 9.58627 195.713 8.93765 211.65 8.93765C212.266 9.93325 212.809 10.9724 213.274 12.0468C209.362 13.3088 205.196 13.2523 201.136 13.0972C193.609 13.0972 186.096 12.5967 178.541 12.3429C172.186 12.0468 165.831 11.793 159.477 11.4263C160.818 10.4746 162.287 9.59332 163.939 9.64267Z" fill="white"/>
<path d="M65.3268 10.8904C66.1812 10.7353 66.7955 11.4825 67.3886 11.9549C67.5461 12.0816 67.6702 12.2449 67.7502 12.4304C67.8302 12.6159 67.8636 12.8181 67.8476 13.0195C67.0852 13.4588 66.2426 13.7417 65.3692 13.8514C63.6995 14.2611 62.0031 14.5533 60.2924 14.7257C59.6382 14.5454 59.0498 14.1807 58.5978 13.6751C58.4566 12.9208 58.6896 11.8633 59.551 11.6588C61.4575 11.2781 63.4063 11.1794 65.3268 10.8904Z" fill="white"/>
<path d="M151.618 10.9397C153.753 10.9771 155.881 11.2131 157.973 11.6447C158.954 11.8351 158.933 12.9984 159.187 13.7598C158.368 14.218 157.577 14.9372 156.553 14.7327C155.078 14.5071 153.623 14.1264 152.147 13.8585C151.313 13.7719 150.51 13.4918 149.803 13.0407C149.874 12.0325 150.862 11.4121 151.618 10.9397Z" fill="white"/>
<path d="M106.499 12.2793C115.261 11.6447 124.49 14.4437 130.81 20.6831C134.072 23.9826 136.458 28.4383 136.373 33.1689C136.458 37.4414 134.566 41.5728 131.763 44.7242C126.629 50.5477 118.912 53.6428 111.286 54.2138C104.388 54.7933 97.4844 53.1608 91.5792 49.5537C88.3703 47.6336 85.6684 44.9745 83.6993 41.7985C81.433 38.0912 80.6939 33.6511 81.6375 29.4112C82.6486 25.6813 84.7624 22.3423 87.7028 19.83C92.8361 15.2051 99.7063 12.7798 106.513 12.3074M105.807 12.667C98.4919 13.372 91.0214 16.1921 86.1706 21.9239C83.3463 25.0824 81.468 29.2561 81.7787 33.5497C81.9411 39.6692 85.8458 45.0979 90.7249 48.5172C98.7531 54.1574 109.408 55.3207 118.693 52.5147C122.932 51.2455 126.805 48.9829 129.99 45.9157C133.881 42.158 136.479 36.6941 135.766 31.2091C135.166 26.711 132.575 22.6642 129.193 19.7243C122.88 14.1476 114.103 11.8845 105.807 12.6388V12.667Z" fill="white"/>
<path d="M159.385 12.4063C161.362 12.364 163.339 12.6319 165.316 12.7235C178.4 13.5202 191.498 13.9996 204.582 14.7611C205.422 14.8809 206.375 14.7187 207.145 15.1418C207.603 15.9247 207.874 16.8031 207.935 17.708C205.196 19.393 201.785 18.9771 198.721 19.0617C193.567 18.7232 188.44 17.99 183.279 17.6516C175.364 16.862 167.413 16.3967 159.533 15.3109C159.587 14.3402 159.537 13.3665 159.385 12.4063Z" fill="white"/>
<path d="M50.3154 14.3447C52.476 14.246 54.6296 14.0064 56.7902 14.1051C58.1318 14.4858 59.0497 15.6138 60.0523 16.5162C59.8122 17.2212 59.5934 17.9263 59.4027 18.6313C60.0593 19.1614 60.7692 19.6222 61.521 20.0061C56.8184 20.7604 52.1583 21.7545 47.4839 22.6499C41.8352 23.8766 36.243 25.1175 30.5378 26.041C26.8397 26.7019 23.0379 26.487 19.4381 25.4136C19.2118 25.3305 19.0064 25.1991 18.8361 25.0287C18.6658 24.8582 18.5348 24.6528 18.4522 24.4266C18.3695 24.2005 18.3372 23.9591 18.3575 23.7192C18.3778 23.4793 18.4501 23.2467 18.5696 23.0376C18.7249 22.1352 19.8547 22.2127 20.5326 22.0858C32.1195 20.9014 43.6711 19.4068 55.2368 18.032C56.8467 17.8628 58.6825 17.8205 59.8688 16.5515C47.1239 17.7218 34.4142 19.3715 21.6623 20.4855C18.0694 20.8936 14.4312 20.4093 11.071 19.0754C11.3895 18.0354 11.8254 17.0349 12.3702 16.0932C25.0303 15.5433 37.7046 15.2824 50.3154 14.3447Z" fill="white"/>
<path d="M63.364 15.2901C64.7761 14.9235 66.2378 14.4863 67.7206 14.7331C68.4762 14.9898 69.2085 15.3106 69.9094 15.6919C69.8247 16.8905 68.6455 17.2007 67.7417 17.6166C66.6049 18.0749 65.4963 18.6107 64.3313 19.0267C62.8626 19.499 61.3799 18.7729 60.0242 18.2441C60.1324 17.5988 60.3496 16.9766 60.6667 16.404C61.4929 15.8766 62.406 15.4995 63.364 15.2901Z" fill="white"/>
<path d="M149.93 14.7045C151.787 14.4648 153.581 15.0711 155.325 15.6139C155.963 15.7533 156.56 16.0381 157.069 16.4458C157.298 17.0275 157.489 17.6233 157.641 18.2296C156.313 18.7019 154.901 19.5338 153.447 19.0685C151.49 18.3463 149.572 17.5251 147.699 16.608C147.883 15.4729 148.949 14.9512 149.93 14.7045Z" fill="white"/>
<path d="M157.761 16.263C160.239 16.0727 162.704 16.5662 165.147 16.82C172.033 17.5955 178.925 18.3405 185.821 19.0549C190.763 19.6682 195.706 20.0348 200.649 20.7681C200.769 21.748 201.786 23.5882 200.345 23.9548C196.98 24.4915 193.556 24.5674 190.17 24.1804C179.431 22.5165 168.726 20.613 157.973 19.0408C157.937 18.1172 157.86 17.1866 157.761 16.263Z" fill="white"/>
<path d="M102.997 17.8984C107.487 17.0453 112.176 16.8831 116.631 18.1663C119.194 18.9277 121.793 20.2179 123.268 22.5445C124.188 24.0469 124.472 25.8524 124.059 27.5642C123.544 29.6158 121.659 30.8777 120.035 32.0269C120.035 32.1186 120.035 32.309 120.035 32.4077C122.449 34.0504 125.069 36.3417 124.977 39.5283C125.203 41.8267 123.982 43.9912 122.322 45.4858C121.148 46.3882 119.856 47.1259 118.481 47.6784C114.576 49.0179 110.375 49.1942 106.287 48.9263C101.274 48.2988 96.0204 46.8887 92.3276 43.2367C92.956 42.3837 93.7822 41.6928 94.3682 40.8045C94.6083 35.9398 94.5165 31.0329 94.4176 26.1612C93.8175 25.2658 93.0055 24.5538 92.2994 23.7148C94.7919 20.3025 98.9507 18.7797 102.926 17.8984M106.937 19.5058C105.705 19.6381 104.552 20.1707 103.653 21.0216C102.17 22.5515 102.05 24.8499 102.333 26.838C102.407 27.8161 102.761 28.7523 103.353 29.5348C103.945 30.3174 104.751 30.9133 105.673 31.2514C107.811 31.9381 110.106 31.9676 112.26 31.336C114.562 30.5817 115.727 28.0648 115.671 25.7805C115.791 23.8417 115.304 21.5504 113.553 20.4576C111.604 19.1533 109.132 19.2873 106.915 19.5058M107.424 33.6062C104.938 33.8883 102.552 35.7213 102.121 38.2735C101.853 40.734 101.952 43.7303 103.978 45.4929C105.371 46.4897 107.031 47.047 108.744 47.0932C111.088 47.1566 113.835 46.7901 115.283 44.6962C116.878 42.3062 116.885 39.056 115.784 36.4615C114.273 33.5568 110.453 33.1973 107.509 33.5992L107.424 33.6062Z" fill="white"/>
<path d="M68.3488 18.1804C68.9937 17.8958 69.6995 17.7764 70.4023 17.8331C71.1051 17.8897 71.7827 18.1206 72.3735 18.5048C72.5142 18.5832 72.6337 18.6946 72.7218 18.8294C72.8098 18.9641 72.8638 19.1182 72.8791 19.2784C72.8944 19.4386 72.8705 19.6 72.8095 19.749C72.7485 19.8979 72.6522 20.0298 72.5289 20.1334C71.074 21.1622 69.5056 22.0209 67.8546 22.6926C66.5624 23.1156 65.2562 22.6291 64.0417 22.2132C63.9146 21.621 63.7945 21.0358 63.6745 20.4506C65.2067 19.6399 66.7672 18.8855 68.3488 18.1804Z" fill="white"/>
<path d="M145.397 18.4557C146.316 17.9229 147.389 17.7166 148.44 17.8705C149.973 18.4698 151.455 19.1819 152.931 19.9151C153.256 20.1337 153.743 20.2465 153.884 20.6624C153.923 21.0303 153.844 21.4009 153.661 21.7221C153.477 22.0433 153.197 22.2989 152.861 22.4532C152.344 22.7139 151.78 22.8677 151.202 22.9053C150.625 22.9428 150.046 22.8634 149.5 22.6717C147.799 21.8275 146.149 20.8859 144.557 19.8516C144.762 19.3722 144.818 18.6884 145.397 18.4557Z" fill="white"/>
<path d="M154.464 20.5989C155.098 20.2523 155.818 20.0934 156.539 20.1406C159.354 20.1681 162.159 20.4727 164.914 21.0501C172.483 22.4178 180.045 23.7856 187.607 25.2097C189.521 25.5975 191.456 25.9147 193.341 26.4576C193.08 27.5926 192.945 29.3693 191.498 29.5808C186.838 30.166 182.163 29.1296 177.694 27.8888C170.287 25.8795 162.824 24.131 155.431 22.0724C154.988 21.9771 154.532 21.9557 154.082 22.0089C154.151 21.5251 154.279 21.0515 154.464 20.5989Z" fill="white"/>
<path d="M51.7276 22.9183C55.5616 22.1498 59.3463 21.0711 63.2439 20.634C63.4636 21.6739 63.7586 22.6965 64.1265 23.6938C58.3719 25.4563 52.6243 27.2188 46.8273 28.8756C43.7629 29.7569 40.7479 30.899 37.5705 31.3291C34.6854 31.6152 31.7726 31.4102 28.9562 30.7228C27.8124 30.4196 27.4946 29.1859 27.4734 28.1495C35.544 26.4081 43.6005 24.5328 51.7276 22.9183Z" fill="white"/>
<path d="M72.6207 21.2751C73.5247 21.0719 74.4589 21.0408 75.3745 21.1835C75.9958 21.3386 76.4266 22.2904 75.7981 22.7134C74.386 24.1234 72.9102 25.9353 70.7355 26.034C70.0124 26.0578 69.2887 26.0106 68.5748 25.893C68.0594 25.5475 68.1018 24.8143 67.9252 24.2997C69.4998 23.3056 71.0038 22.1987 72.6207 21.2751Z" fill="white"/>
<path d="M142.305 21.1979C143.413 21.1345 144.755 20.8383 145.673 21.6703C147.021 22.5586 148.37 23.4751 149.733 24.3493C149.507 24.8076 149.591 25.5761 149.062 25.8651C147.876 25.992 146.619 26.2529 145.461 25.8158C144.154 24.977 142.948 23.9905 141.867 22.8759C141.741 22.7525 141.651 22.5983 141.604 22.4288C141.557 22.2594 141.556 22.0807 141.601 21.9107C141.645 21.7406 141.733 21.5853 141.857 21.4601C141.981 21.335 142.135 21.2446 142.305 21.1979Z" fill="white"/>
<path d="M151.703 24.3427C152.586 23.8084 153.506 23.3372 154.456 22.9326C155.908 23.1613 157.342 23.4887 158.749 23.9126C165.704 25.9501 172.673 27.9594 179.621 30.0251C180.934 30.3654 182.226 30.7821 183.491 31.273C183.152 32.1402 182.785 33.1202 182.015 33.6489C178.688 34.3531 175.231 34.1286 172.024 33.0003C169.574 32.0696 167.237 30.8853 164.829 29.863C160.465 28.0158 156.123 26.077 151.703 24.3427Z" fill="white"/>
<path d="M76.3348 23.595C76.8961 23.3746 77.5053 23.3041 78.1021 23.3907C78.699 23.4772 79.2629 23.7178 79.7382 24.0885C78.9873 25.6503 77.9421 27.053 76.6596 28.2199C75.9536 29.0378 74.8309 28.925 73.9271 28.6218C73.4339 28.1121 73.0495 27.5077 72.7974 26.8451C73.8509 25.6329 75.0375 24.5427 76.3348 23.595Z" fill="white"/>
<path d="M138.061 24.6312C137.899 23.7358 139.099 23.2212 139.833 23.3551C140.991 23.0872 141.874 23.9826 142.658 24.6453C143.307 25.3009 144.169 25.8438 144.578 26.6969C144.72 27.4654 144.084 28.1069 143.872 28.812C142.919 28.6287 141.754 28.9882 140.984 28.2127C139.823 27.1842 138.836 25.9747 138.061 24.6312Z" fill="white"/>
<path d="M59.078 26.1612C61.5422 25.4562 63.957 24.2436 66.5837 24.4551C67.5157 24.5891 67.6358 25.6748 67.9959 26.3727C66.4117 26.9757 64.8691 27.6822 63.3781 28.4878C59.4381 30.3702 55.6111 32.4359 51.6711 34.3395C48.9809 35.7495 45.8176 35.5239 42.8874 35.5451C42.0683 35.4605 41.1504 35.5451 40.4372 35.0727C40.015 34.4247 39.7069 33.7094 39.5264 32.9576C41.7505 31.8437 44.2148 31.329 46.5167 30.3984C50.6402 28.8756 54.8979 27.6206 59.078 26.1612Z" fill="white"/>
<path d="M79.7098 25.28C80.3594 24.7865 81.2279 24.7865 81.9976 24.575C80.9893 26.6436 80.2513 28.833 79.8016 31.0894C78.9331 30.8849 77.8458 30.6734 77.4715 29.7498C77.2032 29.3057 77.4715 28.7981 77.6692 28.3891C78.2462 27.2888 78.9297 26.2475 79.7098 25.28Z" fill="white"/>
<path d="M135.477 24.5325C136.331 24.737 137.369 24.6735 138.004 25.3645C138.953 26.537 139.726 27.8408 140.299 29.235C140.158 29.7715 139.834 30.2422 139.383 30.5664C138.932 30.8905 138.382 31.0479 137.828 31.0117C137.365 28.7489 136.573 26.5659 135.477 24.5325Z" fill="white"/>
<path d="M150.262 24.8144C151.914 25.1175 153.369 26.0341 154.873 26.7391C160.879 29.5591 166.867 32.4051 172.836 35.2769C172.819 35.9586 172.637 36.6261 172.306 37.2227C170.823 37.8008 169.178 37.554 167.646 37.406C165.768 37.1945 163.819 36.9759 162.181 35.9959C157.57 33.1336 153.284 29.7566 148.476 27.2255C149.514 26.8166 149.874 25.7521 150.262 24.8144Z" fill="white"/>
<path d="M66.1177 28.1851C67.0662 27.624 68.1234 27.2709 69.2191 27.1494C70.3148 27.0278 71.4239 27.1405 72.4725 27.4801C70.7144 29.5951 68.3349 31.0052 66.1601 32.6619C63.6252 34.3822 61.274 36.4408 58.4426 37.6676C56.2201 38.4215 53.8738 38.7446 51.5299 38.6194C51.0776 38.5292 50.6744 38.2761 50.397 37.9081C50.1196 37.5401 49.9876 37.0831 50.026 36.6241C55.3287 33.7406 60.7797 31.0616 66.1177 28.1851Z" fill="white"/>
<path d="M145.581 27.3956C146.276 27.2869 146.987 27.3323 147.663 27.5284C148.339 27.7246 148.964 28.0667 149.493 28.5307C153.567 31.5693 157.627 34.6362 161.715 37.6607C162.23 37.9828 162.605 38.4859 162.767 39.0708C161.63 39.5713 160.388 40.1635 159.117 39.7758C157.599 39.4374 155.967 39.2752 154.654 38.3657C150.785 35.9052 147.636 32.4647 143.71 30.0818C144.543 29.2851 144.79 28.1006 145.581 27.3956Z" fill="white"/>
<path d="M64.2958 35.3125C67.0284 33.1975 69.6833 30.9344 72.4794 28.8828C73.5174 30.4973 75.5156 29.9403 77.0972 30.3774C73.6445 32.852 71.0461 36.2925 67.6286 38.8376C65.5598 40.3746 62.3329 40.9527 60.2358 39.176C61.2597 37.5615 62.8766 36.5111 64.2958 35.3125Z" fill="white"/>
<path d="M141.111 30.0104C142.114 30.2219 143.23 30.3065 143.999 31.0609C146.584 33.2323 149.012 35.5871 151.597 37.7586C152.479 38.5693 153.659 39.2673 153.757 40.5786C152.896 40.903 151.929 41.2837 151.018 40.8748C149.245 40.4095 147.854 39.1545 146.52 37.9772C144.3 35.8048 141.969 33.7481 139.537 31.8153C140.045 31.2301 140.575 30.6167 141.111 30.0104Z" fill="white"/>
<path d="M76.8996 31.6254C77.8246 31.8722 78.7213 32.2177 79.6534 32.4574C79.7663 33.3598 79.8299 34.2693 79.8864 35.1787C78.3047 36.765 77.062 38.8589 74.9438 39.7966C73.5201 40.3467 71.9819 40.5357 70.4671 40.3465C69.9757 40.1832 69.5402 39.8851 69.2103 39.4864C71.7593 36.8144 74.1459 34.0225 76.8996 31.6254Z" fill="white"/>
<path d="M138.026 32.2737C139.395 32.2737 140.306 33.3382 141.154 34.2547C142.933 36.3134 144.974 38.1253 146.802 40.1346C146.407 40.6563 145.983 41.3684 145.164 41.0935C144.201 41.1491 143.238 40.9952 142.34 40.6423C140.455 39.7398 139.212 37.9913 137.602 36.7153C137.753 35.2347 137.894 33.7542 138.026 32.2737Z" fill="white"/>
<path d="M77.9305 39.9446C77.6269 38.4853 78.9896 37.4559 79.8369 36.4689C80.4026 38.0175 80.8881 39.594 81.2915 41.1925C80.2041 40.995 78.5589 41.1079 77.9305 39.9446Z" fill="white"/>
<path d="M137.51 37.8149C138.301 38.52 139.367 39.4647 139.05 40.635C138.442 41.6996 137.072 41.7066 136.006 41.8194C136.515 40.4893 137.016 39.1545 137.51 37.8149Z" fill="white"/>
<path d="M73.3126 41.9609C74.4565 41.5731 75.6003 41.1713 76.7301 40.7342C77.5386 41.5146 78.54 42.0668 79.6321 42.3345C80.3382 42.553 81.2067 42.4967 81.8563 42.9056C83.2685 44.6399 84.5324 46.5224 86.2976 47.9324C89.0019 50.4493 92.2711 52.1625 95.3285 54.2141C94.806 56.3926 93.3938 58.1833 92.2499 60.0587C83.8898 56.8508 76.6383 50.3506 73.3126 41.9609Z" fill="white"/>
<path d="M140.264 41.2978C141.104 41.6433 141.952 42.0029 142.799 42.3061C141.01 46.9021 138.074 50.9648 134.269 54.1081C131.581 56.4847 128.467 58.3315 125.09 59.5508C124.384 58.2747 123.586 57.0269 122.972 55.7014C122.788 55.2361 122.499 54.6368 122.88 54.2068C123.833 53.3929 124.89 52.7078 126.022 52.1693C128.269 50.8132 130.36 49.215 132.257 47.4033C133.528 46.1836 134.333 44.5833 135.498 43.2719C136.501 42.8701 137.659 43.0463 138.647 42.5669C139.235 42.2101 139.778 41.784 140.264 41.2978Z" fill="white"/>
<path d="M70.5872 41.9394H72.4371C73.9683 45.8875 76.3221 49.4658 79.3426 52.4371C81.1429 54.2212 83.1181 55.8202 85.2385 57.2101C87.3637 58.5149 89.5767 59.6714 91.8616 60.6717C91.644 61.2934 91.3772 61.897 91.0637 62.4766C88.8563 61.5988 86.73 60.5301 84.7089 59.2828C81.9834 57.6824 79.7098 55.4616 77.4362 53.3043C75.0637 50.9988 73.5386 48.0378 71.9499 45.1895C71.4048 44.1464 70.9489 43.0591 70.5872 41.9394Z" fill="white"/>
<path d="M143.519 42.4615L145.524 42.6448C144.015 47.2514 141.365 51.4029 137.821 54.7147C134.446 57.8027 130.69 60.7497 126.269 62.1598C125.959 61.5182 125.648 60.8765 125.352 60.2279C128.18 59.0635 130.839 57.527 133.26 55.6594C137.609 52.1343 141.514 47.7773 143.519 42.4615Z" fill="white"/>
<path d="M121.941 52.4654C125.441 51.1189 128.617 49.0504 131.261 46.3951C129.538 48.8133 126.855 50.2093 124.483 51.8802C123.388 52.7192 121.849 53.2479 121.404 54.7003C121.503 55.5533 122.188 56.1879 122.583 56.9211C123.589 58.5969 124.506 60.3242 125.33 62.0959C125.761 63.2169 125.33 64.3802 124.885 65.4236C123.473 65.0358 121.856 64.3802 121.228 62.9279C120.02 60.7353 120.049 57.9927 118.403 56.0398C118.248 58.9515 120.366 61.3204 120.719 64.1334C120.469 65.0967 120.051 66.0085 119.484 66.8266C118.22 66.1216 116.659 65.4165 116.37 63.8443C115.501 61.5178 116.031 58.74 114.626 56.6108C114.054 58.6413 115.042 60.6084 115.431 62.5683C115.628 63.7809 116.172 65.3108 115.212 66.3401C114.901 66.7561 114.583 67.1579 114.252 67.5527C113.298 66.8477 112.063 66.2414 111.759 65.0147C111.215 62.6599 111.611 60.2065 111.173 57.8377C111.029 57.5609 110.851 57.3027 110.644 57.0691C110.008 59.8892 111.42 62.6529 111.074 65.4871C110.899 66.0317 110.592 66.5243 110.179 66.9206C109.766 67.3169 109.261 67.6044 108.709 67.7572C107.664 67.0522 106.689 65.9383 106.704 64.5776C106.569 62.1171 107.494 59.7271 107.367 57.2595H106.704C106.365 59.3745 106.534 61.4896 106.4 63.6047C106.386 64.5736 106.057 65.5117 105.461 66.2767C104.905 66.7568 104.307 67.1862 103.674 67.5598C103.041 67.0024 102.506 66.3421 102.093 65.6069C101.789 64.4154 102.213 63.231 102.46 62.0818C102.884 60.3404 103.505 58.599 103.427 56.7871H102.82C102.072 59.1348 102.114 61.6236 101.408 63.9854C101.221 64.5883 100.902 65.1418 100.473 65.6053C100.044 66.0689 99.5166 66.4307 98.9295 66.6644C98.6811 66.7453 98.4111 66.7284 98.1748 66.617C97.9385 66.5056 97.7538 66.3081 97.6585 66.0652C96.783 64.9442 97.2278 63.4425 97.6091 62.2299C98.3929 60.2136 99.3602 58.2465 99.7909 56.1174L99.1907 55.8636C97.9198 58.2324 97.6162 60.982 96.2817 63.3156C95.9927 63.8573 95.5912 64.3312 95.1042 64.7057C94.6171 65.0801 94.0557 65.3465 93.4573 65.4871C93.0478 65.6281 92.7512 65.2897 92.5394 64.9724C92.308 64.503 92.1842 63.988 92.1768 63.4649C92.1695 62.9418 92.2789 62.4236 92.497 61.9479C93.5209 59.7553 94.9472 57.7812 95.9428 55.6027C96.1405 54.9964 96.4582 54.1927 95.9428 53.671C93.9445 51.6194 91.0002 50.9567 88.9454 48.9333C91.0637 50.1882 93.1113 51.6194 95.4556 52.4584C103.96 55.8357 113.435 55.8382 121.941 52.4654Z" fill="white"/>
</svg>
