<svg width="66" height="40" viewBox="0 0 66 40" fill="none" xmlns="http://www.w3.org/2000/svg">
<g clip-path="url(#clip0_134_353)">
<g filter="url(#filter0_d_134_353)">
<mask id="mask0_134_353" style="mask-type:luminance" maskUnits="userSpaceOnUse" x="0" y="0" width="66" height="40">
<path d="M65.2809 0H0.544067V40H65.2809V0Z" fill="white"/>
</mask>
<g mask="url(#mask0_134_353)">
<path fill-rule="evenodd" clip-rule="evenodd" d="M20.5766 0C22.8241 0 24.985 0.37073 27.0016 1.05437L26.781 7.25695L26.7377 10.6041C25.0202 9.55311 23.0007 8.94737 20.8397 8.94737C18.721 8.94737 16.7383 9.52963 15.0429 10.5429L8.65161 3.94245C11.9813 1.46564 16.1078 0 20.5766 0Z" fill="white"/>
<path fill-rule="evenodd" clip-rule="evenodd" d="M6.03589 6.23386L12.3456 12.7501C10.5701 14.7483 9.49168 17.3798 9.49168 20.2632C9.49168 22.6341 10.2208 24.8346 11.467 26.6529L5.24895 32.8868C2.31342 29.4062 0.544312 24.9097 0.544312 20C0.544312 14.666 2.63246 9.81959 6.03589 6.23386Z" fill="white"/>
<path fill-rule="evenodd" clip-rule="evenodd" d="M7.72327 35.3218C11.1992 38.2405 15.6826 39.9983 20.5765 39.9983C25.9838 39.9983 30.8899 37.8524 34.4896 34.3658L32.0587 32.0068L28.6018 28.4954C26.5757 30.406 23.8444 31.5772 20.8397 31.5772C18.2063 31.5772 15.7831 30.6777 13.8604 29.1691L7.72327 35.3218Z" fill="white"/>
<path d="M14.7738 20.1137C14.7738 19.2983 14.9408 18.5762 15.2749 17.9474C15.6187 17.3186 16.0805 16.8323 16.6601 16.4884C17.2496 16.1347 17.898 15.9579 18.6054 15.9579C19.244 15.9579 19.7991 16.0856 20.2706 16.3411C20.7521 16.5867 21.1352 16.8962 21.4201 17.2695V16.0905H23.1149V24.2105H21.4201V23.0021C21.1352 23.3853 20.7471 23.7046 20.2559 23.96C19.7647 24.2154 19.2047 24.3432 18.5759 24.3432C17.8784 24.3432 17.2398 24.1663 16.6601 23.8126C16.0805 23.4491 15.6187 22.9481 15.2749 22.3095C14.9408 21.6611 14.7738 20.9291 14.7738 20.1137ZM21.4201 20.1432C21.4201 19.5832 21.3022 19.0968 21.0664 18.6842C20.8405 18.2716 20.5408 17.9572 20.1675 17.7411C19.7942 17.5249 19.3913 17.4168 18.9591 17.4168C18.5268 17.4168 18.124 17.5249 17.7506 17.7411C17.3773 17.9474 17.0728 18.2568 16.837 18.6695C16.611 19.0723 16.498 19.5537 16.498 20.1137C16.498 20.6737 16.611 21.1649 16.837 21.5874C17.0728 22.0098 17.3773 22.3341 17.7506 22.56C18.1338 22.7762 18.5366 22.8842 18.9591 22.8842C19.3913 22.8842 19.7942 22.7762 20.1675 22.56C20.5408 22.3438 20.8405 22.0295 21.0664 21.6168C21.3022 21.1944 21.4201 20.7032 21.4201 20.1432ZM27.591 17.2842C27.8759 16.9109 28.2639 16.5965 28.7552 16.3411C29.2464 16.0856 29.8015 15.9579 30.4204 15.9579C31.1278 15.9579 31.7713 16.1347 32.351 16.4884C32.9404 16.8323 33.4022 17.3186 33.7362 17.9474C34.0702 18.5762 34.2373 19.2983 34.2373 20.1137C34.2373 20.9291 34.0702 21.6611 33.7362 22.3095C33.4022 22.9481 32.9404 23.4491 32.351 23.8126C31.7713 24.1663 31.1278 24.3432 30.4204 24.3432C29.8015 24.3432 29.2513 24.2204 28.7699 23.9747C28.2885 23.7193 27.8955 23.4049 27.591 23.0316V28.0716H25.911V16.0905H27.591V17.2842ZM32.5278 20.1137C32.5278 19.5537 32.4099 19.0723 32.1741 18.6695C31.9481 18.2568 31.6436 17.9474 31.2604 17.7411C30.8871 17.5249 30.4843 17.4168 30.052 17.4168C29.6295 17.4168 29.2268 17.5249 28.8436 17.7411C28.4702 17.9572 28.1657 18.2716 27.9299 18.6842C27.7039 19.0968 27.591 19.5832 27.591 20.1432C27.591 20.7032 27.7039 21.1944 27.9299 21.6168C28.1657 22.0295 28.4702 22.3438 28.8436 22.56C29.2268 22.7762 29.6295 22.8842 30.052 22.8842C30.4843 22.8842 30.8871 22.7762 31.2604 22.56C31.6436 22.3341 31.9481 22.0098 32.1741 21.5874C32.4099 21.1649 32.5278 20.6737 32.5278 20.1137ZM38.1681 13.9684V24.2105H36.4881V13.9684H38.1681ZM42.9232 17.4611V21.9558C42.9232 22.2604 42.992 22.4814 43.1295 22.619C43.2769 22.7467 43.5225 22.8105 43.8664 22.8105H44.898V24.2105H43.5716C42.8152 24.2105 42.2355 24.0337 41.8327 23.68C41.4299 23.3263 41.2285 22.7516 41.2285 21.9558V17.4611H40.2706V16.0905H41.2285V14.0716H42.9232V16.0905H44.898V17.4611H42.9232ZM53.2106 22.1179H48.9222L48.1853 24.2105H46.4316L50.1011 13.9537H52.0464L55.7159 24.2105H53.9475L53.2106 22.1179ZM52.739 20.7474L51.0737 15.9874L49.3938 20.7474H52.739ZM59.5806 13.3053V24.2105H57.9006V13.3053H59.5806ZM64.0559 13.3053V24.2105H62.3759V13.3053H64.0559Z" fill="white"/>
</g>
</g>
</g>
<defs>
<filter id="filter0_d_134_353" x="-4.45569" y="-5" width="73.5116" height="49.9983" filterUnits="userSpaceOnUse" color-interpolation-filters="sRGB">
<feFlood flood-opacity="0" result="BackgroundImageFix"/>
<feColorMatrix in="SourceAlpha" type="matrix" values="0 0 0 0 0 0 0 0 0 0 0 0 0 0 0 0 0 0 127 0" result="hardAlpha"/>
<feOffset/>
<feGaussianBlur stdDeviation="2.5"/>
<feComposite in2="hardAlpha" operator="out"/>
<feColorMatrix type="matrix" values="0 0 0 0 1 0 0 0 0 1 0 0 0 0 1 0 0 0 0.32 0"/>
<feBlend mode="normal" in2="BackgroundImageFix" result="effect1_dropShadow_134_353"/>
<feBlend mode="normal" in="SourceGraphic" in2="effect1_dropShadow_134_353" result="shape"/>
</filter>
<clipPath id="clip0_134_353">
<rect width="64.7368" height="40" fill="white" transform="translate(0.544312)"/>
</clipPath>
</defs>
</svg>
