<svg width="86" height="40" viewBox="0 0 86 40" fill="none" xmlns="http://www.w3.org/2000/svg">
<mask id="mask0_134_379" style="mask-type:luminance" maskUnits="userSpaceOnUse" x="0" y="0" width="86" height="40">
<path d="M85.8519 0H0.281128V40H85.8519V0Z" fill="white"/>
</mask>
<g mask="url(#mask0_134_379)">
<g filter="url(#filter0_d_134_379)">
<path d="M33.658 34.1913V5.84346C33.6577 5.57245 33.7109 5.30405 33.8145 5.0536C33.918 4.80315 34.07 4.57557 34.2615 4.38385C34.4531 4.19213 34.6805 4.04005 34.9309 3.93628C35.1812 3.83252 35.4496 3.77911 35.7206 3.77911H45.5362C45.8074 3.77888 46.0759 3.83212 46.3265 3.93579C46.5771 4.03945 46.8048 4.1915 46.9965 4.38324C47.1882 4.57497 47.3402 4.80263 47.4439 5.0532C47.5476 5.30376 47.6009 5.5723 47.6006 5.84346C47.6009 6.11462 47.5476 6.38316 47.4439 6.63372C47.3402 6.88428 47.1882 7.11194 46.9965 7.30368C46.8048 7.49542 46.5771 7.64747 46.3265 7.75117C46.0759 7.85479 45.8074 7.90807 45.5362 7.90777H38.0197V17.6731H44.9415C45.2125 17.6731 45.4808 17.7264 45.7312 17.8302C45.9815 17.934 46.209 18.086 46.4005 18.2777C46.5921 18.4695 46.744 18.6971 46.8476 18.9475C46.9511 19.198 47.0043 19.4663 47.0041 19.7374V19.7826C47.0043 20.0536 46.9511 20.322 46.8476 20.5725C46.744 20.8229 46.5921 21.0505 46.4005 21.2422C46.209 21.4339 45.9815 21.586 45.7312 21.6897C45.4808 21.7935 45.2125 21.8469 44.9415 21.8469H38.0197V32.1252H45.818C46.089 32.1252 46.3574 32.1786 46.6077 32.2824C46.8581 32.3861 47.0855 32.5383 47.2771 32.73C47.4686 32.9217 47.6206 33.1492 47.7241 33.3997C47.8276 33.6501 47.8809 33.9186 47.8806 34.1896C47.8806 34.7366 47.6633 35.2612 47.2765 35.648C46.8897 36.0349 46.365 36.2522 45.818 36.2522H35.731C35.4594 36.2535 35.1902 36.2013 34.9389 36.0983C34.6875 35.9954 34.459 35.8438 34.2664 35.6524C34.0738 35.4608 33.9209 35.2332 33.8164 34.9825C33.7121 34.7318 33.6582 34.4629 33.658 34.1913Z" fill="white"/>
<path d="M58.6087 36.7583C56.9855 36.7583 55.6022 36.4684 54.4591 35.8887C53.38 35.3628 52.4259 34.6121 51.6608 33.6869C50.9551 32.8246 50.4182 31.8369 50.0782 30.7757C49.7556 29.806 49.5854 28.7922 49.5739 27.7704V6.23478C49.5739 5.94811 49.6305 5.66426 49.7404 5.39952C49.8504 5.13478 50.0116 4.89436 50.2147 4.69205C50.4178 4.48975 50.6588 4.32954 50.924 4.22064C51.1892 4.11172 51.4733 4.05624 51.76 4.05739C52.3374 4.05739 52.8912 4.28679 53.2996 4.69513C53.7079 5.10347 53.9373 5.6573 53.9373 6.23478V27.7687C53.9441 28.3303 54.0374 28.8876 54.2139 29.4209C54.3939 29.9971 54.6812 30.5341 55.0608 31.0035C55.7507 31.7837 56.6748 32.3194 57.6947 32.5304C58.7146 32.7414 59.7754 32.6164 60.7182 32.174C61.2714 31.8918 61.7567 31.493 62.1408 31.0052C62.5075 30.5306 62.7872 29.9948 62.9669 29.4226C63.142 28.889 63.2347 28.3319 63.2417 27.7704V6.23478C63.2417 5.9487 63.2981 5.66541 63.4076 5.40113C63.5171 5.13684 63.6777 4.89673 63.8801 4.69452C64.0824 4.4923 64.3227 4.33196 64.5871 4.22264C64.8515 4.11331 65.1348 4.05716 65.4208 4.05739C65.9983 4.05739 66.5521 4.28679 66.9605 4.69513C67.3688 5.10347 67.5983 5.6573 67.5983 6.23478V27.7687C67.5888 28.7854 67.4425 29.7962 67.1635 30.774C66.8582 31.8822 66.3189 32.9121 65.5817 33.7941C64.8446 34.6761 63.9269 35.3898 62.8904 35.8869C61.7495 36.4678 60.3223 36.7583 58.6087 36.7583Z" fill="white"/>
<path d="M69.615 34.1913V33.6992C69.6165 33.4177 69.6757 33.1395 69.7889 32.8817L80.5786 7.90958H71.8637C71.5925 7.9098 71.324 7.85652 71.0734 7.7529C70.8228 7.6492 70.5952 7.49717 70.4034 7.30543C70.2117 7.1137 70.0597 6.88603 69.956 6.63547C69.8523 6.38491 69.7991 6.11637 69.7993 5.84521C69.7991 5.57405 69.8523 5.30551 69.956 5.05495C70.0597 4.80438 70.2117 4.57672 70.4034 4.38499C70.5952 4.19324 70.8228 4.0412 71.0734 3.93753C71.324 3.83387 71.5925 3.78063 71.8637 3.78086H83.6043C83.876 3.78017 84.1447 3.83308 84.396 3.93654C84.6466 4.03999 84.8752 4.19197 85.0669 4.38375C85.2594 4.57554 85.4118 4.80335 85.5152 5.05414C85.6194 5.30493 85.673 5.57376 85.6722 5.84521V6.47478C85.6707 6.75568 85.6118 7.03327 85.4986 7.29043L74.7993 32.1269H83.7892C84.3356 32.1283 84.8586 32.3465 85.2443 32.7335C85.6307 33.1206 85.8466 33.6449 85.8466 34.1913C85.8466 34.4622 85.793 34.7304 85.6896 34.9806C85.5854 35.2309 85.4337 35.4583 85.242 35.6498C85.0503 35.8413 84.8232 35.9933 84.5734 36.0969C84.3228 36.2005 84.0549 36.2539 83.7839 36.2539H71.6793C71.1321 36.2539 70.6073 36.0367 70.2202 35.6499C69.8331 35.2631 69.6154 34.7385 69.615 34.1913Z" fill="white"/>
<path d="M12.0097 1.20517C9.49174 1.20839 7.07779 2.21034 5.2976 3.99117C3.51742 5.77201 2.51635 8.18626 2.51405 10.7043L2.54188 34.4643H0.281006L4.56623 40L8.85317 34.4643H6.75232L6.72798 10.7026C6.72798 9.30173 7.28445 7.95833 8.27498 6.96781C9.26548 5.97729 10.6089 5.42082 12.0097 5.42082C13.4105 5.42082 14.7539 5.97729 15.7445 6.96781C16.735 7.95833 17.2915 9.30173 17.2915 10.7026V29.4852C17.2915 30.0442 17.5136 30.5804 17.9088 30.9756C18.3041 31.3709 18.8403 31.593 19.3993 31.593C19.9583 31.593 20.4945 31.3709 20.8898 30.9756C21.285 30.5804 21.5072 30.0442 21.5072 29.4852V10.7026C21.5044 8.18452 20.5029 5.77045 18.7223 3.98995C16.9419 2.20943 14.5277 1.20793 12.0097 1.20517Z" fill="white"/>
<path d="M31.0844 5.53565L26.7991 0L22.5138 5.53565H24.6704V29.2974C24.6704 30.6982 24.1139 32.0417 23.1234 33.0322C22.1329 34.0226 20.7895 34.5791 19.3886 34.5791C17.9879 34.5791 16.6444 34.0226 15.6539 33.0322C14.6633 32.0417 14.1069 30.6982 14.1069 29.2974V10.5148C14.1069 9.95577 13.8848 9.41962 13.4895 9.0243C13.0942 8.62906 12.5581 8.40694 11.999 8.40694C11.44 8.40694 10.9039 8.62906 10.5086 9.0243C10.1133 9.41962 9.89125 9.95577 9.89125 10.5148V29.2974C9.8742 30.5553 10.1073 31.8041 10.5769 32.9712C11.0465 34.1383 11.7433 35.2005 12.6268 36.096C13.5104 36.9916 14.563 37.7026 15.7236 38.188C16.8842 38.6734 18.1298 38.9233 19.3878 38.9233C20.6458 38.9233 21.8913 38.6734 23.052 38.188C24.2126 37.7026 25.2652 36.9916 26.1487 36.096C27.0323 35.2005 27.7291 34.1383 28.1987 32.9712C28.6683 31.8041 28.9013 30.5553 28.8843 29.2974V5.53565H31.0844Z" fill="white"/>
</g>
</g>
<defs>
<filter id="filter0_d_134_379" x="-4.71899" y="-5" width="95.5656" height="50" filterUnits="userSpaceOnUse" color-interpolation-filters="sRGB">
<feFlood flood-opacity="0" result="BackgroundImageFix"/>
<feColorMatrix in="SourceAlpha" type="matrix" values="0 0 0 0 0 0 0 0 0 0 0 0 0 0 0 0 0 0 127 0" result="hardAlpha"/>
<feOffset/>
<feGaussianBlur stdDeviation="2.5"/>
<feComposite in2="hardAlpha" operator="out"/>
<feColorMatrix type="matrix" values="0 0 0 0 1 0 0 0 0 1 0 0 0 0 1 0 0 0 0.32 0"/>
<feBlend mode="normal" in2="BackgroundImageFix" result="effect1_dropShadow_134_379"/>
<feBlend mode="normal" in="SourceGraphic" in2="effect1_dropShadow_134_379" result="shape"/>
</filter>
</defs>
</svg>
