<svg width="194" height="74" viewBox="0 0 194 74" fill="none" xmlns="http://www.w3.org/2000/svg">
<path d="M58.6196 73.5614C56.4455 72.0775 55.6738 69.9904 56.2603 67.3177C56.3573 66.8774 56.5866 66.829 56.935 66.8334C57.9449 66.8334 58.9547 66.785 59.9557 66.8642C60.6439 66.9187 61.2987 67.1833 61.8312 67.622C62.3637 68.0608 62.7481 68.6524 62.9324 69.3168C63.1187 70.0221 63.0742 70.7684 62.8052 71.4466C62.5362 72.1248 62.0569 72.6992 61.4374 73.0859C61.217 73.2312 60.8774 73.2267 60.798 73.5614H58.6196Z" fill="white"/>
<path d="M68.0522 73.5613C67.075 72.8741 66.3355 71.901 65.9358 70.7763C65.5362 69.6517 65.496 68.4308 65.8208 67.2824C65.9311 66.8421 66.1956 66.8421 66.522 66.8421C67.3642 66.8421 68.2109 66.8201 69.0532 66.8421C70.7774 66.8905 72.0298 67.846 72.4311 69.3915C72.8324 70.937 72.1974 72.3328 70.6672 73.2266C70.504 73.3191 70.2659 73.3191 70.2262 73.5657L68.0522 73.5613Z" fill="white"/>
<path d="M0.564331 32.1719C0.564331 21.9346 0.564331 11.6973 0.564331 1.45564C0.564331 0.548595 0.749554 0.249177 1.73294 0.25358C9.79408 0.297612 17.8552 0.253583 25.9208 0.284405C33.4748 0.284405 39.0444 5.81474 39.062 13.3661C39.0943 25.9708 39.0943 38.5785 39.062 51.1891C39.062 58.6215 33.5674 64.099 26.0795 64.1431C17.9346 64.1959 9.79408 64.1431 1.64916 64.1827C0.670176 64.1827 0.564335 63.8393 0.568745 63.0115C0.580505 52.7257 0.57903 42.4459 0.564331 32.1719ZM13.3528 32.3348C13.3528 38.3935 13.3528 44.4523 13.3528 50.511C13.3528 51.3344 13.5468 51.625 14.4156 51.5897C16.1795 51.5237 17.9434 51.5897 19.7074 51.5633C23.3807 51.4753 26.1324 48.7717 26.1501 45.1215C26.1912 36.5736 26.1912 28.0271 26.1501 19.4821C26.1501 15.8275 23.3719 13.146 19.6897 13.0843C17.9566 13.0535 16.2236 13.146 14.4949 13.0535C13.4807 13.0007 13.3263 13.3881 13.3308 14.2776C13.3837 20.3099 13.366 26.3289 13.366 32.348L13.3528 32.3348Z" fill="white"/>
<path d="M93.951 25.9018C99.1105 25.9018 104.27 25.9018 109.429 25.9018C113.094 25.9018 115.806 23.5021 116.137 19.9972C116.437 16.7917 114.148 13.8724 110.722 13.2384C109.84 13.0755 109.663 12.732 109.676 11.9174C109.721 8.42574 109.743 4.93406 109.676 1.44237C109.65 0.306365 110.117 0.213895 111.026 0.323974C118.522 1.2046 125.168 7.06958 127.078 14.4712C127.788 17.1598 127.907 19.97 127.428 22.709C126.948 25.448 125.88 28.0509 124.298 30.339C122.715 32.6271 120.656 34.5463 118.261 35.9647C115.866 37.3831 113.191 38.2673 110.422 38.5564C109.9 38.6013 109.376 38.6174 108.852 38.6048C100.994 38.6048 93.1352 38.6268 85.2725 38.6048C84.2671 38.6048 83.998 38.8558 84.0157 39.8597C84.0774 43.5936 84.0554 47.345 84.0157 51.0613C83.9848 58.6655 78.5872 64.1386 70.9759 64.2223C66.4999 64.2751 62.024 64.3059 57.5524 64.1782C51.1626 63.9933 45.6459 58.6171 45.5489 52.2678C45.399 43.8005 45.4916 35.3245 45.4783 26.8573C45.4783 26.3377 45.4783 25.9062 46.2059 25.9194C48.1815 25.9546 50.1748 25.8313 52.1283 25.9766C55.8678 26.2628 58.1786 28.8299 58.2095 32.5813C58.2359 36.5442 58.2095 40.5334 58.2095 44.505C58.2095 46.3235 58.5843 48.0275 59.8543 49.4057C60.4723 50.0999 61.2321 50.6536 62.0826 51.0296C62.9331 51.4056 63.8544 51.5951 64.7845 51.5853C66.5176 51.5853 68.2506 51.5368 69.9793 51.6073C70.9097 51.6469 71.2052 51.4091 71.1964 50.4316C71.1832 44.6063 71.1831 38.7765 71.1831 32.96C71.1831 28.526 73.7893 25.915 78.2388 25.915C83.4733 25.893 88.7122 25.9018 93.951 25.9018Z" fill="white"/>
<path d="M148.796 38.7768C144.726 38.7768 140.66 38.7768 136.589 38.7988C135.708 38.7988 135.491 38.5434 135.522 37.7112C135.584 36.0688 135.522 34.4221 135.522 32.7753C135.522 28.6099 138.168 25.946 142.402 25.9284C146.635 25.9108 150.78 25.9284 154.97 25.9284C158.938 25.9284 161.765 23.2865 161.747 19.513C161.725 15.8408 158.886 13.1329 155.036 13.1153C154.154 13.1153 153.272 13.0757 152.39 13.1153C151.671 13.1593 151.389 12.9568 151.411 12.1862C151.468 10.3017 151.411 8.41274 151.446 6.5282C151.53 3.41078 153.651 0.804127 156.738 0.434264C159.521 0.0996257 162.365 0.0467872 165.117 0.94943C167.625 1.75207 169.821 3.31344 171.401 5.41737C172.981 7.5213 173.867 10.0637 173.936 12.6926C174.042 17.2249 174.042 21.7586 173.936 26.2939C173.755 33.5062 168.045 38.7107 160.385 38.7636C156.531 38.7768 152.663 38.7768 148.796 38.7768Z" fill="white"/>
<path d="M193.15 29.8777C193.15 38.9922 193.048 48.1111 193.194 57.2212C193.264 61.4394 190.231 64.592 185.944 64.3675C184.379 64.2838 182.8 64.3279 181.23 64.3675C180.6 64.3675 180.348 64.1693 180.392 63.5441C180.392 63.346 180.392 63.1434 180.392 62.9409C180.392 44.4301 180.392 25.9193 180.392 7.40853C180.392 3.74072 182.156 1.1781 185.34 0.504422C187.757 -0.00634197 190.239 0.381135 192.691 0.306282C193.287 0.306282 193.132 0.746595 193.132 1.09004C193.132 3.01861 193.132 4.94719 193.132 6.87576L193.15 29.8777Z" fill="white"/>
<path d="M114.937 41.0443C117.188 40.462 119.343 39.5589 121.336 38.3628C122.857 37.3897 124.392 36.4343 125.486 34.9372C125.962 34.2899 126.147 34.9152 126.315 35.2014C127.595 37.2959 128.432 39.6309 128.771 42.0615C130.213 53.1266 123.113 62.4788 112.014 64.0375C109.575 64.381 107.101 64.1476 104.645 64.1652C102.105 64.1652 99.5646 64.1916 97.0246 64.1652C93.1836 64.1212 90.4849 61.4705 90.4496 57.6398C90.4099 52.6202 90.4496 47.6006 90.4187 42.5854C90.4187 41.7048 90.745 41.5287 91.5432 41.5331C95.1328 41.5683 98.718 41.5771 102.308 41.5331C103.15 41.5331 103.41 41.7533 103.388 42.6031C103.357 43.8403 103.238 45.0908 103.511 46.3237C104.094 48.9656 105.716 50.7268 108.327 51.3169C110.938 51.9069 113.31 51.1187 114.942 48.8863C116.573 46.6539 116.626 44.2807 115.316 41.8677C115.202 41.6564 115.078 41.4538 114.959 41.2425C114.946 41.1773 114.938 41.111 114.937 41.0443Z" fill="white"/>
<path d="M90.4585 11.5037C90.4585 8.13093 90.4585 4.75373 90.4585 1.37652C90.4585 0.592765 90.582 0.258125 91.4904 0.266931C96.2853 0.310962 101.082 0.310962 105.88 0.266931C106.717 0.266931 106.867 0.55754 106.859 1.30167C106.828 5.15882 106.859 9.01156 106.859 12.8687C106.889 13.122 106.845 13.3786 106.732 13.6076C106.62 13.8365 106.443 14.028 106.224 14.1588C105.316 14.7299 104.573 15.5273 104.068 16.4724C103.563 17.4174 103.314 18.4776 103.344 19.5483C103.344 20.354 103.295 21.1598 103.344 21.9568C103.392 22.7537 103.212 23.0267 102.356 23.0135C98.7254 22.9636 95.0961 22.9636 91.4683 23.0135C90.6525 23.0135 90.4629 22.7449 90.4673 21.9832C90.4761 18.4915 90.4585 14.9998 90.4585 11.5037Z" fill="white"/>
<path d="M173.98 35.2893C173.98 44.7824 173.98 54.0907 173.98 63.3989C173.98 64.2223 173.707 64.3984 172.948 64.3808C171.136 64.3324 169.324 64.3808 167.511 64.3808C166.674 64.3808 165.844 64.2157 165.071 63.895C164.297 63.5744 163.595 63.1044 163.004 62.5121C162.413 61.9197 161.944 61.2167 161.626 60.4433C161.307 59.6699 161.145 58.8413 161.148 58.0051C161.108 52.9106 161.148 47.8162 161.148 42.7218C161.148 42.2815 160.945 41.7971 161.783 41.7619C166.66 41.5505 170.567 39.4326 173.566 35.5975C173.695 35.483 173.834 35.3799 173.98 35.2893Z" fill="white"/>
<path d="M58.3461 25.4352C55.9516 23.3481 53.341 22.9651 50.5761 23.0795C49.2531 23.1324 47.9302 23.0795 46.6072 23.1015C45.884 23.1015 45.5489 22.9959 45.5533 22.1329C45.6018 16.9636 45.5533 11.7899 45.5886 6.62061C45.5954 4.95379 46.2589 3.35662 47.4356 2.17429C48.6123 0.991959 50.2077 0.319446 51.8769 0.302109C53.7687 0.266884 55.6606 0.302109 57.5524 0.302109C58.0551 0.302109 58.377 0.34174 58.3726 0.993404C58.3373 9.02913 58.3461 17.0781 58.3461 25.4352Z" fill="white"/>
<path d="M71.1832 25.4307V19.5085C71.1832 13.4498 71.1832 7.38666 71.1832 1.32795C71.1832 0.478144 71.4081 0.240377 72.2548 0.271199C74.0187 0.337246 75.7827 0.271198 77.573 0.297617C78.4209 0.288268 79.2621 0.447384 80.0478 0.765705C80.8335 1.08403 81.548 1.5552 82.1496 2.1518C82.7512 2.7484 83.2279 3.45851 83.5521 4.24081C83.8763 5.02311 84.0414 5.86197 84.0378 6.70858C84.0731 11.803 84.0378 16.9018 84.0378 22.0007C84.0378 22.7536 83.8791 23.0574 83.0544 23.0354C81.6433 23.0002 80.2366 23.1147 78.8254 23.1411C74.9757 23.2115 74.5082 23.3392 71.1832 25.4307Z" fill="white"/>
<path d="M135.54 52.8667C135.54 49.4146 135.54 45.9625 135.54 42.5105C135.54 41.7972 135.694 41.533 136.466 41.5418C140.135 41.5799 143.81 41.5799 147.491 41.5418C148.271 41.5418 148.417 41.8104 148.412 42.5149C148.386 47.6533 148.412 52.7918 148.386 57.9258C148.372 59.5744 147.71 61.1516 146.543 62.3178C145.376 63.4839 143.797 64.1457 142.146 64.1607C140.254 64.2047 138.358 64.1299 136.466 64.1959C135.659 64.2223 135.558 63.9009 135.584 63.214C135.566 59.762 135.54 56.3099 135.54 52.8667Z" fill="white"/>
<path d="M135.5 25.6245C135.69 20.5169 135.125 15.7351 135.778 11.0149C136.616 4.93858 141.899 0.447386 148.046 0.302082C148.884 0.280066 149.722 0.302082 150.533 0.302082C150.666 0.531045 150.533 0.641124 150.432 0.742396C148.991 2.4912 148.23 4.70021 148.289 6.96403C148.315 11.8559 148.258 16.7478 148.324 21.6397C148.324 22.7625 147.993 23.0927 146.922 23.0531C145.638 23.009 144.346 23.1588 143.063 23.1147C140.36 23.0399 137.868 23.5594 135.5 25.6245Z" fill="white"/>
<path d="M108.543 41.489C109.024 41.489 109.504 41.489 109.985 41.489C110.876 41.5257 111.717 41.9095 112.328 42.5581C112.939 43.2067 113.271 44.0685 113.253 44.9587C113.199 45.8672 112.808 46.7231 112.155 47.3585C111.503 47.9939 110.636 48.3629 109.725 48.3931C108.833 48.411 107.97 48.0779 107.323 47.4658C106.675 46.8536 106.294 46.0116 106.263 45.1216C106.263 44.6813 106.263 44.241 106.263 43.8007C106.254 41.4846 106.254 41.4846 108.543 41.489Z" fill="white"/>
</svg>
