<svg width="83" height="127" viewBox="0 0 83 127" fill="none" xmlns="http://www.w3.org/2000/svg">
<path d="M37.5954 62.857C37.6307 62.7557 38.4774 63.2973 38.9184 63.5394C39.6612 63.988 40.3755 64.4821 41.0571 65.0189C41.7009 65.5077 42.0096 65.7586 42.6535 66.309C43.4428 66.9915 43.8706 67.5727 44.0822 67.4406C44.3909 67.0708 43.5795 65.992 42.8607 65.4064C42.2291 64.9002 41.5695 64.4298 40.8851 63.9974C40.1663 63.5218 40.1046 63.4118 39.0286 62.6764C38.2665 62.1479 37.5484 61.5589 36.881 60.9152L35.7609 60.0346L33.997 58.5551L32.0435 56.763L30.5706 55.1207C30.5706 55.1207 29.424 53.7205 29.2476 53.4519C29.0712 53.1833 28.5244 52.3203 28.079 51.5893C27.6777 50.9289 26.906 49.9073 26.8355 49.8281C26.4209 49.3261 25.4684 49.5287 24.3616 48.8814C23.0386 48.0889 22.6946 47.3623 22.6946 47.3623C22.6678 47.304 22.6337 47.2493 22.5932 47.1994C22.5472 47.151 22.4971 47.1068 22.4433 47.0673L21.7377 46.5786L21.3364 46.3144C21.1245 46.146 20.8918 46.0054 20.6441 45.8961C20.2604 45.7288 19.4005 45.2268 19.4005 45.2268L17.8615 44.2493L17.0633 43.6065C16.8604 43.4524 16.4812 43.2322 16.4812 43.2322C16.38 43.1802 16.2736 43.1389 16.1637 43.1089L15.7712 43.0737C15.6561 43.0608 15.5396 43.0799 15.4345 43.1289C15.3295 43.1778 15.24 43.2547 15.1759 43.3511C14.8761 43.7033 14.951 43.514 15.4405 45.5086C15.6345 46.2968 15.6125 49.0619 15.8242 49.9117C16.1047 50.8261 16.474 51.7109 16.9266 52.5536C16.9962 52.804 17.0405 53.0606 17.0589 53.3198C17.0337 53.5863 17.0337 53.8546 17.0589 54.1211C17.2926 55.5478 19.3873 54.6099 19.8503 56.5693C20.1 57.8611 20.0057 59.1957 19.5769 60.4396C19.5769 60.4396 19.1359 61.3995 18.4921 61.5492C17.8482 61.6989 16.8693 60.2943 16.1593 59.1539C15.586 58.1814 15.0962 57.1621 14.6952 56.107C14.5684 55.7855 14.4026 55.4809 14.2013 55.1999C13.8838 54.698 13.6325 54.7904 13.2797 53.9935C12.9269 53.1965 13.24 52.8795 13.0813 52.1882C12.9887 51.8051 12.9049 51.7479 12.7858 51.2151C12.6667 50.6823 12.5124 48.9298 12.5124 48.9298L12.2875 47.3139C12.2875 47.3139 12.2125 46.5742 12.1111 46.1118C11.8887 45.0612 11.7297 43.9981 11.6348 42.9284L11.5687 42.2855L11.5422 41.6206C11.532 41.4033 11.5513 41.1856 11.5995 40.9734C11.6521 40.7642 11.7322 40.5628 11.8377 40.3746C11.8377 40.3746 12.164 39.8286 12.2213 39.6877C12.4471 39.3749 12.6884 39.0736 12.9445 38.785C13.2369 38.5517 13.5449 38.3384 13.8662 38.1466C14.1914 37.9416 14.5665 37.8289 14.951 37.8207C15.341 37.8336 15.7297 37.8704 16.1152 37.9308C17.1294 38.0585 19.2021 38.6133 19.7401 38.7454C20.2726 38.883 20.7887 39.0779 21.2791 39.3266C22.4389 39.9563 22.7916 39.6921 21.87 38.97C21.4183 38.6063 20.9856 38.2198 20.5735 37.8119C20.1987 37.4981 19.8424 37.1629 19.5063 36.808C19.1888 36.447 18.2936 35.126 18.2936 35.126L17.7336 34.2982C17.6232 34.1697 17.5054 34.0477 17.3808 33.9328C17.3323 33.9064 17.1824 33.7875 17.1824 33.7875C16.9299 33.7953 16.6772 33.7776 16.4283 33.7346C16.0402 33.6554 15.8594 34.2014 15.8594 34.2014C15.3796 35.0871 14.8155 35.9246 14.1749 36.7023C12.8034 38.2478 11.8201 39.2958 11.3129 40.1192C10.6074 41.2596 10.7617 42.5101 10.3956 43.0869C10.2237 43.2973 10.0758 43.5262 9.95467 43.7694C9.59747 44.65 10.8896 45.1564 10.5941 46.1515C10.1223 47.7234 6.42682 49.2821 5.93733 49.0223C5.44784 48.7625 5.84475 46.627 6.01232 45.9401C6.19618 45.3278 6.44604 44.7373 6.75755 44.1789C6.8566 44.0287 6.92687 43.8615 6.9648 43.6857C7.00449 43.4832 7.01774 43.0208 7.0442 42.7655C7.07211 42.5413 7.11485 42.3192 7.1721 42.1006C7.26613 41.8286 7.37962 41.5637 7.51167 41.308C7.8424 40.5947 9.04625 38.9391 9.90617 37.3452C10.475 36.3105 10.7132 35.6896 11.282 34.6549C11.8024 33.7082 12.702 32.2596 12.702 32.2596C12.702 32.2596 13.0812 31.5199 13.2576 31.2469C13.434 30.9739 13.8177 30.4323 14.1705 29.9259C14.5233 29.4196 14.6114 29.0101 15.0833 28.583C15.4013 28.2509 15.799 28.0054 16.2387 27.8697C16.9883 27.6231 17.4999 27.7552 18.2672 27.9665C18.958 28.1579 19.5961 28.5043 20.1326 28.9792C20.459 29.2587 20.7614 29.5651 21.0365 29.8951L21.2879 30.2694L21.4467 30.3618L21.9273 30.67L23.0342 31.401C23.0342 31.401 25.6581 33.1842 25.808 33.2811C25.9579 33.378 26.4165 33.7566 26.5091 33.7875C26.6017 33.8183 27.3029 33.0609 28.6744 32.1143C30.2619 31.0179 30.8219 31.1016 31.3511 30.7933C31.779 30.5484 32.1634 30.2344 32.4888 29.8643C33.1062 29.2478 33.1106 28.9176 33.8118 28.059C34.2149 27.5691 34.6721 27.126 35.1744 26.738C35.1744 26.738 35.2714 26.6412 36.5238 25.2278C37.2146 24.4719 37.8195 23.642 38.3275 22.7532L39.0154 21.3794C39.0154 21.3794 40.0076 19.2439 40.3383 18.3985C40.5007 18.0407 40.6091 17.6608 40.6602 17.2713C40.6702 17.0386 40.6019 16.8091 40.4662 16.6196C40.2148 16.1793 39.959 16.3819 39.4872 16.4831C38.5744 16.6769 38.0188 16.4391 37.0971 16.2762C36.2548 16.1397 35.8138 15.8843 34.9715 15.7478C34.2511 15.5693 33.5078 15.4995 32.7666 15.5409C32.5905 15.5659 32.4166 15.6042 32.2463 15.6554C31.9037 15.7472 31.5746 15.8834 31.2673 16.0604C30.9086 16.2391 30.5129 16.3312 30.112 16.329C29.8391 16.3599 29.5627 16.3267 29.3049 16.2322C29.1265 16.1734 28.9626 16.0773 28.8243 15.9504C28.7368 15.8754 28.6611 15.7878 28.5994 15.6906C28.5994 15.6025 28.5641 15.6069 28.6523 15.4616C28.6901 15.3805 28.7582 15.3173 28.8419 15.2855L29.2344 15.1886L29.8429 15.0301L30.65 14.7703C30.8202 14.7156 30.9855 14.6464 31.1438 14.5634C31.1438 14.5634 31.2849 14.3388 31.2276 14.2067C31.1703 14.0746 30.844 14.0438 30.844 14.0438C30.844 14.0438 30.403 14.2067 30.3545 14.2199C30.306 14.2331 29.6048 14.4533 29.6048 14.4533C29.6048 14.4533 29.0536 14.5722 28.6259 14.6735C28.279 14.7424 27.9286 14.7924 27.5763 14.8232L27.3911 14.7703C27.3911 14.7703 27.1838 14.6338 27.1529 14.4841C27.1216 14.3607 27.0966 14.2358 27.078 14.1099C26.9442 13.6523 26.9186 13.17 27.003 12.7009C27.0481 12.507 27.1162 12.3193 27.2059 12.1417C27.2744 11.9884 27.3555 11.8412 27.4484 11.7013L27.788 11.1509L28.4274 10.2043C28.9041 9.71707 29.5421 9.41971 30.2222 9.36768C30.6521 9.33449 31.0784 9.26526 31.4966 9.16073C31.92 9.06821 32.3292 8.92016 32.7137 8.72042C32.7137 8.72042 34.4159 8.09518 35.4522 7.58441C36.4886 7.07365 37.0133 6.48803 38.1378 6.04772C38.5422 5.8859 38.9578 5.75347 39.3814 5.65144C39.41 5.63491 39.435 5.61271 39.4547 5.5862C39.4744 5.5597 39.4884 5.52946 39.496 5.49732C39.5401 5.3212 39.2667 5.23754 39.055 5.25515C38.8434 5.27276 38.495 5.45329 38.4068 5.25515C38.3186 5.05701 38.764 5.02178 38.764 5.02178C38.764 5.02178 38.9624 4.92932 38.9669 4.81924C38.9713 4.70917 38.6802 4.7576 38.5523 4.74439C38.1516 4.68508 37.7584 4.58323 37.3793 4.44057C36.9321 4.27824 36.4674 4.16888 35.9946 4.11474C35.5675 4.10981 35.1417 4.16314 34.729 4.27325C34.4248 4.35251 34.4159 4.0531 34.535 3.99145C35.4169 3.59077 35.4169 3.55114 36.0299 3.55114C36.316 3.54375 36.6019 3.57185 36.881 3.6348C37.1863 3.66086 37.4926 3.59816 37.763 3.45427C37.935 3.28255 37.2118 3.29135 36.881 3.15926C36.5503 3.02717 36.0872 2.99634 36.0961 2.78939C36.1049 2.58245 36.343 2.69693 36.5106 2.6529C36.6897 2.61805 36.8709 2.59452 37.053 2.58245C37.4367 2.52961 37.4675 2.49439 38.0364 2.44595C38.5003 2.43818 38.9626 2.50053 39.4078 2.63088C39.4078 2.63088 40.2589 3.00955 40.6735 3.20769C40.97 3.33671 41.2787 3.43555 41.5951 3.5027C41.9556 3.54562 42.3206 3.47643 42.6402 3.30456C43.0812 3.02276 42.8387 2.83783 42.6799 2.58245C42.5486 2.40205 42.4724 2.1875 42.4607 1.96478C42.4489 1.74207 42.5021 1.52072 42.6138 1.32755C42.874 0.750743 43.0062 0.0770634 43.0812 0.00661322C43.1562 -0.0638369 43.5222 0.446927 43.7647 0.667083C44.5938 1.44204 45.6918 1.82511 46.7325 3.44546C46.8119 3.57756 47.1735 3.36621 48.3995 3.55114C49.6254 3.73607 50.6529 5.02179 50.9174 5.31239C50.997 5.40173 51.094 5.47396 51.2024 5.52467C51.3108 5.57539 51.4284 5.60354 51.5481 5.6074L52.1257 5.68225L54.2248 5.71748C54.7219 5.62644 55.2326 5.63993 55.7242 5.75711C56.1078 5.90241 57.3866 6.75662 56.8045 7.07805C56.3988 7.30701 56.0152 6.80505 55.6448 6.78304C55.3002 6.76863 54.9561 6.81943 54.6305 6.93274C53.8147 7.13969 52.0684 7.66367 52.7034 7.87942C52.748 7.89357 52.7938 7.90388 52.8401 7.91024L53.1533 7.96308C53.5698 8.05856 53.9806 8.17764 54.3836 8.31973C54.9701 8.59011 55.531 8.91286 56.0593 9.28402C56.3465 9.50479 56.6607 9.68825 56.9942 9.83001C57.3202 9.87273 57.6487 9.89333 57.9776 9.89165C58.4063 9.96174 58.8215 10.0984 59.2079 10.2967C59.887 10.6226 60.134 11.0145 60.7381 11.4504C61.0424 11.6705 61.2982 11.7013 61.5275 12.0008C61.5767 12.0516 61.6156 12.1114 61.6421 12.1769C61.7259 12.4499 61.2012 12.2914 60.9189 12.2429C60.6634 12.1713 60.4208 12.0598 60.2001 11.9127C59.8671 11.6925 59.5029 11.5233 59.1197 11.4107C58.8271 11.3703 58.5303 11.3703 58.2377 11.4107C57.907 11.4107 57.7351 11.4768 57.3999 11.4812C56.9175 11.4912 56.4359 11.4394 55.9667 11.3271C55.3449 11.195 55.0362 10.9528 54.4233 10.8251C53.7265 10.6798 52.4961 10.0854 52.6152 10.6798C52.6725 10.966 53.3296 11.2082 53.3296 11.2082C53.3296 11.2082 53.7706 11.4504 54.2116 11.6485C54.4639 11.7557 54.6908 11.9147 54.8775 12.1152L55.1685 12.331C55.1685 12.331 55.4728 12.7493 55.8697 13.2116C56.0116 13.3528 56.1802 13.4644 56.3657 13.54C56.5511 13.6156 56.7498 13.6536 56.9501 13.6519C57.3955 13.6734 57.8382 13.7338 58.273 13.8325C58.9111 13.9905 59.523 14.2396 60.0899 14.5722C60.4915 14.8491 60.8613 15.1695 61.1923 15.5277C61.598 16.0076 61.3643 16.2498 61.3114 16.2982C61.2585 16.3466 61.2849 16.329 61.2276 16.3511C61.1703 16.3731 60.6764 15.7478 60.6764 15.7478L60.3192 15.444C60.0686 15.2775 59.7972 15.1443 59.5122 15.0477C59.0712 14.9068 58.908 15.0037 58.908 15.0037C58.3167 15.1613 57.7076 15.2427 57.0956 15.2459C56.6464 15.2535 56.2049 15.1295 55.8256 14.8892L55.2964 14.537C55.2964 14.537 54.5027 13.7928 54.4718 14.1451C54.4718 14.3828 54.8245 14.647 54.8245 14.647C54.8245 14.647 55.0803 14.9068 55.2655 15.0874C55.5874 15.4044 55.7065 15.5629 56.0901 15.8887C56.2475 16.0627 56.4586 16.1789 56.6899 16.219L56.9633 16.2806L57.1706 16.3334C57.1706 16.3334 57.294 16.3775 57.8717 16.6152C58.2994 16.8092 58.7009 17.0563 59.0668 17.3506C59.1092 17.3804 59.1572 17.4014 59.2079 17.4122C59.312 17.4412 59.4137 17.478 59.5122 17.5223C59.5651 17.5223 59.7106 17.5223 60.0414 17.5795C60.3721 17.6368 60.2486 17.8437 60.2486 17.8437L60.1913 17.923L59.9179 18.1079C59.7233 18.1637 59.524 18.202 59.3226 18.2224C59.1172 18.2151 58.9144 18.1734 58.7228 18.0991L57.982 17.8217C57.982 17.8217 57.2279 17.6192 57.0648 17.5971C56.9016 17.5751 56.2357 17.4386 56.121 17.4122C55.9366 17.3608 55.7567 17.2946 55.583 17.2141C55.4948 17.1656 55.3272 17.1304 54.9215 16.9323C54.5869 16.7009 54.2294 16.5047 53.8544 16.3466C53.6675 16.2519 53.4587 16.2085 53.2495 16.2209C53.0403 16.2333 52.8381 16.301 52.6637 16.4171C52.0111 16.8574 53.6471 16.9367 54.463 17.3462C55.6668 17.9362 56.3415 18.3721 56.6282 19.0105C56.7548 19.3423 56.9518 19.6428 57.2058 19.8912C57.6576 20.1197 58.0712 20.4168 58.4318 20.7718C58.639 21.014 58.6699 21.2121 58.8728 21.4543C59.3137 21.9959 60.2354 21.965 60.4162 22.4274C60.597 22.8897 59.6842 22.6651 59.2167 22.6211C58.3745 22.5375 58.1716 21.7669 57.3867 21.4587C56.9457 21.2782 56.6546 21.2782 56.2004 21.1241C55.3713 20.8511 54.9833 20.4944 54.1542 20.2434C53.6515 20.0893 52.7431 19.4288 52.8578 19.9352C52.8824 20.039 52.9258 20.1375 52.9857 20.2258C53.0254 20.3007 53.237 20.5693 53.237 20.5693C53.3591 20.7358 53.4948 20.8919 53.6427 21.036C54.089 21.3825 54.564 21.6904 55.0627 21.9562C55.5976 22.2836 56.0769 22.6938 56.4826 23.1715C56.6076 23.349 56.721 23.5343 56.8222 23.7263C56.9324 23.9817 56.8531 24.0565 57.0339 24.4132C57.1359 24.6617 57.298 24.881 57.5057 25.0516C58.0658 25.5888 58.6523 25.492 59.3623 25.7738C59.5384 25.8385 59.6917 25.9533 59.8032 26.104C60.0105 26.3242 59.7636 26.421 59.7636 26.421C59.3388 26.5307 58.9014 26.584 58.4626 26.5795C57.8906 26.5116 57.3416 26.3144 56.8575 26.0027C56.4426 25.7698 56.0808 25.4534 55.7947 25.0737C55.7374 25.0384 55.5786 24.8667 55.4552 24.7787C55.2239 24.6733 54.9812 24.595 54.7319 24.5453C54.4409 24.4704 54.2909 24.4572 53.9911 24.378C53.5986 24.2679 53.1929 24.0918 53.0077 24.0345C52.8596 23.9804 52.7022 23.9564 52.5446 23.9639C52.3871 23.9715 52.2327 24.0105 52.0905 24.0786C51.4775 24.4396 53.0474 24.6862 53.5369 25.2102C53.7883 25.4699 53.8897 25.6505 54.1278 25.9323C54.2633 26.1293 54.425 26.307 54.6085 26.4606C54.7482 26.5501 54.8958 26.6268 55.0494 26.6896C55.0494 26.6896 55.4287 26.8657 55.9843 27.174C56.4464 27.4951 56.853 27.8892 57.1882 28.3408L57.5807 28.9396L57.81 29.2831L57.8717 29.4416L57.9599 29.6353C58.0987 29.8208 58.2636 29.9854 58.4494 30.1241C58.6611 30.2518 58.6214 30.3574 58.6214 30.3574C58.6214 30.3574 58.6214 30.4367 58.4494 30.5159C58.2774 30.5952 58.2289 30.5159 58.0084 30.4719C57.7879 30.4279 57.6601 30.2121 57.4837 30.0668C57.3073 29.9215 57.0912 29.5517 56.756 29.3403C56.4904 29.2079 56.2088 29.1102 55.9182 29.0497C55.7726 28.9969 55.4022 28.7679 55.2567 28.7018C55.1112 28.6358 54.7319 28.4685 54.7319 28.4685C54.3653 28.263 53.9817 28.0892 53.5854 27.9489C53.1753 27.8344 53.4354 28.081 53.4354 28.081C53.6289 28.3835 53.8701 28.6526 54.1498 28.878C54.5908 29.1774 55.2479 29.4416 55.0318 29.6837C54.8907 29.8423 54.7011 29.785 54.4938 29.763C54.2094 29.6817 53.9501 29.5303 53.7397 29.3227C53.4432 29.1721 53.1313 29.0539 52.8093 28.9704C52.0508 28.7195 52.3286 29.1378 52.505 29.3623C52.6178 29.4991 52.7536 29.6153 52.9063 29.7058L53.4222 29.9347L53.6603 30.0096C53.6603 30.0096 53.8676 30.0448 54.5423 30.2077C54.9311 30.2861 55.2964 30.4534 55.6095 30.6965C55.8906 30.9524 56.185 31.1934 56.4915 31.4186C56.8806 31.702 57.3361 31.8809 57.8144 31.9382C58.0966 31.9734 58.0878 32.1715 58.0878 32.1715C58.0995 32.2503 58.0995 32.3305 58.0878 32.4093C58.0803 32.4405 58.063 32.4684 58.0384 32.489C58.0138 32.5097 57.9832 32.5218 57.9511 32.5238C57.8938 32.5238 57.8673 32.5238 57.7923 32.5854C57.6716 32.6254 57.5477 32.6548 57.4219 32.6735C56.9605 32.6548 56.5016 32.5959 56.0505 32.4974C55.625 32.3698 55.2241 32.1718 54.8643 31.9117C54.5449 31.7407 54.2132 31.5935 53.8721 31.4714C53.531 31.382 53.1748 31.3655 52.8269 31.423C52.7695 31.423 52.5579 31.4802 52.2051 31.5815C51.8523 31.6828 52.2933 31.8149 52.2933 31.8149L52.5491 31.8369L53.162 31.8853C53.5599 31.9363 53.9514 32.0278 54.3306 32.1583C54.8119 32.3731 55.2363 32.6973 55.5698 33.105C55.7973 33.3259 56.0487 33.5209 56.3195 33.6862L56.6017 33.8711L56.7516 33.9812L56.7869 34.0781C56.7869 34.0781 56.7869 34.1309 56.7516 34.1926C56.724 34.2389 56.6844 34.2769 56.637 34.3026C56.5744 34.2897 56.5111 34.2809 56.4474 34.2762C56.3812 34.2762 55.9799 34.0649 55.6801 33.9328C55.4274 33.7937 55.1615 33.6801 54.8863 33.5937C54.6419 33.5293 54.3889 33.504 54.1366 33.5189C54.0528 33.5409 53.4266 33.629 52.9415 33.6642C52.4525 33.7075 51.9602 33.6987 51.4731 33.6378C50.6661 33.5409 49.5901 32.9024 49.4534 33.083C49.1712 33.4528 50.0267 33.5629 50.4412 33.8007C50.9393 34.0541 51.4587 34.2633 51.9935 34.4259C52.3839 34.5111 52.7661 34.6305 53.1356 34.7826C54.0617 35.2229 54.3395 35.8437 55.0848 36.5086C55.4299 36.8562 55.8848 37.074 56.3724 37.125C56.8442 37.1911 56.8134 37.125 57.5851 36.9885C58.3568 36.8521 58.7934 36.1299 59.0094 36.3897C59.0535 36.4382 59.0094 36.4866 59.0094 36.5614C58.9903 36.6324 58.9652 36.7016 58.9345 36.7684C58.8686 36.8585 58.7964 36.9438 58.7184 37.0238C58.4331 37.2378 58.1219 37.4153 57.7923 37.5522C57.2274 37.7554 56.6283 37.8466 56.0284 37.8207C55.3232 37.7258 54.6415 37.5019 54.0176 37.1603L53.1841 36.7948C53.1841 36.7948 52.796 36.6143 52.5315 36.5174C51.9197 36.3312 51.2966 36.1841 50.6661 36.0771C50.2251 35.9538 49.9252 35.8305 49.5239 35.7469C49.1226 35.6632 49.3476 35.8217 49.3873 35.879C49.5958 36.1061 49.8604 36.2746 50.1546 36.3677C50.5955 36.5747 50.8778 36.5306 51.3143 36.7156C51.7285 36.8952 52.1255 37.1118 52.5006 37.3628C52.7658 37.5449 53.0086 37.7578 53.2238 37.9969L54.1057 38.763C54.1057 38.763 54.313 38.9347 54.3351 39.0052C54.4152 39.1784 54.4428 39.3713 54.4145 39.56C54.3615 39.855 54.119 39.648 54.119 39.648L53.8808 39.4939L53.6471 39.2782L53.2723 38.97C53.0024 38.7444 52.7063 38.5522 52.3903 38.3976C52.0081 38.2138 51.5985 38.0933 51.1776 38.0409C51.1776 38.0409 50.5911 37.9528 50.6088 38.1378C50.6264 38.3227 50.7719 38.3359 51.2349 38.4548C51.5127 38.5271 51.7754 38.6478 52.0111 38.8114C52.308 39.0356 52.584 39.2862 52.8357 39.56C53.0349 39.785 53.1851 40.0489 53.2767 40.3349C53.4463 40.6096 53.6525 40.8599 53.8897 41.0791C54.3306 41.5194 54.5643 41.3609 54.5423 41.5678C54.5362 41.6269 54.5117 41.6825 54.4721 41.7268C54.4325 41.771 54.3799 41.8017 54.3218 41.8144H54.1631C54.0643 41.7867 53.9683 41.7499 53.8764 41.7043C53.6743 41.5918 53.4785 41.4684 53.2899 41.3344C53.2899 41.3344 52.5623 40.7444 52.4785 40.6872L51.7024 40.1104C51.7024 40.1104 51.2967 39.8506 51.0057 39.7053C50.7098 39.5621 50.4049 39.4386 50.0928 39.3354C49.8876 39.2838 49.6779 39.2513 49.4666 39.2386C49.2001 39.1998 48.9375 39.1379 48.6817 39.0536C48.2974 38.8621 47.9364 38.6272 47.6057 38.3535C47.4165 38.2787 47.2199 38.2241 47.0192 38.1906C46.8322 38.6082 46.7203 39.0553 46.6884 39.5115C46.49 41.5018 47.0192 42.8271 47.8438 44.65C49.0345 47.2919 52.3418 50.603 52.3418 50.603C52.7508 50.832 53.1469 51.0833 53.5281 51.356C54.9609 52.3686 56.325 53.4747 57.6116 54.6671C58.6371 55.761 59.6013 56.9104 60.5 58.1104C61.0207 58.8336 61.4894 59.5928 61.9023 60.3824C62.302 61.3259 62.6278 62.299 62.8769 63.2929C62.8895 63.4177 62.9116 63.5413 62.943 63.6627C62.9783 63.7244 63.0665 63.8036 63.1238 63.8036L63.7015 63.8257C64.0887 63.8032 64.4736 63.7502 64.8524 63.6671C65.5871 63.4135 66.3008 63.1029 66.9868 62.7381C67.5097 62.4332 68.0054 62.0841 68.4685 61.6945C68.4685 61.6945 68.6273 61.5624 69.4122 60.6862C70.0599 59.8767 70.5667 58.9643 70.9115 57.9871C71.1877 56.9823 71.3359 55.9467 71.3525 54.9049C71.4157 53.7857 71.3818 52.6631 71.2511 51.5497C71.2511 51.5497 70.9512 49.1456 70.7704 48.3266C70.5896 47.5076 70.1575 46.1823 70.1575 46.1823C70.1575 46.1823 69.8532 44.9934 69.7606 44.2449C69.668 43.4964 69.6459 42.2767 69.6459 42.2767C69.6712 41.5626 69.7524 40.8515 69.8885 40.15C70.1071 39.1786 70.476 38.2471 70.9821 37.3892C71.3142 36.8361 71.6981 36.3157 72.1286 35.8349C72.7298 35.0678 73.4558 34.4069 74.2762 33.8799C75.0083 33.3604 75.9475 32.5194 76.2562 32.7175C76.5649 32.9157 75.9255 33.356 75.6962 33.5761C74.719 34.4807 73.8742 35.5183 73.187 36.6583C72.6131 37.5922 72.1974 38.6143 71.9567 39.6833C71.8278 40.3787 71.7996 41.089 71.8729 41.7924C71.8994 42.1094 72.0757 41.9949 72.0757 41.9949C73.0777 41.1912 74.0263 40.3235 74.9157 39.3971C76.0005 38.1862 76.9662 36.0331 77.3455 36.0155C77.6013 36.0155 77.7203 36.5747 77.6586 36.8432C77.5505 37.5446 77.3191 38.2214 76.975 38.8423C76.5862 39.5604 76.1236 40.2363 75.5948 40.8589C75.0308 41.5251 74.5618 42.2659 74.2013 43.0605C73.7778 43.9229 73.6746 44.9075 73.9102 45.8388C73.9102 45.8388 73.994 46.5742 74.3247 46.5654C74.8804 46.5654 76.0887 45.0111 76.8913 43.7562C77.4822 42.8359 77.6938 41.7748 78.0775 41.2156C78.4259 40.7224 78.7346 42.0213 78.5846 42.7875C78.4082 43.6945 77.9584 44.5135 76.9706 45.8036C76.4036 46.5002 76.0746 47.3596 76.0314 48.2562C75.9412 48.8324 75.8808 49.4129 75.8506 49.9954C75.8411 50.9982 75.9297 51.9995 76.1151 52.9851C76.2893 53.8578 76.4115 54.7399 76.4811 55.627C76.5385 56.7762 76.4812 59.3829 75.4228 61.4171C75.033 62.0963 74.5906 62.7441 74.0999 63.3545C73.6981 63.7642 73.2694 64.1467 72.8166 64.4993C72.1857 64.8995 71.5303 65.2598 70.8542 65.5781C70.8542 65.5781 69.8929 65.9083 69.7606 65.9348C69.669 65.9614 69.5885 66.0171 69.5313 66.0933C69.5313 66.0933 69.6151 66.2782 69.6547 66.3531L69.959 67.0884C70.1258 67.6404 70.2583 68.2021 70.3559 68.7704C70.4259 69.2665 70.3837 69.7721 70.2325 70.2498C70.1266 70.7914 69.8929 70.5404 69.8311 71.6104C69.7782 72.5571 70.206 73.0282 70.1266 74.0894C70.0958 74.5517 69.5709 73.5037 69.3152 73.059C68.7728 72.0947 68.9007 70.6065 68.8742 70.241C68.8681 69.821 68.8074 69.4037 68.6934 68.9993C68.559 68.4781 68.3221 67.9886 67.9966 67.5595C67.7144 67.1941 67.4146 66.9871 67.3176 67.0223C67.2206 67.0576 67.2073 67.2513 67.2073 67.3438C67.2612 67.5317 67.3413 67.711 67.4454 67.8765C67.4939 67.947 67.8511 68.5942 67.8511 68.5942C67.9749 69.077 68.0473 69.5714 68.0672 70.0693C68.0814 70.7984 68.0028 71.5263 67.8335 72.2356C67.6201 72.9689 67.3534 73.6856 67.0353 74.38C66.6078 75.1091 66.1179 75.8 65.5713 76.445C65.0535 76.9582 64.6244 77.5533 64.3012 78.2063C63.7676 79.2939 64.2263 79.7694 64.0278 79.9103C63.8294 80.0512 63.3928 79.2807 63.2782 78.7655C63.178 78.3445 63.2295 77.9018 63.4237 77.515C63.5996 77.077 63.8059 76.6518 64.0411 76.2425L64.6937 75.1417C65.1257 74.3194 65.4714 73.4547 65.7256 72.5615C65.8641 71.8061 65.8506 71.0308 65.6859 70.2806C65.6859 70.2806 65.6551 69.8844 65.3817 69.902C65.1083 69.9196 64.9407 70.153 64.8039 70.4436C64.5835 71.038 64.901 70.9279 64.557 71.923C64.2924 72.7024 64.2174 72.5967 64.0763 73.0634C63.9211 73.5372 63.8364 74.0313 63.825 74.5297C63.825 74.8687 63.6486 74.7278 63.6486 74.7278C63.4374 74.297 63.3244 73.8248 63.3178 73.3452C63.3158 72.9875 63.338 72.63 63.384 72.2753C63.468 71.7066 63.5858 71.1435 63.7368 70.5889C63.9087 69.9624 63.986 69.3139 63.9661 68.6647C63.8955 67.7356 63.5736 67.5683 63.5736 67.5683C63.5736 67.5683 63.4899 67.445 63.1327 67.4626C62.7755 67.4803 62.7975 68.1275 62.7975 68.1275C62.7975 68.1275 62.6872 69.0434 62.5461 69.6114C62.1537 71.1745 61.6289 71.9979 60.6984 73.3188C59.9539 74.3241 59.0957 75.2401 58.1407 76.0488C57.5719 76.5507 55.8212 77.81 55.8212 77.81L53.7662 79.1794C53.2665 79.681 52.8643 80.2707 52.58 80.9186C52.2416 81.7256 52.1918 82.6243 52.4389 83.4636C52.5672 84.0087 52.8042 84.5223 53.1356 84.9739C53.4055 85.3186 53.6034 85.7139 53.7177 86.1363C53.7552 86.4032 53.7685 86.6729 53.7574 86.9421C53.7869 87.1759 53.8031 87.4111 53.8059 87.6466C53.8059 88.0869 53.8764 88.3907 53.6251 88.743C53.437 88.9558 53.2074 89.1281 52.9504 89.2494C52.9504 89.2494 52.3947 89.4959 52.0684 89.6897C48.5758 91.7944 47.3323 93.1593 45.3655 95.5062C44.7393 96.2591 45.1979 96.2107 44.532 97.1001C44.1263 97.6285 43.2091 97.6285 42.8519 98.2626C42.38 99.1432 43.9102 99.9798 42.1419 100.742C39.862 101.723 35.9373 101.019 35.8623 100.715C35.6463 99.8697 36.6296 98.8966 36.9736 98.5136C38.57 96.7743 39.9987 96.7303 40.5015 95.2905C40.6161 94.9822 40.572 94.7181 41.8244 93.7758C42.7064 93.1197 46.2827 90.4382 47.8438 88.6505C48.3774 88.0341 48.836 87.629 49.0698 86.9641C49.1406 86.779 49.1562 86.5774 49.1147 86.3836C49.0732 86.1898 48.9764 86.0122 48.836 85.8721L48.1966 84.833L46.9707 82.6314C46.9707 82.6314 46.4547 81.469 46.1769 80.7953C45.8991 80.1217 45.3523 78.3164 45.3523 78.3164C45.1444 77.4321 44.9971 76.5347 44.9113 75.6305C44.7922 73.7283 45.0524 72.6231 45.5551 70.787C46.2033 68.3961 47.6762 67.3922 48.2627 65.0189C48.4347 64.3276 48.47 63.1476 48.1216 63.2048C47.7733 63.2621 47.76 64.1955 47.5043 64.8208C46.5606 67.1764 45.2993 68.2068 44.6202 70.6461C44.176 72.0499 43.9587 73.5155 43.9764 74.9876C43.954 75.8255 44.0279 76.6632 44.1969 77.4842C44.3009 78.0192 44.4484 78.545 44.6379 79.0561C44.7702 79.4964 45.1274 80.3022 45.1274 80.3022C45.3961 80.8923 45.6158 81.5035 45.7844 82.1295C45.8521 82.3446 45.8863 82.5689 45.8858 82.7944C45.8506 83.2347 45.9344 83.3404 45.7139 83.7454C45.4449 84.2518 45.608 84.5512 44.7481 84.7361C43.9808 84.8991 42.4153 84.3883 42.4153 84.3883C42.4153 84.3883 35.9682 82.4421 31.8582 83.0013C31.0424 83.1114 30.6058 83.4108 29.7856 83.3932C29.0403 83.3932 28.6611 82.8032 27.9158 83.0277C27.7615 83.0674 27.7174 83.1774 27.5763 83.2655C26.4871 84.0228 27.3205 85.2821 24.4541 84.6305C22.6902 84.2254 20.5559 83.151 20.9263 82.4729C21.4202 81.5923 22.0861 81.4294 23.4752 80.857C24.9657 80.2494 27.2014 80.4167 27.6424 80.3903C28.1804 80.3506 28.9654 79.9764 29.9135 79.9499C31.576 79.9191 31.8715 80.1173 31.8715 80.1173L34.6937 80.3682L40.0957 80.4343C40.0957 80.4343 41.0615 80.3638 41.4452 80.289C41.8288 80.2141 42.1375 79.4524 42.3536 79.0869C42.4678 78.8045 42.4678 78.4887 42.3536 78.2063L42.1948 77.9553L41.6789 77.1275L40.7308 75.5292L39.6768 73.4289C39.6768 73.4289 38.9889 71.9715 38.6229 71.0116C38.2896 70.2047 38.0154 69.3747 37.8027 68.5282C37.5658 67.6649 37.418 66.7797 37.3617 65.8863C37.322 64.7151 37.247 63.7992 37.5733 62.8393" fill="white"/>
<path d="M72.6622 60.9106C73.8 59.4532 73.9058 58.1014 73.9852 56.1949C73.9562 55.0071 73.798 53.826 73.5133 52.6724L73.4427 52.5183C73.4427 52.5183 73.2443 52.2585 73.1208 52.6019C73.1208 52.9013 73.1781 53.1435 73.1781 53.1435L73.2443 55.8911C73.1673 56.8474 72.9793 57.7916 72.6842 58.7047C71.8905 61.1176 69.7782 62.1919 69.4695 63.0594C68.9447 64.5036 71.3172 62.6631 72.6754 60.9106" fill="black"/>
<path d="M60.747 65.358C60.6168 65.3976 60.5017 65.4756 60.4167 65.5816C60.3317 65.6877 60.2808 65.817 60.2707 65.9525C60.2707 66.3928 60.3854 66.8067 60.3722 67.3615C60.3722 68.066 59.7151 68.8761 60.1296 69.1447C60.844 69.585 61.4526 66.4016 61.2453 65.926C61.038 65.4505 60.8043 65.3536 60.747 65.358Z" fill="black"/>
<path d="M52.743 87.5233C52.6782 87.5017 52.6097 87.4933 52.5415 87.4986C52.4733 87.5039 52.4069 87.5228 52.3462 87.5542C52.2744 87.5825 52.2133 87.6326 52.1714 87.6973C52.1295 87.762 52.1088 87.8382 52.1124 87.9152C52.1124 87.9152 52.0595 88.2014 52.2668 88.2278C52.4741 88.2543 52.818 87.7567 52.818 87.6995C52.804 87.6367 52.7786 87.577 52.743 87.5233Z" fill="black"/>
<path d="M45.1758 92.8818C45.1758 92.8818 45.0964 92.9567 45.1758 93.0095C45.2552 93.0624 45.3434 93.0095 45.3434 93.0095C45.3434 93.0095 46.6663 91.9924 47.4204 91.2791C48.1745 90.5658 49.4092 89.192 49.4092 89.192C49.4324 89.1668 49.4454 89.1338 49.4454 89.0995C49.4454 89.0653 49.4324 89.0323 49.4092 89.0071C49.3122 88.9234 49.0917 89.0555 48.9065 89.1392C48.7705 89.2161 48.6433 89.3077 48.5272 89.4122C48.4126 89.5178 48.0246 89.9141 48.0246 89.9141L47.0191 90.8916L46.3841 91.486L45.7711 92.0717L45.5153 92.3667C45.5153 92.3667 45.4492 92.4767 45.4272 92.5076C45.4051 92.5384 45.3434 92.6265 45.3434 92.6265C45.3434 92.6265 45.2508 92.7145 45.2508 92.7453C45.2508 92.7762 45.2199 92.7894 45.2199 92.8202C45.2129 92.8458 45.2041 92.8708 45.1934 92.895" fill="white"/>
<path d="M42.9224 94.3571C42.8682 94.3231 42.8055 94.3051 42.7416 94.3051C42.6776 94.3051 42.6149 94.3231 42.5608 94.3571C42.3758 94.4727 42.2141 94.6221 42.0845 94.7974C42.0845 94.8415 41.9434 95 42.0228 95.1409C42.1021 95.2818 42.3888 95.0748 42.4329 95.066C42.5747 94.9787 42.7103 94.8816 42.8386 94.7754C42.9072 94.7274 42.9544 94.6545 42.97 94.5722C42.9857 94.49 42.9686 94.4049 42.9224 94.3351" fill="white"/>
<path d="M38.6317 98.716C38.6317 98.716 38.4465 98.377 38.1907 98.5179C37.9515 98.628 37.746 98.7997 37.5954 99.0154C37.5601 99.0683 37.3176 99.3765 37.2779 99.4558C37.2382 99.535 36.9957 99.9841 37.4807 100.019C38.3142 100.063 37.7673 99.5306 38.054 99.3237C38.3406 99.1167 38.7199 99.2048 38.7243 99.0331C38.7206 98.9194 38.6838 98.8092 38.6184 98.716" fill="white"/>
<path d="M23.8323 81.2972C23.8323 81.2972 23.334 81.4205 23.2943 81.5878C23.2546 81.7551 23.5854 81.9401 23.6383 81.9489C23.6912 81.9577 23.8103 82.0898 24.1454 81.8608C24.4806 81.6319 24.4585 81.4513 24.4585 81.4513C24.4585 81.4513 24.6525 81.2268 23.8323 81.2972Z" fill="black"/>
<path d="M31.9596 81.0285C31.9596 81.0285 31.9596 80.848 31.6024 80.87C31.2452 80.892 31.1614 80.9537 31.1614 81.0109C31.1614 81.0682 31.1614 81.1518 31.5009 81.1826C31.8405 81.2135 31.9419 81.1826 31.9419 81.0285" fill="black"/>
<path d="M39.6459 81.2665C39.3646 81.2588 39.0832 81.2706 38.8036 81.3017C38.1948 81.3305 37.5848 81.3173 36.9779 81.2621C35.9769 81.1961 34.429 80.9495 34.429 80.9495C34.429 80.9495 34.235 80.9011 34.16 81.0287C34.0851 81.1564 34.3497 81.4206 34.601 81.4955C35.3028 81.7665 36.055 81.8821 36.8059 81.8345C37.291 81.8345 37.5556 81.7905 38.0363 81.7641C38.5554 81.7806 39.0747 81.7378 39.5841 81.6364C39.7561 81.5923 39.9237 81.2709 39.6767 81.2665" fill="black"/>
<path d="M43.9719 79.972C43.9719 79.972 43.844 79.8223 43.575 79.972C43.3927 80.0668 43.2401 80.21 43.1341 80.3859C43.1341 80.3859 43.0062 80.584 43.2752 80.5576C43.47 80.5271 43.658 80.463 43.8308 80.3683C43.897 80.3286 44.0954 80.1481 43.9543 79.9896" fill="black"/>
<path d="M32.8989 32.4358C32.8431 32.4833 32.8031 32.5467 32.7842 32.6175C32.7653 32.6882 32.7684 32.7631 32.7931 32.8321C32.8857 33.0742 33.2341 32.8893 33.2341 32.8893C33.7925 32.6918 34.3758 32.5732 34.9671 32.537C35.6786 32.5416 36.3879 32.6183 37.0838 32.766C37.0838 32.766 37.6704 32.9289 37.7674 32.9641C37.8644 32.9994 38.2083 33.1579 38.2392 33.1755C38.2701 33.1931 38.592 33.3472 38.764 33.1755C38.936 33.0038 37.6968 31.8986 36.4312 31.7269C35.2317 31.5381 34.0034 31.7567 32.943 32.3477L32.8769 32.4182" fill="black"/>
<path d="M24.2247 39.8415C24.3747 39.9692 25.0802 38.6307 25.6667 37.7809C26.1077 37.1644 26.8839 36.1297 26.8839 36.1297C26.8839 36.1297 27.2411 35.6542 26.6369 35.9183C26.0336 36.2875 25.5533 36.8268 25.2567 37.4683C24.8554 38.2652 24.0704 39.7138 24.2247 39.8415Z" fill="black"/>
<path d="M19.3652 34.0254C19.3339 34.2412 19.358 34.4615 19.4351 34.6655C19.5122 34.8696 19.6399 35.0508 19.8062 35.1922C20.4147 35.8438 20.5735 36.3766 20.9616 35.9892C21.0674 35.8835 20.5823 35.0117 20.3353 34.7651C20.0884 34.5185 19.8944 34.3248 19.8944 34.3248L19.7356 34.1971L19.5284 34.0826L19.4137 34.0342C19.403 34.028 19.3908 34.0247 19.3784 34.0247C19.366 34.0247 19.3539 34.028 19.3431 34.0342" fill="black"/>
<path d="M6.93398 46.3673C6.59883 46.2704 6.5415 46.9309 6.493 47.1422C6.44449 47.3536 6.64735 47.7807 6.72673 47.7807C6.90873 47.6168 7.03379 47.3994 7.0839 47.1598C7.0839 46.9485 7.22943 46.4597 6.93398 46.3673Z" fill="white"/>
<path d="M17.7954 59.2508C17.7954 59.2508 17.1957 58.7753 17.1031 58.9646C17.0104 59.1539 17.597 59.9861 17.597 59.9861C17.6432 60.0567 17.7115 60.1101 17.7912 60.1379C17.871 60.1658 17.9577 60.1666 18.0379 60.1402C18.1142 60.0991 18.1733 60.0322 18.2048 59.9516C18.2363 59.8709 18.2381 59.7818 18.2099 59.6999C18.2099 59.6999 18.0247 59.3124 17.7689 59.2596" fill="black"/>
<path d="M13.2621 45.3193C13.2386 45.3149 13.2145 45.3151 13.1911 45.32C13.1677 45.3249 13.1456 45.3344 13.1259 45.3479C13.1062 45.3614 13.0894 45.3787 13.0764 45.3987C13.0635 45.4188 13.0546 45.4412 13.0504 45.4646C13.0048 45.7445 12.9753 46.0268 12.9622 46.31C12.9641 46.6628 12.9951 47.0147 13.0548 47.3624C13.0923 48.0465 13.3198 48.7067 13.7119 49.2689C13.7119 49.2689 13.8398 49.5551 14.0029 49.5419C14.1661 49.5287 14.122 49.3394 14.122 49.3394C14.122 49.3394 13.6193 47.3404 13.606 47.1378C13.5443 46.473 13.5443 45.6672 13.5443 45.6672V45.5439C13.5421 45.5128 13.5337 45.4825 13.5195 45.4547C13.5054 45.4269 13.4858 45.4023 13.462 45.3821C13.4381 45.362 13.4105 45.3469 13.3808 45.3376C13.351 45.3283 13.3196 45.3251 13.2885 45.3281" fill="black"/>
<path d="M14.0469 39.2299C14.0469 39.2299 13.7691 39.1771 13.5133 39.7099C13.2576 40.2427 13.3105 40.4672 13.3325 40.4892C13.3546 40.5112 13.5574 40.5112 13.8838 40.0093C14.2101 39.5073 14.1351 39.3268 14.1351 39.3268C14.1351 39.3268 14.1351 39.2299 14.0469 39.2299Z" fill="black"/>
<path d="M21.6672 44.7468C21.6672 44.7468 22.0023 45.2444 21.3628 45.1299C20.7234 45.0154 19.374 43.9499 18.8228 43.6681C18.2716 43.3863 17.3896 43.2894 17.7601 42.9548C17.8306 42.8975 17.8482 42.8447 17.9541 42.8403C18.1299 42.8658 18.3009 42.9178 18.4612 42.9944C18.4612 42.9944 19.427 43.3951 19.4622 43.4039C19.7862 43.5429 20.1027 43.6987 20.4104 43.8706C20.7896 44.0952 21.4026 44.5223 21.4026 44.5223L21.6672 44.7468Z" fill="black"/>
<path d="M39.4299 60.0168C39.6063 60.5628 37.4058 58.8588 36.2284 57.9517C33.1107 55.552 29.2962 50.6381 29.7724 50.2022C30.1649 49.8456 31.7304 52.0956 34.0235 54.5789C36.4753 57.2208 39.3153 59.691 39.4299 60.0168Z" fill="black"/>
<path d="M48.6023 57.6656C47.9232 58.3921 47.6807 59.3212 48.0731 60.0169C48.4656 60.7126 48.5759 59.0262 48.9992 58.5374C49.4225 58.0487 49.5989 58.1764 50.2031 57.7493C51.235 57.0228 49.4666 56.741 48.6023 57.6656Z" fill="black"/>
<path d="M44.6996 42.1488C44.2321 42.074 44.2586 42.7873 44.3115 43.2893C44.6246 45.5437 45.6344 47.2829 46.9926 48.9209C47.8173 49.916 50.0795 51.6948 50.3353 51.4086C50.4323 51.3074 48.1877 49.5725 46.7545 47.3489C45.7403 45.7682 45.2023 44.4341 45.0744 43.1307C45.0744 42.9634 45.0964 42.2149 44.6996 42.1488Z" fill="black"/>
<path d="M14.0734 32.1977C14.0734 32.1977 13.8088 32.1009 13.4824 32.594C13.1561 33.0872 11.6832 35.3196 11.9434 35.6498C12.2036 35.98 13.5265 33.6508 13.9146 33.2061C14.0249 33.091 14.1043 32.9498 14.1452 32.7958C14.186 32.6418 14.1871 32.48 14.1483 32.3254C14.1483 32.3254 14.1484 32.2242 14.0734 32.2198" fill="black"/>
<path d="M46.1592 72.4821C45.996 73.2218 46.1857 74.7409 46.4458 75.0403C47.0676 75.7933 46.684 73.8603 46.7766 73.1866C46.8199 72.6558 46.9698 72.1392 47.2176 71.6675C47.7776 70.4567 46.4635 70.9014 46.1372 72.4821" fill="black"/>
<path d="M48.1305 32.7483C48.0285 32.7239 47.9212 32.7348 47.8262 32.7791C47.7027 32.8584 47.7424 32.92 47.7424 32.92C47.838 32.9949 47.9474 33.0503 48.0643 33.083C48.1966 33.1094 48.5053 33.2371 48.4744 33.1358C48.4268 33.0107 48.3497 32.8989 48.2496 32.81C48.2144 32.7816 48.1739 32.7607 48.1305 32.7483Z" fill="black"/>
<path d="M47.5174 34.2101C47.413 34.1884 47.3043 34.2023 47.2087 34.2497C47.0941 34.3201 47.1338 34.3818 47.1338 34.3818C47.2266 34.4603 47.3347 34.5187 47.4513 34.5535C47.588 34.5535 47.8922 34.6988 47.8658 34.6019C47.8178 34.4746 47.7391 34.3612 47.6365 34.2717C47.6019 34.2426 47.5612 34.2215 47.5174 34.2101Z" fill="black"/>
<path d="M7.87317 41.6382C7.87317 41.6382 7.5689 42.2283 7.71884 42.5541C7.86877 42.8799 8.27889 42.0345 8.27889 42.0345C8.27889 42.0345 8.71985 41.1935 8.53464 41.0394C8.34943 40.8853 8.25682 41.3212 7.87317 41.6382Z" fill="black"/>
<path d="M50.9791 117.57V116.421C50.9791 113.81 52.302 113.299 56.1606 113.282C59.7149 113.282 60.9673 113.744 60.9673 115.998V124.681H62.2903V126.641H53.625C51.7993 126.641 50.6042 125.386 50.6042 123.845V122.083C50.6042 120.564 51.3803 119.239 54.1012 119.226H57.4924V116.584C57.4924 115.201 57.3954 115.034 56.0107 115.034C54.3482 115.034 54.2468 115.254 54.2468 116.584V117.566H50.9791M55.0052 120.683C54.851 120.686 54.6989 120.721 54.5589 120.786C54.4188 120.85 54.2938 120.943 54.1917 121.059C54.0897 121.174 54.0129 121.31 53.9661 121.457C53.9194 121.604 53.9039 121.759 53.9204 121.912V123.589C53.9204 124.267 54.2115 124.805 55.0052 124.818H56.2268C56.9015 124.818 57.4483 124.606 57.4483 123.589V120.683H54.992H55.0052Z" fill="white"/>
<path d="M42.7284 116.553V113.519H37.8776V115.325H39.1697V124.677H37.8776V126.641H43.9411V124.677H42.7196V119.666C42.7196 119.199 45.5727 115.598 45.5727 116.016V120.996H48.9242V115.391C48.9242 114.109 48.0863 113.282 46.5561 113.282C44.7393 113.282 43.5089 115.567 42.7196 116.553" fill="white"/>
<path d="M81.3098 124.668V113.519H76.3708V115.325H77.7555V124.668H76.3708V126.641H82.6063V124.668H81.3098Z" fill="white"/>
<path d="M30.2751 116.553V113.519H25.4243V115.325H26.7252V124.677H25.4331V126.641H31.4922V124.677H30.2751V119.666C30.2751 119.199 33.1238 115.598 33.1238 116.016V120.996H36.4753V115.391C36.4753 114.109 35.6418 113.282 34.1116 113.282C32.2948 113.282 31.0645 115.567 30.2751 116.553Z" fill="white"/>
<path fill-rule="evenodd" clip-rule="evenodd" d="M23.581 122.343H20.1855V123.325C20.1855 124.646 19.965 124.716 18.3069 124.734H18.2848C16.3886 124.734 16.4945 124.554 16.5209 123.325V120.996H23.5766V115.928C23.5766 114.096 22.192 113.326 18.5274 113.286H18.0026C14.0338 113.308 13.0019 114.206 13.0019 116.474V123.889C13.0019 126.385 14.4792 126.808 18.0776 126.905H18.4701C22.3992 126.817 23.5766 126.548 23.5766 124.214V122.321M16.5518 116.095C16.5518 115.408 16.759 115.065 17.5484 115.056H19.0389C19.6563 115.056 19.9959 115.329 19.9959 115.822V119.618H16.5518V116.095Z" fill="white"/>
<path d="M79.5195 110.825V108.451" stroke="black" stroke-width="1.53679" stroke-miterlimit="10"/>
<path d="M68.4376 116.553V113.519H63.5868V115.325H64.8789V124.677H63.5868V126.641H69.6503V124.677H68.4332V119.666C68.4332 119.199 71.282 115.598 71.282 116.016V120.996H74.6378V115.391C74.6378 114.109 73.7955 113.282 72.2609 113.282C70.4529 113.282 69.2181 115.567 68.4332 116.553" fill="white"/>
<path d="M8.77282 120.261V118.513H6.88541V124.686H10.1531V126.641H0.566162V124.686H3.11499V110.825H1.11297V108.438H75.7932V110.825H6.88541V116.39H8.77282V114.743H10.9424V120.261H8.77282Z" fill="white"/>
<path d="M81.2658 108.354H77.7026V110.701H81.2658V108.354Z" fill="white"/>
</svg>
