<svg width="42" height="40" viewBox="0 0 42 40" fill="none" xmlns="http://www.w3.org/2000/svg">
<path fill-rule="evenodd" clip-rule="evenodd" d="M0.851807 8.30027C0.851807 14.8633 0.916149 16.5791 1.13063 16.5147C1.25931 16.4504 3.76868 15.6997 6.70699 14.8418L12.0045 13.2547V11.1528V9.05094L15.715 9.02949C20.8409 9.00804 21.3771 9.02949 22.8356 9.3941C25.731 10.1448 28.3905 12.2895 29.613 14.9491C31.0929 18.0804 30.857 23.0563 29.0983 26.0375C27.7471 28.3539 24.7873 30.3056 21.8919 30.7775L20.412 31.0349L16.723 35.5174L13.034 40L18.353 39.8713C23.9937 39.7426 25.4736 39.5496 28.6264 38.5201C34.2671 36.6756 38.7497 32.4718 40.6371 27.2815C41.4735 24.9223 41.8167 22.8418 41.8167 19.9893C41.8167 14.1555 40.1223 9.8874 36.369 6.15549C33.4521 3.30295 30.4066 1.71582 25.6238 0.643429C23.8436 0.235924 22.8141 0.193027 12.2834 0.107239L0.851807 0V8.30027ZM7.71524 17.1153C6.98602 17.4156 6.85734 17.9089 6.85734 20.5684V23.2065H4.11205C2.26756 23.2065 1.28097 23.2923 1.10939 23.4638C0.937809 23.6354 0.852018 24.5577 0.852018 26.2306C0.852018 26.3143 0.851963 26.3957 0.851908 26.4751C0.850898 27.9518 0.850392 28.6901 1.21931 29.059C1.58823 29.4279 2.32657 29.4274 3.80324 29.4264C3.88258 29.4264 3.96405 29.4263 4.04771 29.4263H6.57852L6.83589 28.1823C7.17905 26.4451 8.07985 24.815 9.25947 23.7427C10.2246 22.8633 11.8117 22.1341 12.6911 22.1341C13.0342 22.1341 13.0771 21.9196 13.0771 19.9035C13.0771 18.1019 13.0128 17.6301 12.7125 17.3941C12.3479 17.0939 8.35867 16.8794 7.71524 17.1153ZM12.7557 27.3458C15.501 26.7453 16.6592 25.6729 16.4662 23.9785L16.3804 23.185L17.56 23.2493C19.1686 23.3351 19.3402 23.6783 19.2544 26.5952C19.2142 27.9394 19.207 28.6455 18.8507 29.0164C18.4452 29.4384 17.5878 29.4263 15.7155 29.4263H13.0775V32.0858C13.0775 33.8526 13.1002 34.687 12.6949 35.0808C12.313 35.4518 11.551 35.4316 10.0319 35.4316C7.02925 35.4316 6.85767 35.3244 6.85767 33.2869C6.85767 30.1126 8.70216 28.2466 12.7557 27.3458Z" fill="url(#paint0_linear_134_388)"/>
<defs>
<linearGradient id="paint0_linear_134_388" x1="40" y1="20" x2="-56.9974" y2="20.3117" gradientUnits="userSpaceOnUse">
<stop stop-color="#051617" stop-opacity="0"/>
<stop offset="1" stop-color="white"/>
</linearGradient>
</defs>
</svg>
