<svg width="51" height="52" viewBox="0 0 51 52" fill="none" xmlns="http://www.w3.org/2000/svg">
<g filter="url(#filter0_d_134_348)">
<path d="M29.556 17.3125V23.0145H21.6566V17.3125H20.5277V29.8966H21.6566V24.1266H29.556V29.8966H30.6849V17.3125H29.556Z" fill="white"/>
<path d="M19.0742 36.5748L19.0741 36.5748C18.1345 35.9897 17.0954 35.6711 16.1109 35.3693L16.101 35.3662L16.101 35.3662L15.9403 35.317C15.3545 35.137 14.7721 34.943 14.2579 34.6849C13.7441 34.427 13.3076 34.1092 13.0068 33.6869L13.0068 33.6869C12.5152 32.9965 12.4398 32.0748 12.4689 31.405L19.0742 36.5748ZM19.0742 36.5748C20.2674 37.3188 21.0771 38.4113 21.2765 39.5826L21.439 40.5351L21.4778 40.7627L21.254 40.7056L20.3178 40.4669L20.3177 40.4668C19.7923 40.3325 19.234 40.3001 18.6242 40.2653L18.6241 40.2653L18.6143 40.2647C18.1821 40.2398 17.7277 40.2137 17.2712 40.1453L17.2934 39.9969M19.0742 36.5748L17.2934 39.9969M15.4565 37.6304C15.542 37.7843 15.6492 37.9242 15.776 38.0408L15.8774 37.9303L15.4565 37.6304ZM15.4565 37.6304C15.4082 37.544 15.3357 37.4759 15.2416 37.4454M15.4565 37.6304L15.2416 37.4454M12.6257 30.0194L12.6257 30.0193C12.9649 27.2258 13.7445 20.8 13.4612 16.4106C17.3916 14.451 22.4467 10.6552 24.7476 8.92584L24.9272 8.79084L24.7336 8.67672L24.2781 8.40809L24.278 8.40804C23.7932 8.12259 23.1852 8.15411 22.7337 8.49081C19.8434 10.6466 14.8803 14.2326 11.5074 15.5983C10.9809 15.8107 10.3151 15.9671 9.64948 15.9668C8.98376 15.9666 8.3294 15.8098 7.81096 15.4087C7.46247 15.1367 7.22299 14.7113 7.12562 14.2482C7.02822 13.7849 7.076 13.298 7.28386 12.9075L7.28965 12.8966L7.28918 12.8964L7.29945 12.8726C7.57285 12.4442 8.05054 12.1337 8.56428 12.0104L8.56519 12.0102C8.96701 11.9111 9.37921 11.9271 9.73738 12.0718C10.1626 12.2448 10.5548 12.5564 10.8815 12.986C10.949 13.0766 11.014 13.17 11.0755 13.2686C10.7285 13.4354 10.2783 13.6016 9.84838 13.6141L9.83977 13.6144L9.83125 13.6156C9.81507 13.6179 9.80544 13.6175 9.80081 13.6168L9.79011 13.6153L9.77929 13.6153C9.64435 13.6156 9.51151 13.5959 9.37777 13.5585L9.37766 13.5585C9.1156 13.4855 8.87614 13.293 8.73319 13.0551L8.73301 13.0548C8.70797 13.0133 8.68618 12.9708 8.66781 12.9272L8.61227 12.7954L8.47797 12.8446C8.30376 12.9085 8.14433 13.0108 8.01593 13.1547C8.01564 13.155 8.01535 13.1553 8.01507 13.1557L8.00939 13.1618L8.00931 13.1619C7.59929 13.6085 7.64455 14.2989 8.14147 14.663L8.14153 14.663C9.07626 15.3471 10.1679 15.2381 11.0145 14.966C11.8625 14.6934 12.498 14.2474 12.5582 14.2041C12.5583 14.2041 12.5583 14.204 12.5583 14.204L12.9693 13.9102L13.0679 13.8398L13.0197 13.7286L12.8195 13.2659C12.8194 13.2658 12.8194 13.2657 12.8193 13.2656C12.2864 12.0139 11.4047 11.0705 10.3234 10.6324C8.78133 9.99994 6.87464 10.6281 5.96853 12.0755L5.96555 12.0803L5.96564 12.0803L5.92177 12.1566L5.91919 12.1611L5.91927 12.1612C5.12908 13.6522 5.54174 15.6135 6.85721 16.6359C8.39101 17.8279 10.4706 17.652 11.9435 17.0967C12.1174 21.3087 11.4029 27.191 11.082 29.8318C11.0705 29.9257 11.0597 30.0142 11.0495 30.0978C10.8154 29.8661 10.6111 29.5987 10.4714 29.293L10.4714 29.2929C10.256 28.8217 10.1991 28.2851 10.2327 27.7113C10.2663 27.1371 10.3896 26.5358 10.5266 25.9383C10.5266 25.9383 10.5267 25.9382 10.5267 25.9382L10.5641 25.7763L10.5641 25.7762L10.5661 25.7679C10.7972 24.7633 11.0413 23.7025 11.0041 22.5953C10.9568 21.1897 10.4156 19.9425 9.50054 19.1837L9.5005 19.1837L8.75628 18.5669L8.57844 18.4195L8.51613 18.6419L8.25546 19.5724C8.25545 19.5724 8.25545 19.5724 8.25544 19.5725C8.10906 20.0942 7.85807 20.5942 7.58307 21.1397L7.58305 21.1398L7.5823 21.1412C7.38653 21.5299 7.18054 21.9389 7.0106 22.3715C6.80528 22.8934 6.57166 23.7018 6.64466 24.5627L12.6257 30.0194ZM12.6257 30.0194C12.5408 30.716 12.4756 31.253 12.4689 31.405L12.6257 30.0194ZM9.28721 21.1992C9.25863 21.26 9.22967 21.3205 9.20051 21.3805L9.28721 21.1992ZM9.28721 21.1992C9.26068 21.1394 9.23257 21.0812 9.20292 21.0244L9.28721 21.1992ZM11.74 34.5892L11.74 34.5892C12.6404 35.8534 14.1073 36.3803 15.4833 36.8032L15.4835 36.8033L15.6453 36.8529C16.6044 37.1468 17.4873 37.4183 18.2514 37.8944C18.6464 38.1408 18.975 38.4309 19.2243 38.7442C19.052 38.7319 18.8812 38.7222 18.7131 38.7126L18.7131 38.7126C18.285 38.6883 17.8888 38.6654 17.5016 38.6075L11.74 34.5892ZM11.74 34.5892C11.2396 33.8859 10.9636 32.9846 10.9175 31.9632C10.0574 31.4132 9.41534 30.7239 9.05726 29.9393L11.74 34.5892ZM13.7269 36.7444L13.7945 37.0275L13.908 37.503L13.7269 36.7444ZM13.7269 36.7444L13.9967 36.8537C14.3344 36.9905 14.9932 37.2072 15.2879 37.3027L15.2416 37.4454M13.7269 36.7444L15.2416 37.4454M17.2934 39.9969L17.2712 40.1453C16.5821 40.042 15.5873 39.7742 14.8265 39.0762M17.2934 39.9969L14.8265 39.0762M14.8265 39.0762C14.3767 38.6639 14.0512 38.1058 13.908 37.5031L14.8265 39.0762ZM8.97224 21.839C8.97224 21.839 8.97224 21.839 8.97224 21.839C8.77933 22.222 8.60105 22.5763 8.45777 22.9407L8.45776 22.9407C8.24869 23.4722 8.15755 24.0019 8.19392 24.4315C8.21476 24.6752 8.29348 24.9047 8.4136 25.1097C8.47946 25.2221 8.5136 25.358 8.48331 25.4998L8.48331 25.4998C8.41943 25.7988 8.28167 26.4574 8.23102 26.8029L8.19633 27.0396L7.9984 26.9053C7.22948 26.3836 6.72501 25.514 6.64466 24.5627L8.97224 21.839Z" fill="white" stroke="white" stroke-width="0.3"/>
<path d="M42.0515 21.3359C42.1272 21.4914 42.2042 21.6442 42.2799 21.7945C42.4728 22.1775 42.6511 22.5318 42.7944 22.8962L42.7944 22.8962C43.0509 23.5485 43.1252 24.1678 43.0203 24.6414C42.9866 24.7922 42.9254 24.9401 42.8425 25.0789M42.0515 21.3359L42.9712 25.156L42.8425 25.0789M42.0515 21.3359C41.9049 21.7085 41.8179 22.1382 41.8021 22.6032C41.772 23.5033 41.9783 24.4035 42.2034 25.3811L42.2034 25.3812L42.2412 25.5462C42.5629 26.9493 42.8399 28.483 42.1952 29.895C41.8368 30.68 41.1941 31.3697 40.3327 31.9203C40.2863 32.9401 40.0103 33.8408 39.5099 34.5434C38.6098 35.808 37.1429 36.3348 35.7669 36.7578L35.7668 36.7578L35.6069 36.8067C35.6069 36.8067 35.6069 36.8068 35.6068 36.8068C34.647 37.1011 33.7635 37.3725 32.9985 37.8493C32.6037 38.0954 32.2752 38.3854 32.0259 38.6987C32.1984 38.6865 32.3693 38.6767 32.5374 38.6671L42.0515 21.3359ZM42.8425 25.0789C42.776 25.1899 42.7418 25.3252 42.7713 25.4654L42.7714 25.4659C42.8362 25.7686 42.9777 26.4478 43.028 26.8085L43.0682 27.0969L43.2796 26.8968L43.635 26.5605M42.8425 25.0789L43.635 26.5605M43.635 26.5605C44.0852 26.1353 44.4061 25.5741 44.5383 24.9787C44.7621 23.9706 44.4966 22.9756 44.2416 22.327L44.2415 22.327C44.0713 21.8944 43.8653 21.4854 43.6695 21.0967L43.6688 21.0953M43.635 26.5605L43.5348 21.1627M43.6688 21.0953L43.5348 21.1627M43.6688 21.0953L43.6688 21.0952L43.5348 21.1627M43.6688 21.0953C43.3941 20.5496 43.1431 20.05 42.9967 19.5279L42.8523 19.5684M43.5348 21.1627C43.2614 20.6197 43.0033 20.1069 42.8523 19.5684M42.8523 19.5684L42.9967 19.5279L42.7357 18.5974L42.6733 18.375L42.4955 18.5224L41.7516 19.1395M42.8523 19.5684L41.7516 19.1395M41.7516 19.1395C41.7516 19.1395 41.7516 19.1395 41.7516 19.1395C40.8369 19.898 40.2956 21.1452 40.2481 22.5507L40.2481 22.5508C40.2109 23.6574 40.4548 24.717 40.6859 25.7208L40.688 25.7295L40.688 25.7298L40.7255 25.8936L40.7255 25.8937C40.8625 26.491 40.9858 27.0923 41.0193 27.6666C41.0528 28.2404 40.9959 28.7772 40.7804 29.2487L40.7804 29.2488C40.4287 30.0198 39.6682 30.5463 39.0734 30.8559C38.9383 30.9261 38.4408 31.1382 37.795 31.413L37.795 31.413C35.2062 32.5159 29.2515 35.0538 25.5917 37.494C21.9293 35.0699 16.1147 32.5899 13.4663 31.462L13.2596 31.3739L13.2575 31.5986L13.2528 32.1273L13.2528 32.1274C13.2481 32.6897 13.5795 33.2009 14.0966 33.4233C17.4087 34.8484 22.9959 37.3534 25.8649 39.5918L41.7516 19.1395ZM35.9525 37.26C35.8143 37.3045 35.7133 37.4023 35.649 37.5157C35.5314 37.7223 35.3722 37.9053 35.1715 38.0448L35.1714 38.0449C34.8178 38.2911 34.3135 38.4774 33.7487 38.5617L33.7486 38.5617C33.3628 38.6197 32.9681 38.6424 32.5417 38.6668L32.5374 38.6671L35.9525 37.26ZM35.9525 37.26C35.9524 37.26 35.9523 37.2601 35.9522 37.2601L35.9985 37.4028L35.9525 37.26ZM35.9525 37.26C36.2431 37.1657 36.8823 36.956 37.2067 36.8269L37.4291 36.7384L37.4118 36.9772C37.3445 37.904 36.8436 38.7758 36.0603 39.3211L36.0603 39.3211C35.351 39.8147 34.5341 40.0168 33.9794 40.0998C33.5224 40.1682 33.068 40.1944 32.6357 40.2193L32.6264 40.2198L32.6264 40.2198C32.0162 40.2546 31.458 40.287 30.9329 40.4214L30.9328 40.4214L29.9966 40.6605L29.7729 40.7176L29.8116 40.49L29.9737 39.5372L30.1216 39.5623L29.9737 39.5372C30.1732 38.3655 30.9828 37.273 32.1764 36.5293C33.1148 35.9444 34.1533 35.6259 35.1371 35.3241L35.1511 35.3198L35.1513 35.3198L35.3103 35.2712C35.3104 35.2712 35.3104 35.2712 35.3105 35.2712C35.8961 35.0911 36.4785 34.8973 36.9925 34.6393C37.5061 34.3815 37.9425 34.0639 38.2431 33.6417C38.438 33.3678 38.5674 33.0573 38.6509 32.7388M35.9525 37.26L38.6509 32.7388M38.6509 32.7388C38.5734 32.7718 38.4914 32.8067 38.4043 32.8437L38.4044 32.8437L38.6509 32.7388ZM26.945 38.4651C28.1622 39.4631 29.3541 41.1761 29.0888 43.1005L29.0888 43.1005C28.8609 44.751 27.369 46.0888 25.6823 46.1499L25.6823 46.15H25.6769H25.5892V46.1501L25.5838 46.1499C23.8774 46.0889 22.3801 44.7519 22.1562 43.1003C21.995 41.9448 22.3713 40.7098 23.189 39.6223C23.189 39.6222 23.1891 39.622 23.1892 39.6219L23.4897 39.217L23.5619 39.1197L23.6722 39.1699L24.1324 39.379C24.1324 39.379 24.1325 39.379 24.1326 39.379C24.1326 39.379 24.1326 39.379 24.1326 39.379C24.2002 39.4097 24.904 39.737 25.564 40.3351C26.223 40.9322 26.8633 41.8231 26.7381 42.9748L26.7381 42.9748C26.6713 43.587 26.0959 43.9716 25.5044 43.8397L25.5044 43.8397L25.5017 43.839L25.4937 43.8371C25.3047 43.798 25.1372 43.7108 24.9953 43.5926L24.8861 43.5016L24.9711 43.3877C25 43.349 25.0264 43.3083 25.0497 43.2662L25.0498 43.2661C25.1842 43.0234 25.2313 42.7196 25.1635 42.4561L25.1635 42.456C25.129 42.3218 25.0796 42.1968 25.0118 42.0802L25.0066 42.0712L25.0027 42.0616C25.0001 42.0552 24.9952 42.0462 24.9862 42.0347L24.9809 42.028L24.9764 42.0207C24.7505 41.6547 24.3814 41.3482 24.0635 41.1309C24.0089 41.2334 23.9604 41.3364 23.9154 41.4402C23.7069 41.9379 23.6333 42.4335 23.6961 42.8877C23.7497 43.2703 23.9419 43.6353 24.2289 43.9339L24.2296 43.9346C24.5932 44.3179 25.1006 44.5763 25.6085 44.599L25.6341 44.5959L25.6341 44.5954L25.6466 44.595C26.0888 44.5797 26.5343 44.3777 26.8868 44.0617C27.2392 43.7458 27.4879 43.3257 27.5493 42.8878C27.6373 42.2381 27.4458 41.5931 27.1132 41.0165C26.7806 40.44 26.3123 39.9417 25.865 39.5919L26.945 38.4651Z" fill="white" stroke="white" stroke-width="0.3"/>
<path d="M45.283 12.1207L45.2829 12.1208L45.239 12.0448L45.2363 12.0401L45.2362 12.0401C44.3398 10.6102 42.4352 9.98669 40.8918 10.6148L40.8918 10.6148C39.0928 11.3473 38.2053 13.2361 37.9496 14.7892C34.2149 12.8341 29.4781 9.27407 27.3515 7.6757C27.276 7.61884 27.2047 7.56525 27.1374 7.51465C27.4552 7.42765 27.7889 7.38435 28.1236 7.41625C28.6393 7.4654 29.1324 7.68452 29.6125 8.0005C30.0929 8.31673 30.552 8.72423 31.0009 9.1415L31.1228 9.25489L31.123 9.25499L31.1285 9.26019C31.8829 9.96295 32.6794 10.7051 33.6574 11.2263C34.8982 11.8882 36.2495 12.0432 37.3636 11.63L38.27 11.294L38.4866 11.2137L38.3251 11.0485L37.6499 10.3577C37.6499 10.3577 37.6499 10.3577 37.6499 10.3577C37.2708 9.96969 36.9635 9.50243 36.6284 8.99164L36.6284 8.99163L36.627 8.98949C36.3883 8.62571 36.1374 8.24341 35.8482 7.87992L35.8482 7.87991C35.4988 7.44101 34.9155 6.83474 34.1332 6.46739C33.2696 6.06137 32.2639 6.06358 31.4277 6.46845L31.2124 6.57269L31.4 6.72109C31.6739 6.93777 32.1755 7.38653 32.4026 7.59132C32.4026 7.59133 32.4026 7.59133 32.4027 7.59133L32.5031 7.47993C32.5775 7.547 32.6735 7.57657 32.774 7.57594C33.0321 7.57435 33.2928 7.62489 33.536 7.73902L45.283 12.1207ZM45.283 12.1207L45.2855 12.1255C46.0858 13.6339 45.6765 15.599 44.3583 16.6185M45.283 12.1207L44.3583 16.6185M17.8952 7.63634C18.0595 7.58484 18.2344 7.56195 18.4105 7.56481C18.5094 7.56608 18.6047 7.53747 18.6782 7.47134C18.8735 7.29532 19.2816 6.93003 19.5789 6.68519L19.678 6.71476L19.7209 6.57102L19.6288 6.45265C19.6027 6.47295 19.5749 6.49509 19.5456 6.51873L19.252 6.43114M17.8952 7.63634L17.9403 7.77939M17.8952 7.63634L17.94 7.77948C17.9401 7.77945 17.9402 7.77942 17.9403 7.77939M17.8952 7.63634C17.3954 7.79402 16.8728 8.19077 16.4245 8.75411C16.1761 9.06593 15.955 9.40275 15.7209 9.7592L15.7194 9.76156M17.9403 7.77939C18.0878 7.7332 18.2465 7.71217 18.4081 7.71479L18.4086 7.7148C18.5372 7.71645 18.6716 7.67909 18.7785 7.58281L18.7786 7.58276C19.0088 7.37529 19.5258 6.91299 19.813 6.6894L20.0429 6.51053L19.7638 6.42728L19.2949 6.28742L19.252 6.43114M17.9403 7.77939C17.4778 7.92532 16.9782 8.29915 16.5419 8.8475L16.5418 8.84756C16.298 9.15372 16.0802 9.48537 15.8449 9.84378M19.252 6.43114L19.2949 6.2874M19.252 6.43114C18.6868 6.26233 18.071 6.2652 17.5184 6.43941M19.2949 6.2874L45.153 12.1958C45.9201 13.6416 45.5253 15.5265 44.2664 16.5C43.3835 17.1886 42.1672 17.475 40.8476 17.3144L40.3453 17.2566L40.2966 16.7533C40.2833 16.6211 40.0277 13.7287 42.0191 12.851C42.4966 12.6405 43.0249 12.8968 43.1813 13.3946L43.1845 13.4048C43.2208 13.5142 43.236 13.6268 43.2326 13.7391C43.2335 13.7392 43.2345 13.7393 43.2355 13.7394L43.2305 13.7798C43.228 13.8161 43.2235 13.8523 43.2173 13.8883C43.1626 13.8817 43.1076 13.8788 43.0523 13.8797C42.7401 13.8852 42.4158 14.0095 42.1917 14.2291C42.0839 14.335 41.9914 14.451 41.9167 14.5811C41.9027 14.5989 41.8909 14.6202 41.8811 14.6453C41.6605 15.0544 41.5775 15.5578 41.5483 15.9533C41.5991 15.9538 41.6492 15.9532 41.6989 15.9515M19.2949 6.2874C18.7015 6.11019 18.055 6.11294 17.4733 6.29636M19.2949 6.2874L20.1721 9.14055M17.5184 6.43941C16.5752 6.73634 15.8691 7.43669 15.4425 7.97237C15.1611 8.32571 14.916 8.69891 14.679 9.05979L14.6703 9.07297C14.3368 9.5813 14.0218 10.0613 13.6307 10.4616L13.0705 11.0353L13.0079 11.0121L12.9558 11.1527L13.0631 11.2575L13.1098 11.2098L13.8619 11.4884C14.9275 11.8833 16.2335 11.7393 17.4453 11.0933C18.4039 10.5818 19.1867 9.85307 19.9441 9.14815L19.9469 9.14545L20.07 9.03069M17.5184 6.43941L17.4733 6.29636M17.5184 6.43941L17.4734 6.29634C17.4734 6.29634 17.4734 6.29635 17.4733 6.29636M20.07 9.03069C20.9687 8.19522 21.9377 7.37057 23.0361 7.26598C23.9307 7.18046 24.8027 7.59851 25.3762 7.96379C25.511 8.04962 25.9507 8.38025 26.5073 8.79893C28.7769 10.5048 33.9995 14.4275 37.9377 16.3547M20.07 9.03069L20.1723 9.14038M20.07 9.03069L20.1721 9.14055M37.9377 16.3547C37.659 20.6455 38.3949 26.8321 38.7533 29.784L38.6991 29.8147L38.7729 29.9453L38.9218 29.9272C38.9193 29.9067 38.9168 29.8861 38.9143 29.8653L39.2332 29.6849C39.6704 29.4376 39.9174 28.9534 39.8586 28.4546M37.9377 16.3547L37.8718 16.4894C37.8419 16.4748 37.8118 16.46 37.7818 16.4451M37.9377 16.3547L37.7881 16.3449C37.7859 16.3782 37.7838 16.4116 37.7818 16.4451M39.8586 28.4546C39.4373 24.8791 38.8098 18.767 39.3168 15.1403M39.8586 28.4546L40.0075 28.4371C39.5857 24.8562 38.9615 18.7648 39.4654 15.161M39.8586 28.4546L44.3583 16.6185M39.3168 15.1403C39.4799 13.9834 40.1278 12.445 41.4214 11.9157M39.3168 15.1403L39.4654 15.161M39.3168 15.1403L39.4654 15.1612C39.4654 15.1611 39.4654 15.1611 39.4654 15.161M41.4214 11.9157C42.3179 11.5527 43.5225 11.9488 44.0346 12.769L44.0572 12.7995M41.4214 11.9157L41.4782 12.0545C41.478 12.0546 41.4779 12.0547 41.4777 12.0547M41.4214 11.9157L41.4777 12.0547C41.4777 12.0547 41.4777 12.0547 41.4777 12.0547M44.0572 12.7995C44.3172 13.2919 44.3487 13.9068 44.1878 14.4485C44.0654 14.8719 43.8296 15.2499 43.4964 15.5097M44.0572 12.7995L43.9366 12.8887L43.9297 12.8794M44.0572 12.7995L43.9245 12.8695C43.9263 12.8728 43.928 12.8761 43.9297 12.8794M43.4964 15.5097C43.1095 15.8104 42.6167 16.0031 42.0588 16.074M43.4964 15.5097L43.4042 15.3914C43.4042 15.3913 43.4043 15.3913 43.4043 15.3912M43.4964 15.5097L43.4043 15.3912M42.0588 16.074C41.9384 16.0879 41.8159 16.0981 41.6896 16.1018C41.6918 16.0537 41.6949 16.0034 41.6989 15.9515M42.0588 16.074L42.0399 15.9252C42.0402 15.9251 42.0404 15.9251 42.0407 15.9251M42.0588 16.074L42.0416 15.925C42.0413 15.925 42.041 15.925 42.0407 15.9251M41.6989 15.9515C41.7283 15.5677 41.8091 15.0948 42.0131 14.7165L42.0174 14.7085L42.0207 14.7001C42.0263 14.6858 42.0314 14.6779 42.0347 14.6737L42.0414 14.6652L42.0468 14.6558C42.1139 14.539 42.1976 14.4337 42.2967 14.3363C42.491 14.1458 42.7775 14.0345 43.0549 14.0297C43.1033 14.0289 43.1513 14.0314 43.1991 14.0372L43.3406 14.0545L43.365 13.914C43.3968 13.7315 43.3879 13.5421 43.3273 13.3589C43.3272 13.3584 43.327 13.358 43.3269 13.3575L43.3245 13.3499L43.3244 13.3497C43.1427 12.7712 42.5223 12.4653 41.9586 12.7137C40.8986 13.1809 40.4471 14.1808 40.2595 15.0501C40.0716 15.9201 40.1398 16.6929 40.1474 16.768C40.1474 16.7682 40.1474 16.7683 40.1474 16.7684L40.196 17.271L40.2076 17.3917L40.3281 17.4056L40.8295 17.4633C40.8296 17.4634 40.8298 17.4634 40.8299 17.4634C42.1802 17.6276 43.4382 17.336 44.3583 16.6185M41.6989 15.9515C41.8149 15.9475 41.9283 15.938 42.0407 15.9251M42.0407 15.9251C42.5759 15.8569 43.042 15.6729 43.4043 15.3912M43.4043 15.3912C43.7089 15.1538 43.9288 14.8046 44.0437 14.4068L44.044 14.4058C44.1944 13.8996 44.1641 13.3306 43.9297 12.8794M43.9297 12.8794L43.914 12.8582L43.9136 12.8585L43.9074 12.8484C43.673 12.4731 43.2753 12.1884 42.8255 12.0412C42.3757 11.894 41.8875 11.8888 41.4777 12.0547M41.4777 12.0547C40.871 12.3032 40.4081 12.7914 40.0751 13.3677C39.742 13.944 39.5447 14.5989 39.4654 15.161M37.7818 16.4451C33.839 14.4952 28.6661 10.6092 26.4172 8.91884L26.4172 8.91881C25.8562 8.49692 25.4239 8.17202 25.2956 8.09031L25.2956 8.09031C24.7303 7.73022 23.8939 7.33465 23.0504 7.41529L23.0503 7.4153C22.5341 7.46445 22.0408 7.68359 21.5606 7.99956C21.0801 8.31574 20.6211 8.72317 20.1723 9.14038M37.7818 16.4451L20.1723 9.14038M20.1723 9.14038L20.1721 9.14055M20.1723 9.14038C20.1722 9.14043 20.1722 9.14049 20.1721 9.14055M20.1723 9.14038L20.1721 9.14055M20.1721 9.14055L20.0493 9.25514L20.0491 9.25525L20.0399 9.26383C19.2867 9.96495 18.4918 10.7049 17.5159 11.2256L17.5159 11.2256C16.2748 11.8872 14.9239 12.0419 13.8097 11.6291L12.9037 11.2934L12.6871 11.2132L12.8485 11.0479L13.5234 10.3568L13.5234 10.3568C13.9025 9.96876 14.2098 9.50149 14.5449 8.99069L14.5449 8.99062L14.5551 8.97512C14.7911 8.61578 15.0394 8.23768 15.3252 7.87892C15.7595 7.3336 16.4885 6.60639 17.4733 6.29636M15.8449 9.84378C15.8449 9.84375 15.8449 9.84371 15.8449 9.84368L15.7194 9.76156M15.8449 9.84378C15.7526 9.98477 15.6587 10.1278 15.5619 10.2709M15.8449 9.84378C15.8448 9.84382 15.8448 9.84385 15.8448 9.84389L15.7194 9.76156M15.7194 9.76156C15.6039 9.93815 15.4866 10.1166 15.3647 10.2939C15.4298 10.2885 15.4956 10.2809 15.5619 10.2709M15.5619 10.2709C15.5245 10.3262 15.4867 10.3815 15.4483 10.4367M15.5619 10.2709C15.958 10.2117 16.3736 10.0722 16.7844 9.85331M15.4483 10.4367L28.2707 5.86822C27.4122 5.78653 26.4942 5.99786 25.5879 6.46737C24.6804 5.99693 23.7615 5.78526 22.9026 5.86727C21.3573 6.01474 20.1676 7.02136 19.1133 8.00177L19.1133 8.0018L18.9896 8.11688L18.9895 8.11695C18.2554 8.80092 17.5788 9.42958 16.7844 9.85331M15.4483 10.4367C15.9042 10.3882 16.3845 10.2364 16.855 9.98569M15.4483 10.4367L19.2154 8.11161L19.0918 8.22669C18.3606 8.90797 17.6698 9.55111 16.855 9.98569M16.7844 9.85331L16.855 9.98569M16.7844 9.85331C16.7844 9.85332 16.7844 9.85333 16.7844 9.85334L16.855 9.98569" fill="white" stroke="white" stroke-width="0.3"/>
</g>
<defs>
<filter id="filter0_d_134_348" x="0.368652" y="0.699982" width="50.4756" height="50.6002" filterUnits="userSpaceOnUse" color-interpolation-filters="sRGB">
<feFlood flood-opacity="0" result="BackgroundImageFix"/>
<feColorMatrix in="SourceAlpha" type="matrix" values="0 0 0 0 0 0 0 0 0 0 0 0 0 0 0 0 0 0 127 0" result="hardAlpha"/>
<feOffset/>
<feGaussianBlur stdDeviation="2.5"/>
<feComposite in2="hardAlpha" operator="out"/>
<feColorMatrix type="matrix" values="0 0 0 0 1 0 0 0 0 1 0 0 0 0 1 0 0 0 0.32 0"/>
<feBlend mode="normal" in2="BackgroundImageFix" result="effect1_dropShadow_134_348"/>
<feBlend mode="normal" in="SourceGraphic" in2="effect1_dropShadow_134_348" result="shape"/>
</filter>
</defs>
</svg>
