<svg xmlns="http://www.w3.org/2000/svg" width="72" height="160" viewBox="0 0 72 160" fill="none">
    <path fill-rule="evenodd" clip-rule="evenodd" d="M79.2801 55.0954C81.4861 59.6643 82.5214 64.5331 82.4949 69.6139C83.5869 64.9234 82.515 60.0832 79.2801 55.0954ZM84.764 87.3473C92.9122 96.0654 88.0046 108.745 72.0391 123.018C86.1745 108.543 90.371 95.4561 84.764 87.3473ZM57.8814 69.1242L51.6149 62.8577L50.2459 41.7419C52.5801 33.5779 58.4707 25.4147 64.6212 17.2508C57.0215 24.5956 49.9395 32.1209 46.5076 40.9156L47.712 64.3678L58.6211 74.9081L39.493 69.4285L23.7338 48.912C26.1921 32.8233 35.4948 16.4503 46.6286 0C33.3697 15.7973 21.4288 31.7307 18.6791 48.6148L36.0731 72.6992L57.1096 78.7273L29.3463 78.2762L0.532724 94.9721C0.0638098 108.796 4.70025 122.929 10.2063 137.115C7.0633 123.925 4.64562 110.645 5.845 96.9118L30.6617 82.2966L55.9203 81.7668L24.351 93.7076L21.3555 128.139C21.4789 131.385 37.6553 151.706 54.0715 160C46.5585 155.263 27.8973 132.229 26.2853 126.363L28.9331 96.2709L55.5064 85.1993C40.3673 100.741 59.6779 117.591 71.056 125.991C82.5601 117.463 101.712 100.769 86.6428 85.2387L113.122 96.2709L115.77 126.363C114.158 132.229 95.4962 155.263 87.9839 160C104.4 151.706 120.577 131.385 120.7 128.139L117.704 93.7076L86.2275 81.8011L86.2253 81.7789L86.1924 81.7668L86.2239 81.7675V81.7653L86.2533 81.7675L111.451 82.2966L136.267 96.9118C137.467 110.645 135.049 123.925 131.906 137.115C137.412 122.929 142.049 108.796 141.58 94.9721L112.766 78.2762L85.0031 78.7273L106.039 72.6992L123.433 48.6148C120.684 31.7307 108.743 15.7973 95.4833 0C106.618 16.4503 115.92 32.8233 118.378 48.912L102.619 69.4285L83.4916 74.9081L94.4007 64.3678L95.6043 40.9156C92.1732 32.1209 85.0912 24.5956 77.4915 17.2508C83.642 25.4147 89.5326 33.5779 91.8668 41.7419L90.4978 62.8577L84.2306 69.1242C84.2456 69.0282 84.2592 68.9337 84.2699 68.8414C85.228 60.7748 82.0102 53.5231 73.7403 51.2791C76.2957 53.4042 78.1072 56.4415 76.9194 60.003C74.9418 59.6836 72.1794 58.4428 71.056 56.7172C70.0686 58.3984 67.0549 59.7022 65.1933 60.003C64.0055 56.4415 65.817 53.4042 68.3724 51.2791C60.1025 53.5231 56.8847 60.7741 57.8428 68.8414C57.8535 68.9337 57.8671 69.0282 57.8814 69.1242Z" fill="url(#paint0_linear_742_1939)"/>
    <defs>
        <linearGradient id="paint0_linear_742_1939" x1="71.0564" y1="160" x2="71.0564" y2="-20.5981" gradientUnits="userSpaceOnUse">
            <stop stop-color="#16838D" stop-opacity="0"/>
            <stop offset="1" stop-color="#020C0D"/>
        </linearGradient>
    </defs>
</svg>