<svg width="286" height="60" viewBox="0 0 286 60" fill="none" xmlns="http://www.w3.org/2000/svg">
<path d="M24.4117 59.2196C17.1246 59.2132 9.9398 57.5065 3.43052 54.2356C3.13974 54.0994 2.86137 53.9382 2.5986 53.7538C2.41295 53.6302 2.25575 53.4685 2.13749 53.2796C2.01924 53.0907 1.94261 52.8787 1.9127 52.658C1.8828 52.4372 1.90029 52.2125 1.96404 51.999C2.02779 51.7855 2.13636 51.588 2.28246 51.4196C2.42805 51.2244 2.60276 51.0583 2.75667 50.8714C3.49197 50.0254 4.0032 49.0089 4.24372 47.9148C4.48423 46.8207 4.44634 45.6838 4.13348 44.6081C4.03793 44.2463 3.89823 43.8976 3.71752 43.5698C2.19615 40.7853 1.1542 37.7653 0.635211 34.636C0.216629 32.1442 0.129914 29.608 0.377316 27.0935C0.749 22.8537 2.09411 18.7563 4.3082 15.1195C8.55103 8.19723 14.6338 3.76701 22.5565 1.82879C24.4616 1.36136 26.394 1.01321 28.3426 0.786321C37.5178 -0.193059 46.7798 1.52173 54.9933 5.72048C55.1863 5.81365 55.3737 5.91765 55.5549 6.03198C55.736 6.14921 55.8907 6.30288 56.009 6.48319C56.1273 6.6635 56.2066 6.86649 56.2418 7.07914C56.277 7.29179 56.2674 7.50945 56.2136 7.71819C56.1598 7.92693 56.063 8.12214 55.9293 8.29137C55.8294 8.42013 55.7005 8.52398 55.5965 8.64442C53.7829 10.746 53.3752 13.1051 54.307 15.7051C54.4816 16.1556 54.683 16.5952 54.9102 17.0217C56.7746 20.7643 57.8012 24.8672 57.919 29.0456C58.0368 33.224 57.2429 37.378 55.5923 41.2194C53.9417 45.0608 51.474 48.4978 48.3603 51.2919C45.2466 54.086 41.5613 56.1704 37.5603 57.4004C35.8844 57.895 34.1781 58.2806 32.4523 58.555C29.797 59.0135 27.1063 59.2359 24.4117 59.2196ZM49.6898 29.8098C49.6997 25.7414 48.5006 21.7615 46.2445 18.3737C43.9883 14.9859 40.7763 12.3425 37.0151 10.778C33.2538 9.21352 29.1122 8.79823 25.1145 9.58468C21.1168 10.3711 17.4425 12.324 14.5567 15.1961C11.6709 18.0683 9.70316 21.7306 8.90259 25.7198C8.10202 29.7089 8.50458 33.8455 10.0593 37.6061C11.614 41.3667 14.2509 44.5823 17.6366 46.846C21.0222 49.1098 25.0042 50.3198 29.0788 50.3231C34.5347 50.3264 39.769 48.1684 43.6332 44.3226C47.4973 40.4768 49.6755 35.2574 49.6898 29.8098Z" fill="white"/>
<path d="M259.606 30.5283C259.606 27.7124 259.606 24.895 259.606 22.0763C259.589 20.7593 259.772 19.4474 260.146 18.1846C260.548 16.7274 261.311 15.3947 262.364 14.3095C263.417 13.2243 264.728 12.4215 266.174 11.9754C267.143 11.6545 268.145 11.44 269.16 11.3357C271.005 11.1239 272.869 11.1239 274.714 11.3357C276.431 11.4928 278.109 11.9409 279.676 12.6607C283.095 14.322 284.95 17.1213 285.009 20.9133C285.096 26.4123 285.038 31.9155 285.009 37.4187C285.011 39.1906 284.806 40.9567 284.397 42.681C283.913 44.7449 282.645 46.5406 280.861 47.6899C279.351 48.6833 277.652 49.3562 275.87 49.6669C274.523 49.9337 273.149 50.0438 271.777 49.995C269.269 49.913 266.813 49.264 264.593 48.0969L264.31 47.9432C261.673 46.527 260.238 44.2966 259.793 41.3768C259.649 40.3936 259.579 39.4009 259.585 38.4072C259.596 35.7823 259.603 33.156 259.606 30.5283ZM276.872 30.6072H276.922V22.3878C276.933 21.8778 276.899 21.3678 276.822 20.8635C276.748 20.2732 276.506 19.7163 276.126 19.258C275.746 18.7998 275.243 18.4591 274.676 18.276C273.403 17.8168 272.029 17.7092 270.699 17.9645C269.932 18.1211 269.227 18.4975 268.67 19.0477C268.113 19.5979 267.728 20.2981 267.563 21.0628C267.428 21.8038 267.37 22.5569 267.393 23.3098C267.393 26.6325 267.393 29.9136 267.393 33.2155C267.393 35.0679 267.393 36.9203 267.422 38.7727C267.425 39.3092 267.476 39.8444 267.576 40.3717C267.69 40.9847 268.015 41.5385 268.495 41.9375C269.09 42.4444 269.807 42.7879 270.575 42.9343C271.502 43.1128 272.452 43.1338 273.387 42.9966C273.814 42.9613 274.234 42.8662 274.635 42.7142C275.882 42.1618 276.694 41.2813 276.802 39.865C276.835 39.4123 276.864 38.9554 276.864 38.4986C276.877 35.8653 276.872 33.2238 276.872 30.6072Z" fill="white"/>
<path d="M229.661 29.7269C229.661 26.695 229.685 23.6589 229.661 20.627C229.625 19.4007 229.876 18.183 230.393 17.0701C230.909 15.9571 231.678 14.9794 232.639 14.2142C234.32 12.8145 236.342 11.8832 238.5 11.5146C239.716 11.2871 240.952 11.1772 242.189 11.1865C243.669 11.1628 245.149 11.2141 246.623 11.3401C248.364 11.5004 250.079 11.8685 251.732 12.4366C251.911 12.4939 252.086 12.5633 252.256 12.6443C252.451 12.7397 252.615 12.8883 252.729 13.0727C252.843 13.2571 252.902 13.47 252.9 13.6868C252.905 13.767 252.905 13.8474 252.9 13.9276C252.809 15.1736 252.734 16.4446 252.609 17.6989C252.514 18.6708 251.856 19.0944 250.9 18.8286C249.427 18.4072 247.928 18.0867 246.411 17.8692C244.382 17.5597 242.31 17.7015 240.342 18.2845C239.645 18.4903 238.988 18.8103 238.396 19.2315C237.97 19.5179 237.623 19.9055 237.385 20.3594C237.146 20.8132 237.025 21.3191 237.031 21.8315C237.031 22.849 236.998 23.8707 236.986 24.8883C236.986 25.6442 236.986 25.6401 237.672 25.4698C238.063 25.3701 238.458 25.287 238.849 25.1915C240.108 24.9049 241.388 24.7174 242.676 24.6308C243.59 24.5891 244.506 24.6308 245.413 24.7554C246.91 24.9121 248.387 25.2267 249.818 25.6941C251.125 26.1303 252.303 26.8839 253.246 27.887C254.256 28.9119 254.874 30.2582 254.993 31.6915C255.246 34.2027 255.346 36.7271 255.292 39.2505C255.265 40.4579 255.09 41.6573 254.772 42.8224C253.807 46.1949 251.607 48.3463 248.279 49.3971C247.014 49.7717 245.705 49.9729 244.386 49.9952C242.721 50.0752 241.053 50.0391 239.394 49.8872C237.052 49.6497 234.829 48.7442 232.988 47.2789C232.342 46.7496 231.8 46.1045 231.391 45.3767C230.557 43.9321 230.017 42.3371 229.802 40.6834C229.706 39.9649 229.665 39.2402 229.677 38.5154C229.669 35.5831 229.663 32.6537 229.661 29.7269ZM237.027 36.2311C237.027 37.3026 236.973 38.3783 237.027 39.4457C237.048 40.2039 237.308 40.9361 237.769 41.5385C238.231 42.1409 238.871 42.5829 239.598 42.8016C240.054 42.9661 240.529 43.0695 241.012 43.109C241.895 43.19 242.783 43.19 243.666 43.109C244.307 43.0539 244.938 42.9142 245.542 42.6936C245.96 42.5421 246.343 42.3086 246.668 42.0068C246.994 41.7051 247.256 41.3413 247.439 40.9368C247.66 40.4781 247.8 39.985 247.855 39.479C248.013 38.0657 248.013 36.6392 247.855 35.226C247.789 34.3753 247.429 33.5738 246.838 32.9581C246.246 32.3424 245.459 31.9505 244.61 31.8493C242.183 31.4659 239.696 31.7384 237.41 32.6384C237.282 32.6672 237.169 32.7419 237.092 32.8482C237.016 32.9546 236.981 33.0854 236.994 33.2157C237.027 34.1918 237.027 35.2135 237.027 36.2311Z" fill="white"/>
<path d="M219.752 29.1662L220.705 29.4362C222.968 30.109 224.315 31.6582 224.943 33.8844C225.127 34.5612 225.218 35.2598 225.214 35.9611C225.214 37.4936 225.214 39.0221 225.214 40.5546C225.231 42.6449 224.472 44.6674 223.084 46.2322C222.351 47.0946 221.439 47.7864 220.41 48.2591C219.135 48.8382 217.794 49.2568 216.416 49.5051C214.489 49.8944 212.525 50.063 210.559 50.0076C207.455 49.9284 204.416 49.102 201.699 47.5987C201.512 47.4949 201.325 47.3869 201.142 47.2747C200.916 47.15 200.733 46.9607 200.616 46.7313C200.499 46.5019 200.453 46.2428 200.485 45.9872C200.526 45.4265 200.551 44.8616 200.593 44.3009C200.635 43.6572 200.685 43.0134 200.734 42.3738C200.748 42.1325 200.779 41.8923 200.826 41.6553C200.857 41.4825 200.925 41.3185 201.025 41.1743C201.125 41.03 201.255 40.9091 201.406 40.8196C201.557 40.7301 201.726 40.6742 201.901 40.6557C202.076 40.6373 202.252 40.6566 202.419 40.7125C202.597 40.7737 202.771 40.8473 202.939 40.9326C204.543 41.6367 206.216 42.1739 207.931 42.5358C208.64 42.6934 209.363 42.781 210.089 42.7974C211.355 42.8362 212.622 42.7793 213.879 42.6272C214.438 42.5449 214.987 42.4058 215.518 42.2118C216.129 42.0247 216.664 41.648 217.047 41.1365C217.429 40.6249 217.638 40.005 217.643 39.3668C217.689 38.4281 217.681 37.4853 217.643 36.5508C217.626 36.1582 217.513 35.7757 217.314 35.4368C217.114 35.0979 216.835 34.8131 216.499 34.6071C216.004 34.2856 215.458 34.0471 214.886 33.901C213.895 33.6461 212.882 33.4875 211.861 33.4275C210.06 33.2946 208.259 33.2489 206.454 33.2531H206.213C205.339 33.2199 204.848 32.7755 204.832 31.9116C204.812 30.6185 204.821 29.3296 204.857 28.0448C204.877 27.2141 205.293 26.832 206.105 26.7531C206.52 26.7157 206.907 26.695 207.311 26.6825C209.008 26.6327 210.701 26.5164 212.386 26.317C213.188 26.2382 213.981 26.0881 214.757 25.8684C215.375 25.6694 215.927 25.3062 216.354 24.8177C216.645 24.4977 216.834 24.0988 216.899 23.6713C217.065 22.6355 217.065 21.5797 216.899 20.5439C216.712 19.3643 215.888 18.6873 214.819 18.2969C214.205 18.0975 213.567 17.9801 212.922 17.948C209.772 17.6917 206.606 18.1621 203.667 19.3228C203.189 19.5055 202.71 19.68 202.244 19.8835C202.054 19.97 201.844 20.0084 201.635 19.9954C201.426 19.9824 201.223 19.9183 201.045 19.8089C200.866 19.6994 200.717 19.5479 200.611 19.3675C200.504 19.1872 200.444 18.9836 200.435 18.7746L200.248 16.2036C200.223 15.8548 200.223 15.5017 200.169 15.157C200.092 14.8255 200.139 14.4775 200.299 14.1774C200.46 13.8774 200.724 13.6455 201.042 13.5247C201.575 13.2755 202.103 13.0056 202.652 12.7854C204.282 12.1561 205.979 11.7185 207.71 11.4813C209.468 11.2193 211.246 11.1247 213.022 11.1989C214.861 11.236 216.684 11.5482 218.43 12.1251C219.04 12.3325 219.628 12.6011 220.185 12.9267C221.214 13.5204 222.093 14.3429 222.753 15.3303C223.413 16.3178 223.837 17.4437 223.991 18.6209C224.251 20.3779 224.251 22.1635 223.991 23.9205C223.91 24.6561 223.685 25.3686 223.328 26.0171C222.971 26.6657 222.49 27.2376 221.911 27.7001C221.395 28.1275 220.837 28.5031 220.247 28.8215C220.043 28.8962 219.865 28.9128 219.752 29.1662Z" fill="white"/>
<path d="M196.171 36.2184V45.1564C196.18 45.3856 196.131 45.6133 196.028 45.8182C195.924 46.023 195.77 46.1983 195.581 46.3276C195.277 46.5477 194.973 46.772 194.657 46.9755C192.732 48.2126 190.594 49.0829 188.351 49.5423C186.054 50.0021 183.703 50.1419 181.367 49.9576C179.943 49.8959 178.527 49.704 177.137 49.3845C176.093 49.1271 175.083 48.7509 174.125 48.2631C173.548 47.9699 173.015 47.598 172.54 47.1583C171.962 46.6525 171.493 46.0346 171.161 45.342C170.829 44.6494 170.642 43.8967 170.61 43.1295C170.552 41.4931 170.527 39.8567 170.631 38.2203C170.674 37.2605 170.946 36.3249 171.425 35.4917C171.904 34.6585 172.576 33.9521 173.385 33.4315C174.661 32.5767 176.065 31.9291 177.545 31.5127C178.788 31.1678 180.061 30.9398 181.346 30.8315C183.17 30.6696 185.004 30.6612 186.829 30.8066C187.365 30.844 187.906 30.8523 188.443 30.8689C188.469 30.8729 188.496 30.8707 188.522 30.8627C188.547 30.8546 188.57 30.8408 188.59 30.8224C188.609 30.8039 188.624 30.7813 188.633 30.7562C188.642 30.7312 188.645 30.7044 188.642 30.6779C188.642 29.6852 188.701 28.6926 188.642 27.6999C188.623 27.4305 188.539 27.1696 188.399 26.9386C188.259 26.7076 188.066 26.5131 187.835 26.3709C187.317 26.0306 186.731 25.8054 186.118 25.7105C184.655 25.4829 183.168 25.448 181.696 25.6066C179.18 25.8609 176.706 26.4317 174.333 27.3054C174.159 27.3756 173.978 27.4285 173.793 27.4632C173.498 27.512 173.196 27.4504 172.944 27.2902C172.692 27.1299 172.508 26.8824 172.428 26.5951C172.38 26.4416 172.352 26.2824 172.345 26.1217C172.273 24.8341 172.206 23.548 172.145 22.2632C172.114 22.0225 172.139 21.7778 172.22 21.5488C172.297 21.377 172.407 21.222 172.544 21.0929C172.681 20.9639 172.843 20.8633 173.019 20.7971C173.902 20.4052 174.824 20.1046 175.768 19.8999C177.345 19.5546 178.945 19.3269 180.556 19.2188C181.9 19.115 183.243 19.0651 184.587 19.0942C187.095 19.1163 189.571 19.6536 191.862 20.6725L192.228 20.8428C193.165 21.2619 193.988 21.8986 194.628 22.6999C195.269 23.5011 195.708 24.4436 195.909 25.4488C196.105 26.2862 196.204 27.1432 196.205 28.0031V36.2184H196.171ZM184.982 36.6047C184.15 36.6254 183.385 36.6379 182.607 36.6794C182.191 36.6794 181.804 36.7583 181.405 36.8123C180.627 36.8966 179.872 37.1218 179.175 37.4769C178.719 37.7124 178.333 38.0643 178.057 38.4969C177.781 38.9294 177.624 39.4273 177.603 39.9398C177.578 40.2596 177.603 40.5877 177.561 40.9034C177.449 41.6842 177.84 42.1826 178.455 42.5647C178.897 42.8219 179.38 43.0017 179.882 43.0963C181.867 43.4971 183.918 43.4389 185.876 42.926C186.47 42.7635 187.032 42.5039 187.54 42.1577C187.899 41.9432 188.195 41.6386 188.398 41.2741C188.602 40.9097 188.706 40.4983 188.701 40.081C188.701 39.1133 188.701 38.1456 188.701 37.1737C188.701 36.8829 188.659 36.8539 188.385 36.8082C187.257 36.6514 186.12 36.5833 184.982 36.6047Z" fill="white"/>
<path d="M92.7835 35.9692V24.7552C92.7835 24.5683 92.7835 24.3773 92.7835 24.1904C92.7684 23.9493 92.8151 23.7084 92.9192 23.4904C93.0233 23.2724 93.1813 23.0844 93.3784 22.9444C93.8137 22.5839 94.2753 22.2562 94.7594 21.9642C96.1028 21.1735 97.5429 20.5593 99.0438 20.1367C101.305 19.4249 103.665 19.0717 106.036 19.0901C106.789 19.0901 107.542 19.169 108.291 19.2479C109.556 19.3397 110.81 19.5525 112.034 19.8834C113.454 20.3085 114.786 20.9821 115.969 21.8728C116.897 22.5725 117.608 23.5179 118.024 24.6015C118.445 25.7073 118.71 26.8661 118.81 28.0447C118.91 29.0581 118.96 30.0756 118.96 31.0974C118.96 36.469 118.96 41.8393 118.96 47.2081C118.96 47.449 118.96 47.6941 118.96 47.935C118.956 48.1102 118.918 48.283 118.846 48.443C118.774 48.6031 118.671 48.7472 118.543 48.8668C118.415 48.9864 118.264 49.0791 118.099 49.1395C117.934 49.1999 117.759 49.2267 117.583 49.2184C115.698 49.2184 113.813 49.2184 111.93 49.2184C111.754 49.2338 111.577 49.2117 111.41 49.1536C111.244 49.0955 111.091 49.0028 110.963 48.8814C110.835 48.7601 110.734 48.613 110.667 48.4499C110.6 48.2867 110.568 48.1112 110.574 47.935C110.574 47.7481 110.574 47.557 110.574 47.3701L110.599 29.328C110.599 29.2201 110.599 29.1121 110.599 29.0041C110.631 28.5311 110.514 28.06 110.264 27.657C110.014 27.2539 109.644 26.9392 109.206 26.7571C108.601 26.4612 107.947 26.2796 107.276 26.2214C105.935 26.0594 104.576 26.151 103.27 26.4913C102.908 26.5839 102.56 26.7235 102.234 26.9066C101.875 27.095 101.576 27.3809 101.372 27.7314C101.168 28.0819 101.068 28.4827 101.082 28.8878C101.082 30.2293 101.082 31.5709 101.082 32.9165C101.082 37.6929 101.082 42.472 101.082 47.2539C101.095 47.4946 101.095 47.7358 101.082 47.9765C101.062 48.3159 100.909 48.6338 100.658 48.8627C100.406 49.0915 100.075 49.2132 99.7343 49.2017C97.8749 49.2017 96.0198 49.2017 94.1604 49.2017C93.8238 49.1899 93.5038 49.053 93.263 48.818C93.0222 48.5829 92.8779 48.2665 92.8584 47.9308C92.8584 47.7148 92.8584 47.5155 92.8584 47.2829L92.7835 35.9692Z" fill="white"/>
<path d="M135.499 19.1025C138.778 19.0024 142.045 19.5501 145.112 20.714C145.915 21.0089 146.181 21.3952 146.118 22.2383C146.056 23.0814 145.952 23.8374 145.865 24.6389C145.802 25.1996 145.761 25.7645 145.653 26.3003C145.595 26.6208 145.413 26.9059 145.147 27.0945C144.881 27.2831 144.552 27.3603 144.23 27.3095C144.072 27.2816 143.916 27.2414 143.764 27.1891C143.219 27.0437 142.674 26.89 142.125 26.7737C139.43 26.1208 136.662 25.8151 133.889 25.8642C133.351 25.8854 132.815 25.9507 132.288 26.0594C131.909 26.0989 131.556 26.2713 131.293 26.5458C131.029 26.8203 130.872 27.1792 130.848 27.5587C130.806 27.8237 130.791 28.0923 130.803 28.3603C130.805 28.727 130.928 29.0827 131.154 29.3719C131.38 29.6611 131.695 29.8677 132.051 29.9594C133.133 30.281 134.236 30.5253 135.353 30.6904C136.946 30.9396 138.548 31.1306 140.145 31.3632C141.239 31.5003 142.314 31.7623 143.348 32.144C144.453 32.5776 145.448 33.2515 146.26 34.1169C146.869 34.8066 147.265 35.6577 147.4 36.5673C147.511 37.1148 147.578 37.6704 147.599 38.2286C147.653 39.6242 147.657 41.0197 147.599 42.4152C147.561 43.0308 147.463 43.6414 147.308 44.2385C147.103 45.09 146.722 45.889 146.188 46.5837C145.654 47.2784 144.98 47.8534 144.209 48.2714C143.102 48.8802 141.902 49.3012 140.657 49.5174C138.304 49.9786 135.899 50.1073 133.511 49.8995C131.419 49.7439 129.344 49.4034 127.313 48.882C126.637 48.7086 125.973 48.4922 125.324 48.234C125.05 48.1219 124.78 48.0015 124.517 47.8685C124.268 47.7582 124.06 47.5716 123.924 47.3357C123.788 47.0998 123.731 46.8267 123.76 46.5561C123.839 45.1896 123.914 43.8232 124.027 42.4609C124.03 42.258 124.082 42.0588 124.178 41.8797C124.274 41.7007 124.411 41.5469 124.578 41.431C124.744 41.315 124.936 41.2403 125.138 41.2128C125.339 41.1854 125.544 41.206 125.736 41.273C126.822 41.5679 127.899 41.9127 128.993 42.1909C131.571 42.858 134.24 43.1035 136.897 42.9178C137.621 42.8702 138.336 42.7192 139.018 42.4692C139.342 42.3741 139.629 42.1807 139.838 41.9158C140.048 41.651 140.169 41.3276 140.187 40.9906C140.224 40.6178 140.224 40.2421 140.187 39.8692C140.161 39.4917 140.029 39.1293 139.804 38.8246C139.579 38.52 139.272 38.2858 138.918 38.1497C138.382 37.9163 137.825 37.7341 137.254 37.6056C135.94 37.3066 134.605 37.1529 133.278 36.9536C131.624 36.7367 129.996 36.3612 128.415 35.8322C127.999 35.6785 127.583 35.5041 127.167 35.3172C126.335 34.959 125.61 34.3936 125.06 33.6751C124.51 32.9565 124.154 32.109 124.027 31.2137C123.774 29.6473 123.746 28.0531 123.943 26.4789C123.982 25.92 124.061 25.3648 124.181 24.8175C124.538 23.2262 125.512 21.8406 126.888 20.9632C127.99 20.2862 129.204 19.8135 130.474 19.5677C132.124 19.2136 133.811 19.0574 135.499 19.1025Z" fill="white"/>
<path d="M151.946 29.2159V15.4476C151.924 15.0185 151.968 14.5886 152.075 14.1725C152.127 13.9932 152.2 13.8204 152.291 13.6575C152.38 13.4898 152.513 13.3495 152.676 13.2521C152.838 13.1547 153.025 13.1038 153.215 13.1051H158.622C158.834 13.1051 159.038 13.1051 159.267 13.1051C159.523 13.1288 159.764 13.2328 159.957 13.4022C160.15 13.5716 160.284 13.7977 160.34 14.0479C160.39 14.3108 160.412 14.578 160.407 14.8454C160.407 16.4818 160.407 18.1223 160.407 19.7588C160.407 19.9706 160.407 20.1741 160.407 20.4025C160.408 20.4364 160.416 20.4696 160.43 20.5003C160.444 20.531 160.465 20.5585 160.49 20.581C160.515 20.6036 160.545 20.6207 160.577 20.6314C160.609 20.6422 160.643 20.6463 160.677 20.6434H165.116C165.386 20.6239 165.656 20.6949 165.882 20.8453C166.108 20.9957 166.277 21.2169 166.363 21.4741C166.422 21.6237 166.451 21.7829 166.451 21.9434C166.451 23.3639 166.451 24.7884 166.451 26.2089C166.456 26.3915 166.424 26.5733 166.356 26.743C166.288 26.9127 166.186 27.0667 166.056 27.1956C165.926 27.3244 165.772 27.4253 165.601 27.492C165.431 27.5588 165.249 27.5899 165.066 27.5836C164.903 27.5836 164.741 27.5836 164.579 27.5836H160.785C160.369 27.5836 160.369 27.5836 160.369 27.999C160.369 28.4807 160.369 28.9667 160.369 29.4485L160.394 39.4165C160.384 39.9256 160.421 40.4345 160.507 40.9366C160.636 41.6261 160.839 41.8503 161.542 41.9749C162.634 42.1313 163.742 42.1425 164.837 42.0082C165.186 41.9749 165.531 41.9126 165.881 41.9043C166.193 41.8806 166.503 41.9778 166.745 42.1758C166.987 42.3737 167.144 42.6573 167.183 42.9676C167.223 43.2052 167.247 43.4452 167.254 43.6861C167.312 44.8407 167.362 45.9912 167.416 47.1458C167.416 47.2497 167.416 47.3576 167.416 47.4656C167.422 47.7645 167.323 48.0559 167.135 48.2885C166.947 48.5211 166.682 48.6798 166.388 48.7365C165.979 48.8468 165.562 48.9273 165.141 48.9774C164.367 49.0647 163.589 49.156 162.811 49.1768C161.284 49.2515 159.754 49.2001 158.235 49.0231C157.22 48.9031 156.226 48.6489 155.278 48.2672C154.416 47.9458 153.661 47.39 153.099 46.6626C152.536 45.9353 152.189 45.0654 152.096 44.1513C152.031 43.6721 151.998 43.1894 151.996 42.7059C151.996 38.2009 151.996 33.6918 151.996 29.1785L151.946 29.2159Z" fill="white"/>
<path d="M78.7116 29.7976V12.3993C78.7116 12.1542 78.7116 11.9133 78.7116 11.6724C78.7225 11.3751 78.8396 11.0914 79.0418 10.8728C79.244 10.6541 79.5179 10.515 79.8139 10.4804C80.0278 10.4542 80.2433 10.4445 80.4586 10.4514C82.1225 10.4514 83.7863 10.4846 85.4502 10.4514C86.8146 10.4098 87.2555 11.1242 87.2514 12.2373C87.2264 18.8452 87.2514 25.4491 87.2514 32.0529V47.279C87.2639 47.5197 87.2639 47.7609 87.2514 48.0017C87.2471 48.1708 87.2092 48.3373 87.14 48.4917C87.0709 48.6461 86.9717 48.7853 86.8483 48.9011C86.7249 49.017 86.5797 49.1073 86.4211 49.1668C86.2625 49.2263 86.0937 49.2538 85.9244 49.2477C83.9611 49.2477 81.9963 49.2477 80.0302 49.2477C79.8547 49.2579 79.6791 49.231 79.5147 49.1687C79.3504 49.1064 79.2011 49.0101 79.0766 48.8862C78.9521 48.7623 78.8552 48.6136 78.7923 48.4497C78.7294 48.2858 78.7019 48.1105 78.7116 47.9352C78.7116 47.7234 78.7116 47.5199 78.7116 47.2914V29.7976Z" fill="white"/>
<path d="M29.1037 44.9819C26.0883 44.9843 23.1401 44.0931 20.6324 42.4212C18.1247 40.7492 16.1704 38.3717 15.017 35.5899C13.8637 32.808 13.5632 29.7469 14.1536 26.7944C14.744 23.8419 16.1987 21.1307 18.3335 19.0044C20.4683 16.8781 23.1872 15.4322 26.1456 14.85C29.1041 14.2677 32.1691 14.5753 34.9523 15.7338C37.7355 16.8922 40.1118 18.8494 41.7801 21.3574C43.4484 23.8654 44.3337 26.8114 44.3238 29.8222C44.3216 31.8155 43.9262 33.7889 43.1601 35.6296C42.3939 37.4703 41.2722 39.1423 39.8588 40.5501C38.4454 41.9578 36.7682 43.0738 34.9228 43.8342C33.0774 44.5946 31.1001 44.9846 29.1037 44.9819ZM38.6958 24.7884C38.7023 23.9213 38.4514 23.0718 37.9745 22.3471C37.4977 21.6224 36.8164 21.0551 36.0168 20.7169C35.2172 20.3786 34.3352 20.2846 33.4821 20.4468C32.629 20.6089 31.8432 21.0199 31.2239 21.6277C30.6046 22.2356 30.1797 23.0131 30.0029 23.862C29.826 24.7109 29.9051 25.5932 30.2302 26.3972C30.5553 27.2012 31.1118 27.891 31.8293 28.3794C32.5469 28.8678 33.3933 29.1328 34.2617 29.1411C34.8395 29.1476 35.4129 29.0401 35.949 28.8246C36.4851 28.6091 36.9732 28.2899 37.3853 27.8854C37.7973 27.4809 38.1253 26.999 38.3502 26.4675C38.5751 25.936 38.6926 25.3654 38.6958 24.7884Z" fill="white"/>
</svg>
