<svg width="284" height="53" viewBox="0 0 284 53" fill="none" xmlns="http://www.w3.org/2000/svg">
<path d="M103.501 6.87517H161.724C161.207 10.0611 160.642 13.1519 160.171 16.3854H101.853C102.418 13.247 102.842 9.91845 103.501 6.87517ZM65.187 6.82763C62.9277 19.714 60.8567 32.7906 58.5974 45.7246H68.0581C68.9995 40.3513 69.8467 34.8829 70.8352 29.5571C73.9417 34.8829 76.907 40.3988 80.0135 45.7246H91.8748C88.1093 39.0674 84.1556 32.5529 80.296 25.9908C85.9442 20.0469 91.8748 13.7701 97.476 7.9213C97.8525 7.54089 98.6527 7.16048 98.4644 6.78007H92.675C91.0276 6.78007 88.4388 6.73252 86.8855 6.78007C86.3678 6.78007 85.6618 7.8262 85.0499 8.49192C80.9079 13.0093 76.3422 17.5742 72.106 21.9489C72.9062 16.8134 73.8005 11.8681 74.6007 6.78007H65.187M164.36 6.82763C166.102 19.6189 168.22 32.8857 170.15 45.7721H180.693C183.941 37.7359 187.189 29.6522 190.53 21.7112C191.425 29.6998 192.178 37.8786 193.166 45.7721H203.71C209.593 33.3137 215.336 20.2846 221.266 7.96886C221.407 7.68355 221.69 7.20803 221.549 6.87517H211.805C208.134 15.2442 204.557 23.7559 200.791 32.0298C199.85 23.6608 198.956 15.1966 197.967 6.87517H187.612C184.223 15.2442 180.881 23.7083 177.304 31.8396C176.41 23.423 175.28 15.2917 174.386 6.87517H164.36V6.82763ZM227.385 28.2732C228.985 24.8496 230.915 21.8063 232.516 18.3826C233.363 21.521 233.975 24.9447 234.634 28.2732H227.385ZM230.068 6.82763C222.584 19.7616 215.147 32.7431 207.757 45.7721H217.971C219.619 42.919 221.031 39.7806 222.725 36.9751H236.427C236.945 39.9233 237.604 42.7288 238.074 45.7721H248.524C245.511 32.6955 242.358 19.8091 239.251 6.82763H230.073M245.888 6.92272C248.382 11.8681 251.206 17.9071 253.795 23.2804C254.407 24.5642 256.29 27.3222 256.384 28.6536C256.431 29.1767 256.102 29.9851 256.007 30.6984C255.113 35.8815 254.454 40.7792 253.607 45.7721H263.068C263.962 40.1611 264.95 34.5976 265.892 28.9865C271.352 22.1867 276.953 14.8638 282.413 8.15906C282.789 7.68355 283.401 7.25559 283.26 6.82763H272.811C269.328 11.0597 265.845 15.8624 262.362 19.7616C260.338 15.482 258.596 10.8695 256.384 6.82763C252.901 6.92273 249.182 6.73252 245.888 6.92272ZM101.576 22.1391L101.387 22.4244C100.022 30.1753 98.7044 37.9737 97.3395 45.7721H123.039C123.557 42.5386 124.121 39.3527 124.686 36.1668C119.32 36.1192 113.672 36.3094 108.448 36.0717C108.824 34.6927 108.871 33.0284 109.295 31.7445H125.439C126.004 28.5585 126.522 25.3251 127.087 22.1391H101.576ZM134.524 22.1391C132.829 29.6998 131.794 38.0212 130.287 45.7721H155.987C156.552 42.5386 157.069 39.3527 157.634 36.1668H141.396C141.772 34.7878 141.866 33.1235 142.29 31.7445H158.434C158.999 28.6061 159.517 25.4202 160.082 22.2342C151.421 22.2818 143.09 22.044 134.524 22.1391ZM50.2192 15.7958C48.176 11.2667 44.8933 7.42246 40.7584 4.71635C36.6164 2.00593 30.874 -0.228992 24.2374 0.531829C10.3992 2.14857 1.22085 12.0868 0.844299 27.2081C2.4917 27.541 3.99789 28.064 5.59822 28.4444C4.89219 15.6056 12.6585 6.9037 22.59 4.62124C28.4735 3.24225 34.0276 4.6688 38.1226 6.85616C42.3117 9.04352 44.9946 12.4672 47.3951 16.414C48.3484 16.2683 49.2917 16.0619 50.2192 15.7958ZM9.64611 45.8957C13.5528 49.0341 18.0714 51.7445 24.3315 52.2201C30.1552 52.6754 35.9643 51.1706 40.8525 47.9404C45.0674 45.0975 48.3583 41.0616 50.3133 36.3379C52.3373 31.4877 53.2316 24.4501 51.2076 18.4111L51.1135 18.316L51.0193 18.2209C50.4545 19.1719 49.2307 19.9803 48.9954 20.9313C51.5842 33.3898 45.0887 42.4721 36.9929 46.3237C33.1871 48.1165 28.9599 48.795 24.7914 48.2823C20.623 47.7695 16.6804 46.0861 13.4116 43.4231C12.1878 44.279 10.8699 45.0398 9.64611 45.8957ZM7.01027 22.9285C7.10441 23.7844 7.85751 24.5928 8.37526 25.3536C8.87908 26.1858 9.46238 26.9662 10.1168 27.6836C17.2712 28.9199 26.1201 28.0165 32.4273 27.0179C28.1911 32.3436 23.1548 36.9086 17.836 41.2357C18.1278 41.68 18.3205 42.1829 18.4009 42.7098C25.5751 37.954 32.0146 32.1535 37.5107 25.4963C37.8872 25.0683 38.405 24.4501 38.2638 24.1173C28.7559 25.9718 15.3414 25.8291 7.01027 22.9285ZM0.844299 28.2542C1.07964 29.443 1.22085 30.7744 1.40912 31.9632C7.79452 33.0788 14.2896 33.4141 20.7543 32.9618C16.9417 37.1939 12.2349 40.57 7.62217 43.9462C7.99871 44.2315 8.09285 44.8021 8.6106 44.8972C15.0119 41.1882 21.1779 36.7184 26.073 31.5828C26.3084 31.2975 26.7791 30.9646 26.732 30.5367C17.6948 31.773 7.95164 30.4891 0.844299 28.2542ZM1.83274 33.2471C2.76737 36.8366 4.48856 40.168 6.86907 42.9951C8.1666 42.2215 9.42345 41.3803 10.6346 40.4749C8.94778 38.5892 7.66571 36.3712 6.86907 33.9604C5.08047 33.7226 3.5272 33.4373 1.83274 33.2471ZM11.5759 16.5091C12.4232 17.4125 13.1763 18.3636 14.1647 19.5048C14.8236 20.3132 15.9062 21.9299 16.6593 22.2152C17.4124 22.5005 18.8245 22.453 20.0483 22.5005C27.9928 22.787 35.9425 22.1005 43.7237 20.4558C38.829 26.9196 33.3622 32.9199 27.3909 38.3826C27.8146 38.7631 27.9558 39.3812 28.3794 39.7616C36.0045 33.7226 42.8765 26.3522 48.76 18.6489C49.1837 18.1258 49.7956 17.6978 49.7014 17.1748C38.0284 19.3146 22.3546 18.744 11.5759 16.5091Z" fill="white"/>
</svg>
