<svg width="114" height="128" viewBox="0 0 114 128" fill="none" xmlns="http://www.w3.org/2000/svg">
<path d="M113.76 17.9379C113.645 18.8959 113.613 19.8619 113.662 20.8255V23.5559C113.69 24.1157 113.666 24.6768 113.59 25.2321C113.267 37.4832 111.459 49.6502 108.206 61.4671C102.726 81.2063 91.9513 99.0762 77.044 113.148C72.4465 117.487 67.5704 121.523 62.4467 125.228C61.1215 126.215 59.659 127.002 58.1056 127.566H55.8038C51.161 125.602 47.4692 122.21 43.6526 119.054C30.8915 108.578 20.6354 96.0192 13.3367 81.1429C8.49805 71.1799 5.03675 60.607 3.04776 49.7139C1.11417 39.3519 0.21139 28.8244 0.352583 18.285C0.405044 13.8522 2.41165 10.6111 6.55607 8.81705C14.3831 5.52516 22.5912 3.22222 30.9898 1.96164C41.352 0.357908 51.8427 -0.264765 62.3222 0.102033C75.2997 0.462156 88.0936 2.06634 100.481 6.1521C102.783 6.91818 105.071 7.7825 107.275 8.71882C110.895 10.2444 113.052 12.9094 113.563 16.838C113.563 16.9689 113.603 17.0803 113.76 17.1065V17.9379Z" fill="black"/>
<path d="M55.1154 1.25443C67.4765 1.25443 77.8769 2.05328 88.1527 4.15509C94.5406 5.43652 100.785 7.34684 106.796 9.85811C110.626 11.4754 112.508 14.4415 112.521 18.4552C112.573 34.628 110.672 50.5389 105.596 65.9718C100.589 81.3829 92.2422 95.5029 81.1491 107.327C75.1219 113.726 68.4702 119.508 61.2927 124.587C61.0107 124.79 60.7156 124.973 60.427 125.176C58.1056 126.826 55.8367 126.741 53.5022 125.124C48.0225 121.305 42.8362 117.083 37.9868 112.493C29.011 104.055 21.495 94.1917 15.7433 83.3036C10.828 73.8756 7.2105 63.8279 4.98881 53.433C2.57489 42.0958 1.40296 30.53 1.49362 18.9398C1.49362 14.2385 3.29699 11.5343 7.65781 9.68786C15.5203 6.45325 23.7573 4.21404 32.1768 3.02235C39.7681 1.86243 47.4357 1.27144 55.1154 1.25443Z" fill="#FEFEFE"/>
<path d="M57.2597 4.39728C69.6273 4.43656 81.8835 5.47761 93.884 8.69908C97.8224 9.76664 101.69 11.0787 105.465 12.6277C108.186 13.7343 109.399 15.7183 109.399 18.5665C109.399 23.0975 109.281 27.6285 108.934 32.1464C108.348 40.2312 107.091 48.2535 105.176 56.1306C100.376 75.5314 91.2347 92.5358 77.2407 106.888C71.8379 112.43 65.9424 117.471 59.627 121.948C57.0039 123.788 57.0039 123.853 54.3415 121.948C43.0361 113.901 33.1473 104.413 25.206 92.981C17.3383 81.5478 11.6967 68.7379 8.57584 55.2205C6.15926 44.9628 4.84035 34.4779 4.64126 23.9421C4.59536 21.9778 4.45103 20.0135 4.57562 18.0492C4.60398 16.8782 4.98875 15.7435 5.6787 14.7961C6.36865 13.8487 7.3311 13.1335 8.43808 12.7456C16.265 9.51364 24.4706 7.28495 32.8587 6.11277C40.1293 5.02885 47.469 4.47299 54.8202 4.44963L57.2597 4.39728Z" fill="black"/>
<path d="M62.296 27.2162C62.879 27.6772 63.5983 27.9327 64.342 27.943C64.6292 27.9447 64.9154 27.9799 65.1945 28.0478C65.424 28.1067 65.7715 28.1198 65.7715 28.4341C65.7715 28.7484 65.4502 28.7942 65.2142 28.8728C63.1038 29.5917 60.797 29.4697 58.7745 28.5323C57.7515 28.074 56.8073 27.5436 55.758 27.0853C54.3219 26.4305 53.2727 26.7382 52.3481 28.0085C51.6333 28.9906 51.8497 29.6781 53.0039 29.9728C54.6131 30.3926 56.257 30.6665 57.9155 30.7912C61.2665 31.0924 64.6174 30.8502 67.9749 30.896C69.3474 30.9037 70.7182 30.9934 72.08 31.1645C74.8867 31.5508 77.2539 33.6199 77.7064 36.0621C77.9111 37.1739 77.676 38.3217 77.0506 39.264C76.9203 39.4397 76.8566 39.656 76.871 39.8742C76.8854 40.0925 76.977 40.2985 77.1293 40.4556C78.0783 41.6619 78.8086 43.0248 79.2868 44.4825C79.41 44.7769 79.5906 45.044 79.818 45.2682C81.8968 47.8872 82.7558 50.7617 81.8509 54.0355C81.5094 55.175 81.5555 56.3953 81.982 57.5059C82.3779 58.5879 82.453 59.7609 82.1984 60.8845C81.9754 62.0369 81.2213 61.3428 80.7229 61.3821C80.0671 61.4345 80.3688 60.8845 80.4278 60.616C80.632 59.7087 80.5448 58.7603 80.1786 57.9053C79.6951 56.7439 79.6577 55.4453 80.0737 54.2582C80.6049 52.5362 80.9655 50.7945 80.3163 49.0201C80.1 48.2857 79.7535 47.5959 79.2934 46.9837C78.6952 46.2739 78.2489 45.4495 77.9819 44.561C77.5753 43.1926 76.585 42.1384 75.8899 40.927C75.8308 40.8112 75.7325 40.7201 75.6125 40.6698C75.4924 40.6194 75.3584 40.6132 75.2342 40.6521C74.2551 40.7977 73.2885 41.0166 72.3423 41.3069C71.9685 41.4444 71.5947 41.5884 71.5619 42.0468C71.5512 42.2442 71.6114 42.4391 71.7315 42.5963C71.8517 42.7535 72.0241 42.8627 72.2177 42.9045C72.4033 42.9528 72.5772 43.0379 72.7292 43.1547C72.8812 43.2715 73.008 43.4176 73.1022 43.5844C73.1964 43.7512 73.2562 43.9352 73.2777 44.1255C73.2992 44.3158 73.2822 44.5084 73.2276 44.692C73.1227 45.3467 73.5555 45.9034 73.8046 46.4861C74.2571 47.5403 73.7391 48.267 72.5849 48.1426C72.0249 48.0734 71.4922 47.8612 71.0385 47.5262C70.5847 47.1913 70.2251 46.7451 69.9946 46.2307C69.1015 44.5698 67.9997 43.0296 66.7158 41.6474C66.212 41.1096 65.5701 40.72 64.86 40.5211C64.7744 40.4772 64.6783 40.4576 64.5823 40.4646C64.4863 40.4715 64.3942 40.5046 64.3158 40.5604C64.0797 40.7765 64.3158 40.9729 64.4076 41.1432C65.3191 42.6426 66.2568 44.1289 67.1618 45.6283C68.7877 48.4066 70.107 51.3529 71.0963 54.4154C71.0963 54.4154 71.0963 54.4743 71.0963 54.507C71.1947 54.9654 71.5095 55.666 71.0963 55.8166C70.5455 56.0196 70.5586 55.2141 70.3356 54.8474C69.8635 54.0879 69.7782 53.1516 69.247 52.4183C68.7946 51.7635 68.3159 51.6653 67.7651 52.2742C67.1093 52.9879 66.4535 53.4397 65.4043 53.0403C64.9649 52.87 64.7485 53.2106 64.7485 53.6035C64.6895 54.1076 64.8993 54.4218 65.4043 54.4349C66.3619 54.4213 67.2927 54.7513 68.0273 55.3647C68.2241 55.5415 68.5782 55.7642 68.3028 56.0588C68.0274 56.3535 67.8307 55.9868 67.6864 55.81C67.2667 55.2797 66.7224 55.4106 66.1912 55.4892C65.883 55.5285 65.4961 55.5415 65.5355 55.9998C65.5748 56.4582 65.647 56.7594 66.1912 56.8118C66.7621 56.8544 67.3282 56.9464 67.8831 57.0868C68.3477 57.1611 68.7894 57.3401 69.1745 57.6101C69.5597 57.8801 69.8783 58.234 70.1061 58.6451C70.2097 58.8773 70.3925 59.0652 70.6218 59.1755C70.8512 59.2858 71.1123 59.3114 71.3587 59.2476C73.8583 58.9652 76.3803 59.5301 78.5195 60.8517C79.4901 61.4672 80.2639 62.3118 81.6017 62.3707C82.5853 62.41 83.2411 63.3988 83.9034 64.1387C84.8871 65.2452 85.8707 66.2798 87.4773 66.5417C88.3354 66.65 89.2068 66.5279 90.002 66.1881C90.1987 66.1161 90.461 65.972 90.6053 66.1881C90.7496 66.4042 90.5003 66.5809 90.343 66.7315C89.4539 67.5469 88.3483 68.0892 87.1586 68.2936C85.9689 68.4979 84.7454 68.3557 83.6345 67.8839C82.6829 67.4302 81.7873 66.8677 80.9656 66.2078C80.4653 65.7633 79.9228 65.3685 79.3458 65.0291C78.5458 64.6428 78.2573 64.2631 78.6179 63.3399C78.9786 62.4166 78.5393 62.2988 77.6605 61.9452C76.7818 61.5916 76.1261 60.9238 75.0375 61.1399C74.7096 61.1988 74.3817 60.4196 73.785 60.3934C73.1882 60.3672 72.8472 60.3934 72.6571 61.0023C72.611 61.1133 72.5881 61.2326 72.5898 61.3527C72.5915 61.4728 72.6177 61.5913 72.6668 61.701C72.7159 61.8107 72.7869 61.9093 72.8754 61.9907C72.964 62.0721 73.0681 62.1345 73.1816 62.1744C73.2906 62.2381 73.4047 62.2928 73.5226 62.3381C73.8112 62.4428 74.2702 62.4428 74.1784 62.8749C74.0866 63.3071 73.6407 63.1762 73.3391 63.1696C72.9911 63.1321 72.6468 63.0664 72.3095 62.9732C71.7586 62.8684 71.5422 62.6327 71.6537 61.991C71.7421 61.5643 71.6599 61.12 71.4246 60.753C71.1894 60.386 70.8197 60.1253 70.3946 60.0267C69.9684 59.9285 69.857 60.0267 69.9684 60.4523C70.09 60.7448 70.1674 61.0538 70.1979 61.369C70.1979 62.0238 70.0799 62.6065 69.1553 62.4624C68.6504 62.3773 68.0864 62.4101 67.8438 63.0059C67.7562 63.2669 67.7634 63.5503 67.8641 63.8065C67.9648 64.0627 68.1526 64.2753 68.3946 64.4071C69.2218 65.012 70.1795 65.4147 71.1908 65.583C72.2021 65.7513 73.2388 65.6804 74.2178 65.3762C74.5653 65.278 74.8735 64.9572 75.3391 65.1405C74.8644 65.9056 74.113 66.4589 73.2407 66.6857C70.0603 67.9036 65.8634 66.5613 64.1518 63.7982C62.919 61.8339 63.5879 60.0856 65.8568 59.4767C66.5424 59.3285 67.2367 59.2236 67.9355 59.1624C68.1388 59.1624 68.4077 59.2541 68.4995 58.9463C68.5914 58.6386 68.3749 58.5273 68.2372 58.3636C67.8486 58.006 67.3579 57.7785 66.8336 57.7128C66.3093 57.6471 65.7775 57.7464 65.3125 57.9969C64.8412 58.3961 64.2572 58.6389 63.6415 58.6917C63.0258 58.7445 62.4088 58.6046 61.8763 58.2915C61.2205 57.9838 60.2304 57.8332 59.7057 58.4094C59.1811 58.9856 59.7975 59.7713 60.0074 60.4392C60.3543 61.4833 61.0485 62.3775 61.9747 62.9732C63.7387 64.2107 63.9419 65.2649 62.8534 67.1113C61.6074 69.1935 60.2303 71.2167 60.0074 73.7245C59.9644 73.94 59.9468 74.1597 59.9549 74.3793C60.0008 74.7328 60.1189 75.1257 60.5058 75.1977C60.8927 75.2698 60.9517 74.8834 61.1025 74.6542C61.6271 73.862 62.0534 72.978 62.9649 72.5197C63.2272 72.3953 63.5288 72.2316 63.7714 72.4215C64.0141 72.6114 63.7715 72.9126 63.7124 73.1286C63.2469 74.5168 62.7682 75.9048 62.2567 77.2799C61.8371 78.3509 61.6149 79.4889 61.6009 80.6388C61.6009 81.0317 61.6009 81.4704 62.0796 81.5686C62.5583 81.6668 62.5714 81.2216 62.6304 80.9139C62.6527 80.7565 62.7315 80.6126 62.8522 80.509C62.9728 80.4054 63.1271 80.3492 63.2862 80.3508C63.4479 80.3367 63.6101 80.3724 63.7508 80.4532C63.8915 80.5339 64.004 80.6559 64.0731 80.8025C64.1529 80.9944 64.1785 81.2045 64.1473 81.4099C64.1161 81.6153 64.0292 81.8083 63.8961 81.968C63.6731 82.2758 62.8993 82.243 63.1748 82.7865C63.4502 83.33 64.0731 83.0419 64.5518 82.9044C65.1738 82.7472 65.8251 82.7472 66.447 82.9044C66.8461 82.9926 67.2623 82.9614 67.6437 82.8146C68.0251 82.6679 68.3547 82.4121 68.5913 82.0794C68.9269 81.7002 69.1842 81.2586 69.3485 80.78C69.5128 80.3013 69.5809 79.795 69.5487 79.29C69.6209 76.3501 71.3324 74.2548 73.5555 72.5328C74.0649 72.0942 74.6374 71.7344 75.2539 71.4655C75.9554 71.2001 76.5773 70.76 77.0605 70.187C77.5437 69.614 77.8722 68.9271 78.0147 68.1917C78.2114 67.4518 78.395 66.7119 78.6048 65.8804C79.3327 66.378 80.0541 66.8887 80.7885 67.3797C80.8899 67.4573 80.973 67.5562 81.0319 67.6693C81.0908 67.7825 81.1242 67.9071 81.1295 68.0345C81.3984 69.3441 81.6213 70.6012 81.923 71.8715C82.1159 73.0726 82.033 74.3017 81.6804 75.4661C81.3656 77.0048 81.0901 78.5435 81.7328 80.0495C81.7737 80.1723 81.798 80.3001 81.8049 80.4293C81.9295 81.955 81.9098 83.4805 82.4607 84.9734C82.8148 85.8901 82.0279 86.9377 81.0573 87.4222C80.7491 87.5663 80.5721 87.5401 80.5328 87.1734C80.4934 86.8067 80.5787 86.5187 80.382 86.2634C80.0869 86.2634 80.054 86.4532 80.0081 86.63C79.7524 87.658 79.6213 87.7104 78.7426 87.1407C77.431 86.2895 77.195 85.5431 77.9163 84.168C78.1486 83.8064 78.2942 83.3962 78.342 82.9692C78.3898 82.5422 78.3383 82.11 78.1917 81.7061C78.0486 81.1072 78.1426 80.4763 78.454 79.9448C78.6579 79.4767 78.7511 78.9679 78.7261 78.458C78.701 77.9481 78.5586 77.4509 78.3097 77.0049C77.6452 75.6978 76.8777 74.4453 76.0146 73.2596C75.8506 73.0304 75.7129 72.7489 75.3588 72.9912C73.1095 74.4644 71.1881 76.1864 70.7685 79.0216C70.7111 79.4562 70.7111 79.8965 70.7685 80.3311C70.8603 81.215 70.7684 81.9942 69.9159 82.4853C69.7772 82.5663 69.669 82.6905 69.6077 82.8388C69.1422 84.1484 68.1388 84.2008 66.9847 84.1157C65.8387 84.0025 64.6825 84.0465 63.5485 84.2466C62.073 84.5413 60.9714 83.6966 60.5451 82.099C60.4201 81.1834 60.1776 80.2878 59.8237 79.4341C59.6008 79.0347 59.391 78.5829 58.8598 78.6418C58.3286 78.7008 58.4204 79.2115 58.2761 79.5454C58.1069 80.0976 58.0844 80.6842 58.2106 81.2478C58.2842 81.6265 58.2444 82.0185 58.0963 82.3748C57.9482 82.7311 57.6983 83.0359 57.3778 83.2514C56.9384 83.5198 57.0564 83.9061 56.9646 84.2466C56.781 84.9734 56.9647 85.8508 56.1974 86.3354C55.1428 87.0747 53.879 87.4578 52.5907 87.4288C51.8235 87.4288 52.0333 86.7151 51.8759 86.224L51.5414 86.3877C51.1808 86.5842 50.7873 86.9181 50.4136 86.558C50.0398 86.1978 50.5317 85.8377 50.6366 85.4776C51.2333 83.3889 53.2137 82.2889 54.2039 80.4817C54.5155 79.9657 54.7518 79.4078 54.9055 78.8251C55.0891 78.0328 54.6564 77.915 54.0531 78.0394C53.6728 78.1192 53.3232 78.3057 53.0456 78.5772C52.7679 78.8486 52.5737 79.1936 52.4858 79.5716C52.052 81.0089 51.1524 82.2618 49.9283 83.1335C48.5381 84.2074 47.8495 85.8508 47.2134 87.4616C46.7641 88.2869 46.3677 89.1398 46.0265 90.0152C45.7446 91.0497 42.9444 92.0449 41.9083 91.7241C41.305 91.5342 41.5542 91.1806 41.6788 90.814C41.7444 90.6372 42.0002 90.4146 41.6788 90.2443C41.4755 90.1396 41.3313 90.3229 41.1804 90.4342C40.8854 90.6503 40.6623 91.1283 40.2295 90.9056C39.7967 90.683 39.8165 90.1526 39.7968 89.7074C39.7979 89.101 39.855 88.4962 39.9673 87.9003C39.9618 87.5081 40.0842 87.1249 40.3161 86.8083C40.5479 86.4918 40.8767 86.2591 41.2526 86.1455C41.5219 86.0921 41.7718 85.9672 41.9761 85.784C42.1803 85.6008 42.3313 85.3661 42.4133 85.1044C42.5248 84.7181 42.8395 84.6853 43.1346 84.5674C44.9642 83.8734 46.2364 82.721 46.4134 80.6388C46.5757 79.8608 46.8851 79.1208 47.3249 78.4585C46.2101 78.1966 46.1839 77.3716 46.2953 76.4942C46.374 75.8394 46.4528 75.1846 46.5118 74.5299C46.5551 74.1138 46.48 73.694 46.2953 73.3185C45.8363 72.415 45.4232 72.3495 44.7871 73.1286C43.1477 75.1453 42.0526 77.5025 40.7214 79.6763C40.5889 79.9331 40.5087 80.2135 40.4853 80.5014C40.2134 82.443 39.3371 84.2503 37.9803 85.6675C37.6391 86.0247 37.3742 86.4474 37.2017 86.9101C37.0292 87.3727 36.9528 87.8655 36.977 88.3586C36.977 89.6288 37.0622 90.8729 35.9933 91.9205C35.5868 92.3199 35.5671 93.158 35.4425 93.8128C35.3787 94.1893 35.2065 94.5391 34.9468 94.8193C34.6871 95.0996 34.3512 95.2982 33.9802 95.3908C33.1142 95.7242 32.1835 95.8563 31.2588 95.7771C30.7407 95.7182 30.603 95.5741 30.7932 95.0634C30.9424 94.6343 31.0672 94.1971 31.1669 93.7539C30.5702 93.7866 30.5112 94.2319 30.3407 94.5789C30.1702 94.9259 29.9735 95.2336 29.5603 95.1289C29.1472 95.0241 29.2128 94.6247 29.1931 94.3301C29.0947 93.0205 29.8095 92.0188 30.7275 91.1741C31.0727 90.8983 31.3208 90.5199 31.4358 90.0937C31.7636 89.0846 32.3816 88.1942 33.2129 87.5336C33.7396 87.0687 34.1612 86.4973 34.4495 85.8572C34.7378 85.217 34.8863 84.5229 34.8851 83.821C34.887 82.276 35.3909 80.7734 36.3212 79.5389C36.6937 78.9353 36.8637 78.2288 36.8065 77.5221C36.8065 76.5334 36.8065 75.5579 36.754 74.5561C36.6819 72.5459 37.4098 70.7518 38.1967 68.9578C38.7506 67.6977 38.9956 66.324 38.9115 64.9506C38.7082 62.063 39.8952 59.6077 41.4296 57.2767C42.2999 56.1358 43.1014 54.9442 43.8298 53.7082C44.231 52.8401 44.454 51.9006 44.4855 50.945C44.7347 47.2521 45.915 44.0766 49.5742 42.3872C52.8883 40.7918 55.9576 38.7325 58.6893 36.2716C59.2051 35.8347 59.8286 35.5436 60.4951 35.4285C61.1616 35.3133 61.8468 35.3784 62.4796 35.6169C63.5997 35.959 64.6951 36.3769 65.7584 36.8675C68.1192 37.9479 70.716 38.0461 73.162 38.7598C74.5588 39.1723 75.7851 37.1556 75.2146 35.4859C74.9977 34.9124 74.6464 34.399 74.19 33.9889C73.7336 33.5788 73.1855 33.2839 72.5915 33.1288C71.3217 32.7182 69.9913 32.5255 68.6569 32.5591C64.9519 32.5068 61.2402 32.6442 57.509 32.343C55.7264 32.2556 53.9628 31.9364 52.2629 31.3936C51.2858 31.0532 50.2365 30.6668 50.0791 29.4882C49.9217 28.3097 50.6628 27.4585 51.6005 26.8037C54.3744 24.8394 57.5024 24.5186 60.7812 24.7739C63.4327 24.9448 66.0285 25.6111 68.4339 26.7382C68.7552 26.8954 69.3061 27.0067 69.2012 27.4388C69.0963 27.871 68.5454 27.7859 68.1847 27.8055C66.9693 27.8393 65.7575 27.6598 64.6043 27.2751C63.8607 27.0109 63.0521 26.9903 62.296 27.2162Z" fill="#FEFEFE"/>
<path d="M34.3146 15.4304C33.5342 18.0495 32.7473 20.7275 31.8948 23.6216L29.4619 16.2816H29.2521V22.1156C29.2521 23.7525 29.2521 23.7525 27.4225 23.8245V13.9703C27.4652 13.2703 27.4652 12.5685 27.4225 11.8685C27.311 10.9911 27.7176 10.7881 28.4849 10.5982C29.2521 10.4083 29.5603 10.7095 29.7964 11.4232C30.4521 13.6101 31.2193 15.7774 31.9538 18.0102C32.7145 15.45 33.4621 12.9292 34.2162 10.4148C34.4196 10.0589 34.7293 9.7754 35.102 9.60398C35.4748 9.43256 35.8919 9.38185 36.2949 9.45891C36.531 9.56367 36.4393 9.77319 36.4393 9.94343C36.4393 13.9637 36.4393 17.984 36.4393 22.0043C36.4393 23.065 35.4949 22.5347 34.9834 22.6591C34.3276 22.8424 34.5769 22.2531 34.5704 22.0043C34.5704 19.8043 34.5704 17.6042 34.5704 15.4042C34.5452 15.3688 34.5317 15.3265 34.5317 15.2831C34.5317 15.2397 34.5452 15.1973 34.5704 15.1619C34.3867 15.2405 34.4064 15.3911 34.3146 15.4304Z" fill="#FEFEFE"/>
<path d="M99.1759 27.1443C98.7319 27.1285 98.3039 26.9749 97.9514 26.705C97.5988 26.4352 97.3391 26.0623 97.2086 25.6382C96.1397 22.7835 94.9331 19.9745 93.6806 16.8971V25.4091C93.5933 25.4381 93.5032 25.4578 93.4118 25.468C91.7461 25.1406 91.7461 25.1406 91.7461 23.4251V12.0518C92.3033 11.989 92.8644 12.1303 93.3251 12.4494C93.7858 12.7686 94.1149 13.2438 94.2511 13.7869C95.1102 16.2358 96.2185 18.6126 97.2677 21.2448C97.3136 20.8061 97.3529 20.59 97.3529 20.3543C97.3529 18.3114 97.3529 16.2685 97.3529 14.2257C97.3529 13.728 97.3529 13.5054 98.0087 13.6495C98.953 13.8524 99.2546 14.2453 99.235 15.2405C99.1628 18.881 99.235 22.515 99.235 26.1555L99.1759 27.1443Z" fill="#FEFEFE"/>
<path d="M38.9836 15.692C38.9836 13.7801 38.9836 11.8681 38.9836 9.95619C38.9836 9.30142 39.2065 9.0919 39.8229 9.05916C40.7738 9.01333 41.7247 8.8431 42.6756 8.82345C43.9543 8.79071 45.1478 9.08536 45.6986 10.3818C46.0186 11.0309 46.1412 11.7593 46.0515 12.4772C45.9617 13.1951 45.6636 13.871 45.1937 14.4217C45.0232 14.6312 44.5379 14.7098 45.0887 15.155C46.5642 16.2812 46.4527 17.8592 46.0134 19.4176C45.8225 20.117 45.4143 20.738 44.8474 21.191C44.2806 21.644 43.5844 21.9057 42.8591 21.9384C41.8492 22.0628 40.8198 22.0891 39.8164 22.2397C39.1607 22.3313 38.9705 22.1939 38.9836 21.526C39.0098 19.5813 38.9836 17.6366 38.9836 15.692Z" fill="#FEFEFE"/>
<path d="M65.3386 21.5591C64.8796 21.5591 64.4008 21.5198 63.9353 21.5591C63.4697 21.5984 63.2795 21.3954 63.1221 20.9764C62.6106 19.4311 62.0204 17.912 61.5548 16.393C61.3056 15.5352 60.6958 15.8102 60.1843 15.8037C59.5613 15.8037 59.8499 16.321 59.8499 16.596C59.8499 18.0299 59.7908 19.4704 59.8499 20.9043C59.8499 21.6246 59.4302 21.5591 59.063 21.4609C58.6958 21.3627 57.935 21.8996 57.935 20.9371C57.935 16.8863 57.935 12.831 57.935 8.77145C57.935 8.33275 58.0925 8.23459 58.499 8.25423C59.7122 8.30661 60.9253 8.25418 62.1385 8.35894C62.8853 8.37074 63.6057 8.63679 64.1805 9.11306C64.7553 9.58933 65.15 10.2473 65.2993 10.978C65.7518 12.7852 65.2468 14.4091 63.8631 15.293C63.4107 15.5811 63.4697 15.8168 63.6074 16.2162C64.2107 17.9644 64.7878 19.7192 65.3714 21.4543C65.3639 21.4902 65.3529 21.5253 65.3386 21.5591Z" fill="#FEFEFE"/>
<path d="M76.9784 15.9345C76.9784 14.0226 76.9784 12.1041 76.9784 10.1922C76.9784 9.89755 76.7161 9.22967 77.4047 9.43265C77.9424 9.58979 78.9719 9.03327 78.9457 10.2839C78.9194 11.5345 78.9457 12.903 78.9457 14.2125C78.9457 14.6577 78.9982 14.8672 79.5424 14.9327C80.2762 14.9799 81.0045 15.0894 81.7195 15.2601C82.4212 15.4173 82.5852 15.1684 82.5589 14.494C82.5065 13.2499 82.5589 12.0059 82.5589 10.7618C82.5589 10.3035 82.6508 10.1725 83.1557 10.2446C84.5394 10.4344 84.5394 10.4017 84.5394 11.7571C84.5394 15.3649 84.5394 18.9596 84.5394 22.5739C84.5394 22.8817 84.8738 23.4643 84.159 23.4971C83.0508 23.556 82.5786 23.2418 82.5786 22.4626C82.5786 20.9893 82.5786 19.5227 82.5786 18.056C82.5786 17.4471 82.4933 17.1328 81.7917 17.1066C81.0592 17.0515 80.3317 16.9442 79.6146 16.7857C79.1096 16.694 78.9588 16.8643 78.9588 17.3816C78.9588 18.9399 78.9588 20.5048 78.9588 22.0697C78.9588 22.6459 78.7883 22.7245 78.2506 22.6852C76.9784 22.5084 76.9391 22.5346 76.9391 21.2054L76.9784 15.9345Z" fill="#FDFDFD"/>
<path d="M55.8694 14.8084C55.9113 16.3081 55.6642 17.8019 55.1415 19.2084C54.4857 20.7078 53.4693 21.6834 51.7577 21.7227C51.0105 21.7452 50.278 21.512 49.6817 21.0619C49.0853 20.6117 48.661 19.9716 48.4789 19.2477C47.4385 16.3371 47.5203 13.1441 48.7084 10.2905C48.9434 9.62018 49.3904 9.04435 49.9818 8.64987C50.5733 8.25539 51.2771 8.06367 51.9872 8.10356C53.5217 8.10356 54.4464 9.02017 55.0365 10.3297C55.6235 11.7484 55.9072 13.2739 55.8694 14.8084Z" fill="#FEFEFE"/>
<path d="M74.5587 12.1167L73.798 12.3001C73.0832 12.4769 72.4864 12.5751 72.2963 11.5471C72.2183 11.23 72.031 10.9506 71.7671 10.7578C71.5033 10.565 71.1798 10.4712 70.8536 10.4929C70.5623 10.4915 70.2781 10.5828 70.0423 10.7535C69.8065 10.9242 69.6313 11.1655 69.5421 11.4424C68.5912 13.8716 68.5912 16.5692 69.5421 18.9984C69.6365 19.2546 69.7866 19.4868 69.9816 19.6782C70.1767 19.8695 70.4117 20.0153 70.67 20.105C70.8565 20.2053 71.0646 20.259 71.2764 20.2615C71.4883 20.264 71.6976 20.2152 71.8864 20.1193C72.0753 20.0234 72.238 19.8832 72.3608 19.7108C72.4835 19.5384 72.5627 19.339 72.5914 19.1294C72.7058 18.6316 72.739 18.1186 72.6897 17.6103C72.6504 16.7525 71.9094 17.2763 71.5356 17.0603C70.8799 16.6805 71.3389 16.0847 71.2471 15.6001C71.1552 15.1156 71.5028 15.2073 71.8176 15.24C72.7291 15.3448 73.8963 15.1222 74.493 15.6067C75.0898 16.0912 74.657 17.2829 74.6701 18.1603C74.6701 20.3996 73.8439 21.7157 72.211 22.0889C70.2044 22.5276 68.5322 21.6764 67.6797 19.627C66.6253 16.9604 66.5372 14.0098 67.4306 11.2852C67.9814 9.3995 69.2076 8.54177 70.906 8.59415C72.6045 8.64653 73.8963 9.67445 74.4209 11.5536C74.4668 11.7173 74.5062 11.9007 74.5587 12.1167Z" fill="#FEFEFE"/>
<path d="M17.2516 26.3975C18.314 21.8141 19.35 17.3813 20.3992 12.9289C20.6156 11.986 21.514 12.2348 22.1173 12.058C22.7206 11.8812 22.642 12.5819 22.7272 12.8961C23.6978 16.4581 24.6092 20.0331 25.5732 23.6016C25.7306 24.1713 25.6716 24.4267 25.0421 24.4659C24.7237 24.4936 24.4104 24.564 24.1109 24.6754C23.7437 24.7868 23.5994 24.6755 23.5207 24.3023C23.3699 23.5493 23.1732 22.8094 23.0027 22.0695C22.9568 21.8861 22.9633 21.5849 22.7535 21.6111C22.1567 21.6766 21.5796 21.8664 20.9829 21.945C20.8329 21.9413 20.6838 21.9684 20.5448 22.0246C20.4057 22.0808 20.2798 22.1649 20.1746 22.2718C20.0695 22.3786 19.9874 22.5058 19.9336 22.6456C19.8797 22.7854 19.8552 22.9347 19.8615 23.0843C19.818 23.4646 19.7457 23.8412 19.6452 24.2106C19.3042 26.0177 19.3042 26.0177 17.2516 26.3975Z" fill="#FEFEFE"/>
<path d="M12.176 26.2994C13.3432 25.9066 14.3924 25.5334 15.4548 25.1995C15.7433 25.1078 16.2417 24.7673 16.3269 25.1995C16.4384 25.7167 16.7532 26.5483 16.0908 26.8298C14.3006 27.5828 12.4514 28.1983 10.6152 28.8399C10.0119 29.0495 10.2021 28.5257 10.2021 28.2768C10.2021 25.409 10.2021 22.5345 10.2021 19.6601V16.6023C10.2021 15.869 11.2775 14.9523 11.9661 15.1291C12.3726 15.2273 12.1694 15.6071 12.1694 15.8493C12.1694 19.1014 12.1694 22.3556 12.1694 25.612L12.176 26.2994Z" fill="#FCFCFC"/>
<path d="M101.858 15.1096C101.941 15.0979 102.025 15.0979 102.107 15.1096C103.779 15.6007 103.779 15.6007 103.779 17.3293V28.8598C103.219 28.7547 102.675 28.5786 102.16 28.3359C101.878 28.2508 101.858 28.0544 101.858 27.8187V15.1096Z" fill="#FEFEFE"/>
<path d="M87.11 11.0763C87.6037 11.0677 88.0961 11.1294 88.5723 11.2596C88.9986 11.2989 89.0707 11.5412 89.0707 11.9144C89.0707 15.8954 89.0707 19.8786 89.0707 23.8639C89.0707 24.3877 88.8937 24.4073 88.415 24.3157C87.1034 24.0407 87.1034 24.0669 87.1034 22.7312L87.11 11.0763Z" fill="#FDFDFD"/>
<path d="M65.3452 69.5211C65.8239 70.4181 66.0796 71.3151 66.9846 71.7865C67.2928 71.9502 66.8928 72.2187 66.6895 72.3104C66.0338 72.5985 65.155 71.9764 65.037 71.1449C64.9706 70.8678 64.9637 70.5799 65.0168 70.3C65.0699 70.0202 65.1818 69.7546 65.3452 69.5211Z" fill="#F7F7F7"/>
<path d="M34.3146 15.4303C34.249 15.1488 34.4326 14.9654 34.5768 14.7755C34.7867 15.0244 34.649 15.2273 34.5113 15.4303H34.3146Z" fill="#898B8E"/>
<path d="M55.7513 76.7691C54.2166 76.7883 52.6841 76.8933 51.161 77.0834C48.1051 77.3125 47.5543 76.6053 48.4068 73.6719C48.7478 72.4934 49.3183 71.7076 50.6102 71.7076C50.7688 71.6948 50.924 71.6549 51.0692 71.5898C51.2725 71.5178 51.5413 71.4785 51.5544 71.2035C51.5676 70.9285 51.2922 70.8826 51.0823 70.8237C49.3618 70.3325 47.5797 70.09 45.7903 70.1035C45.4376 70.1173 45.0958 70.2294 44.8037 70.4274C44.5116 70.6253 44.2809 70.9009 44.1378 71.2231C43.1605 72.756 42.0525 74.2019 40.8262 75.5447C40.4065 76.0357 39.836 76.7101 39.1475 76.35C38.5573 76.0357 38.7081 75.2238 38.7736 74.5952C39.0241 71.9559 39.8071 69.3945 41.0754 67.0653C41.3762 66.3658 41.5962 65.6343 41.7311 64.885C41.9082 64.2761 42.0328 63.6475 42.2689 63.0582C42.7345 61.8861 43.2525 61.7879 44.1705 62.626C45.0886 63.4641 45.8494 63.4445 46.5182 62.2397C46.8165 61.4979 47.3189 60.8555 47.9674 60.3867C48.2397 60.1874 48.5743 60.0917 48.911 60.1169C49.2476 60.1421 49.5642 60.2866 49.8036 60.5242C51.4561 61.9385 53.3906 61.5522 54.4529 59.5944C54.7151 59.1192 55.0914 58.7165 55.5481 58.4224C55.7602 58.2655 56.0056 58.1594 56.2653 58.1125C56.5251 58.0655 56.7922 58.079 57.0459 58.1519C57.2996 58.2247 57.5331 58.3549 57.7282 58.5324C57.9234 58.7099 58.0749 58.93 58.1711 59.1754C58.5835 60.336 59.0652 61.4707 59.6138 62.5736C60.204 63.8832 60.0269 64.479 58.958 65.4481C58.3224 65.9781 57.714 66.5397 57.135 67.1308C55.712 68.735 55.5808 70.2017 56.7415 72.0089C57.4778 73.1651 58.1162 74.3806 58.6498 75.6428C58.958 76.3631 58.6498 76.6839 57.9941 76.7429C57.2859 76.8149 56.5186 76.7691 55.7513 76.7691Z" fill="black"/>
<path d="M67.3781 49.8905C67.2863 50.1851 67.6142 50.6697 67.0175 50.8792C66.4207 51.0887 65.9879 51.3702 65.4371 50.8399C65.1297 50.6124 64.7828 50.4437 64.414 50.3422C64.204 50.2722 64.0133 50.154 63.8573 49.9971C63.7013 49.8402 63.5842 49.6489 63.5156 49.4386C63.2337 48.6398 62.696 48.2273 61.8107 48.6267H61.7189C61.4448 48.7628 61.134 48.807 60.8328 48.7527C60.5316 48.6984 60.2559 48.5487 60.0467 48.3256C59.8985 48.1729 59.8155 47.9686 59.8155 47.7559C59.8155 47.5433 59.8985 47.339 60.0467 47.1863C60.2323 46.9035 60.5036 46.6874 60.821 46.5696C61.1384 46.4518 61.4852 46.4385 61.8107 46.5315C62.4205 46.7345 62.6763 46.7934 62.5124 45.9815C62.3812 45.3267 62.919 44.9797 63.7452 45.1565C64.8005 45.4122 65.7372 46.019 66.4011 46.877C67.065 47.7351 67.4165 48.7932 67.3978 49.8774L67.3781 49.8905Z" fill="black"/>
<path d="M53.3185 57.8989C52.2178 58.2585 51.056 58.3943 49.9019 58.2983C49.5313 58.2888 49.171 58.175 48.8624 57.97C48.5538 57.765 48.3095 57.477 48.1576 57.1393C47.9953 56.8039 47.9471 56.4248 48.0205 56.0596C48.0939 55.6943 48.2848 55.363 48.5642 55.1161C48.8309 54.8941 49.0446 54.6156 49.1898 54.3007C49.335 53.9858 49.408 53.6425 49.4036 53.2958C49.4036 52.9161 49.5413 52.5166 49.9675 52.5494C50.3938 52.5821 50.2101 52.9947 50.2363 53.2631C50.3952 54.3771 50.9132 55.4091 51.7118 56.203C52.1971 56.7465 52.7152 57.2637 53.3185 57.8989Z" fill="#010101"/>
<path d="M80.408 72.7357C80.4085 73.2786 80.3425 73.8195 80.2114 74.3464C80.1392 74.6541 80.0212 74.903 79.6867 74.9488C79.5558 74.9744 79.42 74.9553 79.3011 74.8948C79.1823 74.8342 79.0871 74.7357 79.031 74.6149C78.5457 73.8291 78.0604 73.0434 77.5686 72.2577C77.4668 72.131 77.4158 71.9711 77.4255 71.8089C77.4352 71.6468 77.5049 71.494 77.6211 71.3803C78.143 70.7267 78.5835 70.0121 78.9326 69.2523C79.2342 68.5975 79.5491 68.735 79.8179 69.2523C80.3556 70.3654 80.2703 71.5702 80.408 72.7357Z" fill="#010101"/>
<path d="M36.8654 84.2141C37.3572 82.9046 37.7376 81.87 38.1769 80.8355C38.3671 80.3837 38.6622 80.5081 38.8327 80.8813C38.9712 81.2046 39.0157 81.5603 38.9612 81.9077C38.9067 82.2551 38.7553 82.5801 38.5244 82.8456C38.091 83.4296 37.5216 83.8994 36.8654 84.2141Z" fill="#060606"/>
<path d="M50.5119 79.2573C50.5957 79.2502 50.6796 79.2715 50.7498 79.3178C50.82 79.3642 50.8725 79.4329 50.8988 79.5127C51.1939 80.2722 50.1578 81.6146 49.3709 81.5163C49.1479 81.5163 48.9446 81.3788 49.0823 81.1693C49.4143 80.523 49.8192 79.9167 50.2889 79.3621C50.356 79.3134 50.4316 79.2779 50.5119 79.2573Z" fill="#0A0A0A"/>
<path d="M62.4665 38.1769C63.4763 38.0524 63.8567 38.6745 64.2436 39.2769C64.3879 39.5126 64.1846 39.5781 64.0206 39.6829C63.7452 39.8465 63.4829 39.9251 63.2862 39.6173C63.0108 39.1721 62.7681 38.7072 62.4665 38.1769Z" fill="#121213"/>
<path d="M61.8762 28.2247C61.6312 28.3738 61.3543 28.4627 61.0682 28.4843C60.7821 28.506 60.4949 28.4596 60.2302 28.3491C59.981 28.2771 59.7057 28.1854 59.804 27.8449C59.9024 27.5044 60.1844 27.4586 60.4598 27.5503C60.9741 27.6734 61.4566 27.9032 61.8762 28.2247Z" fill="#111112"/>
<path d="M40.8918 18.1214V17.6435C40.8918 16.0196 40.8918 16.0196 42.387 16C42.6337 15.964 42.8855 15.9839 43.1236 16.058C43.3617 16.1322 43.58 16.2588 43.7625 16.4285C43.9451 16.5982 44.0872 16.8066 44.1782 17.0384C44.2693 17.2702 44.307 17.5195 44.2887 17.7678C44.3255 18.1611 44.2638 18.5572 44.1092 18.9208C43.9547 19.2843 43.7121 19.6039 43.4032 19.8506C43.0943 20.0973 42.7289 20.2635 42.3397 20.3342C41.9506 20.405 41.55 20.3781 41.1738 20.256C40.8525 20.1709 40.8984 19.9613 40.8984 19.7518C40.8918 19.2083 40.8984 18.6649 40.8918 18.1214Z" fill="#020202"/>
<path d="M40.8918 12.4902V12.3003C40.8918 10.7289 40.8918 10.7289 42.3935 10.6569C42.6001 10.6169 42.813 10.6236 43.0168 10.6761C43.2205 10.7287 43.41 10.8258 43.5714 10.9607C43.7328 11.0955 43.8621 11.2645 43.9498 11.4555C44.0376 11.6465 44.0817 11.8545 44.0789 12.0646C44.1152 12.299 44.1047 12.5383 44.0481 12.7686C43.9916 12.999 43.8901 13.2159 43.7493 13.4069C43.6086 13.598 43.4314 13.7593 43.228 13.8818C43.0246 14.0043 42.7989 14.0854 42.564 14.1206C40.8918 14.4349 40.8918 14.4349 40.8918 12.4902Z" fill="#020202"/>
<path d="M59.8303 11.9796V11.888C59.9352 11.2921 59.5156 10.3165 60.0533 10.1659C60.5104 10.0168 60.996 9.97582 61.4718 10.0463C61.9475 10.1167 62.4002 10.2967 62.7943 10.5719C63.5091 11.1284 63.5092 11.9404 63.3387 12.7523C63.2861 13.0366 63.1471 13.2978 62.9406 13.5004C62.7341 13.7031 62.4701 13.8374 62.1845 13.8851H62.0927C60.0795 14.291 59.8303 14.0815 59.8303 11.9796Z" fill="#010101"/>
<path d="M49.7774 14.9783C49.7263 13.7343 49.9041 12.4915 50.302 11.3115C50.584 10.6568 50.9577 10.0478 51.7971 10.002C52.1526 10.0039 52.4966 10.128 52.7713 10.3533C53.046 10.5787 53.2346 10.8916 53.3054 11.2395C54.1612 13.625 54.1612 16.2332 53.3054 18.6188C53.2268 18.9325 53.0517 19.2137 52.8047 19.4228C52.5576 19.6319 52.2511 19.7583 51.9283 19.7843C51.599 19.7758 51.28 19.668 51.0132 19.4752C50.7464 19.2824 50.5442 19.0135 50.4332 18.7039C49.9575 17.521 49.7342 16.2522 49.7774 14.9783Z" fill="black"/>
<path d="M21.632 16.0325C21.8418 17.0015 21.9795 17.9967 22.2877 18.9265C22.5107 19.6336 22.3467 19.9217 21.632 20.0003C21.2975 20.0396 20.9762 20.1378 20.5238 20.2295L21.2845 16.2288C21.3632 16.0848 21.409 15.9146 21.632 16.0325Z" fill="#050505"/>
<path d="M21.632 16.0327L21.278 16.2291C21.278 15.9541 21.2058 15.6333 21.5468 15.5744C21.632 15.522 21.6714 15.8494 21.632 16.0327Z" fill="#797A7D"/>
</svg>
