<svg width="266" height="102" viewBox="0 0 266 102" fill="none" xmlns="http://www.w3.org/2000/svg">
<path d="M230.095 38.5359C225.943 43.417 221.188 46.5293 215.287 47.8021C209.2 49.1266 204.568 46.1124 200.354 42.4604C198.667 40.9996 197.578 40.9587 195.749 41.9889C192.627 43.7495 189.395 45.4365 185.593 45.1312C184.324 45.0277 182.863 45.0468 182.383 43.6105C181.903 42.1742 182.656 40.9178 183.748 39.9694C186.404 37.6311 189.714 36.7889 193.094 36.4264C195.654 36.1539 197.111 35.1346 198.318 32.769C201.918 25.6831 206.13 18.9923 212.64 14.084C216.308 11.3177 220.282 9.17829 224.813 8.16718C226.593 7.772 228.389 7.62211 230.166 8.06362C234.582 9.19464 236.206 13.5961 233.441 17.1581C231.345 19.8508 228.686 21.6713 225.004 21.2462C224.253 21.1617 223.336 20.9737 223.093 20.3114C222.76 19.3575 223.89 19.2648 224.458 18.8724C225.318 18.2619 226.322 17.8177 227.076 17.1036C228.32 15.9263 230.258 14.7844 228.713 12.6804C227.237 10.6745 225.307 11.3695 223.609 12.4079C220.293 14.4192 217.476 17.0791 215.825 20.554C213.516 25.4261 210.316 29.8249 206.389 33.5239C205.188 34.6604 205.005 35.3254 206.288 36.4891C208.878 38.8357 211.441 41.2067 214.692 42.6321C217.785 43.9948 221.319 43.5423 222.99 40.8388C224.737 37.9935 226.967 38.0535 230.095 38.5359Z" fill="white"/>
<path d="M148.789 19.8888C150.426 18.7442 152.108 17.7086 153.633 16.4713C154.818 15.5174 155.817 14.2474 154.763 12.6558C153.71 11.0642 152.165 10.9769 150.56 11.7809C146.72 13.6501 143.609 16.7371 141.714 20.5593C139.347 25.3992 136.142 29.7835 132.248 33.5102C131.467 34.2569 130.665 34.8266 131.882 35.9821C134.573 38.5385 137.297 41.0458 140.745 42.5475C143.796 43.8802 147.279 43.3651 148.993 40.6397C150.735 37.868 152.877 37.9416 155.44 38.3613C151.996 45.9923 138.998 50.1621 131.464 45.9215C128.91 44.4825 126.745 41.4328 124.193 41.1766C121.641 40.9204 118.89 43.3569 116.136 44.3898C114.784 44.8913 113.231 45.014 111.768 45.0167C110.436 45.0167 108.782 44.9949 108.305 43.3815C107.827 41.7681 108.801 40.5335 110 39.566C112.38 37.6582 115.238 36.6962 118.188 36.4645C121.488 36.2083 123.227 34.7366 124.739 31.7633C129.215 23.0421 134.814 15.1386 143.965 10.5409C147.107 8.95745 150.353 7.72285 153.942 7.70105C156.98 7.67924 159.401 8.83753 160.465 11.7646C161.453 14.4899 160.072 16.6702 158.093 18.4717C154.791 21.5159 151.895 21.971 148.789 19.8888Z" fill="white"/>
<path d="M168.116 40.6121C165.406 42.2227 162.955 44.2858 159.908 45.316C158.708 45.7221 157.427 46.2644 156.316 45.2615C155.064 44.1305 155.981 42.855 156.456 41.7785C158.639 36.8429 161.775 32.4741 164.759 28.01C165.108 27.4895 166.942 26.6255 164.557 25.9169C163.58 25.6253 163.738 24.0092 164.912 23.396C167.344 22.1396 169.825 20.9949 172.347 19.8939C173.217 19.5096 174.274 19.3652 175.052 20.101C175.963 20.9649 175.622 22.1041 175.229 23.0553C174.012 26.015 171.771 28.3207 169.945 30.888C168.378 33.0901 166.694 35.2104 165.264 37.6087C167.33 37.3089 168.826 36.0798 170.256 34.8016C174.045 31.414 177.546 27.7157 180.421 23.5568C182.79 20.1337 185.88 20.379 189.736 20.5589L176.556 39.5464C177.852 41.0399 179.959 38.985 180.224 40.6611C180.524 42.5334 178.294 42.8659 176.968 43.5854C175.759 44.2332 174.495 44.7731 173.19 45.1988C168.875 46.6269 167.775 45.6158 168.662 41.1108L168.818 40.3777L168.116 40.6121Z" fill="white"/>
<path d="M242.386 40.6776C240.308 41.9476 238.291 43.234 236.225 44.4249C235.306 44.9461 234.33 45.3594 233.315 45.6568C232.316 45.9512 231.154 46.2891 230.313 45.3843C229.472 44.4795 229.895 43.3893 230.297 42.4109C232.18 37.7778 235.076 33.7633 237.767 29.6017C238.501 28.468 240.674 27.3806 238.297 25.5573C237.661 25.0695 238.226 23.7912 239.288 23.3007C241.589 22.2405 243.849 21.0877 246.177 20.0902C247.135 19.6814 248.279 19.4443 249.133 20.3764C249.987 21.3085 249.605 22.3768 249.133 23.3334C247.198 27.3615 244.102 30.591 241.548 34.1967C240.792 35.265 239.563 36.069 239.449 37.8732C241.168 37.4834 242.366 36.5432 243.543 35.5566C247.926 31.8501 251.685 27.5441 255.053 22.9573C257.098 20.1747 259.884 20.5562 262.469 20.608C264.273 20.6462 262.909 21.9707 262.491 22.5703C259.022 27.604 255.482 32.5914 252.01 37.6252C251.033 39.0451 249.507 40.8956 253.233 40.1952C253.609 40.1243 254.193 40.0398 254.218 40.604C254.242 41.0809 254.133 41.8059 253.814 42.0185C250.904 43.9589 247.891 45.7631 244.261 45.8585C242.713 45.8994 242.044 44.8392 242.211 43.3048C242.312 42.509 243.035 41.7813 242.386 40.6776Z" fill="white"/>
<path d="M152.747 83.5477C155.75 77.9225 158.373 72.9678 161.037 68.0349C162.115 66.0372 169.908 64.5465 171.275 66.1272C171.69 66.6096 171.674 67.5498 171.679 68.2802C171.706 74.9246 171.545 81.5718 171.758 88.208C171.865 91.5166 169.747 90.7181 167.97 90.7862C166.193 90.8544 164.421 91.1296 164.58 88.2162C164.829 83.9417 164.618 79.6528 163.949 75.4234C161.837 79.3833 159.664 83.3269 157.636 87.3141C156.544 89.4671 155.521 90.9743 152.537 90.9388C149.69 90.9061 148.831 89.4236 147.84 87.4122C145.787 83.2479 143.62 79.1408 140.86 75.2163C140.86 79.5033 140.686 83.8011 140.923 88.0772C141.079 90.8326 139.627 90.9416 137.648 90.8026C135.876 90.6718 133.745 91.5084 133.848 88.2053C134.053 81.5691 133.979 74.9192 133.867 68.2775C133.832 66.2198 134.629 65.8601 136.531 65.6502C141.379 65.1052 144.701 66.2307 146.491 71.3571C147.897 75.3934 150.392 79.0617 152.747 83.5477Z" fill="white"/>
<path d="M210.7 90.7919C208.14 90.7919 206.349 90.7565 204.561 90.7919C203.295 90.8246 202.211 90.5821 201.832 89.2248C200.879 85.8563 198.513 85.1886 195.355 85.5456C193.324 85.7745 191.244 85.581 189.186 85.5919C188.165 85.5919 186.918 85.4584 186.599 86.7175C185.217 92.1328 181.12 90.7238 176.794 90.6393C181.287 82.4114 185.466 74.5597 189.852 66.8496C190.99 64.8438 197.192 65.1599 198.289 67.1985C202.389 74.8404 206.368 82.5368 210.7 90.7919ZM193.477 72.8372C192.478 74.7859 191.888 76.1486 191.113 77.3995C189.492 80.0213 190.548 80.5173 193.171 80.4437C197.301 80.3293 197.306 80.4437 195.407 76.601C194.904 75.5817 194.369 74.576 193.477 72.8372Z" fill="white"/>
<path d="M242.706 78.064C242.706 75.3859 242.706 72.706 242.706 70.0242C242.706 66.007 245.07 64.4481 248.924 65.7672C250.392 66.2714 249.977 67.3534 249.988 68.2636C250.035 73.1148 250.103 77.9659 249.969 82.8116C249.909 85.0164 250.712 85.7223 252.862 85.6351C256.192 85.4988 259.536 85.6814 262.866 85.5724C264.902 85.507 265.096 86.5671 265.107 88.1915C265.107 89.8594 264.812 90.8023 262.828 90.7724C256.927 90.6888 251.025 90.6888 245.124 90.7724C243.328 90.7969 242.605 90.2736 242.668 88.3959C242.793 84.9483 242.706 81.498 242.706 78.064Z" fill="white"/>
<path d="M226.793 90.7315C223.842 90.7315 220.892 90.6743 217.944 90.756C216.284 90.7996 215.703 90.1619 215.717 88.5213C215.777 81.6316 215.752 74.7446 215.736 67.8549C215.736 64.3582 218.383 66.0316 219.942 65.7618C221.708 65.4565 223.146 65.6228 223.037 68.1955C222.846 72.7796 223.149 77.3854 222.925 81.9668C222.789 84.7357 223.433 85.9213 226.474 85.6487C229.514 85.3762 232.626 85.6842 235.699 85.5588C237.776 85.4743 237.907 86.5944 237.924 88.186C237.943 89.8376 237.651 90.8487 235.647 90.7642C232.694 90.6416 229.741 90.7315 226.793 90.7315Z" fill="white"/>
<path d="M50.9361 38.9761C53.2159 39.0195 55.3913 40.1398 56.9974 42.0976C58.6034 44.0553 59.5126 46.6951 59.5308 49.4529C59.5308 55.3902 55.5798 59.9639 50.5827 59.8229C49.4546 59.7984 48.3415 59.5051 47.3073 58.9597C46.273 58.4144 45.3378 57.6276 44.5553 56.6446C43.7727 55.6615 43.1581 54.5014 42.7467 53.2307C42.3352 51.96 42.135 50.6036 42.1575 49.2392C42.2301 46.4837 43.1874 43.8708 44.8263 41.9547C46.4652 40.0387 48.6567 38.9703 50.9361 38.9761Z" fill="white"/>
<path d="M85.7252 7.85233C82.8105 9.8125 80.8418 12.5625 79.3759 15.7258C78.0239 18.6747 76.4294 21.5155 74.6075 24.2212C66.4471 36.1705 53.4672 38.7854 41.6591 31.3008C36.0768 28.6776 32.54 22.6416 32.4292 22.4534C27.7418 16.2332 25.8114 9.64061 21.8228 4.15295C20.5444 2.40966 21.9038 2.15185 23.016 1.69762C24.3924 1.13698 25.6495 -0.34848 26.9747 2.17233C29.7914 7.55769 31.1508 13.2991 32.6124 19.6625C32.6465 19.8057 32.6849 19.9612 32.7232 20.129C33.8908 25.2606 41.0072 29.6107 41.2458 29.7457C52.7897 33.9975 63.8733 29.983 69.6473 19.4538C72.6302 14.007 74.6288 8.06513 79.2353 3.45729C81.792 0.875099 83.5988 0.445432 86.1258 3.57598C87.6726 5.5116 87.924 6.37504 85.7252 7.85233Z" fill="white"/>
<path d="M94.1343 82.6295C92.1739 79.868 89.4196 78.0028 86.26 76.614C83.309 75.334 80.4664 73.8233 77.7595 72.0963C65.8089 64.3649 63.1978 52.0674 70.6792 40.8801C73.3026 35.5872 79.3393 32.2404 79.5276 32.1354C85.7484 27.6944 92.3417 25.8655 97.8259 22.0907C99.5735 20.8795 99.8272 22.1673 100.282 23.217C100.846 24.5251 102.328 25.7161 99.8109 26.9717C94.4249 29.6404 88.6829 30.9282 82.3147 32.313L81.8522 32.414C76.72 33.5242 72.3654 40.2664 72.2303 40.4885C67.974 51.4255 71.993 61.9264 82.5234 67.3969C87.9667 70.223 93.9133 72.1165 98.5217 76.4767C101.1 78.9233 101.53 80.615 98.3989 83.0091C96.4794 84.4746 95.6077 84.7128 94.1343 82.6295Z" fill="white"/>
<path d="M15.962 94.4239C18.8727 92.4637 20.8458 89.7137 22.3117 86.5504C23.6621 83.6007 25.2567 80.7597 27.0804 78.055C35.2412 66.1057 48.2176 63.4908 60.0305 70.9755C65.6174 73.5986 69.1544 79.6346 69.261 79.8228C73.9487 86.043 75.8791 92.6356 79.8637 98.1232C81.1421 99.8665 79.7827 100.124 78.6747 100.579C77.294 101.139 76.0411 102.625 74.7115 100.104C71.8946 94.7185 70.5394 88.9771 69.0735 82.6137C69.0394 82.4705 69.0053 82.315 68.9669 82.1472C67.7993 77.0155 60.6825 72.6655 60.4439 72.5305C48.8951 68.2787 37.8152 72.2931 32.0408 82.8224C29.0577 88.2692 27.0548 94.2111 22.4524 98.8189C19.8954 101.401 18.0886 101.831 15.5572 98.7003C14.0145 96.7646 13.7631 95.9012 15.962 94.4239Z" fill="white"/>
<path d="M7.55949 16.2532C9.51556 19.1681 12.2696 21.1369 15.4329 22.6028C18.3818 23.9548 21.2226 25.5494 23.9283 27.3715C35.8775 35.5322 38.4883 48.5126 31.0077 60.3211C28.3847 65.9036 22.3487 69.4407 22.1604 69.5515C15.9362 74.2391 9.34369 76.1695 3.86015 80.1583C2.11688 81.4367 1.85907 80.0773 1.40484 78.9693C0.840117 77.5886 -0.641256 76.3315 1.87544 75.0062C7.26076 72.1893 13.0021 70.8299 19.3696 69.3682L19.8361 69.2574C24.9677 68.0898 29.3177 60.9731 29.4527 60.7558C33.7086 49.2115 29.6942 38.1274 19.1609 32.3531C13.7182 29.3701 7.77229 27.3714 3.16448 22.7648C0.586401 20.2079 0.156721 18.4011 3.28725 15.874C5.21467 14.3058 6.08221 14.0543 7.55949 16.2532Z" fill="white"/>
</svg>
