<svg width="280" height="64" viewBox="0 0 280 64" fill="none" xmlns="http://www.w3.org/2000/svg">
<path d="M95.2664 36.9866C95.2664 30.8057 92.3935 25.885 86.5865 25.885C80.7796 25.885 77.7233 30.8057 77.7233 36.9866C77.7233 43.1675 80.5962 48.0882 86.5865 48.0882C92.5158 47.9082 95.2664 43.1675 95.2664 36.9866ZM71.2439 36.9866C71.2439 27.6253 77.2342 20.6642 86.5254 20.6642C95.8166 20.6642 101.807 27.6253 101.807 36.9866C101.807 46.348 95.8166 53.1289 86.5254 53.1289C77.2342 53.1289 71.2439 46.348 71.2439 36.9866ZM107.369 21.3243H113.971L124.607 38.7268C125.585 40.4671 126.869 43.1675 126.869 43.1675H127.052C127.052 43.1675 126.869 39.987 126.869 37.7667V21.3243H133.103V52.4689H126.807L115.866 35.2463C114.888 33.6861 113.604 30.9857 113.604 30.9857H113.421C113.421 30.9857 113.604 34.2862 113.604 36.3865V52.5289H107.308V21.3243H107.369ZM140.255 21.3243H163.605V26.5451H146.673V33.5061H161.527V38.7268H146.673V47.1281H163.728V52.5289H140.194V21.3243H140.255ZM176.625 36.0265H183.227C186.589 36.0265 188.361 34.1062 188.361 31.4658C188.361 28.6454 186.405 26.9051 183.349 26.9051H176.564V36.0265H176.625ZM170.024 21.3243H183.997C187.726 21.3243 190.415 22.4045 192.371 24.1447C193.305 25.0908 194.04 26.2087 194.533 27.4341C195.026 28.6595 195.268 29.9684 195.244 31.2858C195.244 37.1666 191.21 41.0672 184.608 41.0672H176.845V52.2888H170.366V21.2643H169.999L170.024 21.3243ZM199.853 21.3243H206.271V47.1281H221.125V52.5289H199.853V21.3243ZM224.67 42.3874V21.3243H231.064V42.5074C231.064 45.6878 232.653 48.0282 237.054 48.0282C241.089 48.0282 243.045 45.6278 243.045 42.5074V21.3243H249.463V42.5074C249.463 49.1684 245.245 53.1289 237.238 53.1289C228.864 52.9489 224.646 49.1684 224.646 42.3874M253.986 42.8675H260.282C260.771 46.648 262.85 48.0882 267.373 48.0882C270.613 48.0882 273.486 47.008 273.486 44.1276C273.486 41.1272 270.429 40.4671 265.6 39.387C259.977 38.1268 254.659 36.6865 254.659 30.2056C254.659 24.0247 259.793 20.8443 266.762 20.8443C273.852 20.8443 278.498 24.3247 278.987 30.5056H272.874C272.569 27.3252 270.001 25.765 266.762 25.765C263.4 25.765 260.955 27.2052 260.955 29.4255C260.955 31.9459 263.216 32.726 267.862 33.6861C274.464 35.1263 279.782 36.5065 279.782 43.3475C279.782 49.6484 274.647 53.1289 267.373 53.1289C258.999 53.1289 254.17 49.3484 253.986 42.8675ZM0.00756836 10.2227V63.3905H54.1653V33.026H48.1749V57.5696H5.93679V16.2836H30.9374V10.2827H0.00756836V10.2227ZM48.1749 0.441292V10.2227H38.028V16.2236H48.1749V26.005H54.1653V16.2236H64.1288V10.2227H54.1653V0.441292H48.1749Z" fill="white"/>
<path d="M31.4822 49.4018V24.9216H26.7529C26.7805 25.6133 26.669 26.3033 26.4256 26.9474C26.1822 27.5915 25.8123 28.1754 25.3395 28.6616C24.4698 29.3983 23.1651 29.6816 21.5887 29.6816H20.9907V33.705H25.9919V49.4018H31.4822Z" fill="white"/>
</svg>
