<svg width="92" height="40" viewBox="0 0 92 40" fill="none" xmlns="http://www.w3.org/2000/svg">
<path fill-rule="evenodd" clip-rule="evenodd" d="M20.2595 6.3635C16.711 6.3635 10.9457 6.80239 9.54129 14.5556H0.116455C0.116455 14.5556 0.336929 8.84997 4.20217 5.19283C7.93374 1.66366 13.3484 0 20.2595 0C27.1705 0 32.5852 1.66366 36.3167 5.19283C40.1829 8.84912 40.4025 14.5547 40.4025 14.5547H30.9776C29.5732 6.80153 23.8079 6.36264 20.2595 6.36264V6.3635ZM4.63887 17.8279C5.38362 17.8279 5.98862 18.4274 5.98862 19.1635V21.1071C5.98862 21.844 5.38275 22.4427 4.63887 22.4427H3.24484C2.50009 22.4427 1.89509 21.8432 1.89509 21.1071V19.1635C1.89509 18.4265 2.50096 17.8279 3.24484 17.8279H4.63887ZM4.63887 15.9538H3.24484C1.45328 15.9538 0.00109863 17.3907 0.00109863 19.1635V21.1071C0.00109863 22.8799 1.45328 24.3168 3.24484 24.3168H4.63887C6.43043 24.3168 7.88261 22.8799 7.88261 21.1071V19.1635C7.88261 17.3907 6.43043 15.9538 4.63887 15.9538ZM18.7233 16.2443V21.0601C18.7233 21.572 18.653 22.0143 18.5115 22.3871C18.37 22.759 18.1704 23.0613 17.9239 23.3061C17.6765 23.5509 17.3831 23.7244 17.042 23.8412C16.7009 23.9571 16.3363 24.0155 15.9483 24.0155C15.4778 24.0155 15.0664 23.9339 14.714 23.7596C14.3616 23.5852 14.0673 23.3293 13.8442 22.9917H13.8208C13.3625 23.678 12.6568 24.0267 11.7037 24.0267C11.3157 24.0267 10.9512 23.9683 10.6222 23.8523C10.2932 23.7364 9.99897 23.5612 9.75158 23.3173C9.5042 23.0725 9.30456 22.7702 9.16394 22.3983C9.02246 22.0264 8.95215 21.584 8.95215 21.0721V16.2555H10.8566V21.0721C10.8566 21.5145 10.9503 21.8288 11.1387 22.0032C11.327 22.1775 11.5735 22.2711 11.8678 22.2711C12.162 22.2711 12.3851 22.1775 12.5856 22.0032C12.7853 21.8288 12.8799 21.5145 12.8799 21.0721V16.2555H14.7843V21.0721C14.7843 21.5145 14.878 21.8288 15.0785 22.0032C15.2782 22.1775 15.5134 22.2711 15.7955 22.2711C16.0776 22.2711 16.3241 22.1775 16.5134 22.0032C16.7009 21.8288 16.7955 21.5145 16.7955 21.0721V16.2555L18.7233 16.2443ZM24.2675 18.2223C24.4914 18.4782 24.6086 18.8389 24.6086 19.3045H24.6104V23.8643H26.5148V19.3045C26.5148 18.8158 26.4436 18.3726 26.303 17.9775C26.1624 17.5824 25.9506 17.2448 25.6685 16.9657C25.3864 16.6874 25.0452 16.4779 24.6338 16.3267C24.2224 16.1747 23.7528 16.1051 23.2233 16.1051C22.6938 16.1051 22.2233 16.1755 21.8119 16.3267C21.4005 16.477 21.0602 16.6866 20.7772 16.9657C20.4943 17.2448 20.2833 17.5824 20.1418 17.9775C20.0012 18.3734 19.9301 18.8158 19.9301 19.3045V23.8643H21.8345V19.3045C21.8345 18.8389 21.9516 18.4782 22.1756 18.2223C22.3987 17.9663 22.7519 17.8383 23.2215 17.8383C23.6911 17.8383 24.0435 17.9663 24.2675 18.2223ZM29.548 16.256H33.3039V18.0013H29.8527C29.6747 18.0013 29.5298 18.1439 29.5298 18.3208V19.2467H32.6216V20.7592H29.5298V21.801C29.5298 21.9771 29.6739 22.1205 29.8527 22.1205H33.3039V23.8658H29.548C28.4864 23.8658 27.6254 23.0138 27.6254 21.9633V18.1593C27.6254 17.1089 28.4864 16.2569 29.548 16.2569V16.256ZM36.3169 21.4565H37.1285L38.4808 23.8649H40.7385L39.0216 21.2358V21.2126C39.5155 21.0142 39.8801 20.6999 40.1153 20.2816C40.3497 19.8624 40.4677 19.3858 40.4677 18.8507C40.4677 18.4668 40.4095 18.118 40.2915 17.8037C40.1734 17.4893 39.9972 17.2102 39.7507 16.9774C39.5033 16.7455 39.1978 16.5592 38.8332 16.4312C38.4687 16.3024 38.0329 16.2328 37.5278 16.2328H34.4125V23.8417H36.3169V21.4565ZM38.3393 19.4553C38.1979 19.6185 37.9392 19.7001 37.5512 19.7001V19.7104H36.3169V17.9772H37.5512C37.9401 17.9772 38.1979 18.0588 38.3393 18.222C38.4808 18.3852 38.5511 18.5939 38.5511 18.8387C38.5511 19.0834 38.4808 19.2921 38.3393 19.4553ZM57.867 22.7709H61.648V23.8643H57.755C56.7819 23.8643 55.9929 23.0835 55.9929 22.1207V17.9989C55.9929 17.0361 56.7819 16.2554 57.755 16.2554H61.648V17.3487H57.867C57.4946 17.3487 57.1925 17.6476 57.1925 18.0161V19.4427H60.9666V20.5361H57.1925V22.1018C57.1925 22.4703 57.4946 22.7692 57.867 22.7692V22.7709ZM76.3642 22.7709H72.5831V22.7692C72.2108 22.7692 71.9087 22.4703 71.9087 22.1018V20.5361H75.6828V19.4427H71.9087V18.0161C71.9087 17.6476 72.2108 17.3487 72.5831 17.3487H76.3642V16.2554H72.4712C71.4981 16.2554 70.7091 17.0361 70.7091 17.9989V22.1207C70.7091 23.0835 71.4981 23.8643 72.4712 23.8643H76.3642V22.7709ZM68.1189 19.2461C68.1189 18.6062 67.9427 18.1063 67.6016 17.7447C67.2604 17.384 66.7431 17.1985 66.0609 17.1985C65.3786 17.1985 64.8856 17.3848 64.5436 17.7447C64.2025 18.1055 64.0262 18.6062 64.0262 19.2461V23.8523H62.8267V19.2461C62.8267 18.7694 62.8978 18.3382 63.0385 17.9543C63.1799 17.5704 63.3909 17.2448 63.6738 16.9657C63.9559 16.6866 64.2971 16.477 64.6964 16.3267C65.0956 16.1755 65.5548 16.1051 66.0721 16.1051C66.5895 16.1051 67.0599 16.1747 67.4592 16.3267C67.8585 16.4779 68.1996 16.6874 68.4705 16.9657C68.7413 17.2448 68.9522 17.5824 69.0937 17.9663C69.2352 18.3502 69.3055 18.7805 69.3055 19.2572V23.8643H68.1068L68.1189 19.2461ZM84.011 20.8505V16.2452L82.8114 16.2563V20.8634C82.8114 21.5033 82.6473 22.0032 82.3062 22.3639C81.9651 22.7246 81.4599 22.911 80.7776 22.911C80.0954 22.911 79.5902 22.7246 79.2491 22.3639C78.9088 22.0032 78.7439 21.5033 78.7439 20.8634V16.2563H77.5443V20.8634C77.5443 21.3401 77.6155 21.7713 77.7561 22.1664C77.8976 22.5614 78.1094 22.887 78.3915 23.1549C78.6727 23.422 79.0147 23.6316 79.414 23.7828C79.8141 23.9339 80.2733 24.0044 80.7898 24.0044C81.3063 24.0044 81.7654 23.9339 82.1647 23.7828C82.5649 23.6316 82.9051 23.422 83.1759 23.1429C83.4468 22.8638 83.6577 22.5262 83.7992 22.1423C83.9398 21.7584 84.011 21.3272 84.011 20.8505ZM47.5766 17.7565C47.4707 17.4542 47.3058 17.1862 47.0827 16.9655C46.8587 16.7447 46.5654 16.5704 46.2121 16.4424C45.8597 16.3144 45.4361 16.256 44.9543 16.256H41.7332V23.8649H42.9319V17.3503H44.9778C45.5541 17.3503 45.9534 17.4782 46.1886 17.7454C46.4239 18.0133 46.541 18.35 46.541 18.7571C46.541 19.1642 46.423 19.5018 46.1886 19.7689C45.9534 20.0369 45.5541 20.164 44.9778 20.164V20.176H43.6367V21.2694H44.9543C45.4361 21.2694 45.8597 21.1989 46.2121 21.071C46.5645 20.943 46.8587 20.7686 47.0827 20.5479C47.3058 20.3263 47.4707 20.0592 47.5766 19.7569C47.6825 19.4545 47.7415 19.117 47.7415 18.7563C47.7415 18.3955 47.6825 18.058 47.5766 17.7557V17.7565ZM53.0709 21.0375V21.0589L55.0934 23.8632H53.6594L51.8253 21.1062H50.6952V20.0128H52.1065L52.0953 19.9896C52.3774 19.9896 52.6126 19.9544 52.8001 19.8848C52.9884 19.8153 53.1412 19.7225 53.2584 19.6057C53.3764 19.4898 53.4589 19.3506 53.5058 19.1874C53.5527 19.0242 53.577 18.8499 53.577 18.6523C53.577 18.4548 53.5527 18.2804 53.5058 18.1172C53.4589 17.9549 53.3764 17.8158 53.2584 17.699C53.1412 17.583 52.9884 17.4903 52.8001 17.4198C52.6126 17.3503 52.3774 17.315 52.1065 17.315H49.9903V23.8297H48.7916V16.2208H52.0953C52.5649 16.2208 52.9763 16.2792 53.3174 16.4072C53.6594 16.536 53.9407 16.7095 54.1646 16.9311C54.3877 17.1519 54.5526 17.4078 54.6585 17.7101C54.7635 18.0125 54.8113 18.3388 54.8113 18.6875C54.8113 19.2579 54.6698 19.7577 54.3877 20.1769C54.1056 20.5951 53.6707 20.8863 53.0709 21.0375ZM89.6471 21.0589V21.0375C90.2469 20.8863 90.6817 20.5951 90.9638 20.1769C91.2459 19.7577 91.3874 19.2579 91.3874 18.6875C91.3874 18.3388 91.3397 18.0125 91.2347 17.7101C91.1288 17.4078 90.9639 17.1519 90.7408 16.9311C90.5168 16.7095 90.2356 16.536 89.8936 16.4072C89.5525 16.2792 89.141 16.2208 88.6714 16.2208H85.3678V23.8297H86.5665V17.315H88.6827C88.9535 17.315 89.1888 17.3503 89.3763 17.4198C89.5646 17.4903 89.7174 17.583 89.8346 17.699C89.9526 17.8158 90.0351 17.9549 90.082 18.1172C90.1288 18.2804 90.1531 18.4548 90.1531 18.6523C90.1531 18.8499 90.1288 19.0242 90.082 19.1874C90.0351 19.3506 89.9526 19.4898 89.8346 19.6057C89.7174 19.7225 89.5646 19.8153 89.3763 19.8848C89.1888 19.9544 88.9535 19.9896 88.6714 19.9896L88.6827 20.0128H87.2713V21.1062H88.4015L90.2356 23.8632H91.6695L89.6471 21.0589ZM60.213 27.699H61.3458H61.3466V30.7317H61.9048V27.699H63.0427V27.1897H60.213V27.699ZM66.1145 29.1883H64.1172V30.7317H63.5591V27.1896H64.1172V28.6789H66.1145V27.1896H66.6726V30.7317H66.1145V29.1883ZM70.041 30.2232H67.9673V29.184H69.7242V28.6746H67.9673V27.6998H70.041V27.1905H67.4083V30.7325H70.041V30.2232ZM74.6741 29.1883H72.6768V30.7317H72.1187V27.1896H72.6768V28.6789H74.6741V27.1896H75.2322V30.7317H74.6741V29.1883ZM78.9073 29.3292V27.1854L78.3492 27.1906V29.3352C78.3492 29.6333 78.2728 29.866 78.114 30.0335C77.956 30.2018 77.7208 30.2886 77.4031 30.2886C77.0854 30.2886 76.8502 30.2018 76.6913 30.0335C76.5325 29.866 76.4561 29.6333 76.4561 29.3352V27.1906H75.8979V29.3352C75.8979 29.5568 75.9309 29.7578 75.996 29.9416C76.062 30.1254 76.1601 30.2774 76.2912 30.402C76.4231 30.5265 76.5811 30.6236 76.7677 30.694C76.9534 30.7644 77.1678 30.7971 77.4083 30.7971C77.6487 30.7971 77.8623 30.7644 78.0489 30.694C78.2346 30.6236 78.3935 30.5256 78.5193 30.3959C78.6452 30.2663 78.7433 30.1091 78.8092 29.9304C78.8743 29.7518 78.9073 29.5517 78.9073 29.3292ZM81.4312 28.1708C81.426 28.0136 81.3601 27.884 81.2394 27.7809C81.1188 27.6778 80.9495 27.6297 80.7255 27.6297C80.5016 27.6297 80.3202 27.6838 80.1952 27.792C80.0693 27.9003 80.0086 28.036 80.0086 28.1983C80.0086 28.3392 80.058 28.4422 80.1561 28.5066C80.2542 28.5711 80.3801 28.62 80.5285 28.6527C80.6761 28.6853 80.8401 28.7179 81.0155 28.7446C81.1908 28.7712 81.3549 28.815 81.5024 28.8803C81.65 28.9447 81.7758 29.0426 81.8748 29.1723C81.9729 29.302 82.0223 29.4866 82.0223 29.7194C82.0223 29.8869 81.9894 30.0389 81.9234 30.1746C81.8583 30.3103 81.7706 30.4237 81.6552 30.5216C81.5406 30.6186 81.4035 30.6951 81.2385 30.744C81.0745 30.793 80.8939 30.8196 80.6917 30.8196C80.4894 30.8196 80.3141 30.7921 80.1553 30.744C79.9964 30.6951 79.8593 30.6247 79.7447 30.5328C79.6301 30.4409 79.5416 30.3266 79.4765 30.1918C79.4105 30.0561 79.3784 29.9049 79.3723 29.7366H79.9252C79.9305 29.9101 79.9964 30.0509 80.1275 30.1531C80.2586 30.2562 80.4452 30.3103 80.6908 30.3103C80.9365 30.3103 81.1344 30.2562 81.2654 30.1531C81.3965 30.0501 81.4625 29.9092 81.4625 29.7366C81.4625 29.6335 81.4347 29.5519 81.3748 29.4926C81.3149 29.4334 81.2377 29.3844 81.1457 29.3466C81.0528 29.3088 80.9425 29.2814 80.8228 29.2599L80.7187 29.2415L80.6337 29.2267C80.573 29.2162 80.5117 29.2055 80.4504 29.1946C80.3245 29.1731 80.1987 29.1405 80.078 29.1027C79.9574 29.0649 79.848 29.0108 79.7551 28.9404C79.6622 28.87 79.585 28.7781 79.5251 28.6638C79.4652 28.5504 79.4374 28.4036 79.4374 28.2249C79.4374 28.0626 79.4643 27.9157 79.5251 27.7809C79.5858 27.646 79.6674 27.5318 79.7768 27.4339C79.8862 27.3368 80.0181 27.2604 80.1709 27.2063C80.3245 27.1522 80.4938 27.1247 80.6804 27.1247C80.867 27.1247 81.025 27.1522 81.1786 27.2003C81.3323 27.2492 81.4633 27.3197 81.5727 27.4116C81.6821 27.5035 81.7645 27.6177 81.8244 27.7474C81.8843 27.8771 81.9173 28.024 81.9225 28.1803H81.3922L81.4304 28.1691L81.4312 28.1708ZM82.2225 27.699H83.3553V30.7317H83.9134V27.699H85.0522V27.1896H82.2225V27.699ZM85.5675 27.1896H86.1256V30.2224H88.1342V30.7317H85.5675V27.1896ZM91.2772 30.2233H89.2035V29.184H90.9604V28.6747H89.2035V27.6999H91.2772V27.1906H88.6445V30.7326H91.2772V30.2233ZM44.7402 26.9297C45.202 26.9297 45.5779 27.3016 45.5779 27.7585V28.9644C45.5779 29.4213 45.202 29.7932 44.7402 29.7932H43.8757C43.4139 29.7932 43.0381 29.4213 43.0381 28.9644V27.7585C43.0381 27.3016 43.4139 26.9297 43.8757 26.9297H44.7402ZM44.7402 25.7667H43.8757C42.7646 25.7667 41.8636 26.6582 41.8636 27.7576V28.9635C41.8636 30.0629 42.7646 30.9544 43.8757 30.9544H44.7402C45.8513 30.9544 46.7523 30.0629 46.7523 28.9635V27.7576C46.7523 26.6582 45.8513 25.7667 44.7402 25.7667ZM53.4772 28.9359V25.9479L53.4755 25.9487L52.2793 25.9556V28.9437C52.2793 29.2177 52.2212 29.4126 52.1049 29.5208C51.9877 29.6291 51.8341 29.6866 51.6596 29.6866C51.4851 29.6866 51.3393 29.6291 51.2152 29.5208C51.091 29.4126 51.0329 29.2177 51.0329 28.9437V25.9556H49.8515V28.9437C49.8515 29.2177 49.7934 29.4126 49.6692 29.5208C49.5451 29.6291 49.4062 29.6866 49.224 29.6866C49.0417 29.6866 48.888 29.6291 48.7717 29.5208C48.6554 29.4126 48.5973 29.2177 48.5973 28.9437V25.9556H47.4159V28.9437C47.4159 29.2615 47.4593 29.5354 47.547 29.7665C47.6346 29.9975 47.7579 30.1848 47.9115 30.3368C48.0652 30.488 48.2474 30.5962 48.4514 30.6683C48.6554 30.7405 48.882 30.7765 49.1224 30.7765C49.7135 30.7765 50.151 30.5601 50.4357 30.1341H50.4505C50.5893 30.3437 50.7716 30.5026 50.9903 30.6108C51.2091 30.719 51.4643 30.7697 51.7559 30.7697C51.9972 30.7697 52.2229 30.7336 52.4347 30.6614C52.6456 30.5884 52.8279 30.4811 52.9816 30.3291C53.1343 30.177 53.2585 29.9898 53.3461 29.7588C53.4338 29.5277 53.4772 29.2537 53.4772 28.9359ZM57.1282 27.8462C57.1282 27.5576 57.0553 27.3335 56.9164 27.1746C56.7775 27.0157 56.5588 26.9367 56.2672 26.9367C55.9755 26.9367 55.7568 27.0157 55.6179 27.1746C55.479 27.3335 55.4061 27.5568 55.4061 27.8462V30.6754H54.2247V27.8462C54.2247 27.543 54.269 27.2682 54.3558 27.0234C54.4435 26.7778 54.5745 26.5691 54.7499 26.3956C54.9252 26.2221 55.1361 26.0924 55.3913 25.9988C55.6465 25.9051 55.9382 25.8613 56.2672 25.8613C56.5961 25.8613 56.8869 25.9043 57.1421 25.9988C57.3973 26.0924 57.6091 26.2221 57.7844 26.3956C57.9589 26.5691 58.0908 26.7778 58.1785 27.0234C58.2662 27.269 58.3096 27.543 58.3096 27.8462V30.6754H57.1282V27.8462ZM58.3099 32.0363H41.8629V34.2857L58.3099 32.5482V32.0363ZM30.9776 25.4453C29.5732 33.1985 23.8079 33.6374 20.2595 33.6374C16.711 33.6374 10.9457 33.1985 9.54129 25.4453H0.116455C0.116455 25.4453 0.336929 31.1518 4.20217 34.8072C7.93374 38.3364 13.3475 40 20.2595 40C27.1714 40 32.5852 38.3364 36.3167 34.8072C40.1829 31.1509 40.4025 25.4453 40.4025 25.4453H30.9776Z" fill="url(#paint0_linear_134_319)"/>
<defs>
<linearGradient id="paint0_linear_134_319" x1="92" y1="20" x2="14" y2="20" gradientUnits="userSpaceOnUse">
<stop stop-color="white"/>
<stop offset="1" stop-color="#051C1E" stop-opacity="0"/>
</linearGradient>
</defs>
</svg>
