<svg width="273" height="45" viewBox="0 0 273 45" fill="none" xmlns="http://www.w3.org/2000/svg">
<path d="M10.3368 12.3386C10.1724 11.637 10.1554 10.9064 10.2869 10.1972C10.5365 8.89148 11.3855 7.48132 13.8324 7.48132C16.1295 7.48132 17.4278 8.94372 17.4278 11.1896V13.6966H27.1154V10.824C27.1654 1.94499 19.5251 0.53479 14.0321 0.53479C7.14087 0.53479 1.4981 2.93736 0.449439 9.57049C0.109587 11.3852 0.143611 13.2548 0.549287 15.0546C2.24712 23.359 16.0795 25.7616 18.077 31.0367C18.3814 32.0167 18.416 33.0665 18.1768 34.066C17.8772 35.424 16.9784 36.8342 14.3817 36.8342C11.9348 36.8342 10.4866 35.3718 10.4866 33.1259V29.2087H0V32.3425C0 41.4304 6.84129 44.1463 14.132 44.1463C21.173 44.1463 26.9157 41.6393 27.8645 34.8495C28.1881 32.6499 28.1712 30.4103 27.8145 28.2163C26.2166 19.5985 11.4354 17.0915 10.3368 12.3386ZM136.825 12.3909C136.712 11.7007 136.695 10.9969 136.775 10.3017C137.075 8.99595 137.874 7.58575 140.321 7.58575C142.568 7.58575 143.866 9.04817 143.866 11.2418V13.7488H153.454V10.9284C153.454 2.15391 145.964 0.795937 140.521 0.795937C133.679 0.795937 128.087 3.14628 127.038 9.72717C126.723 11.5265 126.757 13.3736 127.138 15.159C128.786 23.359 142.468 25.7616 144.466 30.9845C144.756 31.9512 144.773 32.9848 144.516 33.9616C144.216 35.3195 143.367 36.6775 140.77 36.6775C138.373 36.6775 136.875 35.2151 136.875 33.0214V29.1042H126.539V32.1858C126.539 41.1692 133.28 43.8852 140.521 43.8852C147.462 43.8852 153.204 41.3781 154.103 34.6928C154.428 32.5108 154.411 30.2882 154.053 28.1119C152.505 19.6507 137.924 17.1646 136.825 12.3909ZM225.113 34.5883L215.974 1.84052H201.543V42.1094H211.081L210.531 8.31697L220.369 42.1094H234.201V1.84052H224.613L225.113 34.5883ZM41.6469 1.84052L34.4061 42.5272H44.8927L50.3358 4.86985L55.629 42.5272H66.0657L58.9248 1.84052H41.6469ZM100.372 1.84052L95.4782 33.6482L90.5844 1.84052H74.7046L73.8558 42.5272H83.5933L83.843 4.86985L90.5345 42.5272H100.372L107.063 4.86985L107.313 42.5272H117.051L116.202 1.84052H100.372ZM190.757 1.84052H180.919V31.9246C180.937 32.4491 180.904 32.9742 180.819 33.4915C180.619 34.4839 179.82 36.4686 177.074 36.4686C174.328 36.4686 173.579 34.5361 173.379 33.4915C173.292 32.9744 173.259 32.4492 173.279 31.9246V1.84052H163.441V30.9845C163.441 31.7157 163.491 33.2826 163.541 33.6482C164.24 41.2214 169.933 43.7284 177.074 43.7284C184.215 43.7284 189.958 41.2737 190.657 33.6482C190.746 32.7636 190.779 31.8737 190.757 30.9845V1.84052ZM258.27 19.6507V25.6049H262.265V31.5068C262.284 32.0313 262.25 32.5564 262.165 33.0737C262.016 34.1705 261.017 36.0507 258.171 36.0507C255.324 36.0507 254.375 34.1705 254.226 33.0737C254.166 32.5536 254.132 32.0306 254.126 31.5068V12.9131C254.113 12.2627 254.18 11.6131 254.325 10.9807C254.525 9.9883 255.374 8.05583 258.171 8.05583C261.167 8.05583 261.866 10.0928 262.066 10.9807C262.133 11.5 262.166 12.0235 262.165 12.5475V14.7934H271.953V13.4354C271.98 12.5298 271.963 11.6234 271.903 10.7195C271.154 3.14626 265.112 0.74372 258.22 0.74372C251.329 0.74372 245.437 3.1985 244.588 10.7718C244.468 11.6719 244.401 12.5789 244.388 13.4877V30.5667C244.379 31.4571 244.429 32.3472 244.538 33.2304C245.187 40.6469 251.329 43.2584 258.22 43.2584C265.112 43.2584 271.254 40.6469 271.903 33.2304C272.003 31.8724 272.053 31.2979 272.053 30.5667V19.6507H258.27Z" fill="white"/>
</svg>
