<svg width="41" height="40" viewBox="0 0 41 40" fill="none" xmlns="http://www.w3.org/2000/svg">
<g clip-path="url(#clip0_134_362)">
<mask id="mask0_134_362" style="mask-type:luminance" maskUnits="userSpaceOnUse" x="0" y="0" width="222" height="40">
<path d="M221.62 0H0.286499V39.8754H221.62V0Z" fill="white"/>
</mask>
<g mask="url(#mask0_134_362)">
<path d="M5.81221 10.9979C5.45117 10.6377 5.16477 10.21 4.96937 9.73946C4.77397 9.26888 4.67341 8.76457 4.67341 8.25522C4.67341 7.74587 4.77397 7.24151 4.96937 6.77093C5.16477 6.30036 5.45116 5.87278 5.81221 5.51262C6.17325 5.15245 6.60187 4.86675 7.07359 4.67184C7.54533 4.47692 8.05092 4.37659 8.5615 4.37659C9.0721 4.37659 9.5777 4.47692 10.0494 4.67184C10.5212 4.86675 10.9498 5.15245 11.3108 5.51262L17.17 11.3575L20.2718 8.26325L14.4126 2.41835C12.8549 0.899348 10.7594 0.054374 8.58103 0.066754C6.40266 0.0791339 4.31704 0.947872 2.77668 2.48449C1.23631 4.0211 0.36545 6.10163 0.35304 8.2747C0.34063 10.4477 1.18767 12.538 2.71038 14.0921L8.56956 19.937L11.6714 16.8428L5.81221 10.9979Z" fill="white"/>
<path d="M31.9752 19.9369L28.8734 23.0311L34.7325 28.8776C35.0936 29.2378 35.38 29.6653 35.5754 30.1359C35.7707 30.6065 35.8714 31.1108 35.8714 31.6202C35.8714 32.1296 35.7707 32.634 35.5754 33.1045C35.38 33.5751 35.0936 34.0027 34.7325 34.3628C34.3715 34.723 33.9429 35.0087 33.4712 35.2036C32.9994 35.3985 32.4939 35.4988 31.9833 35.4988C31.4727 35.4988 30.9671 35.3985 30.4954 35.2036C30.0236 35.0087 29.595 34.723 29.2339 34.3628L23.3731 28.518L20.2714 31.6122L26.1322 37.4571C26.8973 38.238 27.8102 38.8596 28.8179 39.2861C29.8256 39.7126 30.9082 39.9355 32.0027 39.9417C33.0974 39.9479 34.1824 39.7374 35.1949 39.3224C36.2075 38.9074 37.1274 38.2961 37.9014 37.524C38.6755 36.7518 39.2883 35.8341 39.7043 34.8241C40.1203 33.814 40.3313 32.7316 40.3251 31.6397C40.3188 30.5477 40.0955 29.4678 39.6679 28.4626C39.2404 27.4573 38.6171 26.5467 37.8344 25.7834L31.9752 19.9369Z" fill="white"/>
<path d="M23.3749 11.3582L20.2733 14.4523L25.772 19.9375L28.8736 16.8435L23.3749 11.3582Z" fill="white"/>
<path d="M14.7714 19.9379L11.6698 23.0319L17.1685 28.5172L20.2701 25.4231L14.7714 19.9379Z" fill="white"/>
<path d="M11.3109 34.3628C10.9498 34.723 10.5212 35.0087 10.0495 35.2036C9.57773 35.3985 9.07214 35.4988 8.56155 35.4988C8.05095 35.4988 7.54536 35.3985 7.07364 35.2036C6.60191 35.0087 6.17329 34.723 5.81224 34.3628C5.4512 34.0027 5.1648 33.5751 4.96941 33.1045C4.77402 32.634 4.67345 32.1296 4.67345 31.6202C4.67345 31.1108 4.77402 30.6065 4.96941 30.1359C5.1648 29.6653 5.4512 29.2378 5.81224 28.8776L11.6714 23.0327L8.56959 19.9369L2.71043 25.7834C1.92762 26.5467 1.3044 27.4573 0.876863 28.4626C0.449328 29.4678 0.225975 30.5477 0.219739 31.6397C0.213503 32.7316 0.424507 33.814 0.840533 34.8241C1.25656 35.8341 1.86933 36.7518 2.64338 37.524C3.41741 38.2961 4.33733 38.9074 5.34986 39.3224C6.36238 39.7374 7.44738 39.9479 8.54202 39.9417C9.63667 39.9355 10.7192 39.7126 11.7269 39.2861C12.7346 38.8596 13.6475 38.238 14.4127 37.4571L20.2719 31.6122L17.17 28.518L11.3109 34.3628Z" fill="white"/>
<path d="M17.1704 11.3583L11.6718 16.8436L14.7734 19.9376L20.272 14.4524L17.1704 11.3583Z" fill="white"/>
<path d="M25.77 19.9377L20.2714 25.4229L23.373 28.517L28.8716 23.0317L25.77 19.9377Z" fill="white"/>
<path d="M29.2339 5.5126C29.595 5.15244 30.0236 4.86675 30.4954 4.67182C30.9671 4.47691 31.4727 4.37658 31.9833 4.37658C32.4939 4.37658 32.9994 4.47691 33.4712 4.67182C33.9429 4.86675 34.3715 5.15244 34.7325 5.5126C35.0936 5.87276 35.38 6.30035 35.5754 6.77092C35.7707 7.2415 35.8714 7.74586 35.8714 8.25521C35.8714 8.76456 35.7707 9.26889 35.5754 9.73947C35.38 10.21 35.0936 10.6377 34.7325 10.9978L28.8734 16.8443L31.9752 19.937L37.8344 14.0921C38.6171 13.3288 39.2404 12.4181 39.6679 11.4129C40.0955 10.4076 40.3188 9.32773 40.3251 8.23573C40.3313 7.14376 40.1203 6.0614 39.7043 5.05134C39.2883 4.04129 38.6755 3.12361 37.9014 2.35146C37.1274 1.57931 36.2075 0.968018 35.1949 0.553009C34.1824 0.137997 33.0974 -0.0724933 32.0027 -0.0662723C30.9082 -0.0600513 29.8256 0.162757 28.8179 0.589251C27.8102 1.01574 26.8973 1.63744 26.1322 2.41835L20.2714 8.26324L23.3731 11.3575L29.2339 5.5126Z" fill="white"/>
<path d="M20.2734 8.26489L17.1718 11.3589L20.2734 14.453L23.375 11.3589L20.2734 8.26489Z" fill="white"/>
<path d="M20.2734 25.4225L17.1718 28.5165L20.2734 31.6106L23.375 28.5165L20.2734 25.4225Z" fill="white"/>
<path d="M11.6718 16.843L8.57019 19.9371L11.6718 23.0311L14.7734 19.9371L11.6718 16.843Z" fill="white"/>
<path d="M28.873 16.8428L25.7714 19.9369L28.873 23.0309L31.9746 19.9369L28.873 16.8428Z" fill="white"/>
</g>
</g>
<defs>
<clipPath id="clip0_134_362">
<rect width="40" height="40" fill="white" transform="translate(0.281128)"/>
</clipPath>
</defs>
</svg>
