<svg width="132" height="82" viewBox="0 0 132 82" fill="none" xmlns="http://www.w3.org/2000/svg">
<path d="M84.35 81.8742L65.475 49.2419C59.1833 59.8657 53.1224 70.0567 47.0684 80.2617C46.0617 80.0942 45.9289 79.2217 45.5724 78.6074C30.9291 53.2974 16.2927 27.978 1.66339 2.64929C0.265243 0.220195 0.265318 0.199259 2.96375 0.178318C8.61228 0.143417 14.2678 0.178319 19.9163 0.0596567C21.643 0.0177757 22.5308 0.611086 23.3697 2.0839C30.5213 14.5924 37.7567 27.045 44.9712 39.5185C45.6213 40.6354 46.2784 41.7522 47.2292 43.3716C48.9838 40.3282 50.2701 37.3756 52.1996 34.9395C55.3734 30.9469 55.0519 27.6104 52.2486 23.4153C47.8793 16.8539 44.2301 9.81793 40.2943 2.97038C39.8329 2.17465 39.1409 1.45569 39.1339 0.178318C45.9289 0.178318 52.682 0.178318 59.4071 0.178318C60.5326 0.178318 60.8681 0.925189 61.2946 1.66509C72.5916 21.2095 83.891 40.74 95.1927 60.2566C95.4846 60.6795 95.6409 61.1809 95.6409 61.6945C95.6409 62.2081 95.4846 62.7095 95.1927 63.1324C91.6484 69.1982 88.153 75.2919 84.35 81.8742Z" fill="white"/>
<path d="M104.295 47.9016L76.7791 0.282907C81.0364 0.282907 84.8743 0.282907 88.7122 0.282907C89.656 0.282907 89.8727 1.25315 90.2223 1.90929C93.2353 7.49342 96.6398 12.7914 99.5759 18.4104C100.864 21.0063 102.417 23.4624 104.211 25.7396C105.162 25.1742 105.483 24.1551 105.965 23.3244C110.069 16.2675 114.173 9.21054 118.185 2.10473C118.968 0.708698 119.828 0.136327 121.45 0.199149C124.736 0.331772 128.028 0.241028 131.803 0.241028L104.295 47.9016Z" fill="white"/>
<path d="M104.295 9.83895C102.61 6.91426 101.107 4.32462 99.6178 1.728C99.1285 0.87642 99.0935 0.248204 100.359 0.255185C102.952 0.255185 105.546 0.255185 108.139 0.255185C109.272 0.255185 109.538 0.708895 109.006 1.65122C107.524 4.27576 106.007 6.87936 104.295 9.83895Z" fill="white"/>
</svg>
