<svg width="124" height="121" viewBox="0 0 124 121" fill="none" xmlns="http://www.w3.org/2000/svg">
<path d="M122.428 0.153473H0.796631V120.604L1.67471 120.176C20.6577 111.782 41.2401 107.455 62.0545 107.484C82.806 107.432 103.327 111.76 122.231 120.176L123.103 120.604L123.324 0.153473H122.428ZM19.392 57.1751C24.4217 57.1751 24.8637 51.584 24.8637 51.584H27.7071V59.9707H6.04729C6.04729 59.9707 5.3902 53.5103 12.8331 45.7755C12.8331 45.7755 17.6119 40.6131 18.7349 36.7427H16.1126C10.2048 36.7427 9.76874 42.3339 9.76874 42.3339H7.14044V33.9236H28.3641C28.3641 33.9236 28.3641 40.384 22.0203 47.2614C22.0203 47.2614 16.1126 54.1446 15.8915 56.9402H19.392V57.1751ZM52.8434 59.9707H30.5504V57.1751H31.2075C31.483 57.1697 31.7545 57.1087 32.0051 56.9959C32.2557 56.8832 32.4801 56.721 32.6643 56.5195C32.8486 56.3179 32.9887 56.0814 33.0762 55.8244C33.1637 55.5674 33.1965 55.2956 33.1728 55.0256V38.8746C33.184 38.3374 32.9873 37.816 32.6225 37.4159C32.2576 37.0157 31.7519 36.7668 31.2075 36.7192H30.5504V33.9236H52.8613V42.3104H50.0179C50.0179 42.3104 49.3609 36.7192 44.3312 36.7192H41.4878V45.5288H42.581C43.1603 45.5273 43.7155 45.3003 44.1252 44.8975C44.5348 44.4948 44.7657 43.9489 44.7673 43.3793V42.2987H47.6106V51.3373H44.7673V50.2567C44.7282 49.6992 44.4853 49.1745 44.0835 48.7794C43.6816 48.3843 43.1479 48.1455 42.581 48.1071H41.4878V56.9167H44.5761C49.6058 56.9167 50.2628 51.3256 50.2628 51.3256H53.1062V59.9237L52.8434 59.9707ZM69.6885 36.7427H69.0673C68.4869 36.7443 67.9308 36.972 67.521 37.3761C67.1111 37.7802 66.881 38.3275 66.881 38.8981V55.0021C66.9145 55.5637 67.1549 56.0941 67.5573 56.494C67.9597 56.894 68.4965 57.1361 69.0673 57.1751H69.7244V59.9707H55.7047V57.1751H56.3617C56.6539 57.1931 56.9465 57.1499 57.2204 57.0483C57.4943 56.9467 57.7431 56.7891 57.9503 56.5859C58.1576 56.3827 58.3186 56.1385 58.4226 55.8695C58.5267 55.6005 58.5715 55.3129 58.554 55.0256V38.8746C58.5524 38.3035 58.3209 37.7561 57.9101 37.3522C57.4994 36.9484 56.9427 36.7208 56.3617 36.7192H55.7047V33.9236H69.7065L69.6885 36.7427ZM93.0985 59.9707H72.7708V51.5605H75.6381C75.6381 51.5605 76.0741 57.1516 81.1098 57.1516H84.5983C84.3773 54.1446 78.4695 47.4728 78.4695 47.4728C69.9394 38.2286 73.2188 34.1409 73.2188 34.1409H93.3494V42.5277H90.7211C90.7211 42.5277 90.285 36.9365 84.3773 36.9365L81.7549 36.7192C82.627 41.0242 87.6567 45.752 87.6567 45.752C96.8319 56.0769 93.1164 59.9472 93.1164 59.9472L93.0985 59.9707ZM116.724 59.9707H96.3959V51.5605H99.2392C99.2392 51.5605 99.8963 57.1516 104.711 57.1516H107.99C107.775 54.1446 101.868 47.4728 101.868 47.4728C93.3374 38.2286 96.6169 34.1409 96.6169 34.1409H116.962V42.5277H114.119C114.119 42.5277 113.677 36.9365 107.99 36.9365H105.368C106.24 41.2356 111.055 45.9693 111.055 45.9693C120.242 56.0769 116.741 59.9472 116.741 59.9472L116.724 59.9707Z" fill="white"/>
</svg>
