<svg width="69" height="80" viewBox="0 0 69 80" fill="none" xmlns="http://www.w3.org/2000/svg">
<path fill-rule="evenodd" clip-rule="evenodd" d="M66.318 79.1677C66.318 74.4873 66.318 70.1996 65.6113 61.0525C64.7365 51.8632 59.989 47.2056 51.8677 45.569C61.4883 44.3101 68.61 36.7574 68.61 25.1763C68.61 9.6929 58.4896 0 38.124 0H0.345093V16.1363H34.3761C43.3718 16.1363 47.8694 20.0271 47.8694 26.4469C47.8694 33.748 43.3718 36.5058 34.3761 36.5058H0.345093V52.9961H27.0668H33.3765C40.4982 52.9961 44.3713 55.0103 44.9958 64.0735C45.4684 70.2629 45.4092 73.3283 45.3524 76.2673L45.3524 76.2697L45.3517 76.3053C45.3339 77.2389 45.3163 78.1608 45.3163 79.1677H66.318ZM0.345093 66.874V79.1674H27.066V71.2994C27.066 69.6465 26.2608 66.874 22.5515 66.874H0.345093Z" fill="black"/>
<path fill-rule="evenodd" clip-rule="evenodd" d="M66.318 79.1677C66.318 74.4873 66.318 70.1996 65.6113 61.0525C64.7365 51.8632 59.989 47.2056 51.8677 45.569C61.4883 44.3101 68.61 36.7574 68.61 25.1763C68.61 9.6929 58.4896 0 38.124 0H0.345093V16.1363H34.3761C43.3718 16.1363 47.8694 20.0271 47.8694 26.4469C47.8694 33.748 43.3718 36.5058 34.3761 36.5058H0.345093V52.9961H27.0668H33.3765C40.4982 52.9961 44.3713 55.0103 44.9958 64.0735C45.4684 70.2629 45.4092 73.3283 45.3524 76.2673L45.3524 76.2697L45.3517 76.3053C45.3339 77.2389 45.3163 78.1608 45.3163 79.1677H66.318ZM0.345093 66.874V79.1674H27.066V71.2994C27.066 69.6465 26.2608 66.874 22.5515 66.874H0.345093Z" fill="url(#paint0_linear_257_3017)"/>
<defs>
<linearGradient id="paint0_linear_257_3017" x1="34.4776" y1="0" x2="34.4776" y2="89.3597" gradientUnits="userSpaceOnUse">
<stop stop-color="#999999" stop-opacity="0.8"/>
<stop offset="1" stop-color="#020C0D"/>
</linearGradient>
</defs>
</svg>
