<svg width="1440" height="1240" viewBox="0 0 1440 1240" fill="none" xmlns="http://www.w3.org/2000/svg">
<rect width="1440" height="816" transform="translate(0 1)" fill="#020C0D"/>
<rect x="1512" y="484" width="666" height="792" transform="rotate(90 1512 484)" fill="url(#paint0_angular_134_254)"/>
<rect width="666" height="792" transform="matrix(1.31134e-07 1 1 -1.31134e-07 -72 484)" fill="url(#paint1_angular_134_254)"/>
<g filter="url(#filter0_bf_134_254)">
<rect x="1432" y="679" width="1424" height="496" transform="rotate(-180 1432 679)" fill="#020C0D" fill-opacity="0.01"/>
</g>
<g style="mix-blend-mode:screen" filter="url(#filter1_f_134_254)">
<path d="M321 685.5C321 668.231 331.32 651.131 351.372 635.177C371.424 619.223 400.814 604.726 437.864 592.515C474.915 580.305 518.9 570.618 567.309 564.01C615.718 557.401 667.603 554 720 554C772.397 554 824.282 557.401 872.691 564.01C921.1 570.618 965.085 580.305 1002.14 592.515C1039.19 604.726 1068.58 619.223 1088.63 635.177C1108.68 651.131 1119 668.231 1119 685.5L720 685.5L321 685.5Z" fill="#16838D"/>
</g>
<defs>
<filter id="filter0_bf_134_254" x="-192" y="-17" width="1824" height="896" filterUnits="userSpaceOnUse" color-interpolation-filters="sRGB">
<feFlood flood-opacity="0" result="BackgroundImageFix"/>
<feGaussianBlur in="BackgroundImageFix" stdDeviation="100"/>
<feComposite in2="SourceAlpha" operator="in" result="effect1_backgroundBlur_134_254"/>
<feBlend mode="normal" in="SourceGraphic" in2="effect1_backgroundBlur_134_254" result="shape"/>
<feGaussianBlur stdDeviation="66" result="effect2_foregroundBlur_134_254"/>
</filter>
<filter id="filter1_f_134_254" x="-233" y="0" width="1906" height="1239.5" filterUnits="userSpaceOnUse" color-interpolation-filters="sRGB">
<feFlood flood-opacity="0" result="BackgroundImageFix"/>
<feBlend mode="normal" in="SourceGraphic" in2="BackgroundImageFix" result="shape"/>
<feGaussianBlur stdDeviation="277" result="effect1_foregroundBlur_134_254"/>
</filter>
<radialGradient id="paint0_angular_134_254" cx="0" cy="0" r="1" gradientUnits="userSpaceOnUse" gradientTransform="translate(1845 880) rotate(90) scale(371.396 94.1721)">
<stop offset="0.00503373" stop-color="#16838D"/>
<stop offset="0.2114" stop-color="#147781" stop-opacity="0.4"/>
<stop offset="0.304589" stop-color="#020C0D" stop-opacity="0.14"/>
<stop offset="0.835338" stop-color="#071612" stop-opacity="0"/>
<stop offset="0.971482" stop-opacity="0"/>
<stop offset="0.993151" stop-color="#147781" stop-opacity="0.18"/>
</radialGradient>
<radialGradient id="paint1_angular_134_254" cx="0" cy="0" r="1" gradientUnits="userSpaceOnUse" gradientTransform="translate(333 396) rotate(90) scale(371.396 94.1721)">
<stop offset="0.00503373" stop-color="#16838D"/>
<stop offset="0.2114" stop-color="#147781" stop-opacity="0.4"/>
<stop offset="0.304589" stop-color="#020C0D" stop-opacity="0.14"/>
<stop offset="0.835338" stop-color="#071612" stop-opacity="0"/>
<stop offset="0.971482" stop-opacity="0"/>
<stop offset="0.993151" stop-color="#147781" stop-opacity="0.18"/>
</radialGradient>
</defs>
</svg>
