<svg width="32" height="32" viewBox="0 0 32 32" fill="none" xmlns="http://www.w3.org/2000/svg">
<path d="M4.46241 8.82852C3.8973 8.24364 3.58476 7.46006 3.59221 6.64681C3.59967 5.83356 3.92652 5.05583 4.50225 4.48141C5.07798 3.90699 5.85645 3.58192 6.66971 3.57631C7.48298 3.57071 8.26585 3.88504 8.84944 4.45148L16.0005 11.5844C16.0005 9.93897 16.0005 8.29296 16.0005 6.64635L11.3248 1.98247C10.0866 0.758673 8.41461 0.0741716 6.67365 0.0782653C4.9327 0.0823591 3.26399 0.774715 2.03151 2.00432C0.79903 3.23393 0.102777 4.90101 0.094616 6.64195C0.0864554 8.38289 0.767049 10.0564 1.98795 11.2975L9.13719 18.4304V13.4924L4.46241 8.82852Z" fill="white"/>
<path d="M25.3382 15.9614H20.3875L27.5385 23.0943C28.1122 23.6776 28.4319 24.464 28.428 25.2821C28.424 26.1002 28.0968 26.8835 27.5176 27.4613C26.9384 28.0391 26.1543 28.3644 25.3362 28.3662C24.5181 28.3681 23.7324 28.0464 23.1506 27.4714L16.0004 20.3385L13.5305 22.8075L20.6761 29.9404C21.2862 30.5605 22.0129 31.0539 22.8145 31.3919C23.616 31.73 24.4765 31.9062 25.3464 31.9102C26.2163 31.9143 27.0785 31.7462 27.8831 31.4157C28.6878 31.0851 29.4191 30.5986 30.035 29.9842C30.6508 29.3698 31.139 28.6396 31.4715 27.8357C31.8039 27.0318 31.974 26.1701 31.9719 25.3002C31.9699 24.4303 31.7957 23.5694 31.4595 22.767C31.1233 21.9647 30.6317 21.2368 30.013 20.6253L25.3382 15.9614Z" fill="white"/>
<path d="M18.4749 9.11627L16.0005 11.5844L20.3875 15.9614L22.862 13.4924L18.4749 9.11627Z" fill="white"/>
<path d="M11.6116 15.9614L9.13715 18.4304L13.5242 22.8066L16.0004 20.3385L11.6116 15.9614Z" fill="white"/>
<path d="M8.85032 27.4714C8.48941 27.8316 8.04534 28.0975 7.55733 28.2454C7.06931 28.3934 6.55237 28.4188 6.05217 28.3196C5.55197 28.2204 5.08391 27.9995 4.68933 27.6764C4.29475 27.3534 3.98579 26.9382 3.78975 26.4674C3.5545 25.9019 3.49284 25.2792 3.61262 24.6785C3.7324 24.0778 4.0282 23.5264 4.46238 23.0943L9.13716 18.4304L6.6627 15.9614L1.98792 20.6262C1.36411 21.2366 0.86766 21.9647 0.527343 22.7683C0.187025 23.572 0.00961185 24.4352 0.00538732 25.3079C0.0011628 26.1807 0.170211 27.0455 0.502732 27.8525C0.835254 28.6594 1.32463 29.3923 1.94251 30.0086C2.56038 30.625 3.29445 31.1126 4.10216 31.4431C4.90988 31.7737 5.77518 31.9406 6.6479 31.9343C7.52061 31.9279 8.38339 31.7484 9.18621 31.4062C9.98903 31.0639 10.7159 30.5657 11.3248 29.9404L16.0005 25.2765L13.526 22.8075L8.85032 27.4714Z" fill="white"/>
<path d="M13.5251 9.11627L6.66089 15.9614L9.13716 18.4304L16.0005 11.5844L13.5251 9.11627Z" fill="white"/>
<path d="M20.3866 15.9614L16.0005 20.3376L18.4749 22.8066L22.862 18.4304L20.3866 15.9614Z" fill="white"/>
<path d="M23.1506 4.45148C23.5115 4.09121 23.9556 3.82536 24.4436 3.67742C24.9316 3.52948 25.4486 3.50401 25.9488 3.60324C26.449 3.70247 26.917 3.92336 27.3116 4.24639C27.7062 4.56943 28.0152 4.98466 28.2112 5.45542C28.4464 6.02094 28.5081 6.64368 28.3883 7.24436C28.2686 7.84504 27.9727 8.39649 27.5386 8.82852L20.3848 15.9614H25.3382L30.013 11.2984C30.6247 10.6854 31.1097 9.95783 31.4402 9.15734C31.7707 8.35686 31.9403 7.49911 31.9394 6.63307C31.9384 5.76704 31.7669 4.90967 31.4345 4.10993C31.1022 3.31018 30.6157 2.58373 30.0026 1.97203C29.3895 1.36034 28.662 0.875383 27.8615 0.544861C27.061 0.214338 26.2033 0.0447196 25.3372 0.0456889C24.4712 0.0466583 23.6138 0.218197 22.8141 0.55051C22.0143 0.882824 21.2879 1.3694 20.6762 1.98247L16.0005 6.64635V11.5844L23.1506 4.45148Z" fill="white"/>
</svg>
