<svg width="1440" height="826" viewBox="0 0 1440 826" fill="none" xmlns="http://www.w3.org/2000/svg">
<g filter="url(#filter0_d_134_259)">
<path fill-rule="evenodd" clip-rule="evenodd" d="M1 660.336V753.384H102.774V660.336H1ZM1 659.336V566.288H102.774V659.336H1ZM1 472.24V565.288H102.774V472.24H1ZM1 471.24V378.192H102.774V471.24H1ZM1 284.144V377.192H102.774V284.144H1ZM1 283.144V190.096H102.774V283.144H1ZM1 96.048V189.096H102.774V96.048H1ZM1 95.048V1H0V825H1V754.384H102.774V825H103.774V754.384H205.547V825H206.547V754.384H308.321V825H309.321V754.384H411.095V825H412.095V754.384H513.868V825H514.868V754.384H616.642V825H617.642V754.384H719.416V825H720.416V754.384H822.189V825H823.189V754.384H924.963V825H925.963V754.384H1027.74V825H1028.74V754.384H1130.51V825H1131.51V754.384H1233.28V825H1234.28V754.384H1336.06V825H1337.06V754.384H1438.83V825H1439.83L1439.83 754.384V753.384L1439.83 660.336V659.336V566.288V565.288V472.24V471.24V378.192V377.192V284.144V283.144V190.096V189.096V96.048V95.048V1H1438.83V95.048H1337.06V1H1336.06V95.048H1234.28V1H1233.28V95.048H1131.51V1H1130.51V95.048H1028.74V1H1027.74V95.048H925.963V1H924.963V95.048H823.189V1H822.189V95.048H720.416V1H719.416V95.048H617.642V1H616.642V95.048H514.868V1H513.868V95.048H412.095V1H411.095V95.048H309.321V1H308.321V95.048H206.547V1H205.547V95.048H103.774V1H102.774V95.048H1ZM103.774 96.048V189.096H205.547V96.048H103.774ZM206.547 96.048V189.096H308.321V96.048H206.547ZM309.321 96.048V189.096H411.095V96.048H309.321ZM412.095 96.048V189.096H513.868V96.048H412.095ZM514.868 96.048V189.096H616.642V96.048H514.868ZM617.642 96.048V189.096H719.416V96.048H617.642ZM720.416 96.048V189.096H822.189V96.048H720.416ZM823.189 96.048V189.096H924.963V96.048H823.189ZM925.963 96.048V189.096H1027.74V96.048H925.963ZM1028.74 96.048V189.096H1130.51V96.048H1028.74ZM1131.51 96.048V189.096H1233.28V96.048H1131.51ZM1234.28 96.048V189.096H1336.06V96.048H1234.28ZM1337.06 96.048V189.096H1438.83V96.048H1337.06ZM103.774 283.144V190.096H205.547V283.144H103.774ZM206.547 283.144V190.096H308.321V283.144H206.547ZM309.321 283.144V190.096H411.095V283.144H309.321ZM412.095 283.144V190.096H513.868V283.144H412.095ZM514.868 283.144V190.096H616.642V283.144H514.868ZM617.642 283.144V190.096H719.416V283.144H617.642ZM720.416 283.144V190.096H822.189V283.144H720.416ZM823.189 283.144V190.096H924.963V283.144H823.189ZM925.963 283.144V190.096H1027.74V283.144H925.963ZM1028.74 283.144V190.096H1130.51V283.144H1028.74ZM1131.51 283.144V190.096H1233.28V283.144H1131.51ZM1234.28 283.144V190.096H1336.06V283.144H1234.28ZM1337.06 283.144V190.096H1438.83V283.144H1337.06ZM103.774 284.144V377.192H205.547V284.144H103.774ZM206.547 284.144V377.192H308.321V284.144H206.547ZM309.321 284.144V377.192H411.095V284.144H309.321ZM412.095 284.144V377.192H513.868V284.144H412.095ZM514.868 284.144V377.192H616.642V284.144H514.868ZM617.642 284.144V377.192H719.416V284.144H617.642ZM720.416 284.144V377.192H822.189V284.144H720.416ZM823.189 284.144V377.192H924.963V284.144H823.189ZM925.963 284.144V377.192H1027.74V284.144H925.963ZM1028.74 284.144V377.192H1130.51V284.144H1028.74ZM1131.51 284.144V377.192H1233.28V284.144H1131.51ZM1234.28 284.144V377.192H1336.06V284.144H1234.28ZM1337.06 284.144V377.192H1438.83V284.144H1337.06ZM103.774 471.24V378.192H205.547V471.24H103.774ZM206.547 471.24V378.192H308.321V471.24H206.547ZM309.321 471.24V378.192H411.095V471.24H309.321ZM412.095 471.24V378.192H513.868V471.24H412.095ZM514.868 471.24V378.192H616.642V471.24H514.868ZM617.642 471.24V378.192H719.416V471.24H617.642ZM720.416 471.24V378.192H822.189V471.24H720.416ZM823.189 471.24V378.192H924.963V471.24H823.189ZM925.963 471.24V378.192H1027.74V471.24H925.963ZM1028.74 471.24V378.192H1130.51V471.24H1028.74ZM1131.51 471.24V378.192H1233.28V471.24H1131.51ZM1234.28 471.24V378.192H1336.06V471.24H1234.28ZM1337.06 471.24V378.192H1438.83V471.24H1337.06ZM103.774 472.24V565.288H205.547V472.24H103.774ZM206.547 472.24V565.288H308.321V472.24H206.547ZM309.321 472.24V565.288H411.095V472.24H309.321ZM412.095 472.24V565.288H513.868V472.24H412.095ZM514.868 472.24V565.288H616.642V472.24H514.868ZM617.642 472.24V565.288H719.416V472.24H617.642ZM720.416 472.24V565.288H822.189V472.24H720.416ZM823.189 472.24V565.288H924.963V472.24H823.189ZM925.963 472.24V565.288H1027.74V472.24H925.963ZM1028.74 472.24V565.288H1130.51V472.24H1028.74ZM1131.51 472.24V565.288H1233.28V472.24H1131.51ZM1234.28 472.24V565.288H1336.06V472.24H1234.28ZM1337.06 472.24V565.288H1438.83V472.24H1337.06ZM103.774 659.336V566.288H205.547V659.336H103.774ZM206.547 659.336V566.288H308.321V659.336H206.547ZM309.321 659.336V566.288H411.095V659.336H309.321ZM412.095 659.336V566.288H513.868V659.336H412.095ZM514.868 659.336V566.288H616.642V659.336H514.868ZM617.642 659.336V566.288H719.416V659.336H617.642ZM720.416 659.336V566.288H822.189V659.336H720.416ZM823.189 659.336V566.288H924.963V659.336H823.189ZM925.963 659.336V566.288H1027.74V659.336H925.963ZM1028.74 659.336V566.288H1130.51V659.336H1028.74ZM1131.51 659.336V566.288H1233.28V659.336H1131.51ZM1234.28 659.336V566.288H1336.06V659.336H1234.28ZM1337.06 659.336V566.288H1438.83V659.336H1337.06ZM103.774 660.336V753.384H205.547V660.336H103.774ZM206.547 660.336V753.384H308.321V660.336H206.547ZM309.321 660.336V753.384H411.095V660.336H309.321ZM412.095 660.336V753.384H513.868V660.336H412.095ZM514.868 660.336V753.384H616.642V660.336H514.868ZM617.642 660.336V753.384H719.416V660.336H617.642ZM720.416 660.336V753.384H822.189V660.336H720.416ZM823.189 660.336V753.384H924.963V660.336H823.189ZM925.963 660.336V753.384H1027.74V660.336H925.963ZM1028.74 660.336V753.384H1130.51V660.336H1028.74ZM1131.51 660.336V753.384H1233.28V660.336H1131.51ZM1234.28 660.336V753.384H1336.06V660.336H1234.28ZM1337.06 660.336V753.384H1438.83V660.336H1337.06Z" fill="url(#paint0_radial_134_259)" fill-opacity="0.48" shape-rendering="crispEdges"/>
<path fill-rule="evenodd" clip-rule="evenodd" d="M1 660.336V753.384H102.774V660.336H1ZM1 659.336V566.288H102.774V659.336H1ZM1 472.24V565.288H102.774V472.24H1ZM1 471.24V378.192H102.774V471.24H1ZM1 284.144V377.192H102.774V284.144H1ZM1 283.144V190.096H102.774V283.144H1ZM1 96.048V189.096H102.774V96.048H1ZM1 95.048V1H0V825H1V754.384H102.774V825H103.774V754.384H205.547V825H206.547V754.384H308.321V825H309.321V754.384H411.095V825H412.095V754.384H513.868V825H514.868V754.384H616.642V825H617.642V754.384H719.416V825H720.416V754.384H822.189V825H823.189V754.384H924.963V825H925.963V754.384H1027.74V825H1028.74V754.384H1130.51V825H1131.51V754.384H1233.28V825H1234.28V754.384H1336.06V825H1337.06V754.384H1438.83V825H1439.83L1439.83 754.384V753.384L1439.83 660.336V659.336V566.288V565.288V472.24V471.24V378.192V377.192V284.144V283.144V190.096V189.096V96.048V95.048V1H1438.83V95.048H1337.06V1H1336.06V95.048H1234.28V1H1233.28V95.048H1131.51V1H1130.51V95.048H1028.74V1H1027.74V95.048H925.963V1H924.963V95.048H823.189V1H822.189V95.048H720.416V1H719.416V95.048H617.642V1H616.642V95.048H514.868V1H513.868V95.048H412.095V1H411.095V95.048H309.321V1H308.321V95.048H206.547V1H205.547V95.048H103.774V1H102.774V95.048H1ZM103.774 96.048V189.096H205.547V96.048H103.774ZM206.547 96.048V189.096H308.321V96.048H206.547ZM309.321 96.048V189.096H411.095V96.048H309.321ZM412.095 96.048V189.096H513.868V96.048H412.095ZM514.868 96.048V189.096H616.642V96.048H514.868ZM617.642 96.048V189.096H719.416V96.048H617.642ZM720.416 96.048V189.096H822.189V96.048H720.416ZM823.189 96.048V189.096H924.963V96.048H823.189ZM925.963 96.048V189.096H1027.74V96.048H925.963ZM1028.74 96.048V189.096H1130.51V96.048H1028.74ZM1131.51 96.048V189.096H1233.28V96.048H1131.51ZM1234.28 96.048V189.096H1336.06V96.048H1234.28ZM1337.06 96.048V189.096H1438.83V96.048H1337.06ZM103.774 283.144V190.096H205.547V283.144H103.774ZM206.547 283.144V190.096H308.321V283.144H206.547ZM309.321 283.144V190.096H411.095V283.144H309.321ZM412.095 283.144V190.096H513.868V283.144H412.095ZM514.868 283.144V190.096H616.642V283.144H514.868ZM617.642 283.144V190.096H719.416V283.144H617.642ZM720.416 283.144V190.096H822.189V283.144H720.416ZM823.189 283.144V190.096H924.963V283.144H823.189ZM925.963 283.144V190.096H1027.74V283.144H925.963ZM1028.74 283.144V190.096H1130.51V283.144H1028.74ZM1131.51 283.144V190.096H1233.28V283.144H1131.51ZM1234.28 283.144V190.096H1336.06V283.144H1234.28ZM1337.06 283.144V190.096H1438.83V283.144H1337.06ZM103.774 284.144V377.192H205.547V284.144H103.774ZM206.547 284.144V377.192H308.321V284.144H206.547ZM309.321 284.144V377.192H411.095V284.144H309.321ZM412.095 284.144V377.192H513.868V284.144H412.095ZM514.868 284.144V377.192H616.642V284.144H514.868ZM617.642 284.144V377.192H719.416V284.144H617.642ZM720.416 284.144V377.192H822.189V284.144H720.416ZM823.189 284.144V377.192H924.963V284.144H823.189ZM925.963 284.144V377.192H1027.74V284.144H925.963ZM1028.74 284.144V377.192H1130.51V284.144H1028.74ZM1131.51 284.144V377.192H1233.28V284.144H1131.51ZM1234.28 284.144V377.192H1336.06V284.144H1234.28ZM1337.06 284.144V377.192H1438.83V284.144H1337.06ZM103.774 471.24V378.192H205.547V471.24H103.774ZM206.547 471.24V378.192H308.321V471.24H206.547ZM309.321 471.24V378.192H411.095V471.24H309.321ZM412.095 471.24V378.192H513.868V471.24H412.095ZM514.868 471.24V378.192H616.642V471.24H514.868ZM617.642 471.24V378.192H719.416V471.24H617.642ZM720.416 471.24V378.192H822.189V471.24H720.416ZM823.189 471.24V378.192H924.963V471.24H823.189ZM925.963 471.24V378.192H1027.74V471.24H925.963ZM1028.74 471.24V378.192H1130.51V471.24H1028.74ZM1131.51 471.24V378.192H1233.28V471.24H1131.51ZM1234.28 471.24V378.192H1336.06V471.24H1234.28ZM1337.06 471.24V378.192H1438.83V471.24H1337.06ZM103.774 472.24V565.288H205.547V472.24H103.774ZM206.547 472.24V565.288H308.321V472.24H206.547ZM309.321 472.24V565.288H411.095V472.24H309.321ZM412.095 472.24V565.288H513.868V472.24H412.095ZM514.868 472.24V565.288H616.642V472.24H514.868ZM617.642 472.24V565.288H719.416V472.24H617.642ZM720.416 472.24V565.288H822.189V472.24H720.416ZM823.189 472.24V565.288H924.963V472.24H823.189ZM925.963 472.24V565.288H1027.74V472.24H925.963ZM1028.74 472.24V565.288H1130.51V472.24H1028.74ZM1131.51 472.24V565.288H1233.28V472.24H1131.51ZM1234.28 472.24V565.288H1336.06V472.24H1234.28ZM1337.06 472.24V565.288H1438.83V472.24H1337.06ZM103.774 659.336V566.288H205.547V659.336H103.774ZM206.547 659.336V566.288H308.321V659.336H206.547ZM309.321 659.336V566.288H411.095V659.336H309.321ZM412.095 659.336V566.288H513.868V659.336H412.095ZM514.868 659.336V566.288H616.642V659.336H514.868ZM617.642 659.336V566.288H719.416V659.336H617.642ZM720.416 659.336V566.288H822.189V659.336H720.416ZM823.189 659.336V566.288H924.963V659.336H823.189ZM925.963 659.336V566.288H1027.74V659.336H925.963ZM1028.74 659.336V566.288H1130.51V659.336H1028.74ZM1131.51 659.336V566.288H1233.28V659.336H1131.51ZM1234.28 659.336V566.288H1336.06V659.336H1234.28ZM1337.06 659.336V566.288H1438.83V659.336H1337.06ZM103.774 660.336V753.384H205.547V660.336H103.774ZM206.547 660.336V753.384H308.321V660.336H206.547ZM309.321 660.336V753.384H411.095V660.336H309.321ZM412.095 660.336V753.384H513.868V660.336H412.095ZM514.868 660.336V753.384H616.642V660.336H514.868ZM617.642 660.336V753.384H719.416V660.336H617.642ZM720.416 660.336V753.384H822.189V660.336H720.416ZM823.189 660.336V753.384H924.963V660.336H823.189ZM925.963 660.336V753.384H1027.74V660.336H925.963ZM1028.74 660.336V753.384H1130.51V660.336H1028.74ZM1131.51 660.336V753.384H1233.28V660.336H1131.51ZM1234.28 660.336V753.384H1336.06V660.336H1234.28ZM1337.06 660.336V753.384H1438.83V660.336H1337.06Z" fill="url(#paint1_linear_134_259)" shape-rendering="crispEdges"/>
</g>
<defs>
<filter id="filter0_d_134_259" x="-1" y="0" width="1441.83" height="826" filterUnits="userSpaceOnUse" color-interpolation-filters="sRGB">
<feFlood flood-opacity="0" result="BackgroundImageFix"/>
<feColorMatrix in="SourceAlpha" type="matrix" values="0 0 0 0 0 0 0 0 0 0 0 0 0 0 0 0 0 0 127 0" result="hardAlpha"/>
<feOffset/>
<feGaussianBlur stdDeviation="0.5"/>
<feComposite in2="hardAlpha" operator="out"/>
<feColorMatrix type="matrix" values="0 0 0 0 0.0853333 0 0 0 0 0.512 0 0 0 0 0.554667 0 0 0 0.12 0"/>
<feBlend mode="normal" in2="BackgroundImageFix" result="effect1_dropShadow_134_259"/>
<feBlend mode="normal" in="SourceGraphic" in2="effect1_dropShadow_134_259" result="shape"/>
</filter>
<radialGradient id="paint0_radial_134_259" cx="0" cy="0" r="1" gradientUnits="userSpaceOnUse" gradientTransform="translate(719.916 413) rotate(90) scale(412 719.916)">
<stop stop-color="#16838D" stop-opacity="0"/>
<stop offset="0.0001" stop-color="#041517" stop-opacity="0"/>
<stop offset="1" stop-color="#16838D" stop-opacity="0.17"/>
</radialGradient>
<linearGradient id="paint1_linear_134_259" x1="719.916" y1="1" x2="720" y2="221" gradientUnits="userSpaceOnUse">
<stop stop-color="#020C0D"/>
<stop offset="1" stop-color="#040E0F" stop-opacity="0"/>
</linearGradient>
</defs>
</svg>
