<svg width="390" height="200" viewBox="0 0 390 200" fill="none" xmlns="http://www.w3.org/2000/svg">
<path fill-rule="evenodd" clip-rule="evenodd" d="M30.3698 81.7588V37.5254H78.2041V81.7588H30.3698ZM29.3698 82.7588V127.233H0.5V128.233H29.3698V172.709H0.5V173.709H29.3698V208.992H30.3698V173.709H78.2041V208.992H79.2041V173.709H127.038V208.992H128.038V173.709H175.873V208.992H176.873V173.709H190.37H199.63H219.239V208.992H220.239V173.709H268.074V208.992H269.074V173.709H316.908V208.992H317.908V173.709H365.742V208.992H366.742V173.709H389.5V172.709H366.742V128.233H389.5V127.233H366.742V82.7588H389.5V81.7588H366.742V37.5254H389.5V36.5254H366.742V0H365.742V36.5254H317.908V0H316.908V36.5254H269.074V0H268.074V36.5254H220.239V0H219.239V36.5254H199.63H190.37H176.873V0H175.873V36.5254H128.038V0H127.038V36.5254H79.2041V0H78.2041V36.5254H30.3698V0H29.3698V36.5254H0.5V37.5254H29.3698V81.7588H0.5V82.7588H29.3698ZM365.742 172.709V128.233H317.908V172.709H365.742ZM316.908 172.709V128.233H269.074V172.709H316.908ZM268.074 172.709V128.233H220.239V172.709H268.074ZM219.239 172.709V128.233H199.63H190.37H176.873V172.709H190.37H199.63H219.239ZM199.63 127.233H190.37H176.873V82.7588H190.37H199.63H219.239V127.233H199.63ZM268.074 127.233H220.239V82.7588H268.074V127.233ZM316.908 127.233H269.074V82.7588H316.908V127.233ZM365.742 127.233H317.908V82.7588H365.742V127.233ZM365.742 81.7588V37.5254H317.908V81.7588H365.742ZM316.908 81.7588V37.5254H269.074V81.7588H316.908ZM268.074 81.7588V37.5254H220.239V81.7588H268.074ZM219.239 81.7588V37.5254H199.63H190.37H176.873V81.7588H190.37H199.63H219.239ZM175.873 172.709V128.233H128.038V172.709H175.873ZM127.038 172.709V128.233H79.2041V172.709H127.038ZM78.2041 172.709V128.233H30.3698V172.709H78.2041ZM78.2041 127.233H30.3698V82.7588H78.2041V127.233ZM127.038 127.233H79.2041V82.7588H127.038V127.233ZM175.873 127.233H128.038V82.7588H175.873V127.233ZM175.873 81.7588V37.5254H128.038V81.7588H175.873ZM127.038 81.7588V37.5254H79.2041V81.7588H127.038Z" fill="url(#paint0_linear_742_1921)"/>
<defs>
<linearGradient id="paint0_linear_742_1921" x1="0.5" y1="0" x2="172.337" y2="315.22" gradientUnits="userSpaceOnUse">
<stop stop-color="#1FBCCB" stop-opacity="0.16"/>
<stop offset="0.779246" stop-color="#030D0E" stop-opacity="0"/>
</linearGradient>
</defs>
</svg>
