<svg width="95" height="80" viewBox="0 0 95 80" fill="none" xmlns="http://www.w3.org/2000/svg">
<g clip-path="url(#clip0_987_335)">
<path fill-rule="evenodd" clip-rule="evenodd" d="M26.7608 34.5924C26.7608 35.762 26.8872 36.7103 27.1085 37.4058C27.3614 38.1012 27.6775 38.8599 28.12 39.6818C28.2781 39.9346 28.3413 40.1875 28.3413 40.4088C28.3413 40.7249 28.1516 41.041 27.7407 41.3571L25.7492 42.6848C25.4647 42.8744 25.1802 42.9693 24.9273 42.9693C24.6112 42.9693 24.2951 42.8112 23.979 42.5267C23.5365 42.0526 23.1571 41.5468 22.841 41.041C22.5249 40.5036 22.2088 39.903 21.8611 39.176C19.3954 42.0842 16.2976 43.5383 12.5675 43.5383C9.91219 43.5383 7.79427 42.7796 6.24534 41.2623C4.69641 39.745 3.90614 37.7219 3.90614 35.193C3.90614 32.5061 4.85447 30.325 6.78272 28.6812C8.71098 27.0374 11.2715 26.2156 14.5274 26.2156C15.6021 26.2156 16.7085 26.3104 17.8781 26.4684C19.0477 26.6265 20.2489 26.8794 21.5134 27.1639V24.8563C21.5134 22.4539 21.0076 20.7785 20.0277 19.7986C19.0161 18.8186 17.3091 18.3445 14.8751 18.3445C13.7687 18.3445 12.6307 18.4709 11.4611 18.7554C10.2915 19.0399 9.15353 19.3876 8.04716 19.8302C7.54138 20.0514 7.16205 20.1779 6.94078 20.2411C6.7195 20.3043 6.56145 20.3359 6.43501 20.3359C5.99245 20.3359 5.77118 20.0198 5.77118 19.356V17.8071C5.77118 17.3013 5.8344 16.922 5.99245 16.7007C6.15051 16.4794 6.43501 16.2582 6.87756 16.0369C7.98394 15.4679 9.31159 14.9937 10.8605 14.6144C12.4094 14.2034 14.0532 14.0138 15.7918 14.0138C19.5535 14.0138 22.3036 14.8673 24.0738 16.5743C25.8124 18.2812 26.6975 20.8733 26.6975 24.3505V34.5924H26.7608ZM13.9268 39.3973C14.9699 39.3973 16.0447 39.2076 17.1827 38.8283C18.3207 38.4489 19.3322 37.7535 20.1857 36.8052C20.6915 36.2046 21.0708 35.5407 21.2605 34.7821C21.4501 34.0234 21.5766 33.1067 21.5766 32.0319V30.7043C20.6599 30.483 19.6799 30.2933 18.6684 30.1669C17.6568 30.0405 16.6769 29.9772 15.697 29.9772C13.579 29.9772 12.0301 30.3882 10.987 31.2417C9.9438 32.0952 9.43803 33.2964 9.43803 34.8769C9.43803 36.3626 9.81736 37.469 10.6076 38.2277C11.3663 39.0179 12.4727 39.3973 13.9268 39.3973ZM39.3102 42.8112C38.7412 42.8112 38.3619 42.7164 38.109 42.4951C37.8561 42.3055 37.6349 41.8629 37.4452 41.2623L30.0167 16.8271C29.827 16.1949 29.7322 15.784 29.7322 15.5627C29.7322 15.0569 29.9851 14.7724 30.4908 14.7724H33.5887C34.1893 14.7724 34.6002 14.8673 34.8215 15.0886C35.0744 15.2782 35.2641 15.7208 35.4537 16.3214L40.7643 37.2477L45.6956 16.3214C45.8537 15.6892 46.0433 15.2782 46.2962 15.0886C46.5491 14.8989 46.9917 14.7724 47.5607 14.7724H50.0895C50.6901 14.7724 51.1011 14.8673 51.354 15.0886C51.6068 15.2782 51.8281 15.7208 51.9546 16.3214L56.9491 37.5006L62.4177 16.3214C62.6074 15.6892 62.8287 15.2782 63.05 15.0886C63.3028 14.8989 63.7138 14.7724 64.2828 14.7724H67.2226C67.7284 14.7724 68.0128 15.0253 68.0128 15.5627C68.0128 15.6977 67.9898 15.8326 67.9634 15.9872L67.9634 15.9874L67.9496 16.0685C67.918 16.2582 67.8548 16.511 67.7284 16.8588L60.1102 41.2939C59.9205 41.9261 59.6992 42.3371 59.4463 42.5267C59.1934 42.7164 58.7825 42.8428 58.2451 42.8428H55.5266C54.926 42.8428 54.515 42.748 54.2622 42.5267C54.0093 42.3055 53.788 41.8945 53.6616 41.2623L48.7619 20.8733L43.8938 41.2307C43.7358 41.8629 43.5461 42.2738 43.2932 42.4951C43.0403 42.7164 42.5978 42.8112 42.0288 42.8112H39.3102ZM79.9301 43.6647C78.2864 43.6647 76.6426 43.4751 75.0621 43.0957C73.4815 42.7164 72.2487 42.3055 71.4268 41.8313C70.921 41.5468 70.5733 41.2307 70.4469 40.9462C70.3204 40.6617 70.2572 40.3456 70.2572 40.0611V38.4489C70.2572 37.7851 70.5101 37.469 70.9843 37.469C71.1739 37.469 71.3636 37.5006 71.5533 37.5638C71.6757 37.6047 71.8378 37.6718 72.0223 37.7484C72.1235 37.7904 72.2315 37.8351 72.3435 37.8799C73.4183 38.3541 74.5879 38.7334 75.8207 38.9863C77.0852 39.2392 78.318 39.3656 79.5824 39.3656C81.5739 39.3656 83.1228 39.0179 84.1976 38.3225C85.2723 37.6271 85.8413 36.6155 85.8413 35.3195C85.8413 34.4344 85.5568 33.7073 84.9879 33.1067C84.4189 32.5061 83.3441 31.9687 81.7952 31.4629L77.2116 30.0405C74.904 29.3134 73.197 28.2386 72.1539 26.8162C71.1107 25.4253 70.5733 23.8764 70.5733 22.2326C70.5733 20.9049 70.8578 19.7353 71.4268 18.7238C71.9958 17.7122 72.7545 16.8271 73.7028 16.1317C74.6511 15.4047 75.7259 14.8673 76.9903 14.4879C78.2548 14.1086 79.5824 13.9506 80.9733 13.9506C81.6687 13.9506 82.3958 13.9822 83.0912 14.077C83.8183 14.1718 84.4821 14.2983 85.1459 14.4247C85.7781 14.5828 86.3787 14.7408 86.9477 14.9305C87.5167 15.1202 87.9593 15.3098 88.2754 15.4995C88.7179 15.7524 89.034 16.0053 89.2237 16.2898C89.4134 16.5426 89.5082 16.8904 89.5082 17.3329V18.8186C89.5082 19.4825 89.2553 19.8302 88.7812 19.8302C88.5283 19.8302 88.1173 19.7037 87.5799 19.4508C85.7781 18.629 83.755 18.218 81.5107 18.218C79.7088 18.218 78.2864 18.5025 77.3064 19.1031C76.3265 19.7037 75.8207 20.6204 75.8207 21.9165C75.8207 22.8016 76.1368 23.5602 76.769 24.1609C77.4013 24.7615 78.5709 25.3621 80.2462 25.8994L84.735 27.3219C87.0109 28.049 88.6547 29.0605 89.6346 30.3566C90.6146 31.6526 91.0887 33.1383 91.0887 34.7821C91.0887 36.1413 90.8042 37.3742 90.2669 38.4489C89.6979 39.5237 88.9392 40.472 87.9593 41.2307C86.9793 42.021 85.8097 42.59 84.4505 43.0009C83.028 43.4434 81.5423 43.6647 79.9301 43.6647ZM85.9049 59.0277C75.5049 66.7091 60.3949 70.7869 47.4029 70.7869C29.1951 70.7869 12.7891 64.0538 0.397624 52.8636C-0.582311 51.9785 0.302791 50.7773 1.47239 51.4727C14.8754 59.249 31.4078 63.959 48.5093 63.959C60.0472 63.959 72.7231 61.5566 84.3875 56.6253C86.1261 55.835 87.6118 57.7633 85.9049 59.0277ZM78.0648 53.6853C81.4472 53.2743 88.9073 52.3892 90.235 54.0962C91.5626 55.7716 88.7493 62.8208 87.4848 65.9503C87.1055 66.8986 87.9274 67.2779 88.7809 66.5509C94.3444 61.8725 95.7985 52.1047 94.6605 50.6823C93.5225 49.2914 83.7548 48.0902 77.8119 52.2628C76.8952 52.9266 77.0533 53.8117 78.0648 53.6853Z" fill="url(#paint0_linear_987_335)"/>
</g>
<defs>
<linearGradient id="paint0_linear_987_335" x1="47.4985" y1="13.9506" x2="47.4985" y2="70.7869" gradientUnits="userSpaceOnUse">
<stop stop-color="#1FBCCB"/>
<stop offset="1" stop-color="#1FBCCB" stop-opacity="0.08"/>
</linearGradient>
<clipPath id="clip0_987_335">
<rect width="94.7368" height="80" fill="white"/>
</clipPath>
</defs>
</svg>
