<svg width="80" height="80" viewBox="0 0 80 80" fill="none" xmlns="http://www.w3.org/2000/svg">
<path fill-rule="evenodd" clip-rule="evenodd" d="M36.9621 65.7168V80C61.1724 80 79.9795 56.6275 72.0631 31.2474C68.6276 20.1876 59.7904 11.3934 48.7321 7.91488C23.392 -6.67572e-06 0.0195312 18.8486 0.0195312 43.0144H14.3028C14.3028 27.8519 29.3393 16.1248 45.2981 21.9046C48.2298 22.9743 50.8921 24.672 53.0987 26.8788C55.3052 29.0856 57.0026 31.7481 58.0719 34.6799C63.8894 50.6243 52.1458 65.6481 37.003 65.6752V51.4766H22.7642L22.7628 65.7168H36.9621ZM22.7613 76.6906H11.789V65.7183H22.7613V76.6906ZM11.789 65.7183V56.5431H2.61523V65.7183H11.789Z" fill="url(#paint0_linear_987_331)"/>
<defs>
<linearGradient id="paint0_linear_987_331" x1="36.9589" y1="6.08301" x2="36.9589" y2="80" gradientUnits="userSpaceOnUse">
<stop stop-color="#1FBCCB"/>
<stop offset="1" stop-color="#1FBCCB" stop-opacity="0.08"/>
</linearGradient>
</defs>
</svg>
