<svg width="59" height="80" viewBox="0 0 59 80" fill="none" xmlns="http://www.w3.org/2000/svg">
<g clip-path="url(#clip0_987_340)">
<path fill-rule="evenodd" clip-rule="evenodd" d="M49.6195 16.373C50.2676 16.582 50.745 17.1332 50.8577 17.8026L58.3171 63.788L58.3361 63.7775L58.3814 64.184L58.3814 64.184L31.9125 78.8616L31.9124 78.8617C30.9758 79.374 29.9269 79.5958 28.8932 79.5269C28.1044 79.4744 27.3243 79.2526 26.6095 78.8617L0.367188 64.184L0.36739 64.1827L0.412574 63.7775L0.429304 63.7869L10.1571 1.58945C10.429 -0.126704 12.7405 -0.533162 13.5563 1.00235L23.7542 19.8801L27.788 12.2025C28.086 11.6009 28.701 11.2201 29.3743 11.2201C30.0476 11.2201 30.6625 11.6009 30.9606 12.2025L38.3937 26.2479L47.7757 16.8091C48.2604 16.3322 48.9714 16.1641 49.6195 16.373Z" fill="url(#paint0_linear_987_340)"/>
</g>
<defs>
<linearGradient id="paint0_linear_987_340" x1="29.3743" y1="0.0483398" x2="29.3743" y2="79.5392" gradientUnits="userSpaceOnUse">
<stop stop-color="#1FBCCB"/>
<stop offset="1" stop-color="#1FBCCB" stop-opacity="0.08"/>
</linearGradient>
<clipPath id="clip0_987_340">
<rect width="58.8079" height="80" fill="white"/>
</clipPath>
</defs>
</svg>
