<svg width="88" height="80" viewBox="0 0 88 80" fill="none" xmlns="http://www.w3.org/2000/svg">
<path fill-rule="evenodd" clip-rule="evenodd" d="M45.3234 55.9486V73.6751L45.6987 74.0504H49.3941L49.7694 73.6751V55.9486L49.3941 55.5733H45.6987L45.3234 55.9486ZM45.3234 4.01069V21.7371L45.6987 22.1125H49.3941L49.7694 21.7371V4.01069L49.3941 3.63538H45.6987L45.3234 4.01069ZM28.7518 60.8855H29.2714L35.392 54.7938V52.0222L35.0166 51.6469H32.2451L26.1534 57.7386V58.2582L28.7518 60.8855ZM28.7518 16.8003H29.2714L35.392 22.892V25.6635L35.0166 26.0388H32.2451L26.1534 19.9472V19.4275L28.7518 16.8003ZM31.0903 36.6343H5.97297L5.59766 37.0096V40.705L5.97297 41.0803H31.0903L31.4656 40.705V37.0096L31.0903 36.6343ZM51.0395 47.8073L51.4148 48.1826H55.832L56.2073 47.8073V36.721C56.2073 32.8524 54.1864 29.4168 49.1918 29.4168L39.2026 29.5034L38.8273 29.8787V47.8073L39.2026 48.1826H43.6487L44.024 47.8073V34.0361L44.2261 33.834C45.6407 33.7763 46.9399 33.7474 48.0947 33.7763C50.3177 33.8051 51.0395 35.2486 51.0395 37.0964V47.8073Z" fill="url(#paint0_linear_987_325)"/>
<defs>
<linearGradient id="paint0_linear_987_325" x1="30.9026" y1="3.63538" x2="30.9026" y2="74.0504" gradientUnits="userSpaceOnUse">
<stop stop-color="#1FBCCB"/>
<stop offset="1" stop-color="#1FBCCB" stop-opacity="0.08"/>
</linearGradient>
</defs>
</svg>
