<?xml version="1.0" standalone="no"?>
<!DOCTYPE svg PUBLIC "-//W3C//DTD SVG 20010904//EN"
 "http://www.w3.org/TR/2001/REC-SVG-20010904/DTD/svg10.dtd">
<svg version="1.0" xmlns="http://www.w3.org/2000/svg"
 width="780.000000pt" height="780.000000pt" viewBox="0 0 780.000000 780.000000"
 preserveAspectRatio="xMidYMid meet">
<metadata>
Created by potrace 1.14, written by Peter Selinger 2001-2017
</metadata>
<g transform="translate(0.000000,780.000000) scale(0.100000,-0.100000)"
fill="#000000" stroke="none">
<path d="M7112 5962 c-13 -15 -216 -223 -452 -462 -235 -239 -505 -514 -600
-610 -259 -264 -991 -1008 -1198 -1219 -101 -102 -337 -342 -525 -534 -188
-191 -345 -346 -348 -345 -4 2 -115 109 -247 238 -132 129 -251 246 -265 259
l-27 24 -250 -251 c-137 -137 -250 -254 -250 -257 0 -14 1034 -1035 1047
-1035 3 0 55 51 117 114 380 391 821 840 1501 1531 242 246 532 541 645 656
113 114 387 393 610 620 223 226 492 500 598 608 l193 196 -253 247 c-139 137
-257 248 -263 247 -5 0 -20 -12 -33 -27z"/>
<path d="M1166 5091 l-256 -256 255 -255 255 -255 256 256 256 256 -255 255
-255 255 -256 -256z"/>
<path d="M3825 5234 c-38 -40 -257 -263 -486 -496 -229 -233 -504 -512 -610
-620 -107 -109 -376 -382 -599 -609 -223 -226 -474 -481 -557 -567 l-153 -155
-21 19 c-29 26 -332 323 -566 554 l-191 190 -255 -256 -256 -255 236 -232
c130 -128 387 -381 572 -564 527 -519 480 -476 498 -461 17 13 288 288 423
428 40 41 262 268 494 504 232 235 513 522 626 637 113 115 383 389 600 610
217 221 497 505 622 633 l228 231 -48 44 c-152 142 -271 253 -298 278 -17 15
-64 58 -103 96 -40 37 -76 66 -80 66 -3 -1 -37 -34 -76 -75z"/>
</g>
</svg>
