<?xml version="1.0" standalone="no"?>
<!DOCTYPE svg PUBLIC "-//W3C//DTD SVG 20010904//EN"
 "http://www.w3.org/TR/2001/REC-SVG-20010904/DTD/svg10.dtd">
<svg version="1.0" xmlns="http://www.w3.org/2000/svg"
 width="700.000000pt" height="700.000000pt" viewBox="0 0 700.000000 700.000000"
 preserveAspectRatio="xMidYMid meet">
<metadata>
Created by potrace 1.14, written by Peter Selinger 2001-2017
</metadata>
<g transform="translate(0.000000,700.000000) scale(0.100000,-0.100000)"
fill="#000000" stroke="none">
<path d="M1353 6978 c-343 -26 -659 -173 -908 -423 -193 -194 -313 -404 -381
-665 -17 -69 -19 -77 -33 -180 -12 -84 -7 -315 9 -405 42 -243 151 -486 300
-670 14 -17 270 -277 570 -578 l546 -548 -566 -567 c-501 -501 -574 -579 -632
-667 -123 -186 -186 -336 -229 -540 -31 -150 -32 -378 -4 -540 27 -150 98
-337 183 -478 269 -448 745 -711 1268 -701 60 1 122 5 138 8 16 3 50 8 75 11
160 22 389 113 553 222 109 72 127 89 706 665 l553 550 547 -545 c301 -300
567 -562 592 -582 71 -59 153 -112 253 -164 120 -63 244 -106 392 -136 17 -3
41 -8 55 -11 14 -3 97 -7 185 -9 188 -3 319 15 482 70 258 86 457 223 661 454
86 98 197 297 247 447 29 87 28 83 50 184 20 94 26 159 27 277 1 361 -125 692
-366 965 -41 46 -301 309 -578 585 l-505 502 556 556 c306 306 569 575 586
598 207 293 291 534 299 857 14 522 -272 1024 -732 1283 -451 253 -1000 247
-1447 -17 -127 -75 -229 -168 -748 -685 -301 -300 -552 -546 -557 -546 -5 0
-258 248 -562 550 -378 376 -578 568 -633 607 -210 148 -483 249 -719 264 -45
3 -92 7 -106 8 -14 1 -71 -2 -127 -6z m4306 -763 c71 -11 181 -54 251 -100 66
-42 154 -126 191 -181 161 -237 159 -550 -5 -778 -24 -33 -281 -297 -569 -585
l-526 -523 -477 475 c-262 262 -482 474 -488 470 -22 -11 1057 1063 1098 1093
92 69 212 119 314 131 26 3 48 6 50 8 4 3 113 -3 161 -10z m-4009 -25 c76 -22
158 -62 220 -108 19 -14 272 -262 562 -551 l528 -525 -481 -480 -481 -479
-542 544 c-388 390 -551 560 -574 601 -169 288 -106 656 148 867 76 63 203
125 295 144 93 19 231 14 325 -13z m2329 -2204 l481 -479 -480 -477 -480 -478
-474 472 c-261 259 -475 475 -476 480 -3 7 938 961 947 961 1 0 218 -216 482
-479z m-1024 -1985 c-5 -2 -244 -237 -530 -522 -286 -285 -538 -532 -560 -549
-60 -47 -191 -107 -270 -123 -87 -17 -231 -14 -310 7 -73 20 -176 69 -230 109
-105 79 -196 204 -241 329 -71 198 -30 456 98 622 18 22 269 278 559 567 l527
527 484 -482 c266 -264 479 -483 473 -485z m2593 422 c582 -583 587 -589 638
-748 18 -57 27 -108 29 -176 7 -203 -58 -365 -204 -509 -122 -120 -276 -187
-451 -194 -66 -2 -184 14 -233 33 -73 28 -143 65 -186 97 -25 19 -283 271
-572 560 l-526 526 475 474 c262 261 480 474 484 474 5 0 251 -242 546 -537z"/>
</g>
</svg>
