<svg width="20" height="20" viewBox="0 0 20 20" fill="none" xmlns="http://www.w3.org/2000/svg">
<path d="M18.9608 3.17676C19.1399 2.76644 18.6691 2.42087 18.2745 2.63236C17.6557 2.964 17.0045 3.23364 16.3302 3.43668C13.6161 0.0470589 8.93995 2.9007 9.63102 6.55629C9.65344 6.6749 9.5652 6.78974 9.4445 6.78747C6.90196 6.73966 5.10701 5.91253 3.37498 3.96371C3.12908 3.68704 2.69391 3.70008 2.50788 4.02008C1.36354 5.98851 -1.46139 12.0943 5.80588 14.5424C4.38468 15.5071 2.53053 16.3264 1.58068 16.7182C1.34575 16.8151 1.33572 17.1484 1.56743 17.2528C11.0505 21.5244 20.2799 15.3026 17.3574 5.51053C18.0384 4.839 18.5813 4.04607 18.9608 3.17676Z" stroke="white" stroke-width="2" stroke-linecap="round" stroke-linejoin="round"/>
</svg>
