<svg width="20" height="21" viewBox="0 0 20 21" fill="none" xmlns="http://www.w3.org/2000/svg">
<path d="M6 9.92188V14.9219M9 8.92188V10.9219M9 14.9219V11.1516C9 10.4366 9.50469 9.82094 10.2058 9.68071L11.6078 9.40032C12.8454 9.1528 14 10.0994 14 11.3615V14.9219M6 6.92188H6.01M1 10.9219C1 8.40826 1 7.15146 1.35354 6.14112C1.98676 4.33146 3.40959 2.90863 5.21924 2.27541C6.22958 1.92187 7.48639 1.92188 10 1.92188C12.5136 1.92188 13.7704 1.92187 14.7808 2.27541C16.5904 2.90863 18.0132 4.33146 18.6465 6.14112C19 7.15146 19 8.40826 19 10.9219C19 13.4355 19 14.6922 18.6465 15.7027C18.0132 17.5123 16.5904 18.9351 14.7808 19.5684C13.7704 19.9219 12.5136 19.9219 10 19.9219C7.48639 19.9219 6.22958 19.9219 5.21924 19.5684C3.40959 18.9351 1.98676 17.5123 1.35354 15.7027C1 14.6922 1 13.4355 1 10.9219Z" stroke="white" stroke-width="2" stroke-linecap="round" stroke-linejoin="round"/>
</svg>
