<svg width="21" height="21" viewBox="0 0 21 21" fill="none" xmlns="http://www.w3.org/2000/svg">
<path d="M15.0469 5.92133H15.0569M1.04688 10.9219C1.04688 8.40827 1.04687 7.15146 1.40041 6.14112C2.03363 4.33147 3.45647 2.90863 5.26612 2.27541C6.27646 1.92187 7.53327 1.92188 10.0469 1.92188C12.5605 1.92188 13.8173 1.92187 14.8277 2.27541C16.6373 2.90863 18.0601 4.33147 18.6934 6.14112C19.0469 7.15146 19.0469 8.40827 19.0469 10.9219C19.0469 13.4355 19.0469 14.6923 18.6934 15.7027C18.0601 17.5123 16.6373 18.9351 14.8277 19.5684C13.8173 19.9219 12.5605 19.9219 10.0469 19.9219C7.53327 19.9219 6.27646 19.9219 5.26612 19.5684C3.45647 18.9351 2.03363 17.5123 1.40041 15.7027C1.04687 14.6923 1.04688 13.4355 1.04688 10.9219ZM13.8244 10.3617C13.9422 11.1563 13.8065 11.9677 13.4365 12.6807C13.0666 13.3937 12.4813 13.9718 11.7638 14.333C11.0463 14.6941 10.2332 14.8198 9.44018 14.6922C8.64718 14.5646 7.91455 14.1902 7.34658 13.6222C6.77861 13.0542 6.4042 12.3216 6.2766 11.5286C6.14899 10.7356 6.27469 9.92248 6.63581 9.20498C6.99693 8.48752 7.5751 7.90219 8.28808 7.53224C9.00108 7.1623 9.81247 7.02657 10.607 7.1444C11.4175 7.26457 12.1678 7.64223 12.7472 8.22158C13.3265 8.80094 13.7042 9.55128 13.8244 10.3617Z" stroke="white" stroke-width="2" stroke-linecap="round" stroke-linejoin="round"/>
</svg>
