<svg width="63" height="80" viewBox="0 0 63 80" fill="none" xmlns="http://www.w3.org/2000/svg">
<g clip-path="url(#clip0_987_267)">
<path fill-rule="evenodd" clip-rule="evenodd" d="M21.3461 46.5062C10.6581 46.5062 0 51.6854 0 51.6854C0 51.6854 18.1019 2.48808 18.141 2.39124C18.696 0.936754 19.5377 0 20.7203 0H42.4445C43.627 0 44.5042 0.936754 45.0238 2.39124C45.0592 2.48994 63.1629 51.6854 63.1629 51.6854C63.1629 51.6854 54.4751 46.5062 41.8169 46.5062L33.7586 21.6292C33.4568 20.4261 32.576 19.6085 31.5815 19.6085C30.587 19.6085 29.7061 20.4261 29.4045 21.6292L21.3461 46.5062ZM20.5401 67.6887C20.5411 67.6897 20.5422 67.6906 20.5432 67.6916L20.5398 67.6898C20.5399 67.6894 20.54 67.6891 20.5401 67.6887ZM17.3927 52.5177C15.8936 57.5122 16.9433 64.4055 20.5401 67.6887C20.5563 67.6283 20.5725 67.5709 20.5882 67.5153C20.6206 67.4002 20.6508 67.2933 20.674 67.1857C21.1245 65.0997 22.8235 63.7751 24.9715 63.8377C27.0643 63.8986 28.1752 64.9554 28.4986 67.3161C28.6184 68.1926 28.6297 69.0876 28.641 69.9779C28.6422 70.0711 28.6434 70.1642 28.6447 70.2573C28.6722 72.2755 29.195 74.1407 30.2939 75.8269C31.3343 77.4245 32.6998 78.6394 34.569 79.4739C34.5499 79.4092 34.5338 79.3543 34.5199 79.3068C34.4798 79.1705 34.4574 79.0945 34.4331 79.0185C33.0575 74.8083 34.0479 71.914 37.7092 69.4455C38.0811 69.1949 38.4559 68.9483 38.8306 68.7018C39.6565 68.1584 40.482 67.6152 41.2758 67.0292C44.1614 64.8998 45.9757 62.0907 46.4023 58.4541C46.5777 56.9609 46.4469 55.4937 45.9447 54.0406C45.7311 54.1699 45.528 54.2987 45.3305 54.4239C44.9097 54.6908 44.5145 54.9414 44.0979 55.1461C38.7462 57.7727 33.0883 58.0978 27.3274 57.2286C23.5957 56.6654 19.9929 55.6676 17.3927 52.5177Z" fill="url(#paint0_linear_987_267)"/>
</g>
<defs>
<linearGradient id="paint0_linear_987_267" x1="31.5815" y1="0" x2="31.5815" y2="79.4739" gradientUnits="userSpaceOnUse">
<stop stop-color="#1FBCCB"/>
<stop offset="1" stop-color="#1FBCCB" stop-opacity="0.08"/>
</linearGradient>
<clipPath id="clip0_987_267">
<rect width="62.7848" height="80" fill="white"/>
</clipPath>
</defs>
</svg>
