<svg width="133" height="80" viewBox="0 0 133 80" fill="none" xmlns="http://www.w3.org/2000/svg">
<g clip-path="url(#clip0_987_271)">
<path d="M72.3212 80H116.93C118.347 80 119.739 79.6304 120.966 78.9284C122.191 78.2285 123.209 77.2185 123.92 76C124.628 74.7856 125 73.4051 125 71.9996C124.999 70.5941 124.625 69.2141 123.916 68.0004L93.9584 16.5716C93.2479 15.3533 92.2292 14.3435 91.0048 13.6436C89.776 12.941 88.385 12.5716 86.9696 12.572C85.5532 12.572 84.1616 12.942 82.9348 13.644C81.7103 14.3438 80.6916 15.3536 79.9812 16.572L72.3212 29.7304L57.344 3.9992C56.6332 2.78073 55.6141 1.77088 54.3892 1.0712C53.1602 0.368851 51.7691 -0.000396583 50.3536 3.19634e-07C48.9368 3.19634e-07 47.5448 0.3696 46.3176 1.0716C45.0928 1.77125 44.0737 2.78093 43.3628 3.9992L6.0836 68C5.3748 69.2138 5.00087 70.594 5 71.9996C4.9992 73.404 5.372 74.7836 6.08 76C6.79061 77.2185 7.8094 78.2284 9.034 78.9284C10.2631 79.631 11.6543 80.0003 13.07 80H41.0716C52.1664 80 60.3484 75.17 65.978 65.7468L79.6464 42.286L86.9676 29.7304L108.94 67.4444H79.6464L72.3212 80ZM40.6152 67.4316L21.0736 67.4272L50.3664 17.1448L64.9828 42.286L55.1964 59.09C51.4576 65.204 47.2104 67.4316 40.6152 67.4316Z" fill="url(#paint0_linear_987_271)"/>
</g>
<defs>
<linearGradient id="paint0_linear_987_271" x1="65" y1="0" x2="65" y2="80" gradientUnits="userSpaceOnUse">
<stop stop-color="#1FBCCB"/>
<stop offset="1" stop-color="#1FBCCB" stop-opacity="0.08"/>
</linearGradient>
<clipPath id="clip0_987_271">
<rect width="132.5" height="80" fill="white"/>
</clipPath>
</defs>
</svg>
