<svg width="67" height="80" viewBox="0 0 67 80" fill="none" xmlns="http://www.w3.org/2000/svg">
<g clip-path="url(#clip0_987_273)">
<path fill-rule="evenodd" clip-rule="evenodd" d="M29.4893 3.54527C40.0519 -3.18603 54.6606 -0.0460301 62.0571 10.5409C63.8125 12.9977 65.0587 15.7804 65.724 18.7256C66.3894 21.6709 66.4598 24.7194 65.931 27.6922C65.4189 30.5311 64.3366 33.2366 62.7493 35.6453C65.0653 40.0627 65.8425 45.1262 64.958 50.0348C64.435 52.9491 63.3097 55.7221 61.654 58.1767C59.9983 60.6312 57.8486 62.7133 55.3423 64.2896L36.7919 76.1131C26.231 82.8453 11.6206 79.7061 4.22405 69.1183C2.46912 66.6613 1.22249 63.8786 0.557265 60.9334C-0.107959 57.9882 -0.178378 54.9398 0.350138 51.967C0.862116 49.1277 1.94482 46.4219 3.53275 44.0131C1.21613 39.5962 0.438885 34.5328 1.32405 29.6244C1.84681 26.7101 2.97194 23.9369 4.62752 21.4823C6.2831 19.0276 8.43268 16.9454 10.9388 15.3688L29.4893 3.54527ZM18.8473 69.6703C21.6757 70.7187 24.7578 70.8739 27.6773 70.1148V70.1139C29.0108 69.7575 30.2817 69.1988 31.446 68.4574L49.9964 56.6366C51.5036 55.6882 52.7963 54.4358 53.792 52.9595C54.7877 51.4832 55.4645 49.8154 55.779 48.0626C56.0968 46.275 56.0543 44.442 55.6542 42.671C55.254 40.9001 54.5041 39.2269 53.4486 37.7496C51.7292 35.2723 49.2911 33.3822 46.4635 32.3345C43.6359 31.2867 40.5549 31.1317 37.6364 31.8905C36.3026 32.2463 35.0313 32.8047 33.8669 33.5461L26.7895 38.0574C26.4372 38.2801 26.0531 38.4478 25.6503 38.5548C24.7705 38.783 23.8419 38.7357 22.9897 38.4195C22.1376 38.1032 21.403 37.5331 20.8851 36.7861C20.5676 36.3405 20.3422 35.8361 20.2218 35.3023C20.1015 34.7686 20.0887 34.2162 20.1843 33.6774C20.2791 33.1495 20.483 32.6472 20.7829 32.2025C21.0828 31.7578 21.4721 31.3806 21.926 31.0948L40.4773 19.2731C40.8294 19.0501 41.2136 18.8824 41.6164 18.7757C42.4956 18.5476 43.4235 18.5947 44.275 18.9107C45.1265 19.2267 45.8606 19.7963 46.3782 20.5426C46.9448 21.3452 47.2097 22.3221 47.126 23.3009L47.0616 23.9896L47.7521 24.1983C50.359 24.9856 52.8123 26.2126 55.006 27.8261L55.9564 28.5218L56.3069 27.4531C56.4946 26.8859 56.6433 26.3066 56.7521 25.7192C57.0696 23.9316 57.0271 22.0986 56.6269 20.3276C56.2267 18.5567 55.477 16.8835 54.4216 15.4061C52.7024 12.9277 50.2639 11.0365 47.4356 9.9881C44.6073 8.93968 41.5253 8.7845 38.606 9.54351C37.2723 9.90001 36.001 10.4587 34.8364 11.2L16.2869 23.0235C14.779 23.9706 13.4854 25.222 12.4888 26.6976C11.4921 28.1732 10.8145 29.8406 10.499 31.5931C10.1813 33.3807 10.2237 35.2137 10.6239 36.9847C11.0241 38.7556 11.7739 40.4288 12.8295 41.9061C14.5488 44.3845 16.9873 46.2755 19.8156 47.324C22.6439 48.3724 25.7258 48.5276 28.6451 47.7687C29.9786 47.4127 31.2498 46.8549 32.4147 46.1148L39.493 41.6018C39.845 41.3788 40.2292 41.211 40.6321 41.1044C41.5119 40.8761 42.4406 40.9233 43.2928 41.2396C44.1449 41.5559 44.8795 42.126 45.3973 42.8731C45.7149 43.3186 45.9407 43.823 46.0613 44.3567C46.1819 44.8905 46.1951 45.4429 46.0999 45.9818C46.0047 46.5097 45.8006 47.012 45.5006 47.4566C45.2006 47.9013 44.8112 48.2785 44.3573 48.5644L25.806 60.3913C25.4539 60.6142 25.0697 60.782 24.6669 60.8887C23.7872 61.1176 22.8585 61.0709 22.0063 60.7548C21.1541 60.4388 20.4194 59.8688 19.9016 59.1218C19.3342 58.3196 19.0693 57.3424 19.1538 56.3635L19.2173 55.6748L18.5286 55.4661C15.9215 54.6786 13.4679 53.4517 11.2738 51.8383L10.3225 51.1409L9.97382 52.2079C9.786 52.7739 9.63817 53.3531 9.53034 53.9392C9.21277 55.7268 9.25533 57.5598 9.6555 59.3307C10.0557 61.1016 10.8054 62.7748 11.8608 64.2522C13.5802 66.7307 16.0188 68.6219 18.8473 69.6703Z" fill="url(#paint0_linear_987_273)"/>
</g>
<defs>
<linearGradient id="paint0_linear_987_273" x1="33.1407" y1="0" x2="33.1407" y2="79.6592" gradientUnits="userSpaceOnUse">
<stop stop-color="#1FBCCB"/>
<stop offset="1" stop-color="#1FBCCB" stop-opacity="0.08"/>
</linearGradient>
<clipPath id="clip0_987_273">
<rect width="66.087" height="80" fill="white"/>
</clipPath>
</defs>
</svg>
