<svg width="90" height="80" viewBox="0 0 90 80" fill="none" xmlns="http://www.w3.org/2000/svg">
<path d="M77.4457 13.8181C88.7184 41.0908 77.4457 55.8181 67.9912 63.9999C70.3548 72.1817 61.0821 73.8181 57.6275 69.8181C47.2639 73.4544 26.3548 73.2726 11.2639 58.1817C3.08207 49.9999 9.4457 31.9999 30.9002 19.9999C49.4457 9.45444 67.9911 3.63626 77.4457 13.8181Z" fill="#0A140C"/>
<path d="M77.4457 13.8181C88.7184 41.0908 77.4457 55.8181 67.9912 63.9999C70.3548 72.1817 61.0821 73.8181 57.6275 69.8181C47.2639 73.4544 26.3548 73.2726 11.2639 58.1817C3.08207 49.9999 9.4457 31.9999 30.9002 19.9999C49.4457 9.45444 67.9911 3.63626 77.4457 13.8181Z" fill="url(#paint0_linear_241_199)"/>
<path d="M30.9002 19.8183C46.7184 9.45467 65.6275 5.09103 73.4457 11.8183C85.2639 22.1819 48.173 45.6365 34.3548 51.091C19.4457 57.2729 27.4457 70.9092 19.4457 70.9092C12.5366 70.9092 13.6275 61.6365 7.4457 52.9092C3.62752 47.8183 12.7184 31.8183 30.9002 19.8183Z" fill="url(#paint1_linear_241_199)" stroke="url(#paint2_linear_241_199)" stroke-width="1.81818"/>
<path d="M64.5379 13.6363C75.2652 16.5454 63.6288 26.9091 54.5379 33.4545C45.8106 39.6363 39.2652 43.2727 36.1743 44.7273C35.2652 45.0909 32.3561 39.4545 32.3561 42.3636C32.3561 43.2727 30.7197 47.6363 30.1743 47.8182C27.0834 49.0909 20.3561 50.7273 16.7197 50.7273C8.71974 50.7273 12.1743 39.6363 23.6288 29.6363C25.6288 27.8182 27.0834 28.1818 28.9016 28.1818C27.6288 26.3636 27.6288 26 29.8106 24.5454C39.447 18 51.6288 13.6363 56.7197 12.9091C57.6288 12.9091 58.5379 13.6363 58.5379 14.3636C59.8106 13.8182 63.6288 13.2727 64.5379 13.6363Z" fill="#0A140C"/>
<path d="M64.5379 13.6363C75.2652 16.5454 63.6288 26.9091 54.5379 33.4545C45.8106 39.6363 39.2652 43.2727 36.1743 44.7273C35.2652 45.0909 32.3561 39.4545 32.3561 42.3636C32.3561 43.2727 30.7197 47.6363 30.1743 47.8182C27.0834 49.0909 20.3561 50.7273 16.7197 50.7273C8.71974 50.7273 12.1743 39.6363 23.6288 29.6363C25.6288 27.8182 27.0834 28.1818 28.9016 28.1818C27.6288 26.3636 27.6288 26 29.8106 24.5454C39.447 18 51.6288 13.6363 56.7197 12.9091C57.6288 12.9091 58.5379 13.6363 58.5379 14.3636C59.8106 13.8182 63.6288 13.2727 64.5379 13.6363Z" fill="url(#paint3_linear_241_199)"/>
<path d="M31.6289 31.4546C33.9925 29.6364 35.4471 29.0909 36.538 25.6364C37.8107 26 38.538 25.4546 39.4471 24C40.1744 25.0909 43.2653 25.4546 45.0835 25.6364C43.4471 26.7273 42.7198 27.6364 41.6289 30.5455C38.3562 29.0909 34.538 29.8182 31.6289 31.4546Z" fill="white"/>
<path d="M31.6289 31.4546C33.9925 29.6364 35.4471 29.0909 36.538 25.6364C37.8107 26 38.538 25.4546 39.4471 24C40.1744 25.0909 43.2653 25.4546 45.0835 25.6364C43.4471 26.7273 42.7198 27.6364 41.6289 30.5455C38.3562 29.0909 34.538 29.8182 31.6289 31.4546Z" fill="url(#paint4_linear_241_199)"/>
<defs>
<linearGradient id="paint0_linear_241_199" x1="44.9931" y1="8.51562" x2="44.9931" y2="80.0692" gradientUnits="userSpaceOnUse">
<stop stop-color="#999999" stop-opacity="0.8"/>
<stop offset="1" stop-color="#020C0D"/>
</linearGradient>
<linearGradient id="paint1_linear_241_199" x1="41.1608" y1="8.59863" x2="41.1608" y2="78.9309" gradientUnits="userSpaceOnUse">
<stop stop-color="#999999" stop-opacity="0.8"/>
<stop offset="1" stop-color="#020C0D"/>
</linearGradient>
<linearGradient id="paint2_linear_241_199" x1="41.1608" y1="8.59863" x2="41.1608" y2="78.9309" gradientUnits="userSpaceOnUse">
<stop stop-color="#999999" stop-opacity="0.8"/>
<stop offset="1" stop-color="#020C0D"/>
</linearGradient>
<linearGradient id="paint3_linear_241_199" x1="40.603" y1="12.9091" x2="40.603" y2="55.5959" gradientUnits="userSpaceOnUse">
<stop stop-color="#999999" stop-opacity="0.8"/>
<stop offset="1" stop-color="#020C0D"/>
</linearGradient>
<linearGradient id="paint4_linear_241_199" x1="38.3562" y1="24" x2="38.3562" y2="32.4142" gradientUnits="userSpaceOnUse">
<stop stop-color="#999999" stop-opacity="0.8"/>
<stop offset="1" stop-color="#020C0D"/>
</linearGradient>
</defs>
</svg>
