<svg width="79" height="78" viewBox="0 0 79 78" fill="none" xmlns="http://www.w3.org/2000/svg">
<path d="M73.1147 4.21273C72.7431 3.28052 72.1234 2.46783 71.3227 1.8628C70.5221 1.25776 69.5711 0.883453 68.5728 0.78047C55.8731 -0.5769 43.0395 1.42354 31.3554 6.58177C19.6713 11.74 9.54604 19.8752 1.99217 30.174C1.41368 30.9653 1.0562 31.8962 0.956424 32.8713C0.856649 33.8463 1.01818 34.8304 1.42443 35.7224C6.61463 47.1215 14.659 56.9881 24.7793 64.3676C34.6368 71.5283 46.1219 76.1224 58.1986 77.7353C59.1624 77.8546 60.1407 77.7212 61.0373 77.3482C61.9286 76.9737 62.7101 76.3787 63.3083 75.6192C70.865 65.7292 75.7766 54.0764 77.5793 41.7611C79.4292 29.0703 77.889 16.1159 73.1147 4.21273ZM35.1535 15.3095C38.4951 14.1148 42.0326 13.5631 45.5793 13.6837C51.0502 13.8385 57.4502 15.1547 63.618 23.2063C63.9652 23.6662 64.1628 24.2218 64.184 24.7977C64.2052 25.3736 64.049 25.9422 63.7365 26.4264C63.424 26.9107 62.9703 27.2872 62.4368 27.5052C61.9032 27.7231 61.3156 27.7719 60.7535 27.645C60.1172 27.4954 59.552 27.1308 59.1535 26.6127C55.2825 21.5547 51.618 19.4643 45.4244 19.2837C42.6282 19.198 39.8394 19.6176 37.1922 20.5224C36.5005 20.7842 35.7337 20.763 35.0575 20.4636C34.3813 20.1641 33.8503 19.6105 33.5793 18.9224C33.309 18.2345 33.3231 17.4675 33.6183 16.79C33.9135 16.1125 34.4657 15.5799 35.1535 15.3095ZM57.4244 58.7934C54.0757 59.9577 50.5424 60.5 46.9986 60.3934C45.2957 60.363 43.6005 60.1554 41.9406 59.774C37.2954 58.716 31.9793 56.1095 27.5406 50.3031C27.1407 49.7081 26.9831 48.983 27.0998 48.2757C27.2166 47.5685 27.599 46.9325 28.1689 46.4977C28.7387 46.0629 29.4531 45.862 30.1661 45.9362C30.8791 46.0103 31.5369 46.3538 32.0051 46.8966C35.876 51.9547 40.9599 54.6127 47.1535 54.7934C49.9477 54.8796 52.7351 54.4689 55.3857 53.5805C55.728 53.4466 56.0933 53.3815 56.4608 53.3888C56.8282 53.3961 57.1906 53.4757 57.5273 53.6231C57.864 53.7705 58.1684 53.9827 58.423 54.2477C58.6777 54.5127 58.8777 54.8253 59.0115 55.1676C59.1454 55.5099 59.2105 55.8752 59.2032 56.2426C59.1959 56.6101 59.1163 56.9725 58.9689 57.3092C58.8215 57.6459 58.6093 57.9502 58.3443 58.2049C58.0793 58.4595 57.7667 58.6595 57.4244 58.7934ZM64.2631 49.8385C64.0366 50.489 63.5908 51.0404 63.0023 51.3982C62.4138 51.7561 61.7191 51.8981 61.0373 51.7998C60.8349 51.7816 60.6355 51.7382 60.4438 51.6708C60.0725 51.5405 59.7306 51.3384 59.4376 51.0759C59.1446 50.8133 58.9061 50.4956 58.736 50.1409C58.5658 49.7862 58.4672 49.4014 58.4459 49.0086C58.4245 48.6157 58.4808 48.2225 58.6115 47.8514C59.5664 45.2192 58.6889 44.0063 58.4051 43.5934C56.0825 40.3676 48.2631 40.0579 45.0115 40.0837C37.0373 40.1611 31.6696 38.1998 29.1148 34.2772C26.5599 30.3547 27.5406 26.174 28.4438 24.1353C28.794 23.4608 29.3877 22.9448 30.1044 22.6919C30.8211 22.4391 31.6071 22.4682 32.3031 22.7735C32.999 23.0788 33.5528 23.6374 33.8521 24.336C34.1514 25.0346 34.1738 25.8208 33.9147 26.5353C33.8889 26.6385 32.8825 29.1676 34.1212 31.0256C35.3599 32.8837 39.3341 34.1482 44.9599 34.1224C54.2244 34.045 60.3664 36.0837 63.2825 40.1353C65.1922 42.8192 65.5535 46.1998 64.2631 49.8385Z" fill="url(#paint0_linear_241_119)"/>
<defs>
<linearGradient id="paint0_linear_241_119" x1="39.6337" y1="0.367273" x2="39.6337" y2="87.7434" gradientUnits="userSpaceOnUse">
<stop stop-color="#999999" stop-opacity="0.8"/>
<stop offset="1" stop-color="#020C0D"/>
</linearGradient>
</defs>
</svg>
