<svg width="63" height="80" viewBox="0 0 63 80" fill="none" xmlns="http://www.w3.org/2000/svg">
<path fill-rule="evenodd" clip-rule="evenodd" d="M21.4926 46.5062C10.8046 46.5062 0.146484 51.6854 0.146484 51.6854C0.146484 51.6854 18.2484 2.48806 18.2874 2.39122C18.8425 0.936737 19.6842 -1.71661e-05 20.8668 -1.71661e-05H42.5909C43.7735 -1.71661e-05 44.6507 0.936737 45.1703 2.39122C45.2057 2.48993 63.3094 51.6854 63.3094 51.6854C63.3094 51.6854 54.6216 46.5062 41.9634 46.5062L33.9051 21.6291C33.6033 20.4261 32.7225 19.6085 31.728 19.6085C30.7335 19.6085 29.8526 20.4261 29.5509 21.6291L21.4926 46.5062ZM20.6866 67.6887C20.6876 67.6896 20.6887 67.6906 20.6897 67.6916L20.6863 67.6897C20.6864 67.6894 20.6865 67.689 20.6866 67.6887ZM17.5392 52.5177C16.0401 57.5122 17.0898 64.4055 20.6866 67.6887C20.7028 67.6283 20.719 67.5708 20.7347 67.5152C20.7671 67.4002 20.7973 67.2933 20.8204 67.1857C21.271 65.0997 22.97 63.7751 25.118 63.8377C27.2108 63.8986 28.3217 64.9554 28.6451 67.3161C28.7649 68.1925 28.7762 69.0876 28.7875 69.9779C28.7887 70.0711 28.7899 70.1642 28.7912 70.2572C28.8187 72.2755 29.3415 74.1407 30.4404 75.8269C31.4808 77.4244 32.8463 78.6394 34.7155 79.4739C34.6964 79.4091 34.6803 79.3542 34.6663 79.3067C34.6262 79.1705 34.6039 79.0944 34.5796 79.0185C33.2039 74.8082 34.1944 71.914 37.8557 69.4455C38.2276 69.1948 38.6024 68.9483 38.9771 68.7017C39.803 68.1583 40.6285 67.6152 41.4223 67.0292C44.3079 64.8998 46.1222 62.0907 46.5487 58.4541C46.7241 56.9608 46.5934 55.4937 46.0912 54.0405C45.8776 54.1699 45.6744 54.2987 45.477 54.4239C45.0561 54.6908 44.661 54.9414 44.2443 55.1461C38.8926 57.7727 33.2348 58.0978 27.4739 57.2286C23.7422 56.6653 20.1394 55.6676 17.5392 52.5177Z" fill="url(#paint0_linear_241_126)"/>
<defs>
<linearGradient id="paint0_linear_241_126" x1="31.728" y1="-1.71661e-05" x2="31.728" y2="89.7052" gradientUnits="userSpaceOnUse">
<stop stop-color="#999999" stop-opacity="0.8"/>
<stop offset="1" stop-color="#020C0D"/>
</linearGradient>
</defs>
</svg>
