<svg width="121" height="80" viewBox="0 0 121 80" fill="none" xmlns="http://www.w3.org/2000/svg">
<path d="M67.6103 80H112.219C113.636 80 115.028 79.6304 116.255 78.9284C117.48 78.2285 118.499 77.2185 119.209 76C119.917 74.7856 120.289 73.4051 120.289 71.9996C120.288 70.5941 119.914 69.2141 119.205 68.0004L89.2475 16.5716C88.5369 15.3533 87.5183 14.3435 86.2939 13.6436C85.0651 12.941 83.6741 12.5716 82.2587 12.572C80.8423 12.572 79.4507 12.942 78.2239 13.644C76.9994 14.3438 75.9807 15.3536 75.2703 16.572L67.6103 29.7304L52.6331 3.99918C51.9222 2.78071 50.9032 1.77086 49.6783 1.07118C48.4493 0.368834 47.0582 -0.000413749 45.6427 -1.68465e-05C44.2259 -1.68465e-05 42.8339 0.369583 41.6067 1.07158C40.3819 1.77123 39.3628 2.78092 38.6519 3.99918L1.37266 68C0.663861 69.2138 0.289931 70.594 0.289064 71.9996C0.288264 73.404 0.661064 74.7836 1.36906 76C2.07967 77.2184 3.09847 78.2284 4.32306 78.9284C5.55213 79.6309 6.94337 80.0003 8.35906 80H36.3607C47.4555 80 55.6375 75.17 61.2671 65.7468L74.9355 42.286L82.2567 29.7304L104.229 67.4444H74.9355L67.6103 80ZM35.9043 67.4316L16.3627 67.4272L45.6555 17.1448L60.2719 42.286L50.4855 59.09C46.7467 65.204 42.4995 67.4316 35.9043 67.4316Z" fill="url(#paint0_linear_241_141)"/>
<defs>
<linearGradient id="paint0_linear_241_141" x1="60.2891" y1="-1.71661e-05" x2="60.2891" y2="90.299" gradientUnits="userSpaceOnUse">
<stop stop-color="#999999" stop-opacity="0.8"/>
<stop offset="1" stop-color="#020C0D"/>
</linearGradient>
</defs>
</svg>
