<svg width="71" height="76" viewBox="0 0 71 76" fill="none" xmlns="http://www.w3.org/2000/svg">
<path fill-rule="evenodd" clip-rule="evenodd" d="M68.8172 38.0149C70.7509 34.0286 71.4412 30.5406 69.5349 27.0435L66.8241 22.0515L65.416 19.4915L64.8675 18.4858L64.8218 18.5498L57.4389 5.74976C56.5268 4.15842 55.2068 2.83914 53.6149 1.92791C52.0231 1.01668 50.217 0.546468 48.3829 0.565756L41.9098 0.748614L22.5955 0.798899C20.8024 0.812245 19.0434 1.29061 17.4906 2.18724C15.9377 3.08387 14.644 4.36807 13.7361 5.91433L2.00119 29.2286L2.07719 29.134C1.18589 30.509 0.61379 32.0766 0.415583 33.7211C0.13527 36.0469 0.617961 38.4008 1.79101 40.4286L14.0516 60.7669C15.9259 63.8846 18.8699 65.8868 22.9796 65.7406C31.6653 65.4343 35.5053 65.4343 35.5053 65.4343L62.1667 75.3963L62.1887 75.4183V75.4046L62.1667 75.3963L60.8147 74.049L62.0515 75.2538C62.1456 75.3517 62.2718 75.4126 62.407 75.4253C62.5423 75.4381 62.6776 75.4018 62.7884 75.3232C62.8991 75.2445 62.978 75.1287 63.0105 74.9968C63.0431 74.865 63.0272 74.7258 62.9658 74.6046L56.1086 61.0869L68.8172 38.0149ZM23.0023 3.09376L9.09496 20.4008L22.9522 3.21257L23.9802 9.10519L26.92 26.7782L19.8892 33.5988L48.5154 62.0468L48.4949 61.8582L48.5438 61.9066L48.1878 59.0454L45.9372 38.4308L50.6229 33.3245V33.3108L33.0553 14.1475L23.0023 3.09376ZM48.6024 62.1017V62.0427L48.6069 62.0378V62.101L48.6024 62.1017Z" fill="black"/>
<path fill-rule="evenodd" clip-rule="evenodd" d="M68.8172 38.0149C70.7509 34.0286 71.4412 30.5406 69.5349 27.0435L66.8241 22.0515L65.416 19.4915L64.8675 18.4858L64.8218 18.5498L57.4389 5.74976C56.5268 4.15842 55.2068 2.83914 53.6149 1.92791C52.0231 1.01668 50.217 0.546468 48.3829 0.565756L41.9098 0.748614L22.5955 0.798899C20.8024 0.812245 19.0434 1.29061 17.4906 2.18724C15.9377 3.08387 14.644 4.36807 13.7361 5.91433L2.00119 29.2286L2.07719 29.134C1.18589 30.509 0.61379 32.0766 0.415583 33.7211C0.13527 36.0469 0.617961 38.4008 1.79101 40.4286L14.0516 60.7669C15.9259 63.8846 18.8699 65.8868 22.9796 65.7406C31.6653 65.4343 35.5053 65.4343 35.5053 65.4343L62.1667 75.3963L62.1887 75.4183V75.4046L62.1667 75.3963L60.8147 74.049L62.0515 75.2538C62.1456 75.3517 62.2718 75.4126 62.407 75.4253C62.5423 75.4381 62.6776 75.4018 62.7884 75.3232C62.8991 75.2445 62.978 75.1287 63.0105 74.9968C63.0431 74.865 63.0272 74.7258 62.9658 74.6046L56.1086 61.0869L68.8172 38.0149ZM23.0023 3.09376L9.09496 20.4008L22.9522 3.21257L23.9802 9.10519L26.92 26.7782L19.8892 33.5988L48.5154 62.0468L48.4949 61.8582L48.5438 61.9066L48.1878 59.0454L45.9372 38.4308L50.6229 33.3245V33.3108L33.0553 14.1475L23.0023 3.09376ZM48.6024 62.1017V62.0427L48.6069 62.0378V62.101L48.6024 62.1017Z" fill="url(#paint0_linear_241_174)"/>
<defs>
<linearGradient id="paint0_linear_241_174" x1="35.5007" y1="0.565186" x2="35.5007" y2="85.0655" gradientUnits="userSpaceOnUse">
<stop stop-color="#999999" stop-opacity="0.8"/>
<stop offset="1" stop-color="#020C0D"/>
</linearGradient>
</defs>
</svg>
