<svg width="63" height="71" viewBox="0 0 63 71" fill="none" xmlns="http://www.w3.org/2000/svg">
<path fill-rule="evenodd" clip-rule="evenodd" d="M62.0705 22.2402V46.0947L62.0664 46.0945V48.8925C62.0664 52.1979 60.2772 55.2438 57.3894 56.8535C54.8245 58.2822 51.4645 60.1535 47.9884 62.0895C43.2136 64.7487 38.2199 67.5299 34.7669 69.4535C32.0177 70.9846 28.6635 70.9501 25.9474 69.3618L5.51424 57.418C2.15619 55.4549 0.0917969 51.8572 0.0917969 47.9669V23.5431C0.0917969 19.6211 2.12497 15.9801 5.4635 13.9216C10.759 10.6557 18.8364 5.67504 24.3391 2.28202L25.0713 1.83051C28.3084 -0.165589 32.3825 -0.208906 35.6625 1.71734C41.8729 5.36651 52.0134 11.3246 57.7533 14.6968C60.4276 16.2683 62.0705 19.1382 62.0705 22.2402ZM15.5946 15.0382V55.4714H24.0539V37.7922H38.0863V55.4714H46.5702V15.0382H38.0863V29.766H24.0539V15.0382H15.5946Z" fill="url(#paint0_linear_241_161)"/>
<defs>
<linearGradient id="paint0_linear_241_161" x1="31.0812" y1="0.30246" x2="31.0812" y2="79.625" gradientUnits="userSpaceOnUse">
<stop stop-color="#999999" stop-opacity="0.8"/>
<stop offset="1" stop-color="#020C0D"/>
</linearGradient>
</defs>
</svg>
