<svg width="67" height="80" viewBox="0 0 67 80" fill="none" xmlns="http://www.w3.org/2000/svg">
<path fill-rule="evenodd" clip-rule="evenodd" d="M29.9854 3.54527C40.548 -3.18603 55.1567 -0.0460301 62.5532 10.5409C64.3086 12.9977 65.5547 15.7804 66.2201 18.7256C66.8855 21.6709 66.9559 24.7194 66.4271 27.6922C65.915 30.5311 64.8326 33.2366 63.2454 35.6453C65.5614 40.0627 66.3386 45.1262 65.4541 50.0348C64.9311 52.9491 63.8058 55.7221 62.1501 58.1767C60.4944 60.6312 58.3447 62.7133 55.8384 64.2896L37.288 76.1131C26.7271 82.8453 12.1167 79.7061 4.72014 69.1183C2.96522 66.6613 1.71858 63.8786 1.05336 60.9334C0.388135 57.9882 0.317716 54.9398 0.846231 51.967C1.35821 49.1277 2.44092 46.4219 4.02884 44.0131C1.71222 39.5962 0.934979 34.5328 1.82014 29.6244C2.3429 26.7101 3.46804 23.9369 5.12361 21.4823C6.77919 19.0276 8.92877 16.9454 11.4349 15.3688L29.9854 3.54527ZM19.3434 69.6703C22.1718 70.7187 25.2539 70.8739 28.1734 70.1148V70.1139C29.5069 69.7575 30.7778 69.1988 31.9421 68.4574L50.4925 56.6366C51.9997 55.6882 53.2924 54.4358 54.2881 52.9595C55.2838 51.4832 55.9606 49.8154 56.2751 48.0626C56.5929 46.275 56.5504 44.442 56.1503 42.671C55.7501 40.9001 55.0002 39.2269 53.9447 37.7496C52.2253 35.2723 49.7872 33.3822 46.9596 32.3345C44.132 31.2867 41.051 31.1317 38.1325 31.8905C36.7987 32.2463 35.5274 32.8047 34.363 33.5461L27.2856 38.0574C26.9333 38.2801 26.5492 38.4478 26.1464 38.5548C25.2666 38.783 24.338 38.7357 23.4858 38.4195C22.6337 38.1032 21.8991 37.5331 21.3812 36.7861C21.0637 36.3405 20.8382 35.8361 20.7179 35.3023C20.5976 34.7686 20.5848 34.2162 20.6803 33.6774C20.7752 33.1495 20.9791 32.6472 21.279 32.2025C21.5789 31.7578 21.9682 31.3806 22.4221 31.0948L40.9734 19.2731C41.3255 19.0501 41.7097 18.8824 42.1125 18.7757C42.9917 18.5476 43.9196 18.5947 44.7711 18.9107C45.6226 19.2267 46.3567 19.7963 46.8743 20.5426C47.4409 21.3452 47.7057 22.3221 47.6221 23.3009L47.5577 23.9896L48.2482 24.1983C50.8551 24.9856 53.3084 26.2126 55.5021 27.8261L56.4525 28.5218L56.803 27.4531C56.9907 26.8859 57.1394 26.3066 57.2482 25.7192C57.5657 23.9316 57.5232 22.0986 57.123 20.3276C56.7228 18.5567 55.9731 16.8835 54.9177 15.4061C53.1985 12.9277 50.76 11.0365 47.9317 9.9881C45.1034 8.93968 42.0214 8.7845 39.1021 9.54351C37.7684 9.90001 36.4971 10.4587 35.3325 11.2L16.783 23.0235C15.2751 23.9706 13.9815 25.222 12.9849 26.6976C11.9882 28.1732 11.3105 29.8406 10.9951 31.5931C10.6774 33.3807 10.7198 35.2137 11.12 36.9847C11.5202 38.7556 12.27 40.4288 13.3256 41.9061C15.0449 44.3845 17.4834 46.2755 20.3117 47.324C23.14 48.3724 26.2219 48.5276 29.1412 47.7687C30.4747 47.4127 31.7458 46.8549 32.9108 46.1148L39.989 41.6018C40.3411 41.3788 40.7253 41.211 41.1282 41.1044C42.008 40.8761 42.9367 40.9233 43.7888 41.2396C44.641 41.5559 45.3756 42.126 45.8934 42.8731C46.211 43.3186 46.4368 43.823 46.5574 44.3567C46.678 44.8905 46.6912 45.4429 46.596 45.9818C46.5008 46.5097 46.2967 47.012 45.9967 47.4566C45.6967 47.9013 45.3073 48.2785 44.8534 48.5644L26.3021 60.3913C25.95 60.6142 25.5658 60.782 25.163 60.8887C24.2833 61.1176 23.3546 61.0709 22.5024 60.7548C21.6502 60.4388 20.9155 59.8688 20.3977 59.1218C19.8303 58.3196 19.5653 57.3424 19.6499 56.3635L19.7134 55.6748L19.0247 55.4661C16.4175 54.6786 13.964 53.4517 11.7699 51.8383L10.8186 51.1409L10.4699 52.2079C10.2821 52.7739 10.1343 53.3531 10.0264 53.9392C9.70887 55.7268 9.75142 57.5598 10.1516 59.3307C10.5518 61.1016 11.3015 62.7748 12.3569 64.2522C14.0763 66.7307 16.5149 68.6219 19.3434 69.6703Z" fill="black"/>
<path fill-rule="evenodd" clip-rule="evenodd" d="M29.9854 3.54527C40.548 -3.18603 55.1567 -0.0460301 62.5532 10.5409C64.3086 12.9977 65.5547 15.7804 66.2201 18.7256C66.8855 21.6709 66.9559 24.7194 66.4271 27.6922C65.915 30.5311 64.8326 33.2366 63.2454 35.6453C65.5614 40.0627 66.3386 45.1262 65.4541 50.0348C64.9311 52.9491 63.8058 55.7221 62.1501 58.1767C60.4944 60.6312 58.3447 62.7133 55.8384 64.2896L37.288 76.1131C26.7271 82.8453 12.1167 79.7061 4.72014 69.1183C2.96522 66.6613 1.71858 63.8786 1.05336 60.9334C0.388135 57.9882 0.317716 54.9398 0.846231 51.967C1.35821 49.1277 2.44092 46.4219 4.02884 44.0131C1.71222 39.5962 0.934979 34.5328 1.82014 29.6244C2.3429 26.7101 3.46804 23.9369 5.12361 21.4823C6.77919 19.0276 8.92877 16.9454 11.4349 15.3688L29.9854 3.54527ZM19.3434 69.6703C22.1718 70.7187 25.2539 70.8739 28.1734 70.1148V70.1139C29.5069 69.7575 30.7778 69.1988 31.9421 68.4574L50.4925 56.6366C51.9997 55.6882 53.2924 54.4358 54.2881 52.9595C55.2838 51.4832 55.9606 49.8154 56.2751 48.0626C56.5929 46.275 56.5504 44.442 56.1503 42.671C55.7501 40.9001 55.0002 39.2269 53.9447 37.7496C52.2253 35.2723 49.7872 33.3822 46.9596 32.3345C44.132 31.2867 41.051 31.1317 38.1325 31.8905C36.7987 32.2463 35.5274 32.8047 34.363 33.5461L27.2856 38.0574C26.9333 38.2801 26.5492 38.4478 26.1464 38.5548C25.2666 38.783 24.338 38.7357 23.4858 38.4195C22.6337 38.1032 21.8991 37.5331 21.3812 36.7861C21.0637 36.3405 20.8382 35.8361 20.7179 35.3023C20.5976 34.7686 20.5848 34.2162 20.6803 33.6774C20.7752 33.1495 20.9791 32.6472 21.279 32.2025C21.5789 31.7578 21.9682 31.3806 22.4221 31.0948L40.9734 19.2731C41.3255 19.0501 41.7097 18.8824 42.1125 18.7757C42.9917 18.5476 43.9196 18.5947 44.7711 18.9107C45.6226 19.2267 46.3567 19.7963 46.8743 20.5426C47.4409 21.3452 47.7057 22.3221 47.6221 23.3009L47.5577 23.9896L48.2482 24.1983C50.8551 24.9856 53.3084 26.2126 55.5021 27.8261L56.4525 28.5218L56.803 27.4531C56.9907 26.8859 57.1394 26.3066 57.2482 25.7192C57.5657 23.9316 57.5232 22.0986 57.123 20.3276C56.7228 18.5567 55.9731 16.8835 54.9177 15.4061C53.1985 12.9277 50.76 11.0365 47.9317 9.9881C45.1034 8.93968 42.0214 8.7845 39.1021 9.54351C37.7684 9.90001 36.4971 10.4587 35.3325 11.2L16.783 23.0235C15.2751 23.9706 13.9815 25.222 12.9849 26.6976C11.9882 28.1732 11.3105 29.8406 10.9951 31.5931C10.6774 33.3807 10.7198 35.2137 11.12 36.9847C11.5202 38.7556 12.27 40.4288 13.3256 41.9061C15.0449 44.3845 17.4834 46.2755 20.3117 47.324C23.14 48.3724 26.2219 48.5276 29.1412 47.7687C30.4747 47.4127 31.7458 46.8549 32.9108 46.1148L39.989 41.6018C40.3411 41.3788 40.7253 41.211 41.1282 41.1044C42.008 40.8761 42.9367 40.9233 43.7888 41.2396C44.641 41.5559 45.3756 42.126 45.8934 42.8731C46.211 43.3186 46.4368 43.823 46.5574 44.3567C46.678 44.8905 46.6912 45.4429 46.596 45.9818C46.5008 46.5097 46.2967 47.012 45.9967 47.4566C45.6967 47.9013 45.3073 48.2785 44.8534 48.5644L26.3021 60.3913C25.95 60.6142 25.5658 60.782 25.163 60.8887C24.2833 61.1176 23.3546 61.0709 22.5024 60.7548C21.6502 60.4388 20.9155 59.8688 20.3977 59.1218C19.8303 58.3196 19.5653 57.3424 19.6499 56.3635L19.7134 55.6748L19.0247 55.4661C16.4175 54.6786 13.964 53.4517 11.7699 51.8383L10.8186 51.1409L10.4699 52.2079C10.2821 52.7739 10.1343 53.3531 10.0264 53.9392C9.70887 55.7268 9.75142 57.5598 10.1516 59.3307C10.5518 61.1016 11.3015 62.7748 12.3569 64.2522C14.0763 66.7307 16.5149 68.6219 19.3434 69.6703Z" fill="url(#paint0_linear_241_189)"/>
<defs>
<linearGradient id="paint0_linear_241_189" x1="33.6368" y1="0" x2="33.6368" y2="89.9144" gradientUnits="userSpaceOnUse">
<stop stop-color="#999999" stop-opacity="0.8"/>
<stop offset="1" stop-color="#020C0D"/>
</linearGradient>
</defs>
</svg>
