<svg width="107" height="65" viewBox="0 0 107 65" fill="none" xmlns="http://www.w3.org/2000/svg">
<path d="M26.1631 17.3021H25.9419V17.5234V47.1279V47.3491H26.1631H46.193H46.4142V47.1279V45.5523V45.331H46.193H28.2015V32.7542H44.9127H45.134V32.5329V30.9574V30.7361H44.9127H28.2015V19.3202H45.9865H46.2077V19.099V17.5234V17.3021H45.9865H26.1631ZM47.7623 17.3021H47.3312L47.5825 17.6524L57.814 31.9101L46.84 46.9977L46.5844 47.3491H47.0189H49.1665H49.2794L49.3456 47.2577L59.2017 33.6568L69.0169 47.2573L69.0831 47.3491H69.1963H71.3851H71.8177L71.5645 46.9984L60.6704 31.9081L81.9001 1.11144L81.5439 0.849285L68.568 17.3868L68.5679 17.3867L68.5636 17.3926L59.204 30.1657L50.0484 17.3945L49.9822 17.3021H49.8685H47.7623ZM71.9485 19.099V19.3202H72.1698H82.3145V47.1279V47.3491H82.5358H84.3529H84.5742V47.1279V19.3202H94.7602H94.9814V19.099V17.5234V17.3021H94.7602H72.1698H71.9485V17.5234V19.099ZM1.36328 17.3021H1.14203V17.5234V47.1279V47.3491H1.36328H3.18042H3.40101L3.40168 47.1285L3.48213 20.4736L21.8301 47.2529L21.8299 47.253L21.8356 47.2606L34.7793 64.526L35.1403 64.2703L3.81867 17.4005L3.75296 17.3021H3.63471H1.36328ZM96.3626 43.1208H96.1414V43.342C96.1414 43.9466 96.3608 44.4611 96.7521 44.8232C97.1418 45.1838 97.6849 45.3777 98.3073 45.3777C98.9662 45.3777 99.5213 45.1786 99.9115 44.7816C100.301 44.385 100.5 43.818 100.5 43.134V38.6156V38.3944H100.278H99.2885H99.0672V38.6156V43.1296C99.0672 43.4514 98.9864 43.6637 98.8672 43.794C98.7508 43.9212 98.5693 44.0014 98.2985 44.0014C98.062 44.0014 97.8805 43.928 97.759 43.8167C97.6385 43.7064 97.5614 43.5449 97.5562 43.3364L97.5507 43.1208H97.335H96.3626ZM101.573 43.0632H101.338L101.353 43.2982C101.392 43.9321 101.678 44.4594 102.152 44.8241C102.623 45.1858 103.265 45.3777 104.009 45.3777C104.799 45.3777 105.468 45.1776 105.943 44.793C106.424 44.4042 106.687 43.8425 106.687 43.1694C106.687 42.6433 106.537 42.2083 106.187 41.867C105.847 41.535 105.339 41.3139 104.67 41.1576C104.67 41.1574 104.669 41.1573 104.669 41.1572L103.969 40.9852L103.966 40.9847C103.559 40.8892 103.306 40.784 103.157 40.6678C103.023 40.5635 102.97 40.4489 102.97 40.2884C102.97 40.0759 103.063 39.9028 103.238 39.7759C103.418 39.6447 103.694 39.5582 104.053 39.5582C104.723 39.5582 105.112 39.8786 105.182 40.3273L105.212 40.5141H105.401H106.364H106.598L106.585 40.2811C106.52 39.0553 105.443 38.2395 104.066 38.2395C103.332 38.2395 102.698 38.4391 102.244 38.8099C101.786 39.1838 101.525 39.7207 101.525 40.3548C101.525 40.8685 101.67 41.3011 101.993 41.6406C102.309 41.9743 102.776 42.1957 103.374 42.3358C103.374 42.3359 103.375 42.336 103.375 42.336L104.195 42.5348L104.197 42.5351C104.608 42.6322 104.874 42.7457 105.033 42.8736C105.18 42.9911 105.242 43.1228 105.242 43.2978C105.242 43.4968 105.141 43.6786 104.944 43.8186C104.743 43.9606 104.446 44.0545 104.084 44.0545C103.282 44.0545 102.836 43.7009 102.774 43.2541L102.747 43.0632H102.555H101.573ZM93.7061 44.4174C93.7061 44.9071 94.0794 45.298 94.5771 45.298C95.0801 45.298 95.448 44.9061 95.448 44.4174C95.448 43.9287 95.0801 43.5367 94.5771 43.5367C94.0794 43.5367 93.7061 43.9277 93.7061 44.4174Z" fill="url(#paint0_linear_241_225)" stroke="url(#paint1_linear_241_225)" stroke-width="0.44251"/>
<defs>
<linearGradient id="paint0_linear_241_225" x1="53.9147" y1="0.985865" x2="53.9147" y2="72.5562" gradientUnits="userSpaceOnUse">
<stop stop-color="#999999" stop-opacity="0.8"/>
<stop offset="1" stop-color="#020C0D"/>
</linearGradient>
<linearGradient id="paint1_linear_241_225" x1="53.9147" y1="0.985865" x2="53.9147" y2="72.5562" gradientUnits="userSpaceOnUse">
<stop stop-color="#999999" stop-opacity="0.8"/>
<stop offset="1" stop-color="#020C0D"/>
</linearGradient>
</defs>
</svg>
