<svg width="87" height="80" viewBox="0 0 87 80" fill="none" xmlns="http://www.w3.org/2000/svg">
<path fill-rule="evenodd" clip-rule="evenodd" d="M36.0646 0.765702C58.1903 -4.26287 86.7046 17.2571 86.7046 17.2571L77.0017 33.4171L76.8051 33.3787C76.8897 33.4414 76.933 33.4742 76.933 33.4742L66.3976 36.8896C68.1205 38.1511 69.6209 39.6372 70.7959 41.3143L70.7388 41.2686C73.8245 45.6001 74.0416 50.2401 71.8816 54.0343L61.6359 72.2538C60.1909 75.203 57.3298 77.6326 53.2645 78.9483C52.6267 79.1612 51.9782 79.3405 51.3216 79.4855C29.3066 84.5018 0.820303 63.0984 0.682145 62.9944L0.681641 62.9943L0.681756 62.9941C0.681679 62.9941 0.681641 62.994 0.681641 62.994L0.681842 62.994L11.2874 44.0686L21.8162 40.6647C20.1151 39.4158 18.6333 37.9458 17.4701 36.2856C13.9384 31.2448 14.2403 25.7273 17.6406 21.7985L17.6189 21.7943L25.7903 7.93142C26.0379 7.46854 26.3087 7.01845 26.6017 6.58284C28.448 4.03207 31.0955 2.1732 34.1217 1.30284C34.7595 1.09002 35.408 0.910729 36.0646 0.765702Z" fill="url(#paint0_linear_241_97)"/>
<defs>
<linearGradient id="paint0_linear_241_97" x1="43.6931" y1="0.00414085" x2="43.6931" y2="90.5774" gradientUnits="userSpaceOnUse">
<stop stop-color="#999999" stop-opacity="0.8"/>
<stop offset="1" stop-color="#020C0D"/>
</linearGradient>
</defs>
</svg>
