<svg width="81" height="80" viewBox="0 0 81 80" fill="none" xmlns="http://www.w3.org/2000/svg">
<path d="M40.5391 0C18.5391 0 0.539062 18 0.539062 40C0.539062 62 18.5391 80 40.5391 80C62.5391 80 80.5391 62 80.5391 40C80.5391 18 62.5391 0 40.5391 0ZM18.2533 62.2857C12.2533 56.2857 9.11049 48.2857 9.11049 40.5714L40.2533 71.4286C32.2533 71.1429 24.2533 68.2857 18.2533 62.2857ZM47.3962 70.5714L9.96763 33.1429C13.1105 19.1429 25.6819 8.57143 40.5391 8.57143C51.1105 8.57143 60.2533 13.7143 65.9676 21.4286L61.6819 25.1429C56.8248 18.5714 49.1105 14.2857 40.5391 14.2857C29.3962 14.2857 19.9676 21.4286 16.2533 31.4286L49.1105 64.2857C57.3962 61.4286 63.6819 54.2857 65.6819 45.7143H51.9676V40H71.9676C71.9676 54.8571 61.3962 67.4286 47.3962 70.5714Z" fill="url(#paint0_linear_241_234)"/>
<defs>
<linearGradient id="paint0_linear_241_234" x1="40.5391" y1="0" x2="40.5391" y2="90.299" gradientUnits="userSpaceOnUse">
<stop stop-color="#999999" stop-opacity="0.8"/>
<stop offset="1" stop-color="#020C0D"/>
</linearGradient>
</defs>
</svg>
