<svg width="69" height="80" viewBox="0 0 69 80" fill="none" xmlns="http://www.w3.org/2000/svg">
<path fill-rule="evenodd" clip-rule="evenodd" d="M66.3186 79.1676C66.3186 74.4872 66.3186 70.1995 65.6119 61.0525C64.7371 51.8632 59.9896 47.2056 51.8683 45.569C61.4889 44.3101 68.6106 36.7574 68.6106 25.1763C68.6106 9.69289 58.4902 -1.71661e-05 38.1246 -1.71661e-05H0.345703V16.1363H34.3767C43.3724 16.1363 47.87 20.0271 47.87 26.4469C47.87 33.7479 43.3724 36.5058 34.3767 36.5058H0.345703V52.9961H27.0674H33.3771C40.4988 52.9961 44.3719 55.0103 44.9965 64.0735C45.469 70.2628 45.4098 73.3283 45.3531 76.2673L45.353 76.2697L45.3523 76.3063C45.3345 77.2396 45.3169 78.1611 45.3169 79.1677H66.3186V79.1676ZM0.345703 66.8744V79.1678H27.0666V71.2998C27.0666 69.6469 26.2614 66.8744 22.5522 66.8744H0.345703Z" fill="black"/>
<path fill-rule="evenodd" clip-rule="evenodd" d="M66.3186 79.1676C66.3186 74.4872 66.3186 70.1995 65.6119 61.0525C64.7371 51.8632 59.9896 47.2056 51.8683 45.569C61.4889 44.3101 68.6106 36.7574 68.6106 25.1763C68.6106 9.69289 58.4902 -1.71661e-05 38.1246 -1.71661e-05H0.345703V16.1363H34.3767C43.3724 16.1363 47.87 20.0271 47.87 26.4469C47.87 33.7479 43.3724 36.5058 34.3767 36.5058H0.345703V52.9961H27.0674H33.3771C40.4988 52.9961 44.3719 55.0103 44.9965 64.0735C45.469 70.2628 45.4098 73.3283 45.3531 76.2673L45.353 76.2697L45.3523 76.3063C45.3345 77.2396 45.3169 78.1611 45.3169 79.1677H66.3186V79.1676ZM0.345703 66.8744V79.1678H27.0666V71.2998C27.0666 69.6469 26.2614 66.8744 22.5522 66.8744H0.345703Z" fill="url(#paint0_linear_241_148)"/>
<defs>
<linearGradient id="paint0_linear_241_148" x1="34.4782" y1="-1.71661e-05" x2="34.4782" y2="89.3597" gradientUnits="userSpaceOnUse">
<stop stop-color="#999999" stop-opacity="0.8"/>
<stop offset="1" stop-color="#020C0D"/>
</linearGradient>
</defs>
</svg>
