<svg width="71" height="64" viewBox="0 0 71 64" fill="none" xmlns="http://www.w3.org/2000/svg">
<path d="M70.6416 32.0071C70.6416 27.3561 64.8172 22.9484 55.8873 20.2151C57.9481 11.1135 57.0322 3.87234 52.9966 1.55401C52.0664 1.01021 50.9788 0.752618 49.791 0.752618V3.94389C50.4493 3.94389 50.9788 4.07269 51.4224 4.31597C53.3686 5.4322 54.213 9.68246 53.5547 15.1491C53.3973 16.4943 53.1397 17.9111 52.8248 19.3564C50.02 18.6695 46.9575 18.14 43.7376 17.7966C41.8057 15.1491 39.8022 12.7449 37.7844 10.6413C42.4496 6.30515 46.8287 3.92958 49.8053 3.92958V0.738308C45.8699 0.738308 40.718 3.54319 35.509 8.40881C30.2999 3.57182 25.1481 0.795551 21.2126 0.795551V3.98682C24.1749 3.98682 28.5683 6.34808 33.2336 10.6556C31.2301 12.7592 29.2266 15.1491 27.3233 17.7966C24.0891 18.14 21.0266 18.6695 18.2217 19.3708C17.8926 17.9397 17.6493 16.5516 17.4776 15.2207C16.805 9.75401 17.635 5.50375 19.5669 4.37321C19.9962 4.11562 20.5544 4.00113 21.2126 4.00113V0.809861C20.0105 0.809861 18.9229 1.06745 17.9784 1.61126C13.9571 3.92958 13.0556 11.1565 15.1306 20.2294C6.2294 22.977 0.433594 27.3704 0.433594 32.0071C0.433594 36.658 6.25802 41.0657 15.1879 43.799C13.1271 52.9006 14.043 60.1418 18.0786 62.4601C19.0088 63.0039 20.0964 63.2615 21.2985 63.2615C25.2339 63.2615 30.3858 60.4566 35.5948 55.591C40.8039 60.428 45.9557 63.2042 49.8912 63.2042C51.0933 63.2042 52.1809 62.9467 53.1254 62.4028C57.1467 60.0845 58.0482 52.8577 55.9732 43.7847C64.8458 41.0514 70.6416 36.6437 70.6416 32.0071ZM52.0091 22.4619C51.4796 24.3079 50.8214 26.2112 50.0772 28.1146C49.4905 26.9697 48.8751 25.8249 48.2025 24.68C47.5442 23.5352 46.843 22.4189 46.1418 21.3313C48.1739 21.6318 50.1344 22.0039 52.0091 22.4619ZM45.4549 37.7027C44.3386 39.6346 43.1938 41.4664 42.006 43.1693C39.8737 43.3554 37.7128 43.4556 35.5376 43.4556C33.3767 43.4556 31.2158 43.3554 29.0978 43.1837C27.91 41.4807 26.7509 39.6632 25.6346 37.7456C24.547 35.8709 23.5596 33.9676 22.658 32.05C23.5453 30.1324 24.547 28.2147 25.6203 26.34C26.7366 24.4081 27.8814 22.5763 29.0692 20.8734C31.2015 20.6873 33.3624 20.5872 35.5376 20.5872C37.6985 20.5872 39.8594 20.6873 41.9774 20.8591C43.1652 22.562 44.3243 24.3795 45.4406 26.2971C46.5282 28.1718 47.5156 30.0751 48.4172 31.9927C47.5156 33.9104 46.5282 35.828 45.4549 37.7027ZM50.0772 35.8423C50.85 37.7599 51.5083 39.6776 52.0521 41.5379C50.1774 41.9959 48.2025 42.3823 46.1561 42.6828C46.8573 41.5809 47.5585 40.4503 48.2168 39.2912C48.8751 38.1463 49.4905 36.9872 50.0772 35.8423ZM35.5662 51.1118C34.2353 49.7379 32.9044 48.2067 31.5879 46.5324C32.8758 46.5896 34.1924 46.6325 35.5233 46.6325C36.8685 46.6325 38.1994 46.6039 39.5016 46.5324C38.2137 48.2067 36.8828 49.7379 35.5662 51.1118ZM24.9191 42.6828C22.887 42.3823 20.9264 42.0102 19.0517 41.5522C19.5812 39.7062 20.2395 37.8029 20.9837 35.8995C21.5704 37.0444 22.1858 38.1893 22.8584 39.3341C23.531 40.479 24.2179 41.5952 24.9191 42.6828ZM35.4947 12.9024C36.8256 14.2762 38.1564 15.8074 39.473 17.4818C38.1851 17.4245 36.8685 17.3816 35.5376 17.3816C34.1924 17.3816 32.8615 17.4102 31.5592 17.4818C32.8472 15.8074 34.1781 14.2762 35.4947 12.9024ZM24.9048 21.3313C24.2036 22.4332 23.5023 23.5638 22.8441 24.7229C22.1858 25.8678 21.5704 27.0126 20.9837 28.1575C20.2109 26.2399 19.5526 24.3222 19.0088 22.4619C20.8835 22.0182 22.8584 21.6318 24.9048 21.3313ZM11.9537 39.2482C6.88769 37.0873 3.61056 34.2538 3.61056 32.0071C3.61056 29.7603 6.88769 26.9125 11.9537 24.7659C13.1844 24.2364 14.5296 23.7641 15.9177 23.3205C16.7334 26.1254 17.8067 29.0448 19.1376 32.0357C17.821 35.0123 16.762 37.9173 15.9606 40.7079C14.5439 40.2643 13.1987 39.7777 11.9537 39.2482ZM19.6528 59.6981C17.7065 58.5819 16.8622 54.3316 17.5205 48.865C17.6779 47.5198 17.9355 46.103 18.2503 44.6577C21.0552 45.3446 24.1177 45.8741 27.3376 46.2175C29.2695 48.865 31.273 51.2692 33.2908 53.3728C28.6256 57.709 24.2465 60.0845 21.2699 60.0845C20.6259 60.0702 20.0821 59.9414 19.6528 59.6981ZM53.5976 48.7934C54.2702 54.2601 53.4402 58.5104 51.5083 59.6409C51.0789 59.8985 50.5208 60.013 49.8625 60.013C46.9002 60.013 42.5069 57.6517 37.8416 53.3442C39.8451 51.2406 41.8486 48.8507 43.7519 46.2032C46.9861 45.8598 50.0486 45.3303 52.8535 44.629C53.1826 46.0744 53.4402 47.4625 53.5976 48.7934ZM59.1072 39.2482C57.8765 39.7777 56.5313 40.25 55.1432 40.6936C54.3275 37.8887 53.2542 34.9694 51.9233 31.9784C53.2399 29.0018 54.2988 26.0968 55.1002 23.3062C56.517 23.7498 57.8622 24.2364 59.1215 24.7659C64.1875 26.9268 67.4646 29.7603 67.4646 32.0071C67.4503 34.2538 64.1732 37.1016 59.1072 39.2482Z" fill="url(#paint0_linear_663_4712)"/>
<path d="M35.5243 38.547C39.1363 38.547 42.0643 35.619 42.0643 32.007C42.0643 28.3951 39.1363 25.4671 35.5243 25.4671C31.9124 25.4671 28.9844 28.3951 28.9844 32.007C28.9844 35.619 31.9124 38.547 35.5243 38.547Z" fill="url(#paint1_linear_663_4712)"/>
<defs>
<linearGradient id="paint0_linear_663_4712" x1="35.5376" y1="0.738308" x2="35.5376" y2="71.3106" gradientUnits="userSpaceOnUse">
<stop stop-color="#999999" stop-opacity="0.8"/>
<stop offset="1" stop-color="#020C0D"/>
</linearGradient>
<linearGradient id="paint1_linear_663_4712" x1="35.5243" y1="25.4671" x2="35.5243" y2="40.2309" gradientUnits="userSpaceOnUse">
<stop stop-color="#999999" stop-opacity="0.8"/>
<stop offset="1" stop-color="#020C0D"/>
</linearGradient>
</defs>
</svg>
