<svg width="97" height="80" viewBox="0 0 97 80" fill="none" xmlns="http://www.w3.org/2000/svg">
<path fill-rule="evenodd" clip-rule="evenodd" d="M29.3016 64.0165C29.3016 66.0124 29.6742 67.0061 30.4196 67.0061L37.2353 67.0144C38.0055 67.0144 38.3947 66.0206 38.3947 64.0248V5.05997C38.3947 3.66038 38.0718 2.96473 37.4175 2.96473C37.2436 2.96473 37.1111 2.98129 37.02 3.00614L25.2436 6.0372C24.5314 6.18626 24.1753 6.85707 24.1753 8.04134V12.3229C24.1753 13.6894 24.4983 14.3436 25.1525 14.2856C25.1856 14.2856 26.3699 13.9875 28.7219 13.3912C29.1111 13.3333 29.3016 13.7805 29.3016 14.7328V64.0165ZM57.8233 66.8488C58.7012 67.0144 59.7281 67.0972 60.9206 67.0972L65.4589 67.089C66.3202 67.089 66.7509 66.4761 66.7509 65.2587V62.5838C66.7509 61.4906 66.3533 60.9357 65.55 60.9357H62.3865C61.7653 60.9357 61.2353 60.8529 60.8047 60.6707C60.374 60.4968 59.9434 60.1324 59.5127 59.6024C59.0821 59.0724 58.7591 58.2277 58.5355 57.0848C58.3119 55.942 58.2043 54.501 58.2043 52.7784V29.7639C58.2043 29.3747 58.2374 29.1262 58.3119 29.0268C58.3865 28.9192 58.5272 28.8695 58.7343 28.8695H64.4403C65.1856 28.8695 65.5583 28.1573 65.5583 26.7328V24.3229C65.5583 22.8654 65.1856 22.1366 64.4403 22.1366H58.7508C58.3865 22.1366 58.2125 21.7391 58.2125 20.9357V3.58585C58.2125 2.01235 57.8399 1.2256 57.0945 1.2256H52.6308C51.9434 1.2256 51.5624 2.01235 51.4713 3.58585L50.668 20.9357C50.668 21.7391 50.5024 22.1366 50.1794 22.1366H47.4134C46.668 22.1366 46.2954 22.8654 46.2954 24.3229V26.7328C46.2954 28.1573 46.668 28.8695 47.4134 28.8695H50.1794C50.5024 28.8695 50.668 29.1676 50.668 29.7639V52.6376C50.668 55.1386 50.8668 57.2919 51.2477 59.1055C51.6287 60.9192 52.1256 62.3353 52.7384 63.3457C53.3513 64.356 54.1297 65.1511 55.0821 65.7308C56.0345 66.3105 56.9455 66.6832 57.8233 66.8488ZM79.8192 70.7743C79.314 71.8923 78.7177 72.4471 78.0386 72.4471C77.7405 72.4471 77.0863 72.2981 76.0593 71.9834C75.049 71.6852 74.5107 71.5362 74.4527 71.5362C73.7405 71.5362 73.3844 72.6376 73.3844 74.8405C73.3844 75.942 73.5003 76.6293 73.7405 76.8943C74.6018 78.178 76.2333 78.8157 78.6432 78.8157H79.0904C80.6142 78.7825 81.8316 78.443 82.7508 77.7887C83.6784 77.1345 84.5065 75.9006 85.2519 74.0869C85.9972 72.2732 86.6846 69.6562 87.3057 66.236L95.2477 24.8861C95.3057 24.472 95.3388 24.1242 95.3388 23.8591C95.3388 22.6997 95.0821 22.12 94.5769 22.12H90.8337C90.4444 22.12 90.1214 22.2774 89.873 22.5921C89.6245 22.9068 89.4341 23.503 89.3181 24.3974L84.7716 54.9979C84.7716 55.3208 84.7053 55.4865 84.5894 55.4865C84.5562 55.4865 84.4817 55.3043 84.3658 54.9482L78.5686 24.2649C78.4279 23.4037 78.2208 22.8322 77.9475 22.5507C77.6742 22.2691 77.3347 22.1283 76.9206 22.1283H71.521C71.0738 22.1283 70.8502 22.6666 70.8502 23.7349C70.8502 23.9751 70.8834 24.3063 70.9413 24.7204L79.6867 61.0683C80.2829 63.8923 80.5811 65.5403 80.5811 66.0206C80.5811 68.0745 80.3243 69.6562 79.8192 70.7743ZM6.85872 64.0993C6.85872 66.0952 7.2314 67.089 7.97674 67.089H14.8007C15.5709 67.089 15.9602 66.0952 15.9602 64.0993V5.13453C15.9602 3.73495 15.6372 3.03929 14.9829 3.03929C14.809 3.03929 14.6765 3.05586 14.5854 3.0807L2.80075 6.12004C2.08853 6.26911 1.73242 6.93992 1.73242 8.12418V12.4058C1.73242 13.7722 2.05541 14.4265 2.70966 14.3685C2.74278 14.3685 3.92705 14.0704 6.27901 13.4741C6.66825 13.4161 6.85872 13.8633 6.85872 14.8157V64.0993Z" fill="url(#paint0_linear_241_213)"/>
<path d="M30.4196 67.0061L30.421 65.8467H30.4196V67.0061ZM37.2353 67.0144L37.2339 68.1738H37.2353V67.0144ZM37.02 3.00614L37.309 4.12896L37.317 4.12689L37.3251 4.1247L37.02 3.00614ZM25.2436 6.0372L25.4811 7.17203L25.507 7.16661L25.5326 7.16002L25.2436 6.0372ZM25.1525 14.2856V13.1262H25.1012L25.0502 13.1307L25.1525 14.2856ZM28.7219 13.3912L28.5511 12.2445L28.4934 12.253L28.4369 12.2674L28.7219 13.3912ZM60.9206 67.0972V68.2567H60.9227L60.9206 67.0972ZM57.8233 66.8488L57.6083 67.9881H57.6083L57.8233 66.8488ZM65.4589 67.089V65.9295L65.4568 65.9295L65.4589 67.089ZM60.8047 60.6707L61.2564 59.6029L61.2477 59.5992L61.2388 59.5957L60.8047 60.6707ZM59.5127 59.6024L60.4126 58.8713L60.4126 58.8713L59.5127 59.6024ZM58.5355 57.0848L59.6734 56.8622V56.8622L58.5355 57.0848ZM58.3119 29.0268L59.2395 29.7225L59.2527 29.7049L59.2652 29.6868L58.3119 29.0268ZM51.4713 3.58585L50.3138 3.51883L50.3132 3.53223L51.4713 3.58585ZM50.668 20.9357L49.5099 20.8821L49.5086 20.9089V20.9357H50.668ZM51.2477 59.1055L52.3824 58.8672V58.8672L51.2477 59.1055ZM52.7384 63.3457L51.7471 63.947V63.947L52.7384 63.3457ZM55.0821 65.7308L54.4793 66.7212H54.4793L55.0821 65.7308ZM79.8192 70.7743L80.8757 71.2517V71.2517L79.8192 70.7743ZM76.0593 71.9834L76.3991 70.8748L76.3875 70.8714L76.0593 71.9834ZM73.7405 76.8943L74.7033 76.2484L74.6563 76.1783L74.5996 76.1158L73.7405 76.8943ZM79.0904 78.8157V79.9751H79.103L79.1156 79.9748L79.0904 78.8157ZM82.7508 77.7887L82.0826 76.8413L82.0786 76.8441L82.7508 77.7887ZM85.2519 74.0869L86.3243 74.5276H86.3243L85.2519 74.0869ZM87.3057 66.236L86.167 66.0173L86.1649 66.0288L87.3057 66.236ZM95.2477 24.8861L96.3863 25.1047L96.3919 25.0759L96.396 25.0468L95.2477 24.8861ZM89.873 22.5921L90.783 23.3105L90.783 23.3105L89.873 22.5921ZM89.3181 24.3974L90.465 24.5678L90.4666 24.5572L90.4679 24.5465L89.3181 24.3974ZM84.7716 54.9979L83.6247 54.8275L83.6121 54.9122V54.9979H84.7716ZM84.3658 54.9482L83.2265 55.1634L83.2403 55.2364L83.2633 55.3071L84.3658 54.9482ZM78.5686 24.2649L77.4244 24.452L77.4267 24.4661L77.4294 24.4802L78.5686 24.2649ZM70.9413 24.7204L69.7931 24.8812L69.8009 24.9369L69.8141 24.9916L70.9413 24.7204ZM79.6867 61.0683L80.8211 60.8287L80.8177 60.8128L80.8139 60.797L79.6867 61.0683ZM14.5854 3.0807L14.875 4.20339L14.8827 4.20138L14.8905 4.19927L14.5854 3.0807ZM2.80075 6.12004L3.03827 7.25487L3.06442 7.2494L3.09029 7.24272L2.80075 6.12004ZM2.70966 14.3685V13.2091H2.65839L2.60732 13.2136L2.70966 14.3685ZM6.27901 13.4741L6.10822 12.3273L6.05058 12.3359L5.99409 12.3502L6.27901 13.4741ZM30.4196 65.8467C30.5184 65.8467 30.6293 65.8896 30.7012 65.9535C30.749 65.996 30.7201 65.9954 30.667 65.8534C30.5549 65.5541 30.461 64.9753 30.461 64.0165H28.1422C28.1422 65.0536 28.2345 65.9696 28.4952 66.6661C28.6284 67.0221 28.8324 67.3946 29.1597 67.6858C29.5111 67.9985 29.9481 68.1656 30.4196 68.1656V65.8467ZM37.2367 65.855L30.421 65.8467L30.4182 68.1656L37.2339 68.1738L37.2367 65.855ZM37.2353 64.0248C37.2353 64.9808 37.1375 65.5541 37.0232 65.8479C36.9696 65.986 36.9404 65.9876 36.986 65.9484C37.0538 65.8902 37.1538 65.855 37.2353 65.855V68.1738C37.702 68.1738 38.1394 68.0144 38.4968 67.7075C38.832 67.4196 39.0446 67.048 39.1845 66.6882C39.4574 65.9862 39.5542 65.0646 39.5542 64.0248H37.2353ZM37.2353 5.05997V64.0248H39.5542V5.05997H37.2353ZM37.4175 4.12415C37.3629 4.12415 37.2656 4.10522 37.1736 4.0397C37.0927 3.98209 37.0805 3.93428 37.1005 3.97712C37.1218 4.02281 37.1586 4.12751 37.1882 4.31924C37.2173 4.50744 37.2353 4.75165 37.2353 5.05997H39.5542C39.5542 4.30821 39.4733 3.57926 39.2024 2.99789C39.0599 2.69187 38.8442 2.38267 38.5188 2.15089C38.1822 1.9112 37.7992 1.80531 37.4175 1.80531V4.12415ZM37.3251 4.1247C37.2993 4.13174 37.2934 4.1309 37.3138 4.12867C37.3324 4.12662 37.3665 4.12415 37.4175 4.12415V1.80531C37.1817 1.80531 36.9385 1.82658 36.7149 1.88757L37.3251 4.1247ZM25.5326 7.16002L37.309 4.12896L36.731 1.88331L24.9546 4.91437L25.5326 7.16002ZM25.3347 8.04134C25.3347 7.54222 25.4136 7.29395 25.4657 7.19602C25.4867 7.1566 25.4954 7.15627 25.4815 7.1669C25.4664 7.17847 25.4593 7.17658 25.4811 7.17203L25.0061 4.90237C24.2969 5.0508 23.7504 5.48367 23.419 6.10611C23.115 6.67692 23.0159 7.35619 23.0159 8.04134H25.3347ZM25.3347 12.3229V8.04134H23.0159V12.3229H25.3347ZM25.0502 13.1307C25.0959 13.1267 25.2078 13.1328 25.3272 13.2056C25.437 13.2725 25.4674 13.3438 25.4569 13.3226C25.4439 13.2965 25.4096 13.2105 25.3808 13.0306C25.3526 12.8552 25.3347 12.6223 25.3347 12.3229H23.0159C23.0159 13.0543 23.0952 13.7807 23.3802 14.3543C23.5322 14.6602 23.766 14.9696 24.1204 15.1856C24.4843 15.4074 24.882 15.4736 25.2548 15.4405L25.0502 13.1307ZM28.4369 12.2674C27.2609 12.5655 26.3781 12.7888 25.7855 12.9375C25.4888 13.0119 25.267 13.0671 25.1181 13.1035C25.0431 13.1218 24.9902 13.1345 24.9568 13.1423C24.9393 13.1463 24.9328 13.1477 24.9334 13.1476C24.9341 13.1474 24.9362 13.147 24.9394 13.1464C24.9424 13.1458 24.9485 13.1446 24.9566 13.1432C24.9634 13.1419 24.9792 13.1392 25 13.1364C25.0071 13.1354 25.0708 13.1262 25.1525 13.1262V15.4451C25.2352 15.4451 25.3006 15.4357 25.3098 15.4344C25.3327 15.4314 25.3513 15.4282 25.3614 15.4264C25.3823 15.4227 25.4004 15.4189 25.411 15.4167C25.4337 15.4119 25.4584 15.4063 25.481 15.4011C25.5279 15.3902 25.5914 15.3749 25.6688 15.356C25.8248 15.3179 26.0522 15.2613 26.3497 15.1866C26.9455 15.0371 27.8309 14.8132 29.0068 14.5151L28.4369 12.2674ZM30.461 14.7328C30.461 14.2225 30.4163 13.6746 30.2226 13.2247C30.1197 12.9857 29.94 12.6924 29.6222 12.4794C29.2793 12.2496 28.8953 12.1932 28.5511 12.2445L28.8927 14.538C28.743 14.5603 28.5288 14.5381 28.3311 14.4056C28.1585 14.2899 28.0994 14.157 28.0928 14.1417C28.0854 14.1245 28.1014 14.1567 28.117 14.2705C28.1318 14.3788 28.1422 14.5302 28.1422 14.7328H30.461ZM30.461 64.0165V14.7328H28.1422V64.0165H30.461ZM60.9206 65.9378C59.7784 65.9378 58.8267 65.8582 58.0383 65.7095L57.6083 67.9881C58.5756 68.1706 59.6777 68.2567 60.9206 68.2567V65.9378ZM65.4568 65.9295L60.9185 65.9378L60.9227 68.2567L65.461 68.2484L65.4568 65.9295ZM65.5914 65.2587C65.5914 65.4984 65.5699 65.6722 65.5415 65.7926C65.5133 65.9126 65.4835 65.9577 65.4803 65.9622C65.4793 65.9637 65.4836 65.9574 65.4944 65.9482C65.5055 65.9388 65.5176 65.9312 65.5279 65.9263C65.5499 65.9159 65.537 65.9295 65.4589 65.9295V68.2484C66.2015 68.2484 66.908 67.9614 67.3754 67.2985C67.7909 66.7092 67.9103 65.9691 67.9103 65.2587H65.5914ZM65.5914 62.5838V65.2587H67.9103V62.5838H65.5914ZM65.55 62.0952C65.6181 62.0952 65.6223 62.1068 65.5921 62.0929C65.5556 62.0761 65.5263 62.0487 65.5133 62.0307C65.5053 62.0197 65.5266 62.044 65.5493 62.138C65.5723 62.2327 65.5914 62.377 65.5914 62.5838H67.9103C67.9103 61.931 67.7977 61.2307 67.3901 60.6689C66.9326 60.0384 66.2501 59.7763 65.55 59.7763V62.0952ZM62.3865 62.0952H65.55V59.7763H62.3865V62.0952ZM60.3529 61.7385C60.9752 62.0018 61.6736 62.0952 62.3865 62.0952V59.7763C61.8571 59.7763 61.4954 59.7041 61.2564 59.6029L60.3529 61.7385ZM58.6129 60.3335C59.1027 60.9364 59.6823 61.4679 60.3705 61.7458L61.2388 59.5957C61.0658 59.5258 60.7841 59.3285 60.4126 58.8713L58.6129 60.3335ZM57.3977 57.3074C57.6338 58.5145 58.0029 59.5828 58.6129 60.3335L60.4126 58.8713C60.1613 58.562 59.8844 57.9409 59.6734 56.8622L57.3977 57.3074ZM57.0448 52.7784C57.0448 54.5407 57.1543 56.0634 57.3977 57.3074L59.6734 56.8622C59.4696 55.8205 59.3637 54.4612 59.3637 52.7784H57.0448ZM57.0448 29.7639V52.7784H59.3637V29.7639H57.0448ZM57.3844 28.3312C57.1599 28.6305 57.104 28.9713 57.0824 29.1227C57.0537 29.3236 57.0448 29.5446 57.0448 29.7639H59.3637C59.3637 29.6823 59.3654 29.6151 59.3684 29.5606C59.3713 29.5053 59.3751 29.47 59.3779 29.4506C59.381 29.4288 59.3808 29.4414 59.37 29.476C59.3642 29.4944 59.3534 29.5257 59.3348 29.5652C59.3164 29.6042 59.2864 29.66 59.2395 29.7225L57.3844 28.3312ZM58.7343 27.7101C58.4018 27.7101 57.7628 27.7832 57.3587 28.3669L59.2652 29.6868C59.1448 29.8608 58.9883 29.9538 58.8735 29.996C58.7736 30.0327 58.7137 30.0289 58.7343 30.0289V27.7101ZM64.4403 27.7101H58.7343V30.0289H64.4403V27.7101ZM64.3989 26.7328C64.3989 27.3817 64.3077 27.6905 64.2515 27.7978C64.2324 27.8344 64.2423 27.799 64.3065 27.7581C64.3368 27.7388 64.3684 27.7254 64.397 27.7176C64.4245 27.7101 64.4407 27.7101 64.4403 27.7101V30.0289C64.819 30.0289 65.2039 29.9358 65.5523 29.7138C65.896 29.4949 66.1389 29.1924 66.3061 28.8729C66.6226 28.2679 66.7177 27.5084 66.7177 26.7328H64.3989ZM64.3989 24.3229V26.7328H66.7177V24.3229H64.3989ZM64.4403 23.296C64.429 23.296 64.3664 23.2902 64.2963 23.2445C64.2321 23.2027 64.2247 23.1684 64.2465 23.211C64.3073 23.3299 64.3989 23.6554 64.3989 24.3229H66.7177C66.7177 23.5329 66.623 22.7652 66.3111 22.1553C66.1466 21.8336 65.9062 21.526 65.5626 21.3019C65.2129 21.074 64.8242 20.9772 64.4403 20.9772V23.296ZM58.7508 23.296H64.4403V20.9772H58.7508V23.296ZM57.0531 20.9357C57.0531 21.3833 57.0958 21.8824 57.286 22.3093C57.3878 22.5378 57.5537 22.7951 57.8248 22.995C58.1091 23.2047 58.4347 23.296 58.7508 23.296V20.9772C58.8848 20.9772 59.052 21.0188 59.2012 21.1288C59.3372 21.2291 59.3913 21.3368 59.4041 21.3655C59.416 21.3922 59.4048 21.3778 59.3926 21.2943C59.3809 21.2146 59.372 21.0978 59.372 20.9357H57.0531ZM57.0531 3.58585V20.9357H59.372V3.58585H57.0531ZM57.0945 2.38502C57.0647 2.38502 56.9898 2.37292 56.9164 2.3213C56.8535 2.27702 56.8548 2.24773 56.8852 2.312C56.9606 2.47109 57.0531 2.85381 57.0531 3.58585H59.372C59.372 2.74439 59.2782 1.94699 58.9809 1.31933C58.825 0.990225 58.5933 0.665905 58.2509 0.424935C57.898 0.176628 57.497 0.0661809 57.0945 0.0661809V2.38502ZM52.6308 2.38502H57.0945V0.0661809H52.6308V2.38502ZM52.6288 3.65286C52.6715 2.91498 52.7785 2.50982 52.8688 2.32538C52.9083 2.24473 52.9167 2.26501 52.8591 2.30733C52.7867 2.36054 52.6969 2.38502 52.6308 2.38502V0.0661809C51.7144 0.0661809 51.1087 0.64685 50.7861 1.30594C50.4913 1.90825 50.3622 2.68322 50.3139 3.51884L52.6288 3.65286ZM51.8262 20.9894L52.6295 3.63947L50.3132 3.53223L49.5099 20.8821L51.8262 20.9894ZM50.1794 23.296C50.5192 23.296 50.8514 23.1839 51.1258 22.9596C51.3809 22.7511 51.5293 22.4929 51.6179 22.2766C51.7863 21.8652 51.8274 21.3829 51.8274 20.9357H49.5086C49.5086 21.0994 49.5 21.2202 49.4884 21.305C49.4763 21.3936 49.4643 21.4165 49.4718 21.3982C49.4786 21.3817 49.525 21.2731 49.6582 21.1642C49.8108 21.0395 50.0011 20.9772 50.1794 20.9772V23.296ZM47.4134 23.296H50.1794V20.9772H47.4134V23.296ZM47.4548 24.3229C47.4548 23.6554 47.5464 23.3299 47.6071 23.211C47.629 23.1684 47.6215 23.2027 47.5574 23.2445C47.4872 23.2902 47.4247 23.296 47.4134 23.296V20.9772C47.0294 20.9772 46.6408 21.074 46.2911 21.3019C45.9474 21.526 45.7071 21.8336 45.5426 22.1553C45.2307 22.7652 45.1359 23.5329 45.1359 24.3229H47.4548ZM47.4548 26.7328V24.3229H45.1359V26.7328H47.4548ZM47.4134 27.7101C47.4129 27.7101 47.4291 27.7101 47.4567 27.7176C47.4852 27.7254 47.5169 27.7388 47.5472 27.7581C47.6113 27.799 47.6213 27.8344 47.6021 27.7978C47.546 27.6905 47.4548 27.3817 47.4548 26.7328H45.1359C45.1359 27.5084 45.231 28.2679 45.5476 28.8729C45.7148 29.1924 45.9577 29.4949 46.3013 29.7138C46.6497 29.9358 47.0347 30.0289 47.4134 30.0289V27.7101ZM50.1794 27.7101H47.4134V30.0289H50.1794V27.7101ZM51.8274 29.7639C51.8274 29.3955 51.7826 28.9388 51.5613 28.5354C51.4415 28.3169 51.26 28.0972 50.9969 27.9362C50.7308 27.7736 50.4449 27.7101 50.1794 27.7101V30.0289C50.0754 30.0289 49.9313 30.0027 49.7872 29.9146C49.6459 29.8282 49.5664 29.7202 49.5283 29.6508C49.4936 29.5875 49.4917 29.5546 49.4968 29.5824C49.5015 29.6079 49.5086 29.6653 49.5086 29.7639H51.8274ZM51.8274 52.6376V29.7639H49.5086V52.6376H51.8274ZM52.3824 58.8672C52.0219 57.1511 51.8274 55.0808 51.8274 52.6376H49.5086C49.5086 55.1964 49.7116 57.4327 50.1131 59.3439L52.3824 58.8672ZM53.7297 62.7444C53.2124 61.8916 52.7501 60.6178 52.3824 58.8672L50.1131 59.3438C50.5073 61.2205 51.0387 62.7791 51.7471 63.947L53.7297 62.7444ZM55.6849 64.7404C54.9026 64.2642 54.2532 63.6074 53.7297 62.7444L51.7471 63.947C52.4493 65.1046 53.3568 66.0379 54.4793 66.7212L55.6849 64.7404ZM58.0383 65.7095C57.328 65.5755 56.5477 65.2656 55.6849 64.7404L54.4793 66.7212C55.5213 67.3554 56.5629 67.7909 57.6083 67.9881L58.0383 65.7095ZM78.0386 73.6066C79.4565 73.6066 80.3374 72.4431 80.8757 71.2517L78.7626 70.2968C78.5446 70.7793 78.3461 71.0482 78.2012 71.184C78.1334 71.2477 78.0882 71.2718 78.0687 71.2803C78.0524 71.2874 78.0454 71.2877 78.0386 71.2877V73.6066ZM75.7196 73.0919C76.2471 73.2535 76.695 73.3777 77.0595 73.4625C77.3981 73.5413 77.747 73.6066 78.0386 73.6066V71.2877C78.0496 71.2877 78.0195 71.288 77.9293 71.2738C77.8453 71.2605 77.7318 71.2382 77.5851 71.204C77.2912 71.1356 76.8985 71.0279 76.399 70.8748L75.7196 73.0919ZM74.4527 72.6956C74.3609 72.6956 74.292 72.6837 74.2883 72.6831C74.2781 72.6815 74.2705 72.6801 74.2665 72.6794C74.2623 72.6786 74.2597 72.678 74.2593 72.6779C74.2587 72.6778 74.2621 72.6785 74.2706 72.6805C74.2789 72.6825 74.29 72.6852 74.3045 72.6888C74.3645 72.7038 74.4577 72.7287 74.5883 72.765C74.8477 72.8371 75.228 72.9469 75.7312 73.0954L76.3875 70.8714C75.8803 70.7217 75.4863 70.6079 75.2094 70.5309C75.072 70.4927 74.9565 70.4617 74.8678 70.4394C74.8243 70.4286 74.7781 70.4175 74.7346 70.4084C74.7133 70.4039 74.6835 70.398 74.6501 70.3927C74.6317 70.3898 74.5517 70.3767 74.4527 70.3767V72.6956ZM74.5438 74.8405C74.5438 73.7716 74.6338 73.0928 74.7547 72.7189C74.8144 72.5341 74.8545 72.5118 74.8176 72.5499C74.7515 72.618 74.6142 72.6956 74.4527 72.6956V70.3767C73.3058 70.3767 72.7687 71.3237 72.5483 72.0056C72.3131 72.7331 72.225 73.7065 72.225 74.8405H74.5438ZM74.5996 76.1158C74.6701 76.1935 74.6824 76.2449 74.669 76.209C74.6575 76.1785 74.6364 76.1085 74.615 75.9843C74.5718 75.7336 74.5438 75.3598 74.5438 74.8405H72.225C72.225 75.4227 72.2549 75.9433 72.3298 76.3778C72.3962 76.7638 72.5282 77.2832 72.8814 77.6729L74.5996 76.1158ZM78.6432 77.6562C76.3935 77.6562 75.2481 77.0603 74.7033 76.2484L72.7777 77.5403C73.9555 79.2956 76.073 79.9751 78.6432 79.9751V77.6562ZM79.0904 77.6562H78.6432V79.9751H79.0904V77.6562ZM82.0786 76.8441C81.4058 77.3229 80.4385 77.6267 79.0652 77.6565L79.1156 79.9748C80.7899 79.9384 82.2574 79.563 83.4231 78.7334L82.0786 76.8441ZM84.1795 73.6462C83.4625 75.3909 82.7395 76.378 82.0826 76.8413L83.4191 78.7362C84.6173 77.8911 85.5506 76.4102 86.3243 74.5276L84.1795 73.6462ZM86.1649 66.0288C85.5493 69.4188 84.8793 71.9434 84.1795 73.6462L86.3243 74.5276C87.1152 72.6031 87.8199 69.8937 88.4465 66.4431L86.1649 66.0288ZM94.1091 24.6674L86.1671 66.0173L88.4443 66.4547L96.3863 25.1047L94.1091 24.6674ZM94.1794 23.8591C94.1794 24.0432 94.1551 24.3283 94.0995 24.7253L96.396 25.0468C96.4563 24.6157 96.4983 24.2051 96.4983 23.8591H94.1794ZM94.5769 23.2794C94.4648 23.2794 94.3252 23.2414 94.2064 23.1509C94.1029 23.0721 94.0766 23.0001 94.0858 23.0211C94.0952 23.0425 94.1215 23.1159 94.1437 23.2669C94.1654 23.4143 94.1794 23.6093 94.1794 23.8591H96.4983C96.4983 23.2291 96.4338 22.6007 96.2088 22.0885C96.0907 21.8196 95.9055 21.5303 95.6118 21.3065C95.3028 21.0711 94.9417 20.9606 94.5769 20.9606V23.2794ZM90.8337 23.2794H94.5769V20.9606H90.8337V23.2794ZM90.783 23.3105C90.7984 23.291 90.8087 23.2818 90.8124 23.2787C90.8158 23.2759 90.8151 23.277 90.811 23.279C90.8067 23.2811 90.8039 23.2817 90.8047 23.2816C90.8059 23.2813 90.8148 23.2794 90.8337 23.2794V20.9606C90.0817 20.9606 89.4264 21.2867 88.963 21.8736L90.783 23.3105ZM90.4679 24.5465C90.5203 24.1423 90.5856 23.8389 90.6532 23.621C90.6866 23.5133 90.7179 23.4353 90.7437 23.3815C90.7698 23.327 90.7852 23.3077 90.783 23.3105L88.963 21.8736C88.5048 22.454 88.2876 23.3286 88.1683 24.2484L90.4679 24.5465ZM85.9184 55.1683L90.465 24.5678L88.1713 24.2271L83.6247 54.8275L85.9184 55.1683ZM84.5894 56.6459C85.359 56.6459 85.7055 56.0444 85.8078 55.7749C85.9131 55.4976 85.931 55.2096 85.931 54.9979H83.6121C83.6121 55.1091 83.5968 55.0654 83.64 54.9517C83.6636 54.8897 83.7288 54.742 83.8846 54.5996C84.0633 54.4364 84.3124 54.327 84.5894 54.327V56.6459ZM83.2633 55.3071C83.3234 55.4917 83.3822 55.6611 83.4373 55.7942C83.4623 55.8545 83.5035 55.9496 83.56 56.0448C83.5857 56.0879 83.6439 56.182 83.7375 56.2797C83.7846 56.329 84.0817 56.6459 84.5894 56.6459V54.327C84.8558 54.327 85.0578 54.4181 85.1746 54.4874C85.2912 54.5567 85.37 54.6318 85.4125 54.6762C85.4952 54.7626 85.5413 54.8396 85.5534 54.8601C85.5831 54.91 85.5922 54.9372 85.5799 54.9076C85.5605 54.8605 85.5241 54.7608 85.4682 54.5892L83.2633 55.3071ZM77.4294 24.4802L83.2265 55.1634L85.505 54.7329L79.7079 24.0497L77.4294 24.4802ZM77.1156 23.3582C77.0926 23.3345 77.1425 23.3778 77.2177 23.5854C77.2888 23.7815 77.3611 24.0644 77.4244 24.452L79.7129 24.0779C79.6355 23.6042 79.5338 23.1708 79.3979 22.7955C79.266 22.4315 79.0758 22.0484 78.7795 21.7431L77.1156 23.3582ZM76.9206 23.2877C77.0369 23.2877 77.0713 23.3126 77.1156 23.3582L78.7795 21.7431C78.2772 21.2256 77.6325 20.9689 76.9206 20.9689V23.2877ZM71.521 23.2877H76.9206V20.9689H71.521V23.2877ZM72.0096 23.7349C72.0096 23.5056 72.0218 23.3272 72.0405 23.1931C72.0597 23.0551 72.0821 22.9914 72.088 22.9772C72.0944 22.9618 72.0644 23.0443 71.9523 23.134C71.822 23.2384 71.6616 23.2877 71.521 23.2877V20.9689C71.1568 20.9689 70.8008 21.0855 70.5028 21.3242C70.223 21.5482 70.0532 21.832 69.9478 22.0848C69.7465 22.5676 69.6908 23.1546 69.6908 23.7349H72.0096ZM72.0895 24.5597C72.0328 24.1546 72.0096 23.89 72.0096 23.7349H69.6908C69.6908 24.0602 69.7339 24.4581 69.7931 24.8812L72.0895 24.5597ZM80.8139 60.797L72.0686 24.4492L69.8141 24.9916L78.5594 61.3395L80.8139 60.797ZM81.7405 66.0206C81.7405 65.6556 81.6423 65.0133 81.4984 64.2172C81.3464 63.3758 81.1201 62.2451 80.8211 60.8287L78.5523 61.3078C78.8495 62.7154 79.0704 63.8208 79.2165 64.6295C79.3708 65.4835 79.4217 65.9053 79.4217 66.0206H81.7405ZM80.8757 71.2517C81.4788 69.9169 81.7405 68.1455 81.7405 66.0206H79.4217C79.4217 68.0035 79.1698 69.3956 78.7626 70.2968L80.8757 71.2517ZM7.97674 65.9296C8.07551 65.9296 8.1865 65.9724 8.25833 66.0364C8.30613 66.0789 8.27723 66.0782 8.2241 65.9362C8.1121 65.6369 8.01814 65.0581 8.01814 64.0993H5.6993C5.6993 65.1364 5.79169 66.0524 6.05235 66.749C6.18556 67.1049 6.38958 67.4774 6.71688 67.7687C7.06821 68.0813 7.50529 68.2484 7.97674 68.2484V65.9296ZM14.8007 65.9296H7.97674V68.2484H14.8007V65.9296ZM14.8007 64.0993C14.8007 65.0554 14.7029 65.6286 14.5886 65.9225C14.535 66.0605 14.5058 66.0621 14.5514 66.0229C14.6192 65.9647 14.7192 65.9296 14.8007 65.9296V68.2484C15.2674 68.2484 15.7048 68.089 16.0622 67.7821C16.3975 67.4942 16.61 67.1226 16.7499 66.7627C17.0228 66.0607 17.1196 65.1392 17.1196 64.0993H14.8007ZM14.8007 5.13453V64.0993H17.1196V5.13453H14.8007ZM14.9829 4.19871C14.9284 4.19871 14.8311 4.17978 14.7391 4.11426C14.6582 4.05665 14.646 4.00885 14.6659 4.05169C14.6872 4.09738 14.724 4.20207 14.7537 4.39381C14.7828 4.58201 14.8007 4.82622 14.8007 5.13453H17.1196C17.1196 4.38277 17.0387 3.65382 16.7679 3.07245C16.6253 2.76643 16.4097 2.45724 16.0842 2.22546C15.7477 1.98577 15.3647 1.87987 14.9829 1.87987V4.19871ZM14.8905 4.19927C14.8647 4.2063 14.8588 4.20546 14.8792 4.20323C14.8979 4.20118 14.9319 4.19871 14.9829 4.19871V1.87987C14.7471 1.87987 14.504 1.90115 14.2804 1.96214L14.8905 4.19927ZM3.09029 7.24272L14.875 4.20339L14.2959 1.95802L2.5112 4.99736L3.09029 7.24272ZM2.89184 8.12418C2.89184 7.62506 2.97072 7.3768 3.02287 7.27886C3.04386 7.23944 3.05255 7.23911 3.03867 7.24975C3.02358 7.26131 3.01649 7.25943 3.03827 7.25487L2.56322 4.98521C1.85406 5.13364 1.30759 5.56651 0.976134 6.18896C0.672177 6.75976 0.573002 7.43903 0.573002 8.12418H2.89184ZM2.89184 12.4058V8.12418H0.573002V12.4058H2.89184ZM2.60732 13.2136C2.65301 13.2095 2.76498 13.2156 2.88439 13.2884C2.99416 13.3553 3.02459 13.4267 3.01402 13.4054C3.00109 13.3794 2.96674 13.2933 2.93791 13.1135C2.90977 12.938 2.89184 12.7051 2.89184 12.4058H0.573002C0.573002 13.1371 0.652382 13.8636 0.937372 14.4372C1.08933 14.743 1.32318 15.0525 1.67752 15.2684C2.04149 15.4903 2.43918 15.5564 2.81199 15.5234L2.60732 13.2136ZM5.99409 12.3502C4.81804 12.6484 3.93527 12.8716 3.34265 13.0203C3.04598 13.0947 2.82413 13.1499 2.67525 13.1863C2.60021 13.2047 2.54734 13.2174 2.51397 13.2251C2.49645 13.2292 2.48997 13.2306 2.49059 13.2304C2.49122 13.2303 2.49333 13.2299 2.49659 13.2292C2.49957 13.2286 2.50561 13.2274 2.51371 13.226C2.52053 13.2248 2.53636 13.222 2.55714 13.2192C2.56422 13.2183 2.62795 13.2091 2.70966 13.2091V15.5279C2.7924 15.5279 2.85772 15.5185 2.86697 15.5173C2.8899 15.5142 2.90845 15.511 2.91856 15.5092C2.93946 15.5055 2.95757 15.5018 2.96813 15.4996C2.99089 15.4948 3.01555 15.4892 3.03817 15.4839C3.0851 15.473 3.14856 15.4578 3.22595 15.4388C3.38193 15.4007 3.60936 15.3441 3.90689 15.2695C4.50267 15.12 5.38802 14.8961 6.56394 14.5979L5.99409 12.3502ZM8.01814 14.8157C8.01814 14.3053 7.97348 13.7575 7.77974 13.3075C7.67687 13.0686 7.49712 12.7752 7.17931 12.5622C6.83647 12.3324 6.4525 12.276 6.10822 12.3273L6.44981 14.6208C6.30015 14.6431 6.08594 14.6209 5.8883 14.4884C5.71567 14.3727 5.65652 14.2398 5.64992 14.2245C5.64252 14.2073 5.65859 14.2395 5.67416 14.3533C5.68898 14.4616 5.6993 14.6131 5.6993 14.8157H8.01814ZM8.01814 64.0993V14.8157H5.6993V64.0993H8.01814Z" fill="url(#paint1_linear_241_213)"/>
<defs>
<linearGradient id="paint0_linear_241_213" x1="48.5356" y1="1.2256" x2="48.5356" y2="88.8044" gradientUnits="userSpaceOnUse">
<stop stop-color="#999999" stop-opacity="0.8"/>
<stop offset="1" stop-color="#020C0D"/>
</linearGradient>
<linearGradient id="paint1_linear_241_213" x1="48.5356" y1="1.2256" x2="48.5356" y2="88.8044" gradientUnits="userSpaceOnUse">
<stop stop-color="#999999" stop-opacity="0.8"/>
<stop offset="1" stop-color="#020C0D"/>
</linearGradient>
</defs>
</svg>
