<svg width="80" height="80" viewBox="0 0 80 80" fill="none" xmlns="http://www.w3.org/2000/svg">
<path fill-rule="evenodd" clip-rule="evenodd" d="M40.3101 14.034C44.1576 13.8738 47.1473 10.6162 46.9873 6.75797C46.8276 2.89976 43.579 -0.0980469 39.7315 0.0621827C16.3575 0.449378 -0.334182 19.9205 0.0211931 39.8552C0.105744 64.2707 20.083 80.4061 40.2814 79.9076C64.3006 79.2405 81.3452 58.3771 79.9065 39.7528C79.8727 39.3611 79.8071 38.9783 79.7125 38.607C78.9476 35.4413 76.0163 33.0834 72.6041 33.0834H62.1074C58.1296 33.0834 54.9048 36.2883 54.9048 40.2416C54.9048 44.1952 58.1296 47.4001 62.1074 47.4001H64.7382C61.838 56.6992 52.6672 65.5744 39.9385 65.9281C27.282 66.2404 14.6109 56.2748 14.0543 40.7649C14.0624 40.5701 14.0627 40.3733 14.0548 40.1749C13.5612 27.7799 23.701 14.7257 40.3101 14.034ZM32.8801 40.252C32.8801 36.2928 36.0843 33.0834 40.0324 33.0834C43.9808 33.0834 47.1851 36.2928 47.1851 40.252C47.1851 44.2112 43.9808 47.421 40.0324 47.421C36.0843 47.421 32.8801 44.2112 32.8801 40.252Z" fill="url(#paint0_linear_241_90)"/>
<defs>
<linearGradient id="paint0_linear_241_90" x1="40.0035" y1="0.0560474" x2="40.0035" y2="90.2002" gradientUnits="userSpaceOnUse">
<stop stop-color="#999999" stop-opacity="0.8"/>
<stop offset="1" stop-color="#020C0D"/>
</linearGradient>
</defs>
</svg>
