<svg width="80" height="160" viewBox="0 0 80 160" fill="none" xmlns="http://www.w3.org/2000/svg">
<path fill-rule="evenodd" clip-rule="evenodd" d="M159.709 87.4023C159.93 84.9689 160.043 82.4877 160.043 80.0152V79.8457H153.213C153.213 77.5688 153.095 75.3179 152.887 73.0974L159.691 72.4586C159.466 70.0166 159.118 67.5571 158.666 65.1454L151.948 66.4056C151.519 64.1808 151.002 61.9893 150.397 59.8311L156.954 57.9495C156.276 55.5944 155.481 53.2348 154.59 50.9448L148.224 53.4304C147.404 51.3243 146.489 49.2661 145.478 47.2556L151.587 44.1922C150.488 42.0195 149.271 39.8468 147.972 37.748L142.18 41.3633C140.986 39.4456 139.709 37.5916 138.347 35.8013L143.788 31.6689C142.301 29.7091 140.711 27.8015 139.055 25.9982L134.019 30.613C132.495 28.9501 130.902 27.3569 129.239 25.8331L133.832 20.7794C132.02 19.1282 130.104 17.5422 128.144 16.0647L124.034 21.5225C122.235 20.1697 120.375 18.8994 118.454 17.7116L122.043 11.8976C119.953 10.594 117.781 9.39899 115.582 8.30831L112.54 14.4309C110.53 13.4315 108.467 12.5247 106.352 11.7107L108.812 5.33175C106.522 4.46268 104.162 3.66314 101.798 2.9983L99.943 9.57281C97.7877 8.96446 95.5947 8.4546 93.3641 8.04324L94.5982 1.32534C92.1909 0.890804 89.7271 0.543168 87.2806 0.325901L86.6679 7.13506C84.4953 6.93952 82.2791 6.83088 80.0456 6.83088H79.9196V0C77.4601 0 74.9789 0.121678 72.5325 0.347636L73.1669 7.15245C70.903 7.36103 68.6739 7.67823 66.4751 8.0867L65.215 1.36445C62.799 1.79898 60.3786 2.38995 58.0191 3.06348L59.8963 9.63364C57.7207 10.2565 55.5871 10.9807 53.4956 11.8063L51.0144 5.44038C48.7287 6.33118 46.4561 7.3393 44.2617 8.43867L47.3034 14.5526C45.2756 15.5665 43.3115 16.6673 41.4111 17.855L37.7958 12.0496C35.7144 13.3533 33.6678 14.7568 31.7124 16.2386L35.8448 21.6833C34.0458 23.0477 32.3076 24.4962 30.6303 26.0286L26.0199 20.988C24.2079 22.6436 22.4568 24.3991 20.8055 26.2024L25.8548 30.7998C24.3426 32.4655 22.9058 34.2037 21.5442 36.0142L16.0908 31.9035C14.6134 33.8633 13.2099 35.9143 11.9193 37.987L17.729 41.5806C16.5471 43.4926 15.452 45.461 14.4439 47.486L8.3257 44.4442C7.23067 46.643 6.22688 48.9199 5.34477 51.2099L11.7194 53.6737C10.9112 55.7653 10.1971 57.9003 9.57716 60.0788L3.00697 58.2233C2.33779 60.5828 1.7729 63.0032 1.32967 65.4235L8.04759 66.662C7.64492 68.8607 7.3393 71.0913 7.13073 73.3538L0.325901 72.7411C0.108634 75.1441 0 77.5905 0 80.0196V80.1065H6.8309C6.8309 82.3791 6.94387 84.63 7.1481 86.8548L0.343299 87.4849C0.569257 89.9313 0.912525 92.3951 1.3601 94.7981L8.07801 93.5466C8.49516 95.7772 9.01081 97.9687 9.62495 100.121L3.05479 101.994C3.72832 104.358 4.52351 106.713 5.40996 109.003L11.8193 106.522C12.6421 108.631 13.5546 110.689 14.5569 112.697L8.44735 115.738C9.54238 117.911 10.7547 120.084 12.054 122.187L17.855 118.576C19.0515 120.494 20.3275 122.35 21.6833 124.147L16.2386 128.27C17.716 130.226 19.3064 132.133 20.9619 133.95L26.0069 129.339C27.5278 131.005 29.1211 132.598 30.7868 134.119L26.1894 139.168C28.0058 140.824 29.9177 142.41 31.8731 143.887L35.9925 138.434C37.7886 139.79 39.647 141.063 41.5676 142.254L37.9696 148.063C40.0554 149.367 42.2281 150.566 44.4225 151.657L47.4642 145.539C49.4718 146.541 51.5315 147.452 53.6433 148.272L51.1795 154.642C53.4652 155.511 55.8247 156.319 58.1929 156.989L60.0527 150.41C62.208 151.024 64.4009 151.535 66.6316 151.944L65.3975 158.666C67.8091 159.101 70.2686 159.448 72.715 159.67L73.3364 152.865C75.5439 153.065 77.7817 153.173 80.0413 153.173H80.0847V160C82.5398 160 85.021 159.887 87.4718 159.661L86.8461 152.856C89.1057 152.648 91.3363 152.338 93.5379 151.926L94.7763 158.666C97.188 158.231 99.6127 157.645 101.972 156.976L100.104 150.41C102.279 149.787 104.414 149.063 106.509 148.237L108.981 154.607C111.267 153.738 113.54 152.713 115.738 151.613L112.697 145.5C114.724 144.491 116.691 143.394 118.598 142.206L122.204 148.011C124.286 146.708 126.337 145.313 128.288 143.831L124.164 138.382C125.963 137.02 127.701 135.581 129.378 134.063L133.958 139.112C135.77 137.461 137.526 135.701 139.173 133.898L134.123 129.296C135.644 127.633 137.084 125.895 138.443 124.081L143.918 128.218C145.4 126.263 146.808 124.212 148.098 122.135L142.288 118.537C143.473 116.625 144.571 114.656 145.582 112.631L151.7 115.673C152.795 113.474 153.799 111.197 154.686 108.912L148.315 106.444C149.124 104.352 149.841 102.217 150.466 100.039L157.036 101.903C157.706 99.5388 158.271 97.1228 158.722 94.7025L152 93.4554C152.409 91.2624 152.717 89.0318 152.926 86.7635L159.709 87.4023ZM144.235 87.4892H138.647C137.33 97.9521 133.22 107.867 126.749 116.195L130.708 120.153L120.162 130.682L116.203 126.723C107.876 133.194 97.9608 137.303 87.4979 138.621V144.209H72.5847V138.621C62.1218 137.303 52.2064 133.194 43.8793 126.723L39.9207 130.682L29.3746 120.136L33.3332 116.177C26.8627 107.85 22.7531 97.9347 21.4356 87.4718H15.8475V72.5586H21.4356C22.7531 62.0957 26.8627 52.1804 33.3332 43.8532L29.3746 39.8946L39.9207 29.3485L43.8793 33.3071C52.2064 26.8366 62.1218 22.727 72.5847 21.4095V15.8214H87.4979V21.4095C97.9608 22.727 107.876 26.8366 116.203 33.3071L120.162 29.3485L130.708 39.8946L126.749 43.8532C133.22 52.1804 137.33 62.0957 138.647 72.5586H144.235V87.4892ZM80.0508 108.695C95.8923 108.695 108.734 95.8533 108.734 80.0117C108.734 64.1702 95.8923 51.3281 80.0508 51.3281C64.2093 51.3281 51.3672 64.1702 51.3672 80.0117C51.3672 95.8533 64.2093 108.695 80.0508 108.695ZM50.452 124.28C59.2121 130.134 69.5112 133.258 80.047 133.258C94.1704 133.243 107.711 127.626 117.698 117.639C127.685 107.652 133.302 94.1118 133.317 79.9884C133.317 69.4526 130.192 59.1535 124.339 50.3934C118.486 41.6332 110.166 34.8055 100.432 30.7737C90.6986 26.7418 79.9879 25.6869 69.6546 27.7423C59.3213 29.7978 49.8296 34.8712 42.3797 42.3211C34.9298 49.771 29.8563 59.2627 27.8009 69.596C25.7455 79.9293 26.8004 90.64 30.8323 100.374C34.8641 110.108 41.6918 118.427 50.452 124.28ZM54.0177 41.0328C61.7223 35.8846 70.7806 33.1368 80.047 33.1368C92.4685 33.1507 104.377 38.0912 113.161 46.8746C121.944 55.658 126.885 67.5668 126.899 79.9884C126.899 89.2547 124.151 98.313 119.003 106.018C113.854 113.722 106.537 119.727 97.9763 123.274C89.4153 126.82 79.995 127.747 70.9067 125.94C61.8184 124.132 53.4703 119.67 46.918 113.117C40.3657 106.565 35.9035 98.217 34.0957 89.1286C32.2879 80.0403 33.2157 70.6201 36.7618 62.0591C40.3079 53.4981 46.313 46.1809 54.0177 41.0328Z" fill="url(#paint0_linear_186_75)"/>
<defs>
<linearGradient id="paint0_linear_186_75" x1="80.0217" y1="0" x2="80.0217" y2="180.598" gradientUnits="userSpaceOnUse">
<stop stop-color="#16838D" stop-opacity="0"/>
<stop offset="1" stop-color="#020C0D"/>
</linearGradient>
</defs>
</svg>
