<svg width="95" height="160" viewBox="0 0 95 160" fill="none" xmlns="http://www.w3.org/2000/svg">
<path d="M80.5534 0C80.5534 0 110.291 24.9599 112.329 69.5927C112.329 69.5927 82.2397 88.5981 101.298 115.56C101.298 115.56 133.143 106.304 122.78 70.752C122.78 70.752 127.224 55.5582 161.107 20.3755V80.0088C161.107 80.0088 122.587 109.817 134.619 160.018H26.4881C38.5202 109.817 0 80.0088 0 80.0088V20.3755C33.883 55.5582 38.327 70.752 38.327 70.752C27.9636 106.304 59.8091 115.56 59.8091 115.56C78.8672 88.5981 48.7782 69.5927 48.7782 69.5927C50.8333 24.9599 80.5534 0 80.5534 0Z" fill="url(#paint0_linear_215_16168)"/>
<defs>
<linearGradient id="paint0_linear_215_16168" x1="80.5534" y1="0" x2="80.5534" y2="180.618" gradientUnits="userSpaceOnUse">
<stop stop-color="#16838D" stop-opacity="0"/>
<stop offset="1" stop-color="#020C0D"/>
</linearGradient>
</defs>
</svg>
