<svg width="85" height="160" viewBox="0 0 85 160" fill="none" xmlns="http://www.w3.org/2000/svg">
<path fill-rule="evenodd" clip-rule="evenodd" d="M148.011 13.927L118.492 26.7942H51.6236L21.7682 13.3973L51.6236 0.000488281H118.737L148.011 13.927ZM129.705 61.5979H40.5648L52.6052 29.6754H117.587L129.705 61.5979ZM131.875 61.5975L169.043 39.2221L151.396 15.3609L120.055 29.675L131.875 61.5975ZM49.8796 29.0679L38.0976 61.0937L-0.00012207 39.1575L18.6289 15.4127L49.8796 29.0679ZM93.4548 148.89L166.02 44.1056L132.043 63.8973L93.4548 148.89ZM76.4147 148.89L3.84956 44.1056L37.5936 63.5743L76.4147 148.89ZM85.1351 160.001L128.852 64.2333H41.1206L85.1351 160.001Z" fill="url(#paint0_linear_214_16096)"/>
<defs>
<linearGradient id="paint0_linear_214_16096" x1="84.5214" y1="0.000488281" x2="84.5214" y2="180.599" gradientUnits="userSpaceOnUse">
<stop stop-color="#16838D" stop-opacity="0"/>
<stop offset="1" stop-color="#020C0D"/>
</linearGradient>
</defs>
</svg>
