<svg width="120" height="112" viewBox="0 0 120 112" fill="none" xmlns="http://www.w3.org/2000/svg">
<path d="M66.7067 12.1C69.3219 9.34652 72.4706 7.15452 75.9607 5.65763C79.4507 4.16073 83.2091 3.39031 87.0067 3.39334C97.4067 3.39334 106.7 9.39334 111.607 18.0933C115.807 16.0933 120.607 15.0933 125.607 15.0933C144.607 15.0933 160 30.6933 160 49.8933C160 69.0933 144.6 84.6933 125.493 84.6933C123.193 84.6933 120.893 84.4 118.693 84C116.535 87.9454 113.352 91.2354 109.48 93.5233C105.608 95.8112 101.191 97.0123 96.6933 97C92.6933 97 88.9933 96 85.6933 94.5C83.4827 99.6955 79.7917 104.125 75.0805 107.237C70.3693 110.349 64.8462 112.006 59.2 112C53.3143 112.015 47.5663 110.22 42.7362 106.857C37.906 103.493 34.2276 98.7255 32.2 93.2C30.4 93.6133 28.6 93.7067 26.7 93.7067C12.0067 93.7067 0 81.7067 0 66.7067C0 56.7067 5.40667 48.0067 13.4 43.3067C11.7 39.5067 10.8 35.3067 10.8 31C10.8 13.8 24.8 0 41.8 0C52 0 60.8 4.7 66.6 12" fill="url(#paint0_linear_1239_586)"/>
<defs>
<linearGradient id="paint0_linear_1239_586" x1="80" y1="0" x2="80" y2="126.419" gradientUnits="userSpaceOnUse">
<stop stop-color="#16838D" stop-opacity="0"/>
<stop offset="1" stop-color="#020C0D"/>
</linearGradient>
</defs>
</svg>
