<svg width="95" height="160" viewBox="0 0 95 160" fill="none" xmlns="http://www.w3.org/2000/svg">
<path d="M26.0307 0H51.9569V51.8531H26.031C-8.15963 50.5166 -8.50494 1.40375 26.0307 0ZM26.0307 105.924H51.9569V54.0709H26.031C-8.50463 55.4747 -8.15963 104.588 26.0307 105.924ZM80.1016 0H54.1747V51.8531H80.1016C114.752 49.9987 114.32 1.05844 80.1016 0ZM51.9569 134.069V108.142H26.031C4.87412 108.142 -8.50463 132.947 6.20943 150.763C20.2382 168.422 51.9572 159.618 51.9572 134.069H51.9569ZM106.081 79.9975C106.081 60.0725 84.3629 47.5522 67.0826 57.5147C49.8022 67.4772 49.8019 92.5181 67.0826 102.481C84.3632 112.443 106.081 99.9225 106.081 79.9975Z" fill="url(#paint0_linear_1239_658)"/>
<defs>
<linearGradient id="paint0_linear_1239_658" x1="53.0405" y1="0" x2="53.0405" y2="180.598" gradientUnits="userSpaceOnUse">
<stop stop-color="#16838D" stop-opacity="0"/>
<stop offset="1" stop-color="#020C0D"/>
</linearGradient>
</defs>
</svg>
