<svg width="52" height="52" viewBox="0 0 52 52" fill="none" xmlns="http://www.w3.org/2000/svg">
<path fill-rule="evenodd" clip-rule="evenodd" d="M0 26C0 11.6406 11.6406 0 26 0C40.3594 0 52 11.6406 52 26C52 40.3594 40.3594 52 26 52C11.6406 52 0 40.3594 0 26ZM18 16C16.8954 16 16 16.8954 16 18V34C16 35.1046 16.8954 36 18 36H20C21.1046 36 22 35.1046 22 34V18C22 16.8954 21.1046 16 20 16H18ZM32 16C30.8954 16 30 16.8954 30 18V34C30 35.1046 30.8954 36 32 36H34C35.1046 36 36 35.1046 36 34V18C36 16.8954 35.1046 16 34 16H32Z" fill="white"/>
</svg>
