<svg width="22" height="24" viewBox="0 0 22 24" fill="none" xmlns="http://www.w3.org/2000/svg">
<path d="M11.0342 23.976C10.9142 23.976 10.7703 23.976 10.6503 23.904C-0.000634044 20.3769 0.143331 12.2909 0.217712 6.4124V4.78081C0.217712 4.10897 0.74558 3.5811 1.41741 3.5811C1.4654 3.5811 6.97202 3.53312 10.144 0.341915C10.5999 -0.113972 11.3941 -0.113972 11.85 0.341915C15.0484 3.53312 20.5286 3.5811 20.5766 3.5811C21.2485 3.5811 21.7763 4.10897 21.7763 4.78081V6.4124C21.8747 12.2909 22.0187 20.3529 11.3701 23.928C11.2502 23.976 11.1302 24 10.9862 24L11.0342 23.976Z" fill="url(#paint0_linear_742_3580)"/>
<defs>
<linearGradient id="paint0_linear_742_3580" x1="11.0001" y1="0" x2="11.0001" y2="27.0897" gradientUnits="userSpaceOnUse">
<stop stop-color="#1FBCCB"/>
<stop offset="1" stop-color="#020C0D"/>
</linearGradient>
</defs>
</svg>
