<svg width="67" height="80" viewBox="0 0 67 80" fill="none" xmlns="http://www.w3.org/2000/svg">
<path fill-rule="evenodd" clip-rule="evenodd" d="M59.9509 63.4796L24.0785 74.0892C22.9826 74.4138 21.9323 73.4658 22.1625 72.3605L34.9777 10.9869C35.2174 9.83981 36.8038 9.65758 37.3044 10.7204L61.0325 61.1074C61.48 62.0579 60.9694 63.1788 59.9509 63.4796ZM66.1026 60.977L38.6287 2.63525V2.634C38.2873 1.91558 37.7579 1.30293 37.0966 0.861012C36.4352 0.419094 35.6666 0.164383 34.8723 0.123887C33.2003 0.0265281 31.7025 0.83286 30.8574 2.20525L1.06061 50.4666C0.607942 51.1956 0.372449 52.0386 0.381734 52.8966C0.391019 53.7547 0.644697 54.5924 1.11304 55.3114L15.6782 77.8737C16.5463 79.2205 18.0504 80 19.6137 80C20.0568 80 20.5024 79.9376 20.9406 79.8078L63.2193 67.3034C63.8558 67.117 64.4447 66.796 64.9465 66.3624C65.4482 65.9287 65.851 65.3923 66.1276 64.7896C66.4007 64.1903 66.5399 63.5387 66.5356 62.8802C66.5312 62.2217 66.3835 61.5726 66.1026 60.977Z" fill="url(#paint0_linear_542_221)"/>
<defs>
<linearGradient id="paint0_linear_542_221" x1="33.4586" y1="0.115967" x2="33.4586" y2="90.2841" gradientUnits="userSpaceOnUse">
<stop stop-color="#999999" stop-opacity="0.8"/>
<stop offset="1" stop-color="#020C0D"/>
</linearGradient>
</defs>
</svg>
