<svg width="162" height="62" viewBox="0 0 162 62" fill="none" xmlns="http://www.w3.org/2000/svg">
<path fill-rule="evenodd" clip-rule="evenodd" d="M101.009 17.6862C98.2595 18.3844 95.996 18.9855 93.6913 19.5975L93.691 19.5975C91.8533 20.0855 89.9893 20.5805 87.8321 21.1372L87.7024 21.1719C86.6483 21.4551 86.5384 21.4846 85.5575 20.3529C84.3811 19.0196 83.5183 18.1568 81.8713 17.3725C76.9301 14.9411 72.1458 15.647 67.6752 18.549C62.3419 22 59.5968 27.098 59.6752 33.4509C59.7536 39.7255 64.0673 44.9019 70.2634 45.7647C75.5968 46.4706 80.0673 44.5882 83.5968 40.5882C84.1203 39.9483 84.6007 39.2652 85.134 38.507L85.1342 38.5068C85.3198 38.2428 85.5119 37.9698 85.7144 37.6862H70.5772C68.9301 37.6862 68.5379 36.6666 69.087 35.3333C70.1066 32.9019 71.9889 28.8235 73.087 26.7843C73.3223 26.3137 73.8713 25.5294 75.0477 25.5294H100.289C101.423 21.9379 103.262 18.5443 105.716 15.3332C111.441 7.80382 118.343 3.88225 127.676 2.23519C135.676 0.823426 143.206 1.60774 150.029 6.23519C156.225 10.4705 160.069 16.196 161.088 23.7254C162.421 34.3136 159.363 42.9411 152.069 50.3136C146.892 55.5685 140.539 58.8626 133.245 60.3528C131.854 60.6105 130.462 60.7327 129.093 60.853C128.378 60.9158 127.67 60.978 126.97 61.0587C119.833 60.9019 113.323 58.8626 107.833 54.1568C103.971 50.8186 101.311 46.7158 99.9898 41.9394C99.0724 43.7923 97.9754 45.5668 96.6948 47.2549C91.0477 54.7058 83.6752 59.3333 74.3419 60.5882C66.6556 61.6078 59.5183 60.1176 53.2438 55.4117C47.4399 51.0196 44.1458 45.2156 43.283 38C42.2634 29.4509 44.7732 21.7647 49.9497 15.0196C55.5183 7.72546 62.8909 3.098 71.9105 1.45094C79.283 0.117609 86.3419 0.980355 92.6948 5.29408C96.8517 8.03918 99.8321 11.8039 101.793 16.3529C102.263 17.0588 101.95 17.4509 101.009 17.6862ZM12.4572 19.0982C12.1434 19.0982 12.065 18.9413 12.2219 18.706L13.8689 16.5884C14.0258 16.3531 14.4179 16.1962 14.7317 16.1962H42.7317C43.0454 16.1962 43.1238 16.4315 42.967 16.6668L41.6336 18.706C41.4768 18.9413 41.0846 19.1766 40.8493 19.1766L12.4572 19.0982ZM0.617315 26.3135C0.303589 26.3135 0.225157 26.1567 0.38202 25.9214L2.02908 23.8037C2.18594 23.5684 2.5781 23.4116 2.89182 23.4116H38.6565C38.9703 23.4116 39.1271 23.6469 39.0487 23.8821L38.4212 25.7645C38.3428 26.0782 38.0291 26.2351 37.7154 26.2351L0.617315 26.3135ZM19.3605 33.0589C19.2037 33.2942 19.2821 33.5295 19.5958 33.5295L36.6939 33.608C36.9292 33.608 37.2429 33.3727 37.2429 33.0589L37.3998 31.1766C37.3998 30.8629 37.2429 30.6276 36.9292 30.6276H21.2429C20.9292 30.6276 20.6154 30.8629 20.4586 31.0982L19.3605 33.0589ZM145.583 28.5337C145.598 28.7971 145.614 29.0748 145.637 29.3724C145.245 36.1175 141.872 41.1372 135.676 44.3528C131.52 46.4705 127.206 46.7058 122.892 44.8234C117.245 42.3136 114.265 36.1175 115.676 29.9999C117.402 22.6273 122.108 17.9999 129.402 16.3528C136.853 14.6273 143.99 19.0195 145.402 26.7842C145.513 27.3395 145.545 27.8949 145.583 28.5337Z" fill="url(#paint0_linear_671_94)"/>
<defs>
<linearGradient id="paint0_linear_671_94" x1="80.8479" y1="0.875" x2="80.8479" y2="68.8067" gradientUnits="userSpaceOnUse">
<stop stop-color="#999999" stop-opacity="0.8"/>
<stop offset="1" stop-color="#020C0D"/>
</linearGradient>
</defs>
</svg>
