<svg width="92" height="80" viewBox="0 0 92 80" fill="none" xmlns="http://www.w3.org/2000/svg">
<path fill-rule="evenodd" clip-rule="evenodd" d="M43.0782 15.9004L46.7982 9.02102L57.9584 0L77.0807 14.9918L74.6007 17.5228L77.9291 22.1307V27.0631L68.4006 34.851L52.4109 15.9004H43.0782ZM41.4176 18.4502L33.6485 31.8722L71.5952 75.9191L70.5036 79.952H87.9039L91.0501 65.5847L50.4709 18.4502H41.4176ZM30.9029 65.6016L28.7286 68.4079L33.6363 76.3165L33.1393 79.952H53.8883L55.3793 76.3165L46.9927 65.6016H30.9029ZM18.5818 45.8757H13.5273L0.0273438 62.6008V79.9523H14.487L17.0463 76.695L28.179 62.5382H44.3022L49.2287 55.1466L31.7619 34.851L18.5818 45.8757Z" fill="url(#paint0_linear_542_226)"/>
<defs>
<linearGradient id="paint0_linear_542_226" x1="45.5387" y1="0" x2="45.5387" y2="90.2452" gradientUnits="userSpaceOnUse">
<stop stop-color="#999999" stop-opacity="0.8"/>
<stop offset="1" stop-color="#020C0D"/>
</linearGradient>
</defs>
</svg>
