<svg width="69" height="80" viewBox="0 0 69 80" fill="none" xmlns="http://www.w3.org/2000/svg">
<path fill-rule="evenodd" clip-rule="evenodd" d="M58.6674 0.5647C57.9862 1.01883 57.9125 2.61206 57.8114 4.79834C57.6102 9.14912 57.3005 15.8485 51.8781 20.5931C46.7861 17.1985 40.6757 15.1617 34.2258 15.1617C27.776 15.1617 21.6656 17.1985 16.5737 20.2536C11.1493 15.7334 10.8413 8.9559 10.6401 4.52991C10.5391 2.30821 10.4651 0.679019 9.78437 0.225214C6.38971 -1.81158 0.279373 10.4092 0.958303 17.8774C1.29777 21.951 2.31612 28.0614 5.37131 32.8139C2.99505 37.2269 1.97666 41.9794 1.97666 47.4108C1.97666 65.4025 16.5737 79.9995 34.5653 79.9995C52.557 79.9995 67.154 65.4025 67.154 47.4108C67.154 42.3189 65.7961 37.2269 63.7593 32.8139C66.8145 28.0614 67.8329 21.951 68.1724 17.8774C68.1724 10.4092 62.062 -1.47209 58.6674 0.5647ZM28.1565 39.4382C27.1807 37.6091 27.8723 35.3353 29.7014 34.3594C31.5305 33.3836 33.8043 34.0752 34.7801 35.9043L45.2467 55.5221C46.2226 57.3512 45.5309 59.625 43.7018 60.6008C41.8728 61.5767 39.5989 60.885 38.6231 59.056L35.8513 53.8607L29.9472 59.9439C28.5034 61.4315 26.127 61.467 24.6393 60.0232C23.1517 58.5793 23.1162 56.2029 24.56 54.7153L31.195 47.8789C31.5093 47.5551 31.8679 47.3 32.2518 47.1141L28.1565 39.4382Z" fill="url(#paint0_linear_542_210)"/>
<defs>
<linearGradient id="paint0_linear_542_210" x1="34.5392" y1="-0.000488281" x2="34.5392" y2="90.2986" gradientUnits="userSpaceOnUse">
<stop stop-color="#999999" stop-opacity="0.8"/>
<stop offset="1" stop-color="#020C0D"/>
</linearGradient>
</defs>
</svg>
