<svg width="71" height="80" viewBox="0 0 71 80" fill="none" xmlns="http://www.w3.org/2000/svg">
<path d="M35.537 79.8516C34.4366 79.8516 33.4096 79.5581 32.456 79.0446L22.6992 73.2492C21.2321 72.4423 21.9657 72.1488 22.4058 72.0021C24.3865 71.3419 24.7533 71.1952 26.8073 70.0214C27.0274 69.8747 27.3208 69.9481 27.5409 70.0948L35.0235 74.5697C35.317 74.7164 35.6838 74.7164 35.9038 74.5697L65.174 57.6237C65.4674 57.477 65.6141 57.1835 65.6141 56.8168V22.9981C65.6141 22.6313 65.4674 22.3379 65.174 22.1912L35.9038 5.31855C35.6104 5.17183 35.2436 5.17183 35.0235 5.31855L5.75336 22.1912C5.45993 22.3379 5.31321 22.7047 5.31321 22.9981V56.8168C5.31321 57.1102 5.45993 57.477 5.75336 57.6237L13.7495 62.2453C18.0776 64.4461 20.7919 61.8785 20.7919 59.311V25.9325C20.7919 25.4923 21.1587 25.0522 21.6722 25.0522H25.4135C25.8537 25.0522 26.2938 25.419 26.2938 25.9325V59.311C26.2938 65.1063 23.1394 68.4809 17.6375 68.4809C15.9502 68.4809 14.6298 68.4809 10.8885 66.6469L3.18581 62.2453C1.27848 61.1449 0.104736 59.0909 0.104736 56.8901V23.0715C0.104736 20.8707 1.27848 18.8167 3.18581 17.7163L32.456 0.770272C34.2899 -0.256757 36.7841 -0.256757 38.6181 0.770272L67.8883 17.7163C69.7956 18.8167 70.9693 20.8707 70.9693 23.0715V56.8901C70.9693 59.0909 69.7956 61.1449 67.8883 62.2453L38.6181 79.1913C37.6644 79.6315 36.5641 79.8516 35.537 79.8516ZM44.5602 56.5967C31.7224 56.5967 29.0815 50.7279 29.0815 45.7395C29.0815 45.2993 29.4483 44.8592 29.9618 44.8592H33.7764C34.2166 44.8592 34.5834 45.1526 34.5834 45.5928C35.1702 49.4808 36.8575 51.3882 44.6335 51.3882C50.7957 51.3882 53.4366 49.9943 53.4366 46.6932C53.4366 44.7858 52.703 43.392 43.093 42.4383C35.0969 41.6314 30.1085 39.8708 30.1085 33.4885C30.1085 27.5464 35.0969 24.0252 43.4598 24.0252C52.8497 24.0252 57.4713 27.253 58.0582 34.2955C58.0582 34.5155 57.9848 34.7356 57.8381 34.9557C57.6914 35.1024 57.4713 35.2491 57.2512 35.2491H53.4366C53.0698 35.2491 52.703 34.9557 52.6296 34.5889C51.7493 30.5541 49.4752 29.2337 43.4598 29.2337C36.7108 29.2337 35.9038 31.5812 35.9038 33.3418C35.9038 35.4692 36.8575 36.1294 45.954 37.3032C54.9771 38.4769 59.2319 40.1642 59.2319 46.4731C59.1586 52.9287 53.8767 56.5967 44.5602 56.5967Z" fill="url(#paint0_linear_671_81)"/>
<defs>
<linearGradient id="paint0_linear_671_81" x1="35.537" y1="0" x2="35.537" y2="90.1315" gradientUnits="userSpaceOnUse">
<stop stop-color="#999999" stop-opacity="0.8"/>
<stop offset="1" stop-color="#020C0D"/>
</linearGradient>
</defs>
</svg>
