<svg width="34" height="34" viewBox="0 0 34 34" fill="none" xmlns="http://www.w3.org/2000/svg">
<path d="M17.0017 11.9997C15.6756 11.9997 14.4038 12.5265 13.4661 13.4641C12.5285 14.4018 12.0017 15.6736 12.0017 16.9997C12.0017 18.3258 12.5285 19.5975 13.4661 20.5352C14.4038 21.4729 15.6756 21.9997 17.0017 21.9997C18.3278 21.9997 19.5995 21.4729 20.5372 20.5352C21.4749 19.5975 22.0017 18.3258 22.0017 16.9997C22.0017 15.6736 21.4749 14.4018 20.5372 13.4641C19.5995 12.5265 18.3278 11.9997 17.0017 11.9997ZM17.0017 8.66634C19.2118 8.66634 21.3314 9.54431 22.8942 11.1071C24.457 12.6699 25.335 14.7895 25.335 16.9997C25.335 19.2098 24.457 21.3294 22.8942 22.8922C21.3314 24.455 19.2118 25.333 17.0017 25.333C14.7915 25.333 12.6719 24.455 11.1091 22.8922C9.54631 21.3294 8.66834 19.2098 8.66834 16.9997C8.66834 14.7895 9.54631 12.6699 11.1091 11.1071C12.6719 9.54431 14.7915 8.66634 17.0017 8.66634ZM27.835 8.24967C27.835 8.80221 27.6155 9.33211 27.2248 9.72281C26.8341 10.1135 26.3042 10.333 25.7517 10.333C25.1991 10.333 24.6692 10.1135 24.2785 9.72281C23.8878 9.33211 23.6683 8.80221 23.6683 8.24967C23.6683 7.69714 23.8878 7.16724 24.2785 6.77654C24.6692 6.38583 25.1991 6.16634 25.7517 6.16634C26.3042 6.16634 26.8341 6.38583 27.2248 6.77654C27.6155 7.16724 27.835 7.69714 27.835 8.24967ZM17.0017 3.66634C12.8783 3.66634 12.205 3.67801 10.2867 3.76301C8.98001 3.82467 8.10334 3.99967 7.29001 4.31634C6.60937 4.56624 5.99403 4.96678 5.49001 5.48801C4.96835 5.99201 4.56726 6.60731 4.31667 7.28801C4.00001 8.10467 3.82501 8.97967 3.76501 10.2847C3.67834 12.1247 3.66667 12.768 3.66667 16.9997C3.66667 21.1247 3.67834 21.7963 3.76334 23.7147C3.82501 25.0197 4.00001 25.898 4.31501 26.7097C4.59834 27.4347 4.93167 27.9563 5.48501 28.5097C6.04667 29.0697 6.56834 29.4047 7.28501 29.6813C8.10834 29.9997 8.98501 30.1763 10.285 30.2363C12.125 30.323 12.7683 30.333 17 30.333C21.125 30.333 21.7967 30.3213 23.715 30.2363C25.0183 30.1747 25.895 29.9997 26.71 29.6847C27.39 29.4335 28.0051 29.0332 28.51 28.513C29.0717 27.953 29.4067 27.4313 29.6833 26.713C30 25.893 30.1767 25.0163 30.2367 23.713C30.3233 21.8747 30.3333 21.2297 30.3333 16.9997C30.3333 12.8763 30.3217 12.203 30.2367 10.2847C30.175 8.98134 29.9983 8.10134 29.6833 7.28801C29.4321 6.60804 29.0318 5.99298 28.5117 5.48801C28.0079 4.96608 27.3925 4.56495 26.7117 4.31467C25.895 3.99801 25.0183 3.82301 23.715 3.76301C21.8767 3.67634 21.235 3.66634 17.0017 3.66634ZM17.0017 0.333008C21.53 0.333008 22.095 0.349674 23.8733 0.433008C25.6467 0.516341 26.8567 0.794675 27.9183 1.20801C29.0183 1.63134 29.945 2.20467 30.8717 3.12967C31.7192 3.96283 32.3749 4.97066 32.7933 6.08301C33.205 7.14467 33.485 8.35467 33.5683 10.1297C33.6467 11.9063 33.6683 12.4713 33.6683 16.9997C33.6683 21.528 33.6517 22.093 33.5683 23.8697C33.485 25.6447 33.205 26.853 32.7933 27.9163C32.3761 29.0293 31.7202 30.0373 30.8717 30.8697C30.0383 31.7169 29.0305 32.3726 27.9183 32.7913C26.8567 33.203 25.6467 33.483 23.8733 33.5663C22.095 33.6447 21.53 33.6663 17.0017 33.6663C12.4733 33.6663 11.9083 33.6497 10.13 33.5663C8.35667 33.483 7.14834 33.203 6.08501 32.7913C4.97222 32.3738 3.96422 31.7179 3.13167 30.8697C2.28406 30.0366 1.62827 29.0288 1.21001 27.9163C0.796674 26.8547 0.51834 25.6447 0.435007 23.8697C0.355007 22.093 0.335007 21.528 0.335007 16.9997C0.335007 12.4713 0.351674 11.9063 0.435007 10.1297C0.51834 8.35301 0.796674 7.14634 1.21001 6.08301C1.62707 4.96997 2.28301 3.96188 3.13167 3.12967C3.96446 2.28173 4.97239 1.62589 6.08501 1.20801C7.14667 0.794675 8.35501 0.516341 10.13 0.433008C11.9083 0.354674 12.4733 0.333008 17.0017 0.333008Z" fill="url(#paint0_linear_742_2414)"/>
<defs>
<linearGradient id="paint0_linear_742_2414" x1="17.0017" y1="0.333008" x2="17.0017" y2="37.9576" gradientUnits="userSpaceOnUse">
<stop stop-color="#999999" stop-opacity="0.8"/>
<stop offset="1" stop-color="#020C0D"/>
</linearGradient>
</defs>
</svg>
