<svg width="35" height="28" viewBox="0 0 35 28" fill="none" xmlns="http://www.w3.org/2000/svg">
<path d="M34.0199 3.42654C32.748 3.98921 31.3993 4.35884 30.0182 4.52321C31.4733 3.65177 32.5621 2.28111 33.0816 0.666544C31.7149 1.47988 30.2166 2.04988 28.6566 2.35821C27.6076 1.23584 26.2172 0.491483 24.7015 0.240852C23.1858 -0.00977848 21.6298 0.247363 20.2753 0.972299C18.9209 1.69724 17.8439 2.84935 17.2118 4.24953C16.5796 5.64971 16.4278 7.21951 16.7799 8.71488C14.0081 8.5762 11.2965 7.85609 8.82114 6.60132C6.34576 5.34654 4.16197 3.58516 2.41157 1.43154C1.79205 2.49563 1.4665 3.70526 1.46824 4.93654C1.46824 7.35321 2.6999 9.48821 4.56824 10.7382C3.46159 10.7033 2.37932 10.4045 1.41157 9.86654V9.95154C1.41152 11.5613 1.96829 13.1216 2.98746 14.3677C4.00662 15.6137 5.42543 16.4689 7.00324 16.7882C5.97597 17.0669 4.89873 17.1079 3.85324 16.9082C4.29811 18.2939 5.16526 19.5057 6.33323 20.3739C7.50121 21.2421 8.9115 21.7232 10.3666 21.7499C8.9205 22.8856 7.26471 23.7252 5.49392 24.2205C3.72312 24.7158 1.87205 24.8572 0.0465698 24.6365C3.23277 26.6855 6.94174 27.7733 10.7299 27.7699C23.5532 27.7699 30.5632 17.1482 30.5632 7.93654C30.5632 7.63654 30.5566 7.33321 30.5432 7.03488C31.9072 6.04881 33.0845 4.82581 34.0199 3.42654Z" fill="url(#paint0_linear_742_2412)"/>
<defs>
<linearGradient id="paint0_linear_742_2412" x1="17.0332" y1="0.147461" x2="17.0332" y2="31.3259" gradientUnits="userSpaceOnUse">
<stop stop-color="#999999" stop-opacity="0.8"/>
<stop offset="1" stop-color="#020C0D"/>
</linearGradient>
</defs>
</svg>
