<svg width="34" height="34" viewBox="0 0 34 34" fill="none" xmlns="http://www.w3.org/2000/svg">
<path d="M31.1167 0.333241H2.88333C2.56597 0.328833 2.25084 0.386987 1.95594 0.504381C1.66105 0.621774 1.39217 0.796109 1.16466 1.01743C0.937154 1.23875 0.75547 1.50271 0.629988 1.79426C0.504505 2.0858 0.437682 2.3992 0.433334 2.71657V31.2832C0.437682 31.6006 0.504505 31.914 0.629988 32.2056C0.75547 32.4971 0.937154 32.7611 1.16466 32.9824C1.39217 33.2037 1.66105 33.378 1.95594 33.4954C2.25084 33.6128 2.56597 33.671 2.88333 33.6666H31.1167C31.434 33.671 31.7492 33.6128 32.0441 33.4954C32.3389 33.378 32.6078 33.2037 32.8353 32.9824C33.0628 32.7611 33.2445 32.4971 33.37 32.2056C33.4955 31.914 33.5623 31.6006 33.5667 31.2832V2.71657C33.5623 2.3992 33.4955 2.0858 33.37 1.79426C33.2445 1.50271 33.0628 1.23875 32.8353 1.01743C32.6078 0.796109 32.3389 0.621774 32.0441 0.504381C31.7492 0.386987 31.434 0.328833 31.1167 0.333241ZM10.4833 28.2332H5.48333V13.2332H10.4833V28.2332ZM7.98333 11.1332C7.29377 11.1332 6.63245 10.8593 6.14486 10.3717C5.65726 9.88412 5.38333 9.2228 5.38333 8.53324C5.38333 7.84368 5.65726 7.18236 6.14486 6.69476C6.63245 6.20717 7.29377 5.93324 7.98333 5.93324C8.34949 5.89172 8.72029 5.928 9.07146 6.03971C9.42262 6.15143 9.74623 6.33606 10.0211 6.58151C10.296 6.82696 10.5159 7.12771 10.6665 7.46404C10.817 7.80038 10.8949 8.16473 10.8949 8.53324C10.8949 8.90175 10.817 9.2661 10.6665 9.60244C10.5159 9.93878 10.296 10.2395 10.0211 10.485C9.74623 10.7304 9.42262 10.9151 9.07146 11.0268C8.72029 11.1385 8.34949 11.1748 7.98333 11.1332ZM28.5167 28.2332H23.5167V20.1832C23.5167 18.1666 22.8 16.8499 20.9833 16.8499C20.4211 16.854 19.8736 17.0304 19.4147 17.3552C18.9558 17.68 18.6075 18.1377 18.4167 18.6666C18.2862 19.0583 18.2297 19.4709 18.25 19.8832V28.2166H13.25V13.2166H18.25V15.3332C18.7042 14.5451 19.3648 13.8958 20.1607 13.4552C20.9566 13.0147 21.8576 12.7997 22.7667 12.8332C26.1 12.8332 28.5167 14.9832 28.5167 19.5999V28.2332Z" fill="url(#paint0_linear_742_2416)"/>
<defs>
<linearGradient id="paint0_linear_742_2416" x1="17" y1="0.333008" x2="17" y2="37.9581" gradientUnits="userSpaceOnUse">
<stop stop-color="#999999" stop-opacity="0.8"/>
<stop offset="1" stop-color="#020C0D"/>
</linearGradient>
</defs>
</svg>
