<svg width="71" height="64" viewBox="0 0 71 64" fill="none" xmlns="http://www.w3.org/2000/svg">
<path d="M70.6424 32.007C70.6424 27.3561 64.818 22.9484 55.8881 20.2151C57.9488 11.1135 57.033 3.87231 52.9974 1.55399C52.0672 1.01018 50.9796 0.752592 49.7918 0.752592V3.94386C50.4501 3.94386 50.9796 4.07266 51.4232 4.31594C53.3694 5.43217 54.2138 9.68243 53.5555 15.1491C53.3981 16.4943 53.1405 17.911 52.8256 19.3564C50.0208 18.6695 46.9583 18.14 43.7384 17.7966C41.8064 15.1491 39.803 12.7449 37.7852 10.6412C42.4504 6.30512 46.8295 3.92955 49.8061 3.92955V0.738281C45.8707 0.738281 40.7188 3.54317 35.5098 8.40878C30.3007 3.57179 25.1489 0.795524 21.2134 0.795524V3.9868C24.1757 3.9868 28.5691 6.34805 33.2344 10.6556C31.2309 12.7592 29.2274 15.1491 27.3241 17.7966C24.0899 18.14 21.0274 18.6695 18.2225 19.3707C17.8934 17.9397 17.6501 16.5515 17.4784 15.2206C16.8058 9.75398 17.6358 5.50372 19.5677 4.37318C19.997 4.11559 20.5551 4.00111 21.2134 4.00111V0.809834C20.0113 0.809834 18.9237 1.06743 17.9792 1.61123C13.9579 3.92955 13.0564 11.1564 15.1314 20.2294C6.2302 22.977 0.434387 27.3704 0.434387 32.007C0.434387 36.658 6.25882 41.0657 15.1887 43.799C13.1279 52.9006 14.0438 60.1417 18.0794 62.4601C19.0096 63.0039 20.0972 63.2615 21.2993 63.2615C25.2347 63.2615 30.3866 60.4566 35.5956 55.591C40.8047 60.428 45.9565 63.2042 49.892 63.2042C51.0941 63.2042 52.1817 62.9466 53.1262 62.4028C57.1475 60.0845 58.049 52.8576 55.974 43.7847C64.8466 41.0513 70.6424 36.6437 70.6424 32.007ZM52.0099 22.4618C51.4804 24.3079 50.8221 26.2112 50.078 28.1145C49.4913 26.9697 48.8759 25.8248 48.2033 24.68C47.545 23.5351 46.8438 22.4189 46.1426 21.3313C48.1747 21.6318 50.1352 22.0039 52.0099 22.4618ZM45.4557 37.7027C44.3394 39.6346 43.1946 41.4664 42.0068 43.1693C39.8745 43.3554 37.7136 43.4555 35.5384 43.4555C33.3775 43.4555 31.2166 43.3554 29.0986 43.1836C27.9108 41.4807 26.7517 39.6632 25.6354 37.7456C24.5478 35.8709 23.5604 33.9676 22.6588 32.05C23.5461 30.1323 24.5478 28.2147 25.6211 26.34C26.7373 24.4081 27.8822 22.5763 29.07 20.8734C31.2023 20.6873 33.3632 20.5871 35.5384 20.5871C37.6993 20.5871 39.8602 20.6873 41.9782 20.859C43.166 22.562 44.3251 24.3795 45.4413 26.2971C46.529 28.1718 47.5164 30.0751 48.418 31.9927C47.5164 33.9103 46.529 35.828 45.4557 37.7027ZM50.078 35.8423C50.8508 37.7599 51.5091 39.6775 52.0529 41.5379C50.1782 41.9959 48.2033 42.3822 46.1569 42.6828C46.8581 41.5808 47.5593 40.4503 48.2176 39.2911C48.8759 38.1463 49.4913 36.9871 50.078 35.8423ZM35.567 51.1117C34.2361 49.7379 32.9052 48.2067 31.5886 46.5323C32.8766 46.5896 34.1932 46.6325 35.5241 46.6325C36.8693 46.6325 38.2002 46.6039 39.5024 46.5323C38.2145 48.2067 36.8836 49.7379 35.567 51.1117ZM24.9199 42.6828C22.8878 42.3822 20.9272 42.0102 19.0525 41.5522C19.582 39.7062 20.2403 37.8028 20.9845 35.8995C21.5712 37.0444 22.1866 38.1892 22.8592 39.3341C23.5318 40.4789 24.2187 41.5952 24.9199 42.6828ZM35.4955 12.9023C36.8263 14.2761 38.1572 15.8074 39.4738 17.4817C38.1859 17.4245 36.8693 17.3816 35.5384 17.3816C34.1932 17.3816 32.8623 17.4102 31.56 17.4817C32.848 15.8074 34.1789 14.2761 35.4955 12.9023ZM24.9056 21.3313C24.2044 22.4332 23.5031 23.5638 22.8448 24.7229C22.1866 25.8678 21.5712 27.0126 20.9845 28.1575C20.2117 26.2398 19.5534 24.3222 19.0096 22.4618C20.8843 22.0182 22.8592 21.6318 24.9056 21.3313ZM11.9545 39.2482C6.88849 37.0873 3.61135 34.2538 3.61135 32.007C3.61135 29.7603 6.88849 26.9124 11.9545 24.7658C13.1852 24.2363 14.5304 23.7641 15.9185 23.3205C16.7342 26.1254 17.8075 29.0447 19.1384 32.0357C17.8218 35.0123 16.7628 37.9173 15.9614 40.7079C14.5447 40.2643 13.1995 39.7777 11.9545 39.2482ZM19.6536 59.6981C17.7073 58.5819 16.863 54.3316 17.5213 48.865C17.6787 47.5198 17.9363 46.103 18.2511 44.6576C21.056 45.3445 24.1185 45.874 27.3384 46.2175C29.2703 48.865 31.2738 51.2691 33.2916 53.3728C28.6263 57.7089 24.2473 60.0845 21.2707 60.0845C20.6267 60.0702 20.0829 59.9414 19.6536 59.6981ZM53.5984 48.7934C54.271 54.2601 53.441 58.5103 51.5091 59.6409C51.0797 59.8985 50.5216 60.0129 49.8633 60.0129C46.901 60.0129 42.5077 57.6517 37.8424 53.3442C39.8459 51.2405 41.8494 48.8507 43.7527 46.2032C46.9869 45.8597 50.0494 45.3302 52.8543 44.629C53.1834 46.0744 53.441 47.4625 53.5984 48.7934ZM59.108 39.2482C57.8773 39.7777 56.5321 40.25 55.144 40.6936C54.3283 37.8887 53.255 34.9693 51.9241 31.9784C53.2406 29.0018 54.2996 26.0967 55.101 23.3062C56.5178 23.7498 57.863 24.2363 59.1223 24.7658C64.1883 26.9267 67.4654 29.7603 67.4654 32.007C67.4511 34.2538 64.174 37.1016 59.108 39.2482Z" fill="url(#paint0_linear_506_26)"/>
<path d="M35.5242 38.547C39.1361 38.547 42.0641 35.6189 42.0641 32.007C42.0641 28.3951 39.1361 25.467 35.5242 25.467C31.9122 25.467 28.9842 28.3951 28.9842 32.007C28.9842 35.6189 31.9122 38.547 35.5242 38.547Z" fill="url(#paint1_linear_506_26)"/>
<defs>
<linearGradient id="paint0_linear_506_26" x1="35.5384" y1="0.738281" x2="35.5384" y2="71.3106" gradientUnits="userSpaceOnUse">
<stop stop-color="#999999" stop-opacity="0.8"/>
<stop offset="1" stop-color="#020C0D"/>
</linearGradient>
<linearGradient id="paint1_linear_506_26" x1="35.5242" y1="25.467" x2="35.5242" y2="40.2308" gradientUnits="userSpaceOnUse">
<stop stop-color="#999999" stop-opacity="0.8"/>
<stop offset="1" stop-color="#020C0D"/>
</linearGradient>
</defs>
</svg>
